# Blender 4.5.1 LTS
# www.blender.org
o Cube
v -0.798512 2.429005 5.833230
v -1.732333 1.318946 5.957497
v -1.370702 1.788892 5.894172
v -1.549887 1.680621 5.889373
v -1.676875 1.515597 5.911609
v 0.589622 1.269879 6.441346
v -0.263340 2.417696 5.944750
v 0.565107 1.468220 6.378795
v 0.464352 1.638056 6.309100
v 0.302695 1.753530 6.242876
v -1.458166 -0.464214 5.593123
v -0.973291 -0.991398 5.844269
v -1.433651 -0.662556 5.655675
v -1.332896 -0.832391 5.725369
v -1.171239 -0.947866 5.791595
v -1.360318 0.784814 5.250223
v -0.794584 1.289797 5.218003
v -1.304860 0.981466 5.204335
v -1.177872 1.146489 5.182099
v -0.998687 1.254760 5.186898
v 0.476762 1.262931 5.482926
v 0.961637 0.735747 5.734072
v 0.674710 1.219398 5.535601
v 0.836367 1.103924 5.601827
v 0.937123 0.934088 5.671520
v 0.863789 -0.513281 6.076973
v 0.298055 -1.018264 6.109193
v 0.808331 -0.709933 6.122860
v 0.681343 -0.874956 6.145097
v 0.502158 -0.983227 6.140297
v -1.197737 -1.189800 5.775208
v -0.905351 -1.261009 5.855020
v -1.474064 -0.992416 5.662007
v -1.646290 -0.702108 5.542877
v -1.689479 -0.408462 5.448874
v -0.990487 1.455749 5.048914
v -0.687929 1.514386 5.093079
v -0.557014 1.204832 4.496342
v -0.826917 1.164927 4.463538
v -1.296776 1.270676 5.040711
v -1.092444 1.004484 4.456426
v -1.513841 0.988595 5.078721
v -1.280623 0.759942 4.489377
v -1.602819 0.697741 5.145183
v -1.348113 0.498685 4.541396
v 1.178978 0.931691 5.639850
v 1.222167 0.638045 5.733854
v 1.221869 0.444377 5.076930
v 1.191397 0.707704 5.004497
v 1.006753 1.221998 5.520721
v 1.042092 0.959377 4.901221
v 0.730426 1.419383 5.407519
v 0.802539 1.130494 4.803084
v 0.438040 1.490592 5.327708
v 0.543840 1.181569 4.725739
v 0.523176 -1.226166 6.133813
v 0.220617 -1.284803 6.089650
v 0.346043 -1.343299 5.418901
v 0.612282 -1.298132 5.469826
v 0.829464 -1.041093 6.142017
v 0.877809 -1.137689 5.476937
v 1.046530 -0.759012 6.104007
v 1.065988 -0.893147 5.443986
v 1.135508 -0.468159 6.037545
v 1.137142 -0.637152 5.373847
v -1.017173 -1.263699 5.130279
v -0.754810 -1.320035 5.189505
v -1.256727 -1.092582 5.032143
v -1.406033 -0.840909 4.928866
v -1.432839 -0.582843 4.838313
v -1.622788 -0.227854 5.906101
v -1.732333 1.318946 5.957497
v -1.694706 -0.018825 6.030890
v -1.740778 0.348534 6.084477
v -1.753991 0.818297 6.058705
v -1.258042 0.030322 6.427605
v -1.140605 -0.751172 6.162366
v -1.275855 -0.178642 6.445410
v -1.259792 -0.400538 6.401256
v -1.212299 -0.601583 6.301864
v -1.322234 0.052328 6.408235
v -1.598381 -0.426040 5.968859
v -1.491457 -0.039497 6.360907
v -1.603360 -0.162652 6.260787
v -1.640907 -0.298388 6.123118
v -1.318742 0.046442 6.410653
v -1.498114 -0.595175 6.039481
v -1.450781 -0.108071 6.389140
v -1.531235 -0.284263 6.311048
v -1.547856 -0.455312 6.188263
v -1.313139 0.042439 6.412945
v -1.337416 -0.709273 6.107529
v -1.385531 -0.154627 6.416038
v -1.415566 -0.366685 6.359081
v -1.398670 -0.561451 6.250747
v -0.084668 0.005528 6.672119
v 0.129677 -0.776510 6.429312
v -0.065070 -0.204112 6.697888
v -0.017453 -0.426349 6.660793
v 0.050933 -0.627348 6.566482
v 0.589622 1.269879 6.441346
v 0.694103 -0.269649 6.399580
v 0.567578 0.769782 6.543289
v 0.579693 0.301596 6.571148
v 0.624123 -0.063404 6.520685
v -0.027858 0.015279 6.680774
v 0.332941 -0.740270 6.462011
v 0.048043 -0.184593 6.715256
v 0.143263 -0.398366 6.685790
v 0.243306 -0.593494 6.596862
v -0.021647 0.019031 6.680935
v 0.511674 -0.631348 6.467671
v 0.120414 -0.140794 6.717258
v 0.271653 -0.320517 6.689483
v 0.409045 -0.492777 6.601840
v -0.017247 0.024752 6.680171
v 0.638595 -0.466229 6.445561
v 0.171721 -0.074104 6.708285
v 0.362716 -0.202125 6.673572
v 0.526661 -0.339821 6.581316
v -0.596261 0.976504 6.286698
vn -0.3273 0.9449 0.0094
vn -0.4402 0.1565 0.8842
vn -0.5839 0.7690 0.2601
vn -0.6432 0.7405 0.1949
vn -0.8359 0.4903 0.2466
vn 0.3935 0.1440 0.9080
vn 0.2328 0.9614 0.1470
vn 0.5228 0.4721 0.7098
vn 0.4279 0.7128 0.5557
vn 0.3798 0.7193 0.5817
vn -0.9367 0.0595 0.3452
vn -0.2533 -0.4634 0.8492
vn -0.8588 -0.1601 0.4866
vn -0.6781 -0.3566 0.6426
vn -0.4397 -0.4445 0.7804
vn -0.9361 0.2299 0.2661
vn -0.2104 0.9770 0.0354
vn -0.8662 0.4642 0.1848
vn -0.6613 0.7416 0.1125
vn -0.3593 0.9235 0.1344
vn 0.1965 0.9575 0.2113
vn 0.5723 0.2384 0.7846
vn 0.3047 0.8750 0.3761
vn 0.5034 0.6771 0.5368
vn 0.5753 0.4273 0.6975
vn 0.5349 0.1017 0.8388
vn -0.1143 -0.4458 0.8878
vn 0.4362 -0.0726 0.8969
vn 0.2776 -0.2559 0.9260
vn 0.0698 -0.3790 0.9228
vn -0.4839 -0.6437 0.5928
vn -0.2456 -0.6924 0.6784
vn -0.7487 -0.4623 0.4751
vn -0.9108 -0.1795 0.3717
vn -0.9464 0.0695 0.3154
vn -0.3616 0.9178 0.1641
vn -0.1155 0.9681 0.2225
vn 0.1331 0.3368 -0.9321
vn -0.0706 0.4118 -0.9085
vn -0.6544 0.7423 0.1444
vn -0.2966 0.2740 -0.9148
vn -0.8597 0.4731 0.1925
vn -0.4592 0.0687 -0.8857
vn -0.9332 0.2382 0.2691
vn -0.4078 -0.1460 -0.9013
vn 0.7297 0.4395 0.5237
vn 0.7570 0.2025 0.6213
vn 0.7719 -0.1646 -0.6141
vn 0.7960 0.0647 -0.6019
vn 0.5718 0.7164 0.3999
vn 0.6490 0.2555 -0.7166
vn 0.3028 0.9037 0.3026
vn 0.4582 0.4320 -0.7768
vn 0.0562 0.9644 0.2583
vn 0.2554 0.3969 -0.8816
vn 0.1805 -0.6578 0.7313
vn -0.0739 -0.6961 0.7142
vn 0.1765 -0.7813 -0.5987
vn 0.3510 -0.8122 -0.4660
vn 0.4774 -0.4882 0.7306
vn 0.5753 -0.6741 -0.4632
vn 0.6786 -0.2131 0.7029
vn 0.7366 -0.4658 -0.4904
vn 0.7438 0.0338 0.6676
vn 0.7174 -0.2985 -0.6295
vn -0.1907 -0.8160 -0.5457
vn 0.0319 -0.8331 -0.5522
vn -0.3843 -0.6607 -0.6449
vn -0.5285 -0.4487 -0.7206
vn -0.5000 -0.2548 -0.8277
vn -0.9397 -0.1404 -0.3119
vn -0.3371 0.0655 0.9392
vn -0.9886 -0.1196 -0.0919
vn -0.9882 -0.0308 0.1502
vn -0.9335 0.0971 0.3451
vn -0.2064 0.1827 0.9613
vn -0.2328 -0.7802 0.5806
vn -0.2400 -0.0625 0.9688
vn -0.2600 -0.3522 0.8991
vn -0.2554 -0.6109 0.7494
vn -0.2817 0.2294 0.9317
vn -0.9317 -0.3507 -0.0943
vn -0.5374 0.0917 0.8383
vn -0.8114 -0.0980 0.5762
vn -0.9443 -0.2622 0.1987
vn -0.2678 0.2041 0.9416
vn -0.7685 -0.6130 0.1833
vn -0.4666 0.0071 0.8845
vn -0.6617 -0.2471 0.7079
vn -0.7651 -0.4770 0.4326
vn -0.2352 0.1842 0.9543
vn -0.4866 -0.7583 0.4338
vn -0.3437 -0.0542 0.9375
vn -0.4414 -0.3409 0.8300
vn -0.4904 -0.5980 0.6340
vn -0.1882 0.1837 0.9648
vn -0.0626 -0.7573 0.6500
vn -0.1753 -0.0561 0.9829
vn -0.1463 -0.3364 0.9303
vn -0.1045 -0.5883 0.8018
vn -0.0421 0.0753 0.9963
vn 0.8426 -0.0358 0.5374
vn 0.5179 0.1387 0.8441
vn 0.6386 0.0517 0.7678
vn 0.7471 -0.0120 0.6646
vn -0.1606 0.1868 0.9692
vn 0.1826 -0.6759 0.7140
vn -0.0834 -0.0344 0.9959
vn 0.0125 -0.2868 0.9579
vn 0.1087 -0.5177 0.8487
vn -0.1288 0.2062 0.9700
vn 0.4794 -0.4892 0.7286
vn 0.0268 0.0342 0.9991
vn 0.2043 -0.1664 0.9647
vn 0.3671 -0.3549 0.8598
vn -0.1139 0.2298 0.9665
vn 0.7146 -0.2311 0.6603
vn 0.0925 0.1134 0.9892
vn 0.3392 -0.0252 0.9404
vn 0.5678 -0.1467 0.8100
vn -0.1908 0.2721 0.9432
vt 0.419379 0.556558
vt 0.419379 0.534914
vt 0.419379 0.465086
vt 0.419379 0.500000
vt 0.419379 0.693442
vt 0.419379 0.056558
vt 0.419379 0.034914
vt 0.419379 0.284914
vt 0.419379 0.250000
vt 0.419379 0.806558
vt 0.419379 0.784914
vt 0.419379 0.443442
vt 0.419379 0.306558
vt 0.419379 0.715085
vt 0.419379 0.750000
vt 0.419379 0.193442
vt 0.419379 0.215086
vt 0.419379 0.943442
vt 0.419379 0.965086
vt 0.419379 0.000000
vt 0.625000 0.284914
vt 0.625000 0.306558
vt 0.625000 0.250000
vt 0.625000 0.215086
vt 0.625000 0.193442
vt 0.625000 0.556558
vt 0.628736 0.534914
vt 0.639373 0.514373
vt 0.655294 0.499115
vt 0.661505 0.479947
vt 0.419379 1.000000
vt 0.375000 0.284914
vt 0.375000 0.250000
vt 0.375000 0.215086
vt 0.370832 0.534914
vt 0.358962 0.516038
vt 0.341198 0.503055
vt 0.341198 0.746945
vt 0.358962 0.733962
vt 0.370832 0.715086
vt 0.375000 0.965085
vt 0.375000 0.943442
vt 0.375000 1.000000
vt 0.375000 0.000000
vt 0.375000 0.034914
vt 0.375000 0.056558
vt 0.375000 0.193442
vt 0.181558 0.750000
vt 0.125000 0.693442
vt 0.324436 0.755995
vt 0.375000 0.306558
vt 0.324436 0.494005
vt 0.375000 0.693442
vt 0.375000 0.556558
vt 0.811100 0.697591
vt 0.825021 0.716501
vt 0.812437 0.719415
vt 0.835701 0.746567
vt 0.812794 0.750722
vt 0.626281 0.937358
vt 0.556563 0.964942
vt 0.557949 0.942704
vt 0.511229 0.965086
vt 0.511857 0.943442
vt 0.817417 0.696154
vt 0.832624 0.711368
vt 0.854443 0.736101
vt 0.625000 0.960933
vt 0.555642 0.998368
vt 0.510699 1.000000
vt 0.818080 0.695704
vt 0.837630 0.703879
vt 0.869921 0.716243
vt 0.625000 0.000000
vt 0.553130 0.035156
vt 0.554176 0.001363
vt 0.510429 0.034914
vt 0.510699 0.000000
vt 0.818519 0.695050
vt 0.873936 0.610276
vt 0.875000 0.693442
vt 0.625000 0.030309
vt 0.554148 0.066951
vt 0.510369 0.056558
vt 0.675170 0.699751
vt 0.674892 0.726523
vt 0.665163 0.721908
vt 0.661364 0.769617
vt 0.654110 0.749842
vt 0.582920 0.781895
vt 0.579332 0.761654
vt 0.528968 0.790036
vt 0.526688 0.769436
vt 0.674627 0.699231
vt 0.659436 0.715211
vt 0.640082 0.736050
vt 0.569006 0.740256
vt 0.519714 0.743445
vt 0.655626 0.706557
vt 0.674293 0.698496
vt 0.629246 0.716071
vt 0.561415 0.715203
vt 0.514900 0.715085
vt 0.618628 0.609313
vt 0.598807 0.661382
vt 0.555980 0.683091
vt 0.513168 0.693442
vt 0.680587 0.701521
vt 0.616274 0.141059
vt 0.745753 0.589772
vt 0.818442 0.500000
vt 0.840086 0.504305
vt 0.858434 0.516566
vt 0.870695 0.534914
vt 0.875000 0.556558
vt 0.125000 0.556558
vt 0.129305 0.534914
vt 0.141566 0.516566
vt 0.159914 0.504305
vt 0.181558 0.500000
vt 0.159914 0.745695
vt 0.141566 0.733434
vt 0.129305 0.715086
vt 0.625000 0.985345
vt 0.593719 0.093912
s 1
f 22/1/22 46/2/46 25/2/25
f 23/3/23 50/4/50 52/3/52
f 26/5/26 47/1/47 22/1/22
f 11/6/11 34/7/34 13/7/13
f 20/8/20 40/9/40 19/9/19
f 27/10/27 56/11/56 30/11/30
f 21/12/21 37/13/37 17/13/17
f 28/14/28 60/15/60 62/14/62
f 16/16/16 42/17/42 44/16/44
f 25/2/25 50/4/50 24/4/24
f 11/6/11 44/16/44 35/6/35
f 12/18/12 31/19/31 32/18/32
f 13/7/13 33/20/33 14/20/14
f 21/12/21 52/3/52 54/12/54
f 30/11/30 60/15/60 29/15/29
f 17/13/17 3/21/3 1/22/1
f 3/21/3 19/9/19 4/23/4
f 19/9/19 5/24/5 4/23/4
f 18/17/18 2/25/2 5/24/5
f 6/26/6 25/2/25 8/27/8
f 8/27/8 24/4/24 9/28/9
f 9/28/9 23/3/23 10/29/10
f 10/29/10 21/12/21 7/30/7
f 17/13/17 36/8/36 20/8/20
f 18/17/18 40/9/40 42/17/42
f 26/5/26 62/14/62 64/5/64
f 12/18/12 57/10/57 27/10/27
f 17/13/17 7/30/7 21/12/21
f 15/19/15 33/31/33 31/19/31
f 37/13/37 39/32/39 36/8/36
f 36/8/36 41/33/41 40/9/40
f 41/33/41 42/17/42 40/9/40
f 43/34/43 44/16/44 42/17/42
f 47/1/47 49/35/49 46/2/46
f 46/2/46 51/36/51 50/4/50
f 51/36/51 52/3/52 50/4/50
f 53/37/53 54/12/54 52/3/52
f 57/10/57 59/38/59 56/11/56
f 59/38/59 60/15/60 56/11/56
f 61/39/61 62/14/62 60/15/60
f 63/40/63 64/5/64 62/14/62
f 32/18/32 66/41/66 67/42/67
f 31/19/31 68/43/68 66/41/66
f 68/44/68 34/7/34 69/45/69
f 69/45/69 35/6/35 70/46/70
f 70/46/70 44/16/44 45/47/45
f 51/36/51 67/48/67 70/49/70
f 58/50/58 32/18/32 67/42/67
f 38/51/38 54/12/54 55/52/55
f 47/1/47 65/53/65 48/54/48
f 76/55/76 93/56/93 78/57/78
f 78/57/78 94/58/94 79/59/79
f 79/60/79 95/61/95 80/62/80
f 80/62/80 92/63/92 77/64/77
f 91/65/91 88/66/88 93/56/93
f 93/56/93 89/67/89 94/58/94
f 94/68/94 90/69/90 95/61/95
f 95/61/95 87/70/87 92/63/92
f 86/71/86 83/72/83 88/66/88
f 88/66/88 84/73/84 89/67/89
f 89/74/89 85/75/85 90/76/90
f 90/76/90 82/77/82 87/78/87
f 81/79/81 75/80/75 83/72/83
f 83/72/83 74/81/74 84/73/84
f 84/82/84 73/83/73 85/75/85
f 85/75/85 71/84/71 82/77/82
f 106/85/106 98/86/98 108/87/108
f 108/87/108 99/88/99 109/89/109
f 109/89/109 100/90/100 110/91/110
f 110/91/110 97/92/97 107/93/107
f 111/94/111 108/87/108 113/95/113
f 113/95/113 109/89/109 114/96/114
f 114/96/114 110/91/110 115/97/115
f 115/97/115 107/93/107 112/98/112
f 111/94/111 118/99/118 116/100/116
f 113/95/113 119/101/119 118/99/118
f 114/96/114 120/102/120 119/101/119
f 115/97/115 117/103/117 120/102/120
f 116/100/116 103/104/103 101/26/101
f 118/99/118 104/105/104 103/104/103
f 119/101/119 105/106/105 104/105/104
f 120/102/120 102/107/102 105/106/105
f 96/108/96 78/57/78 98/86/98
f 98/86/98 79/59/79 99/88/99
f 99/88/99 80/62/80 100/90/100
f 100/90/100 77/64/77 97/92/97
f 82/77/82 11/6/11 13/7/13
f 75/109/75 72/25/72 16/16/16
f 97/92/97 12/18/12 27/10/27
f 77/64/77 15/19/15 12/18/12
f 87/78/87 13/7/13 14/20/14
f 92/63/92 14/31/14 15/19/15
f 27/10/27 107/93/107 97/92/97
f 117/103/117 26/5/26 102/107/102
f 22/1/22 6/26/6 103/104/103
f 30/11/30 112/98/112 107/93/107
f 112/98/112 28/14/28 117/103/117
f 6/26/6 8/27/8 121/110/121
f 8/27/8 9/28/9 121/110/121
f 9/28/9 10/29/10 121/110/121
f 10/29/10 7/30/7 121/110/121
f 7/30/7 1/111/1 121/110/121
f 1/111/1 3/112/3 121/110/121
f 3/112/3 4/113/4 121/110/121
f 4/113/4 5/114/5 121/110/121
f 5/114/5 2/115/2 121/110/121
f 2/115/2 72/115/72 121/110/121
f 72/115/72 81/79/81 121/110/121
f 81/79/81 86/71/86 121/110/121
f 86/71/86 91/65/91 121/110/121
f 91/65/91 76/55/76 121/110/121
f 76/55/76 96/108/96 121/110/121
f 96/108/96 106/85/106 121/110/121
f 106/85/106 111/94/111 121/110/121
f 111/94/111 116/100/116 121/110/121
f 116/100/116 101/26/101 121/110/121
f 101/26/101 6/26/6 121/110/121
f 22/1/22 47/1/47 46/2/46
f 23/3/23 24/4/24 50/4/50
f 26/5/26 64/5/64 47/1/47
f 11/6/11 35/6/35 34/7/34
f 20/8/20 36/8/36 40/9/40
f 27/10/27 57/10/57 56/11/56
f 21/12/21 54/12/54 37/13/37
f 28/14/28 29/15/29 60/15/60
f 16/16/16 18/17/18 42/17/42
f 25/2/25 46/2/46 50/4/50
f 11/6/11 16/16/16 44/16/44
f 12/18/12 15/19/15 31/19/31
f 13/7/13 34/7/34 33/20/33
f 21/12/21 23/3/23 52/3/52
f 30/11/30 56/11/56 60/15/60
f 17/13/17 20/8/20 3/21/3
f 3/21/3 20/8/20 19/9/19
f 19/9/19 18/17/18 5/24/5
f 18/17/18 16/16/16 2/25/2
f 6/26/6 22/1/22 25/2/25
f 8/27/8 25/2/25 24/4/24
f 9/28/9 24/4/24 23/3/23
f 10/29/10 23/3/23 21/12/21
f 17/13/17 37/13/37 36/8/36
f 18/17/18 19/9/19 40/9/40
f 26/5/26 28/14/28 62/14/62
f 12/18/12 32/18/32 57/10/57
f 17/13/17 1/22/1 7/30/7
f 15/19/15 14/31/14 33/31/33
f 37/13/37 38/51/38 39/32/39
f 36/8/36 39/32/39 41/33/41
f 41/33/41 43/34/43 42/17/42
f 43/34/43 45/47/45 44/16/44
f 47/1/47 48/54/48 49/35/49
f 46/2/46 49/35/49 51/36/51
f 51/36/51 53/37/53 52/3/52
f 53/37/53 55/52/55 54/12/54
f 57/10/57 58/50/58 59/38/59
f 59/38/59 61/39/61 60/15/60
f 61/39/61 63/40/63 62/14/62
f 63/40/63 65/53/65 64/5/64
f 32/18/32 31/19/31 66/41/66
f 31/19/31 33/31/33 68/43/68
f 68/44/68 33/20/33 34/7/34
f 69/45/69 34/7/34 35/6/35
f 70/46/70 35/6/35 44/16/44
f 70/49/70 45/116/45 43/117/43
f 43/117/43 41/118/41 39/119/39
f 39/119/39 38/120/38 55/52/55
f 55/52/55 53/37/53 51/36/51
f 51/36/51 49/35/49 48/54/48
f 48/54/48 65/53/65 63/40/63
f 63/40/63 61/39/61 59/38/59
f 59/38/59 58/50/58 67/48/67
f 67/48/67 66/121/66 68/122/68
f 68/122/68 69/123/69 70/49/70
f 70/49/70 43/117/43 39/119/39
f 39/119/39 55/52/55 51/36/51
f 51/36/51 48/54/48 63/40/63
f 63/40/63 59/38/59 67/48/67
f 67/48/67 68/122/68 70/49/70
f 70/49/70 39/119/39 51/36/51
f 51/36/51 63/40/63 67/48/67
f 58/50/58 57/10/57 32/18/32
f 38/51/38 37/13/37 54/12/54
f 47/1/47 64/5/64 65/53/65
f 76/55/76 91/65/91 93/56/93
f 78/57/78 93/56/93 94/58/94
f 79/60/79 94/68/94 95/61/95
f 80/62/80 95/61/95 92/63/92
f 91/65/91 86/71/86 88/66/88
f 93/56/93 88/66/88 89/67/89
f 94/68/94 89/124/89 90/69/90
f 95/61/95 90/69/90 87/70/87
f 86/71/86 81/79/81 83/72/83
f 88/66/88 83/72/83 84/73/84
f 89/74/89 84/82/84 85/75/85
f 90/76/90 85/75/85 82/77/82
f 81/79/81 72/115/72 75/80/75
f 83/72/83 75/80/75 74/81/74
f 84/82/84 74/125/74 73/83/73
f 85/75/85 73/83/73 71/84/71
f 106/85/106 96/108/96 98/86/98
f 108/87/108 98/86/98 99/88/99
f 109/89/109 99/88/99 100/90/100
f 110/91/110 100/90/100 97/92/97
f 111/94/111 106/85/106 108/87/108
f 113/95/113 108/87/108 109/89/109
f 114/96/114 109/89/109 110/91/110
f 115/97/115 110/91/110 107/93/107
f 111/94/111 113/95/113 118/99/118
f 113/95/113 114/96/114 119/101/119
f 114/96/114 115/97/115 120/102/120
f 115/97/115 112/98/112 117/103/117
f 116/100/116 118/99/118 103/104/103
f 118/99/118 119/101/119 104/105/104
f 119/101/119 120/102/120 105/106/105
f 120/102/120 117/103/117 102/107/102
f 96/108/96 76/55/76 78/57/78
f 98/86/98 78/57/78 79/59/79
f 99/88/99 79/60/79 80/62/80
f 100/90/100 80/62/80 77/64/77
f 82/77/82 71/84/71 11/6/11
f 16/16/16 11/6/11 71/84/71
f 71/84/71 73/83/73 74/125/74
f 16/16/16 71/84/71 74/125/74
f 16/16/16 74/125/74 75/109/75
f 72/25/72 2/25/2 16/16/16
f 97/92/97 77/64/77 12/18/12
f 77/64/77 92/63/92 15/19/15
f 87/78/87 82/77/82 13/7/13
f 92/63/92 87/70/87 14/31/14
f 27/10/27 30/11/30 107/93/107
f 117/103/117 28/14/28 26/5/26
f 103/104/103 104/105/104 105/106/105
f 105/106/105 102/107/102 26/5/26
f 103/104/103 105/106/105 26/5/26
f 103/104/103 26/5/26 22/1/22
f 6/26/6 101/26/101 103/104/103
f 30/11/30 29/15/29 112/98/112
f 112/98/112 29/15/29 28/14/28
