# Blender 4.5.3 LTS
# www.blender.org
o Cylinder
v 0.096305 0.652408 6.627898
v 0.377205 0.998885 8.627979
v 0.222767 0.644963 6.609251
v 0.570814 0.987487 8.599430
v 0.345360 0.612723 6.591173
v 0.758502 0.938129 8.571753
v 0.459377 0.556927 6.574358
v 0.933059 0.852706 8.546011
v 0.560433 0.479719 6.559455
v 1.087774 0.734502 8.523193
v 0.644646 0.384066 6.547034
v 1.216702 0.588060 8.504177
v 0.708779 0.273644 6.537574
v 1.314889 0.419006 8.489695
v 0.750369 0.152698 6.531437
v 1.378561 0.233839 8.480299
v 0.767815 0.025872 6.528860
v 1.405272 0.039673 8.476355
v 0.760450 -0.101956 6.529942
v 1.393995 -0.156029 8.478010
v 0.728553 -0.225876 6.534641
v 1.345164 -0.345748 8.485205
v 0.673354 -0.341125 6.542776
v 1.260654 -0.522192 8.497660
v 0.596971 -0.443274 6.554036
v 1.143713 -0.678581 8.514896
v 0.502341 -0.528398 6.567986
v 0.998837 -0.808904 8.536255
v 0.393100 -0.593226 6.584092
v 0.831591 -0.908153 8.560913
v 0.273447 -0.635266 6.601734
v 0.648404 -0.972514 8.587921
v 0.147978 -0.652901 6.620234
v 0.456315 -0.999515 8.616245
v 0.021517 -0.645457 6.638881
v 0.262707 -0.988117 8.644794
v -0.101077 -0.613216 6.656959
v 0.075018 -0.938759 8.672470
v -0.215093 -0.557420 6.673773
v -0.099538 -0.853336 8.698212
v -0.316149 -0.480212 6.688677
v -0.254254 -0.735132 8.721029
v -0.400362 -0.384560 6.701097
v -0.383182 -0.588689 8.740046
v -0.464495 -0.274138 6.710558
v -0.481369 -0.419636 8.754530
v -0.506085 -0.153191 6.716695
v -0.545041 -0.234468 8.763924
v -0.523531 -0.026366 6.719272
v -0.571752 -0.040303 8.767870
v -0.516166 0.101463 6.718190
v -0.560474 0.155399 8.766214
v -0.484270 0.225382 6.713491
v -0.511643 0.345118 8.759020
v -0.429070 0.340632 6.705356
v -0.427134 0.521562 8.746565
v -0.352687 0.442781 6.694096
v -0.310193 0.677951 8.729326
v -0.258058 0.527905 6.680146
v -0.165316 0.808274 8.707968
v -0.148816 0.592732 6.664040
v 0.001929 0.907523 8.683311
v -0.029163 0.634772 6.646398
v 0.185116 0.971884 8.656301
v 0.003326 0.683294 6.946867
v -0.125472 0.638042 6.965857
v -0.243062 0.568260 6.983193
v -0.344924 0.476630 6.998210
v -0.427145 0.366673 7.010330
v -0.486563 0.242617 7.019087
v -0.520896 0.109226 7.024145
v -0.528826 -0.028372 7.025310
v -0.510045 -0.164890 7.022536
v -0.465277 -0.295081 7.015930
v -0.396243 -0.413942 7.005747
v -0.305593 -0.516905 6.992377
v -0.196813 -0.600014 6.976334
v -0.074084 -0.660075 6.958235
v 0.057880 -0.694778 6.938776
v 0.194006 -0.702793 6.918703
v 0.329064 -0.683808 6.898789
v 0.457862 -0.638556 6.879799
v 0.575452 -0.568774 6.862462
v 0.677314 -0.477144 6.847445
v 0.759535 -0.367187 6.835325
v 0.818954 -0.243130 6.826568
v 0.853287 -0.109740 6.821510
v 0.861216 0.027859 6.820345
v 0.842435 0.164377 6.823120
v 0.797668 0.294567 6.829725
v 0.728633 0.413428 6.839909
v 0.637983 0.516391 6.853279
v 0.529203 0.599501 6.869321
v 0.406474 0.659561 6.887420
v 0.274511 0.694265 6.906880
v 0.138384 0.702279 6.926952
v 0.054777 1.690798 6.631138
v 0.382442 1.671508 6.582822
v 0.700086 1.587973 6.535982
v 0.995504 1.443404 6.492417
v 1.257343 1.243356 6.453801
v 1.475541 0.995517 6.421618
v 1.641712 0.709412 6.397106
v 1.749470 0.396035 6.381206
v 1.794676 0.067429 6.374529
v 1.775591 -0.263778 6.377332
v 1.692948 -0.584858 6.389507
v 1.549925 -0.883470 6.410586
v 1.352015 -1.148142 6.439760
v 1.106826 -1.368701 6.475906
v 0.823781 -1.536670 6.517636
v 0.513756 -1.645595 6.563347
v 0.188664 -1.691291 6.611281
v -0.139000 -1.672001 6.659597
v -0.456644 -1.588466 6.706437
v -0.752062 -1.443898 6.750002
v -1.013901 -1.243849 6.788619
v -1.232100 -0.996011 6.820801
v -1.398271 -0.709906 6.845313
v -1.506029 -0.396529 6.861213
v -1.551235 -0.067922 6.867890
v -1.532149 0.263285 6.865087
v -1.449507 0.584364 6.852912
v -1.306483 0.882977 6.831833
v -1.108573 1.147648 6.802660
v -0.863385 1.368207 6.766513
v -0.580339 1.536176 6.724783
v -0.270314 1.645102 6.679072
v 0.035178 1.689842 6.497957
v 0.362656 1.670562 6.449668
v 0.680120 1.587076 6.402854
v 0.975370 1.442589 6.359314
v 1.237061 1.242655 6.320720
v 1.455134 0.994956 6.288556
v 1.621212 0.709014 6.264058
v 1.728909 0.395814 6.248167
v 1.774089 0.067395 6.241493
v 1.755014 -0.263624 6.244295
v 1.672419 -0.584521 6.256463
v 1.529475 -0.882964 6.277530
v 1.331680 -1.147486 6.306687
v 1.086630 -1.367919 6.342813
v 0.803745 -1.535793 6.384519
v 0.493895 -1.644656 6.430204
v 0.168989 -1.690326 6.478111
v -0.158489 -1.671047 6.526399
v -0.475953 -1.587560 6.573213
v -0.771203 -1.443072 6.616754
v -1.032894 -1.243139 6.655347
v -1.250967 -0.995441 6.687511
v -1.417045 -0.709498 6.712010
v -1.524742 -0.396299 6.727901
v -1.569922 -0.067879 6.734574
v -1.550847 0.263139 6.731773
v -1.468252 0.584037 6.719604
v -1.325308 0.882480 6.698537
v -1.127513 1.147002 6.669381
v -0.882463 1.367434 6.633255
v -0.599578 1.535308 6.591548
v -0.289728 1.644172 6.545864
v 0.091750 0.723892 6.616618
v 0.232062 0.715631 6.595929
v 0.283806 0.764933 6.893558
v 0.368083 0.679860 6.575871
v 0.429197 0.726698 6.872118
v 0.494588 0.617953 6.557215
v 0.564415 0.660526 6.852178
v 0.606712 0.532289 6.540679
v 0.684263 0.568961 6.834502
v 0.700149 0.426160 6.526898
v 0.784135 0.455521 6.819772
v 0.771307 0.303643 6.516401
v 0.860195 0.324566 6.808552
v 0.817450 0.169449 6.509593
v 0.909518 0.181128 6.801274
v 0.836809 0.028734 6.506733
v 0.930209 0.030720 6.798218
v 0.828635 -0.113095 6.507934
v 0.921474 -0.120879 6.799501
v 0.793247 -0.250588 6.513147
v 0.883647 -0.267842 6.805074
v 0.732001 -0.378460 6.522173
v 0.818182 -0.404523 6.814723
v 0.647253 -0.491798 6.534666
v 0.727596 -0.525667 6.828075
v 0.542258 -0.586245 6.550145
v 0.615369 -0.626620 6.844620
v 0.421052 -0.658173 6.568015
v 0.485814 -0.703503 6.863721
v 0.288293 -0.704816 6.587589
v 0.343910 -0.753360 6.884644
v 0.149083 -0.724385 6.608115
v 0.195111 -0.774275 6.906583
v 0.008771 -0.716124 6.628805
v 0.045135 -0.765446 6.928699
v -0.127250 -0.680353 6.648863
v -0.100257 -0.727211 6.950138
v -0.253755 -0.618446 6.667518
v -0.235475 -0.661039 6.970078
v -0.365879 -0.532781 6.684054
v -0.355323 -0.569474 6.987754
v -0.459316 -0.426652 6.697835
v -0.455195 -0.456034 7.002484
v -0.530473 -0.304136 6.708332
v -0.531255 -0.325079 7.013704
v -0.576617 -0.169941 6.715141
v -0.580578 -0.181641 7.020982
v -0.595976 -0.029226 6.718000
v -0.601269 -0.031233 7.024038
v -0.587802 0.112602 6.716800
v -0.592533 0.120366 7.022755
v -0.552414 0.250095 6.711586
v -0.554707 0.267329 7.017182
v -0.491168 0.377968 6.702560
v -0.489242 0.404009 7.007534
v -0.406419 0.491305 6.690067
v -0.398656 0.525154 6.994181
v -0.301425 0.585752 6.674589
v -0.286429 0.626107 6.977636
v -0.180219 0.657680 6.656719
v -0.156874 0.702990 6.958535
v -0.047460 0.704323 6.637145
v -0.014970 0.752847 6.937613
v 0.133829 0.773762 6.915673
vn 0.0597 0.7828 0.6194
vn 0.2108 0.7893 0.5766
vn 0.0561 0.7984 0.5994
vn 0.2114 0.7738 0.5971
vn 0.3608 0.7499 0.5545
vn 0.3584 0.7352 0.5754
vn 0.5003 0.6816 0.5339
vn 0.4952 0.6683 0.5552
vn 0.6239 0.5872 0.5157
vn 0.6163 0.5757 0.5373
vn 0.7269 0.4702 0.5005
vn 0.7174 0.4609 0.5224
vn 0.8054 0.3351 0.4889
vn 0.7943 0.3285 0.5111
vn 0.8563 0.1871 0.4814
vn 0.8442 0.1834 0.5037
vn 0.8776 0.0319 0.4783
vn 0.8651 0.0313 0.5006
vn 0.8686 -0.1245 0.4796
vn 0.8562 -0.1220 0.5020
vn 0.8296 -0.2761 0.4854
vn 0.8180 -0.2707 0.5075
vn 0.7621 -0.4171 0.4953
vn 0.7518 -0.4089 0.5173
vn 0.6686 -0.5420 0.5091
vn 0.6602 -0.5314 0.5308
vn 0.5528 -0.6462 0.5261
vn 0.5467 -0.6335 0.5476
vn 0.4192 -0.7255 0.5459
vn 0.4157 -0.7113 0.5669
vn 0.2728 -0.7769 0.5674
vn 0.1216 -0.7828 0.6102
vn 0.1193 -0.7985 0.5901
vn -0.0354 -0.7894 0.6129
vn -0.0300 -0.7739 0.6326
vn -0.1854 -0.7499 0.6350
vn -0.1771 -0.7352 0.6543
vn -0.3249 -0.6817 0.6556
vn -0.3138 -0.6683 0.6745
vn -0.4485 -0.5872 0.6738
vn -0.4350 -0.5757 0.6923
vn -0.5515 -0.4702 0.6890
vn -0.5360 -0.4610 0.7072
vn -0.6300 -0.3351 0.7006
vn -0.6130 -0.3285 0.7185
vn -0.6809 -0.1871 0.7081
vn -0.6628 -0.1835 0.7259
vn -0.7022 -0.0320 0.7112
vn -0.6838 -0.0313 0.7290
vn -0.6932 0.1244 0.7099
vn -0.6749 0.1220 0.7277
vn -0.6542 0.2760 0.7042
vn -0.6367 0.2706 0.7221
vn -0.5867 0.4170 0.6942
vn -0.5705 0.4088 0.7123
vn -0.4932 0.5420 0.6804
vn -0.4789 0.5314 0.6988
vn -0.3774 0.6461 0.6634
vn -0.3654 0.6334 0.6821
vn -0.2438 0.7254 0.6437
vn -0.2343 0.7112 0.6627
vn -0.0974 0.7769 0.6221
vn -0.0908 0.7616 0.6416
vn 0.9075 0.4176 -0.0439
vn -0.6036 -0.3589 -0.7119
vn -0.6635 -0.2558 -0.7031
vn 0.9863 -0.1551 -0.0556
vn -0.6233 -0.0293 0.7814
vn 0.9976 0.0398 -0.0572
vn -0.2178 0.9683 0.1220
vn 0.1284 -0.7307 0.6706
vn 0.2689 -0.7109 0.6499
vn -0.9450 -0.2332 0.2292
vn 0.7562 0.3066 0.5780
vn -0.8816 -0.4177 0.2198
vn 0.5927 -0.8054 0.0024
vn -0.4320 0.4959 0.7533
vn 0.7368 -0.6758 -0.0188
vn 0.6811 0.7321 -0.0107
vn -0.2780 -0.6238 0.7305
vn 0.5272 0.8496 0.0121
vn -0.8276 0.5198 0.2119
vn 0.7784 -0.2526 0.5747
vn -0.9118 0.3441 0.2243
vn -0.3274 -0.9347 0.1381
vn 0.2122 0.7223 0.6583
vn -0.1405 -0.9839 0.1105
vn 0.9710 0.2332 -0.0533
vn -0.6038 -0.1712 0.7786
vn 0.4028 -0.6638 0.6301
vn -0.4002 0.9042 0.1489
vn 0.6844 0.4302 0.5886
vn -0.7838 -0.5861 0.2054
vn -0.5176 0.3816 0.7659
vn 0.8535 -0.5198 -0.0360
vn -0.1504 -0.6862 0.7117
vn 0.3534 0.9347 0.0378
vn 0.8141 -0.1139 0.5695
vn -0.9604 0.1551 0.2315
vn 0.2437 -0.9684 0.0539
vn 0.0706 0.7306 0.6791
vn -0.0699 0.7108 0.6999
vn -0.5572 -0.3066 0.7717
vn 0.0524 -0.9952 0.0821
vn 0.5251 -0.5913 0.6121
vn -0.5668 0.8054 0.1735
vn 0.5902 0.5373 0.6025
vn -0.6556 -0.7317 0.1865
vn -0.5794 0.2526 0.7750
vn 0.9377 -0.3441 -0.0484
vn 0.1664 0.9839 0.0653
vn -0.0131 -0.7223 0.6915
vn 0.8223 0.0292 0.5683
vn -0.9716 -0.0398 0.2331
vn -0.2038 0.6638 0.7196
vn 0.4262 -0.9042 0.0270
vn -0.4854 -0.4302 0.7611
vn 0.8097 0.5861 -0.0295
vn 0.6311 -0.4960 0.5965
vn -0.7110 0.6757 0.1948
vn 0.4770 0.6237 0.6192
vn -0.5013 -0.8496 0.1637
vn -0.6151 0.1138 0.7802
vn -0.0264 0.9952 0.0938
vn 0.8028 0.1712 0.5712
vn -0.3261 0.5912 0.7376
vn -0.3911 -0.5373 0.7472
vn 0.7166 -0.3816 0.5839
vn 0.3494 0.6862 0.6380
vn 0.2741 0.6188 -0.7361
vn 0.1475 0.6808 -0.7175
vn 0.0676 -0.7053 -0.7057
vn -0.7981 -0.1698 -0.5780
vn -0.2684 0.7053 -0.6561
vn 0.5118 -0.3786 -0.7712
vn -0.6807 -0.4268 -0.5954
vn -0.5872 -0.5330 -0.6092
vn -0.5227 0.5866 -0.6187
vn 0.5973 0.1699 -0.7838
vn -0.0717 -0.7248 -0.6852
vn -0.7739 0.2506 -0.5816
vn -0.8093 0.1130 -0.5764
vn 0.3864 0.5331 -0.7527
vn 0.4269 -0.4920 -0.7587
vn -0.7519 -0.3042 -0.5849
vn -0.4013 0.6586 -0.6365
vn 0.6167 0.0290 -0.7867
vn -0.2122 -0.7166 -0.6645
vn 0.4799 0.4268 -0.7665
vn 0.3219 -0.5866 -0.7432
vn 0.0114 0.7166 -0.6974
vn -0.1291 0.7249 -0.6767
vn 0.5731 -0.2506 -0.7803
vn 0.6085 -0.1129 -0.7855
vn -0.4749 -0.6188 -0.6257
vn -0.3483 -0.6808 -0.6444
vn -0.7126 0.3786 -0.5906
vn 0.2005 -0.6585 -0.7253
vn -0.6278 0.4921 -0.6031
vn 0.5511 0.3042 -0.7770
vn -0.8175 -0.0290 -0.5752
vn 0.4251 -0.7507 0.5057
vn 0.2395 -0.4933 -0.8363
vn 0.1147 -0.8263 0.5514
vn 0.2736 -0.8040 0.5280
vn 0.2938 0.4483 -0.8442
vn -0.4707 0.4933 -0.7315
vn -0.3687 0.5539 -0.7466
vn -0.5249 -0.4483 -0.7235
vn -0.0454 -0.8169 0.5750
vn 0.3279 -0.4138 -0.8493
vn -0.2006 -0.7760 0.5979
vn 0.1994 0.5204 -0.8303
vn -0.5591 0.4138 -0.7185
vn -0.3449 -0.7054 0.6192
vn -0.5795 -0.4866 0.6538
vn -0.4728 -0.6077 0.6381
vn 0.3992 -0.3183 -0.8598
vn -0.0216 0.6026 -0.7977
vn 0.0929 0.5725 -0.8146
vn -0.7133 -0.1936 0.6736
vn -0.6607 -0.3468 0.6658
vn -0.4306 -0.5204 -0.7375
vn -0.7354 -0.0331 0.6768
vn 0.4806 -0.0950 -0.8718
vn 0.4508 -0.2107 -0.8674
vn -0.6304 0.3184 -0.7080
vn -0.1397 0.6096 -0.7803
vn -0.7261 0.1287 0.6755
vn -0.2096 -0.6026 -0.7700
vn -0.3241 -0.5725 -0.7532
vn -0.6857 0.2856 0.6695
vn 0.4875 0.0244 -0.8728
vn 0.0493 0.8263 0.5611
vn -0.1095 0.8039 0.5846
vn -0.2569 0.5931 -0.7630
vn -0.2610 0.7507 0.6069
vn -0.3993 0.6686 0.6273
vn -0.5191 0.5609 0.6450
vn -0.6158 0.4315 0.6592
vn -0.6820 0.2108 -0.7004
vn -0.7117 0.0950 -0.6960
vn -0.7186 -0.0244 -0.6950
vn -0.7023 -0.1428 -0.6974
vn -0.0915 -0.6095 -0.7875
vn 0.0257 -0.5931 -0.8047
vn 0.1375 -0.5538 -0.8212
vn 0.5634 -0.6687 0.4853
vn 0.6832 -0.5609 0.4676
vn 0.7799 -0.4316 0.4534
vn 0.8498 -0.2857 0.4431
vn 0.8901 -0.1288 0.4371
vn 0.8995 0.0330 0.4358
vn 0.8774 0.1936 0.4390
vn 0.4712 0.1429 -0.8704
vn 0.8247 0.3467 0.4468
vn 0.4323 0.2558 -0.8647
vn 0.7435 0.4865 0.4588
vn 0.3724 0.3590 -0.8558
vn 0.6369 0.6076 0.4745
vn 0.5090 0.7054 0.4934
vn 0.3646 0.7760 0.5146
vn 0.2094 0.8168 0.5375
vn 0.2721 -0.7617 0.5880
vt 0.993704 0.825947
vt 0.963480 0.415959
vt 0.993704 0.415959
vt 0.963480 0.825947
vt 0.933257 0.415959
vt 0.933257 0.825947
vt 0.903034 0.415959
vt 0.903034 0.825947
vt 0.872811 0.415959
vt 0.872811 0.825947
vt 0.842587 0.415959
vt 0.842587 0.825947
vt 0.812364 0.415959
vt 0.812364 0.825947
vt 0.782141 0.415959
vt 0.782141 0.825947
vt 0.751917 0.415959
vt 0.751917 0.825947
vt 0.721694 0.415959
vt 0.721694 0.825947
vt 0.691471 0.415959
vt 0.691471 0.825947
vt 0.661248 0.415959
vt 0.661248 0.825947
vt 0.631024 0.415959
vt 0.631024 0.825947
vt 0.600801 0.415959
vt 0.600801 0.825947
vt 0.570578 0.415959
vt 0.570578 0.825947
vt 0.540354 0.415959
vt 0.510131 0.825947
vt 0.510131 0.415959
vt 0.479908 0.415959
vt 0.479908 0.825947
vt 0.449685 0.415959
vt 0.449685 0.825947
vt 0.419461 0.415959
vt 0.419461 0.825947
vt 0.389238 0.415959
vt 0.389238 0.825947
vt 0.359015 0.415959
vt 0.359015 0.825947
vt 0.328792 0.415959
vt 0.328792 0.825947
vt 0.298568 0.415959
vt 0.298568 0.825947
vt 0.268345 0.415959
vt 0.268345 0.825947
vt 0.238122 0.415959
vt 0.238122 0.825947
vt 0.207898 0.415959
vt 0.207898 0.825947
vt 0.177675 0.415959
vt 0.177675 0.825947
vt 0.147452 0.415959
vt 0.147452 0.825947
vt 0.117229 0.415959
vt 0.117229 0.825947
vt 0.087005 0.415959
vt 0.162185 0.528921
vt 0.475760 0.658808
vt 0.345873 0.972383
vt 0.087005 0.825947
vt 0.056782 0.415959
vt 0.056782 0.825947
vt 0.026559 0.415959
vt 0.245703 0.030779
vt 0.265091 0.030779
vt 0.213891 0.306714
vt 0.233279 0.306714
vt 0.407774 0.306714
vt 0.388386 0.306714
vt 0.562880 0.306714
vt 0.582269 0.306714
vt 0.136338 0.306714
vt 0.155726 0.306714
vt 0.310832 0.306714
vt 0.330221 0.306714
vt 0.485327 0.306714
vt 0.504715 0.306714
vt 0.659822 0.306714
vt 0.679210 0.306714
vt 0.252667 0.306714
vt 0.427162 0.306714
vt 0.601657 0.306714
vt 0.175114 0.306714
vt 0.349609 0.306714
vt 0.524104 0.306714
vt 0.097561 0.306714
vt 0.078173 0.306714
vt 0.272056 0.306714
vt 0.698598 0.306714
vt 0.446550 0.306714
vt 0.621045 0.306714
vt 0.194502 0.306714
vt 0.368997 0.306714
vt 0.543492 0.306714
vt 0.116949 0.306714
vt 0.291444 0.306714
vt 0.465939 0.306714
vt 0.640433 0.306714
vt 0.614080 0.030779
vt 0.633469 0.030779
vt 0.800851 0.515263
vt 0.518641 0.703830
vt 0.707208 0.986040
vt 0.439586 0.030779
vt 0.458974 0.030779
vt 0.284479 0.030779
vt 0.090596 0.030779
vt 0.109985 0.030779
vt 0.517139 0.030779
vt 0.536527 0.030779
vt 0.342644 0.030779
vt 0.362033 0.030779
vt 0.187538 0.030779
vt 0.168149 0.030779
vt 0.594692 0.030779
vt 0.420197 0.030779
vt 0.071208 0.030779
vt 0.497751 0.030779
vt 0.323256 0.030779
vt 0.148761 0.030779
vt 0.575304 0.030779
vt 0.400809 0.030779
vt 0.672245 0.030779
vt 0.652857 0.030779
vt 0.226314 0.030779
vt 0.051820 0.030779
vt 0.478362 0.030779
vt 0.303868 0.030779
vt 0.129373 0.030779
vt 0.555916 0.030779
vt 0.381421 0.030779
vt 0.206926 0.030779
vt 0.381421 0.077983
vt 0.400809 0.077983
vt 0.362033 0.077983
vt 0.342644 0.077983
vt 0.323256 0.077983
vt 0.303868 0.077983
vt 0.284479 0.077983
vt 0.265091 0.077983
vt 0.245703 0.077983
vt 0.226314 0.077983
vt 0.206926 0.077983
vt 0.187538 0.077983
vt 0.168149 0.077983
vt 0.148761 0.077983
vt 0.652857 0.077983
vt 0.672245 0.077983
vt 0.071208 0.077983
vt 0.090596 0.077983
vt 0.109985 0.077983
vt 0.129373 0.077983
vt 0.420197 0.077983
vt 0.439586 0.077983
vt 0.458974 0.077983
vt 0.478362 0.077983
vt 0.497751 0.077983
vt 0.517139 0.077983
vt 0.536527 0.077983
vt 0.555916 0.077983
vt 0.575304 0.077983
vt 0.594692 0.077983
vt 0.614080 0.077983
vt 0.633469 0.077983
vt 0.051820 0.077983
vt 0.540354 0.825947
vt 0.300851 0.986040
vt 0.254029 0.990652
vt 0.207208 0.986040
vt 0.162185 0.972383
vt 0.120692 0.950205
vt 0.084324 0.920357
vt 0.054477 0.883989
vt 0.032298 0.842496
vt 0.018641 0.797474
vt 0.014029 0.750652
vt 0.018641 0.703830
vt 0.032298 0.658808
vt 0.054477 0.617315
vt 0.084324 0.580946
vt 0.120692 0.551099
vt 0.207208 0.515263
vt 0.254029 0.510652
vt 0.300851 0.515263
vt 0.345873 0.528921
vt 0.387366 0.551099
vt 0.423735 0.580946
vt 0.453582 0.617315
vt 0.489418 0.703830
vt 0.494029 0.750652
vt 0.489418 0.797474
vt 0.475760 0.842496
vt 0.453582 0.883989
vt 0.423735 0.920357
vt 0.387366 0.950205
vt 0.026559 0.825947
vt 0.754029 0.990652
vt 0.800851 0.986040
vt 0.845873 0.972383
vt 0.887366 0.950205
vt 0.923735 0.920357
vt 0.953582 0.883989
vt 0.975760 0.842496
vt 0.989418 0.797474
vt 0.994029 0.750652
vt 0.989418 0.703830
vt 0.975760 0.658808
vt 0.953582 0.617315
vt 0.923735 0.580946
vt 0.887366 0.551099
vt 0.845873 0.528921
vt 0.754029 0.510652
vt 0.707208 0.515263
vt 0.662185 0.528921
vt 0.620692 0.551099
vt 0.584324 0.580946
vt 0.554477 0.617315
vt 0.532298 0.658808
vt 0.514029 0.750652
vt 0.518641 0.797474
vt 0.532298 0.842496
vt 0.554477 0.883989
vt 0.584324 0.920357
vt 0.620692 0.950205
vt 0.662185 0.972383
s 1
f 2/1/1 95/2/2 96/3/3
f 4/4/4 94/5/5 95/2/2
f 6/6/6 93/7/7 94/5/5
f 8/8/8 92/9/9 93/7/7
f 10/10/10 91/11/11 92/9/9
f 12/12/12 90/13/13 91/11/11
f 14/14/14 89/15/15 90/13/13
f 16/16/16 88/17/17 89/15/15
f 18/18/18 87/19/19 88/17/17
f 20/20/20 86/21/21 87/19/19
f 22/22/22 85/23/23 86/21/21
f 24/24/24 84/25/25 85/23/23
f 26/26/26 83/27/27 84/25/25
f 28/28/28 82/29/29 83/27/27
f 30/30/30 81/31/31 82/29/29
f 81/31/31 34/32/32 80/33/33
f 34/32/32 79/34/34 80/33/33
f 36/35/35 78/36/36 79/34/34
f 38/37/37 77/38/38 78/36/36
f 40/39/39 76/40/40 77/38/38
f 42/41/41 75/42/42 76/40/40
f 44/43/43 74/44/44 75/42/42
f 46/45/45 73/46/46 74/44/44
f 48/47/47 72/48/48 73/46/46
f 50/49/49 71/50/50 72/48/48
f 52/51/51 70/52/52 71/50/50
f 54/53/53 69/54/54 70/52/52
f 56/55/55 68/56/56 69/54/54
f 58/57/57 67/58/58 68/56/56
f 60/59/59 66/60/60 67/58/58
f 38/61/37 22/62/22 6/63/6
f 62/64/61 65/65/62 66/60/60
f 64/66/63 96/67/3 65/65/62
f 45/68/64 202/69/65 204/68/66
f 51/70/67 121/71/68 49/71/69
f 31/72/70 113/73/71 112/72/72
f 15/74/73 103/75/74 13/75/75
f 59/76/76 125/77/77 57/77/78
f 41/78/79 116/79/80 39/79/81
f 23/80/82 107/81/83 21/81/84
f 5/82/85 98/83/86 3/83/87
f 47/84/88 121/71/68 120/84/89
f 31/72/70 111/85/90 29/85/91
f 13/75/75 102/86/92 11/86/93
f 57/77/78 124/87/94 55/87/95
f 39/79/81 115/88/96 37/88/97
f 21/81/84 106/89/98 19/89/99
f 63/90/100 97/91/101 128/90/102
f 47/84/88 119/92/103 45/92/64
f 3/83/87 97/93/101 1/93/104
f 29/85/91 110/94/105 27/94/106
f 11/86/93 101/95/107 9/95/108
f 55/87/95 123/96/109 53/96/110
f 35/97/111 115/88/96 114/97/112
f 19/89/99 105/98/113 17/98/114
f 63/90/100 127/99/115 61/99/116
f 45/92/64 118/100/117 43/100/118
f 27/94/106 109/101/119 25/101/120
f 9/95/108 100/102/121 7/102/122
f 53/96/110 122/70/123 51/70/67
f 35/97/111 113/73/71 33/73/124
f 15/74/73 105/98/113 104/74/125
f 61/99/116 126/76/126 59/76/76
f 43/100/118 117/78/127 41/78/79
f 25/101/120 108/80/128 23/80/82
f 7/103/122 99/104/129 5/104/85
f 99/104/129 132/103/130 131/104/131
f 144/105/132 152/106/133 160/107/134
f 109/108/119 140/109/135 108/109/128
f 117/110/127 150/69/136 149/110/137
f 127/111/115 158/112/138 126/112/126
f 105/113/113 136/114/139 104/114/125
f 114/115/112 145/116/140 113/116/71
f 122/117/123 155/118/141 154/117/142
f 100/103/121 133/119/143 132/103/130
f 110/120/105 141/108/144 109/108/119
f 118/69/117 151/68/145 150/69/136
f 128/121/102 159/111/146 127/111/115
f 106/122/98 137/113/147 105/113/113
f 115/123/96 146/115/148 114/115/112
f 124/124/94 155/118/141 123/118/109
f 101/119/107 134/125/149 133/119/143
f 111/126/90 142/120/150 110/120/105
f 97/127/101 130/128/151 129/127/152
f 120/129/89 151/68/145 119/68/103
f 128/121/102 129/130/152 160/121/134
f 106/122/98 139/131/153 138/122/154
f 115/123/96 148/132/155 147/123/156
f 125/133/77 156/124/157 124/124/94
f 103/134/74 134/125/149 102/125/92
f 112/135/72 143/126/158 111/126/90
f 121/136/68 152/129/133 120/129/89
f 98/128/86 131/104/131 130/128/151
f 108/109/128 139/131/153 107/131/83
f 117/110/127 148/132/155 116/132/80
f 125/133/77 158/112/138 157/133/159
f 104/114/125 135/134/160 103/134/74
f 113/116/71 144/135/132 112/135/72
f 121/136/68 154/117/142 153/136/161
f 81/137/31 189/138/162 82/138/29
f 25/108/120 186/120/163 27/120/106
f 81/137/31 193/139/164 191/137/165
f 7/103/122 168/119/166 9/119/108
f 61/111/116 218/112/167 220/111/168
f 79/140/34 193/139/164 80/139/33
f 43/69/118 200/110/169 202/69/65
f 78/141/36 195/140/170 79/140/34
f 23/109/82 184/108/171 25/108/120
f 77/142/38 197/141/172 78/141/36
f 5/104/85 166/103/173 7/103/122
f 59/112/76 216/133/174 218/112/167
f 76/143/40 199/142/175 77/142/38
f 39/132/81 200/110/169 41/110/79
f 76/143/40 203/144/176 201/143/177
f 21/131/84 182/109/178 23/109/82
f 5/104/85 162/128/179 164/104/180
f 74/145/44 203/144/176 75/144/42
f 55/124/95 216/133/174 57/133/78
f 74/145/44 207/146/181 205/145/182
f 37/123/97 198/132/183 39/132/81
f 73/146/46 209/147/184 207/146/181
f 21/131/84 178/122/185 180/131/186
f 71/148/50 209/147/184 72/147/48
f 53/118/110 214/124/187 55/124/95
f 3/128/87 161/127/188 162/128/179
f 70/149/52 211/148/189 71/148/50
f 37/123/97 194/115/190 196/123/191
f 69/150/54 213/149/192 70/149/52
f 19/122/99 176/113/193 178/122/185
f 95/151/2 224/152/194 96/152/3
f 223/153/195 161/130/188 222/121/196
f 221/154/197 222/121/196 220/111/168
f 219/155/198 220/111/168 218/112/167
f 217/156/199 218/112/167 216/133/174
f 215/150/200 216/133/174 214/124/187
f 212/118/201 215/150/200 214/124/187
f 211/148/189 212/118/201 210/117/202
f 209/147/184 210/117/202 208/136/203
f 207/146/181 208/136/203 206/129/204
f 205/145/182 206/129/204 204/68/66
f 203/144/176 204/68/66 202/69/65
f 201/143/177 202/69/65 200/110/169
f 199/142/175 200/110/169 198/132/183
f 197/141/172 198/132/183 196/123/191
f 195/140/170 196/123/191 194/115/190
f 193/139/164 194/115/190 192/116/205
f 191/137/165 192/116/205 190/135/206
f 189/138/162 190/135/206 188/126/207
f 187/157/208 188/126/207 186/120/163
f 185/158/209 186/120/163 184/108/171
f 183/159/210 184/108/171 182/109/178
f 181/160/211 182/109/178 180/131/186
f 179/161/212 180/131/186 178/122/185
f 177/162/213 178/122/185 176/113/193
f 175/163/214 176/113/193 174/114/215
f 173/164/216 174/114/215 172/134/217
f 171/165/218 172/134/217 170/125/219
f 169/166/220 170/125/219 168/119/166
f 167/167/221 168/119/166 166/103/173
f 165/168/222 166/103/173 164/104/180
f 163/151/223 164/104/180 162/128/179
f 161/127/188 163/151/223 162/128/179
f 82/138/29 187/157/208 83/157/27
f 61/111/116 222/121/196 63/121/100
f 83/157/27 185/158/209 84/158/25
f 11/125/93 168/119/166 170/125/219
f 27/120/106 188/126/207 29/126/91
f 84/158/25 183/159/210 85/159/23
f 45/68/64 206/129/204 47/129/88
f 85/159/23 181/160/211 86/160/21
f 63/121/100 161/130/188 1/130/104
f 86/160/21 179/161/212 87/161/19
f 13/134/75 170/125/219 172/134/217
f 29/126/91 190/135/206 31/135/70
f 87/161/19 177/162/213 88/162/17
f 47/129/88 208/136/203 49/136/69
f 89/163/15 177/162/213 175/163/214
f 90/164/13 175/163/214 173/164/216
f 13/134/75 174/114/215 15/114/73
f 31/135/70 192/116/205 33/116/124
f 90/164/13 171/165/218 91/165/11
f 96/169/3 223/153/195 65/153/62
f 51/117/67 208/136/203 210/117/202
f 92/166/9 171/165/218 169/166/220
f 65/153/62 221/154/197 66/154/60
f 92/166/9 167/167/221 93/167/7
f 15/114/73 176/113/193 17/113/114
f 66/154/60 219/155/198 67/155/58
f 35/115/111 192/116/205 194/115/190
f 93/167/7 165/168/222 94/168/5
f 67/155/58 217/156/199 68/156/56
f 53/118/110 210/117/202 212/118/201
f 94/168/5 163/151/223 95/151/2
f 68/156/56 215/150/200 69/150/54
f 2/1/1 4/4/4 95/2/2
f 4/4/4 6/6/6 94/5/5
f 6/6/6 8/8/8 93/7/7
f 8/8/8 10/10/10 92/9/9
f 10/10/10 12/12/12 91/11/11
f 12/12/12 14/14/14 90/13/13
f 14/14/14 16/16/16 89/15/15
f 16/16/16 18/18/18 88/17/17
f 18/18/18 20/20/20 87/19/19
f 20/20/20 22/22/22 86/21/21
f 22/22/22 24/24/24 85/23/23
f 24/24/24 26/26/26 84/25/25
f 26/26/26 28/28/28 83/27/27
f 28/28/28 30/30/30 82/29/29
f 30/30/30 32/170/224 81/31/31
f 81/31/31 32/170/224 34/32/32
f 34/32/32 36/35/35 79/34/34
f 36/35/35 38/37/37 78/36/36
f 38/37/37 40/39/39 77/38/38
f 40/39/39 42/41/41 76/40/40
f 42/41/41 44/43/43 75/42/42
f 44/43/43 46/45/45 74/44/44
f 46/45/45 48/47/47 73/46/46
f 48/47/47 50/49/49 72/48/48
f 50/49/49 52/51/51 71/50/50
f 52/51/51 54/53/53 70/52/52
f 54/53/53 56/55/55 69/54/54
f 56/55/55 58/57/57 68/56/56
f 58/57/57 60/59/59 67/58/58
f 60/59/59 62/64/61 66/60/60
f 6/63/6 4/171/4 2/172/1
f 2/172/1 64/173/63 62/174/61
f 62/174/61 60/175/59 58/176/57
f 58/176/57 56/177/55 54/178/53
f 54/178/53 52/179/51 50/180/49
f 50/180/49 48/181/47 46/182/45
f 46/182/45 44/183/43 42/184/41
f 42/184/41 40/185/39 38/61/37
f 38/61/37 36/186/35 34/187/32
f 34/187/32 32/188/224 30/189/30
f 30/189/30 28/190/28 26/191/26
f 26/191/26 24/192/24 22/62/22
f 22/62/22 20/193/20 18/194/18
f 18/194/18 16/195/16 14/196/14
f 14/196/14 12/197/12 10/198/10
f 10/198/10 8/199/8 6/63/6
f 6/63/6 2/172/1 62/174/61
f 62/174/61 58/176/57 54/178/53
f 54/178/53 50/180/49 46/182/45
f 46/182/45 42/184/41 38/61/37
f 38/61/37 34/187/32 30/189/30
f 30/189/30 26/191/26 22/62/22
f 22/62/22 18/194/18 14/196/14
f 14/196/14 10/198/10 6/63/6
f 6/63/6 62/174/61 54/178/53
f 54/178/53 46/182/45 38/61/37
f 38/61/37 30/189/30 22/62/22
f 22/62/22 14/196/14 6/63/6
f 6/63/6 54/178/53 38/61/37
f 62/64/61 64/66/63 65/65/62
f 64/66/63 2/200/1 96/67/3
f 45/68/64 43/69/118 202/69/65
f 51/70/67 122/70/123 121/71/68
f 31/72/70 33/73/124 113/73/71
f 15/74/73 104/74/125 103/75/74
f 59/76/76 126/76/126 125/77/77
f 41/78/79 117/78/127 116/79/80
f 23/80/82 108/80/128 107/81/83
f 5/82/85 99/82/129 98/83/86
f 47/84/88 49/71/69 121/71/68
f 31/72/70 112/72/72 111/85/90
f 13/75/75 103/75/74 102/86/92
f 57/77/78 125/77/77 124/87/94
f 39/79/81 116/79/80 115/88/96
f 21/81/84 107/81/83 106/89/98
f 63/90/100 1/91/104 97/91/101
f 47/84/88 120/84/89 119/92/103
f 3/83/87 98/83/86 97/93/101
f 29/85/91 111/85/90 110/94/105
f 11/86/93 102/86/92 101/95/107
f 55/87/95 124/87/94 123/96/109
f 35/97/111 37/88/97 115/88/96
f 19/89/99 106/89/98 105/98/113
f 63/90/100 128/90/102 127/99/115
f 45/92/64 119/92/103 118/100/117
f 27/94/106 110/94/105 109/101/119
f 9/95/108 101/95/107 100/102/121
f 53/96/110 123/96/109 122/70/123
f 35/97/111 114/97/112 113/73/71
f 15/74/73 17/98/114 105/98/113
f 61/99/116 127/99/115 126/76/126
f 43/100/118 118/100/117 117/78/127
f 25/101/120 109/101/119 108/80/128
f 7/102/122 100/102/121 99/82/129
f 99/104/129 100/103/121 132/103/130
f 160/107/134 129/201/152 130/202/151
f 130/202/151 131/203/131 132/204/130
f 132/204/130 133/205/143 134/206/149
f 134/206/149 135/207/160 136/208/139
f 136/208/139 137/209/147 138/210/154
f 138/210/154 139/211/153 140/212/135
f 140/212/135 141/213/144 142/214/150
f 142/214/150 143/215/158 144/105/132
f 144/105/132 145/216/140 146/217/148
f 146/217/148 147/218/156 148/219/155
f 148/219/155 149/220/137 150/221/136
f 150/221/136 151/222/145 152/106/133
f 152/106/133 153/223/161 154/224/142
f 154/224/142 155/225/141 156/226/157
f 156/226/157 157/227/159 158/228/138
f 158/228/138 159/229/146 160/107/134
f 160/107/134 130/202/151 132/204/130
f 132/204/130 134/206/149 136/208/139
f 136/208/139 138/210/154 140/212/135
f 140/212/135 142/214/150 144/105/132
f 144/105/132 146/217/148 148/219/155
f 148/219/155 150/221/136 152/106/133
f 152/106/133 154/224/142 156/226/157
f 156/226/157 158/228/138 160/107/134
f 160/107/134 132/204/130 136/208/139
f 136/208/139 140/212/135 144/105/132
f 144/105/132 148/219/155 152/106/133
f 152/106/133 156/226/157 160/107/134
f 160/107/134 136/208/139 144/105/132
f 109/108/119 141/108/144 140/109/135
f 117/110/127 118/69/117 150/69/136
f 127/111/115 159/111/146 158/112/138
f 105/113/113 137/113/147 136/114/139
f 114/115/112 146/115/148 145/116/140
f 122/117/123 123/118/109 155/118/141
f 100/103/121 101/119/107 133/119/143
f 110/120/105 142/120/150 141/108/144
f 118/69/117 119/68/103 151/68/145
f 128/121/102 160/121/134 159/111/146
f 106/122/98 138/122/154 137/113/147
f 115/123/96 147/123/156 146/115/148
f 124/124/94 156/124/157 155/118/141
f 101/119/107 102/125/92 134/125/149
f 111/126/90 143/126/158 142/120/150
f 97/127/101 98/128/86 130/128/151
f 120/129/89 152/129/133 151/68/145
f 128/121/102 97/130/101 129/130/152
f 106/122/98 107/131/83 139/131/153
f 115/123/96 116/132/80 148/132/155
f 125/133/77 157/133/159 156/124/157
f 103/134/74 135/134/160 134/125/149
f 112/135/72 144/135/132 143/126/158
f 121/136/68 153/136/161 152/129/133
f 98/128/86 99/104/129 131/104/131
f 108/109/128 140/109/135 139/131/153
f 117/110/127 149/110/137 148/132/155
f 125/133/77 126/112/126 158/112/138
f 104/114/125 136/114/139 135/134/160
f 113/116/71 145/116/140 144/135/132
f 121/136/68 122/117/123 154/117/142
f 81/137/31 191/137/165 189/138/162
f 25/108/120 184/108/171 186/120/163
f 81/137/31 80/139/33 193/139/164
f 7/103/122 166/103/173 168/119/166
f 61/111/116 59/112/76 218/112/167
f 79/140/34 195/140/170 193/139/164
f 43/69/118 41/110/79 200/110/169
f 78/141/36 197/141/172 195/140/170
f 23/109/82 182/109/178 184/108/171
f 77/142/38 199/142/175 197/141/172
f 5/104/85 164/104/180 166/103/173
f 59/112/76 57/133/78 216/133/174
f 76/143/40 201/143/177 199/142/175
f 39/132/81 198/132/183 200/110/169
f 76/143/40 75/144/42 203/144/176
f 21/131/84 180/131/186 182/109/178
f 5/104/85 3/128/87 162/128/179
f 74/145/44 205/145/182 203/144/176
f 55/124/95 214/124/187 216/133/174
f 74/145/44 73/146/46 207/146/181
f 37/123/97 196/123/191 198/132/183
f 73/146/46 72/147/48 209/147/184
f 21/131/84 19/122/99 178/122/185
f 71/148/50 211/148/189 209/147/184
f 53/118/110 212/118/201 214/124/187
f 3/128/87 1/127/104 161/127/188
f 70/149/52 213/149/192 211/148/189
f 37/123/97 35/115/111 194/115/190
f 69/150/54 215/150/200 213/149/192
f 19/122/99 17/113/114 176/113/193
f 95/151/2 163/151/223 224/152/194
f 223/153/195 224/169/194 161/130/188
f 221/154/197 223/153/195 222/121/196
f 219/155/198 221/154/197 220/111/168
f 217/156/199 219/155/198 218/112/167
f 215/150/200 217/156/199 216/133/174
f 212/118/201 213/149/192 215/150/200
f 211/148/189 213/149/192 212/118/201
f 209/147/184 211/148/189 210/117/202
f 207/146/181 209/147/184 208/136/203
f 205/145/182 207/146/181 206/129/204
f 203/144/176 205/145/182 204/68/66
f 201/143/177 203/144/176 202/69/65
f 199/142/175 201/143/177 200/110/169
f 197/141/172 199/142/175 198/132/183
f 195/140/170 197/141/172 196/123/191
f 193/139/164 195/140/170 194/115/190
f 191/137/165 193/139/164 192/116/205
f 189/138/162 191/137/165 190/135/206
f 187/157/208 189/138/162 188/126/207
f 185/158/209 187/157/208 186/120/163
f 183/159/210 185/158/209 184/108/171
f 181/160/211 183/159/210 182/109/178
f 179/161/212 181/160/211 180/131/186
f 177/162/213 179/161/212 178/122/185
f 175/163/214 177/162/213 176/113/193
f 173/164/216 175/163/214 174/114/215
f 171/165/218 173/164/216 172/134/217
f 169/166/220 171/165/218 170/125/219
f 167/167/221 169/166/220 168/119/166
f 165/168/222 167/167/221 166/103/173
f 163/151/223 165/168/222 164/104/180
f 161/127/188 224/152/194 163/151/223
f 82/138/29 189/138/162 187/157/208
f 61/111/116 220/111/168 222/121/196
f 83/157/27 187/157/208 185/158/209
f 11/125/93 9/119/108 168/119/166
f 27/120/106 186/120/163 188/126/207
f 84/158/25 185/158/209 183/159/210
f 45/68/64 204/68/66 206/129/204
f 85/159/23 183/159/210 181/160/211
f 63/121/100 222/121/196 161/130/188
f 86/160/21 181/160/211 179/161/212
f 13/134/75 11/125/93 170/125/219
f 29/126/91 188/126/207 190/135/206
f 87/161/19 179/161/212 177/162/213
f 47/129/88 206/129/204 208/136/203
f 89/163/15 88/162/17 177/162/213
f 90/164/13 89/163/15 175/163/214
f 13/134/75 172/134/217 174/114/215
f 31/135/70 190/135/206 192/116/205
f 90/164/13 173/164/216 171/165/218
f 96/169/3 224/169/194 223/153/195
f 51/117/67 49/136/69 208/136/203
f 92/166/9 91/165/11 171/165/218
f 65/153/62 223/153/195 221/154/197
f 92/166/9 169/166/220 167/167/221
f 15/114/73 174/114/215 176/113/193
f 66/154/60 221/154/197 219/155/198
f 35/115/111 33/116/124 192/116/205
f 93/167/7 167/167/221 165/168/222
f 67/155/58 219/155/198 217/156/199
f 53/118/110 51/117/67 210/117/202
f 94/168/5 165/168/222 163/151/223
f 68/156/56 217/156/199 215/150/200
