# Blender 4.5.3 LTS
# www.blender.org
o Sphere
v 0.000000 5.557854 18.317915
v 0.000000 8.317915 15.557854
v 0.000000 9.811650 11.951658
v 0.003841 12.476364 9.611471
v 0.000000 9.811650 8.048342
v 0.000000 8.317915 4.442146
v 0.380750 1.914158 19.811649
v 0.746867 3.754756 19.242373
v 1.401482 6.985140 20.269882
v 1.380031 6.937884 17.073805
v 1.622745 8.158089 15.557854
v 2.287518 11.444178 14.434948
v 1.914158 9.623121 11.951658
v 1.951659 9.811650 10.000000
v 1.914158 9.623121 8.048342
v 1.803097 9.064782 6.171684
v 1.622745 8.158089 4.442146
v 1.380031 6.937884 2.926195
v 1.084283 5.451061 1.682085
v 0.746867 3.754756 0.757627
v 0.380750 1.914158 0.188350
v 0.746867 1.803097 19.811649
v 1.465033 3.536903 19.242373
v 2.126899 5.134787 18.317915
v 2.707028 6.535344 17.073805
v 3.183128 7.684751 15.557854
v 3.536902 8.538838 13.828316
v 3.754756 9.064782 11.951658
v 3.828316 9.242372 10.000000
v 3.754756 9.064782 8.048342
v 3.536902 8.538838 6.171684
v 3.920702 9.426218 2.802797
v 2.707028 6.535344 2.926195
v 2.126899 5.134787 1.682085
v 1.465033 3.536903 0.757627
v 0.746867 1.803097 0.188350
v 1.084283 1.622745 19.811649
v 2.126899 3.183129 19.242373
v 3.087778 4.621185 18.317915
v 3.929996 5.881654 17.073805
v 4.621185 6.916092 15.557854
v 5.134787 7.684751 13.828316
v 5.451061 8.158089 11.951658
v 6.949533 10.361781 9.612670
v 5.451061 8.158089 8.048342
v 5.134787 7.684751 6.171684
v 4.621185 6.916092 4.442146
v 3.929996 5.881654 2.926195
v 3.087778 4.621185 1.682085
v 2.126899 3.183129 0.757627
v 1.084283 1.622745 0.188350
v 1.380031 1.380031 19.811649
v 2.707028 2.707028 19.242373
v 3.929996 3.929995 18.317915
v 5.001936 5.001936 17.073805
v 7.493203 7.452681 16.652826
v 6.535343 6.535344 13.828316
v 6.937884 6.937883 11.951658
v 7.073805 7.073804 10.000000
v 6.937884 6.937883 8.048342
v 6.535343 6.535344 6.171684
v 5.881654 5.881653 4.442146
v 5.001936 5.001936 2.926195
v 3.929996 3.929995 1.682085
v 2.707028 2.707028 0.757627
v 1.380031 1.380031 0.188350
v 1.622745 1.084283 19.811649
v 3.183129 2.126898 19.242373
v 5.952151 3.935996 20.260399
v 5.881654 3.929996 17.073805
v 6.916093 4.621185 15.557854
v 7.684751 5.134787 13.828316
v 8.158089 5.451060 11.951658
v 8.317915 5.557851 10.000000
v 8.158089 5.451060 8.048342
v 7.684751 5.134787 6.171684
v 6.916093 4.621185 4.442146
v 7.209311 4.784871 0.984365
v 4.621186 3.087777 1.682085
v 3.183129 2.126898 0.757627
v 1.622745 1.084283 0.188350
v 0.000000 0.000000 20.003872
v 1.803097 0.746867 19.811649
v 3.536902 1.465033 19.242373
v 5.134787 2.126898 18.317915
v 6.535344 2.707028 17.073805
v 7.684751 3.183127 15.557854
v 8.538837 3.536903 13.828316
v 11.387560 4.681249 12.054119
v 9.242371 3.828314 10.000000
v 9.064782 3.754755 8.048342
v 8.538837 3.536903 6.171684
v 7.684751 3.183127 4.442146
v 6.535344 2.707028 2.926195
v 5.134787 2.126898 1.682085
v 3.536902 1.465033 0.757627
v 1.803097 0.746867 0.188350
v 1.914158 0.380750 19.811649
v 3.754756 0.746867 19.242373
v 5.451060 1.084283 18.317915
v 6.937884 1.380031 17.073805
v 8.158088 1.622744 15.557854
v 9.064782 1.803098 13.828316
v 9.623121 1.914157 11.951658
v 9.811648 1.951657 10.000000
v 11.940737 2.342460 7.206080
v 9.064782 1.803098 6.171684
v 8.158088 1.622744 4.442146
v 6.937884 1.380031 2.926195
v 5.451060 1.084283 1.682085
v 3.754756 0.746867 0.757627
v 1.914158 0.380750 0.188350
v 1.951658 0.000000 19.811649
v 3.828316 0.000000 19.242373
v 5.557852 -0.000001 18.317915
v 7.073805 0.000000 17.073805
v 8.317914 -0.000001 15.557854
v 9.242372 0.000000 13.828316
v 9.811648 -0.000001 11.951658
v 10.003869 -0.000002 10.000000
v 9.811648 -0.000001 8.048342
v 9.242372 0.000000 6.171684
v 8.317914 -0.000001 4.442146
v 7.073805 0.000000 2.926195
v 5.557852 -0.000001 1.682085
v 3.828316 0.000000 0.757627
v 1.951658 0.000000 0.188350
v 1.914157 -0.380750 19.811649
v 3.754756 -0.746868 19.242373
v 5.451060 -1.084284 18.317915
v 8.869898 -1.800424 18.608332
v 8.158087 -1.622745 15.557854
v 11.442129 -2.309988 14.424528
v 9.623120 -1.914159 11.951658
v 9.811646 -1.951660 10.000000
v 9.623120 -1.914159 8.048342
v 9.064782 -1.803097 6.171684
v 10.022226 -2.023170 2.820778
v 6.937883 -1.380031 2.926195
v 5.451060 -1.084284 1.682085
v 3.754756 -0.746868 0.757627
v 1.914157 -0.380750 0.188350
v 1.803097 -0.746867 19.811649
v 3.536902 -1.465033 19.242373
v 5.134785 -2.126899 18.317915
v 6.535343 -2.707028 17.073805
v 7.684750 -3.183129 15.557854
v 8.538837 -3.536902 13.828316
v 9.064780 -3.754756 11.951658
v 9.242368 -3.828316 10.000000
v 9.064780 -3.754756 8.048342
v 8.538837 -3.536902 6.171684
v 7.684750 -3.183129 4.442146
v 6.535343 -2.707028 2.926195
v 5.134785 -2.126899 1.682085
v 3.536902 -1.465033 0.757627
v 1.803097 -0.746867 0.188350
v 1.622744 -1.084283 19.811649
v 3.183128 -2.126898 19.242373
v 4.621184 -3.087778 18.317915
v 5.881654 -3.929995 17.073805
v 6.916091 -4.621185 15.557854
v 7.684751 -5.134786 13.828316
v 8.158087 -5.451060 11.951658
v 10.360785 -6.952937 9.619746
v 8.158087 -5.451060 8.048342
v 7.684751 -5.134786 6.171684
v 6.916091 -4.621185 4.442146
v 5.881654 -3.929995 2.926195
v 4.621184 -3.087778 1.682085
v 3.183128 -2.126898 0.757627
v 1.622744 -1.084283 0.188350
v 1.380030 -1.380030 19.811649
v 2.707027 -2.707028 19.242373
v 3.929994 -3.929995 18.317915
v 5.001935 -5.001935 17.073805
v 7.463970 -7.495527 16.632965
v 6.535343 -6.535343 13.828316
v 6.937882 -6.937883 11.951658
v 7.073800 -7.073804 10.000000
v 6.937882 -6.937883 8.048342
v 6.535343 -6.535343 6.171684
v 7.220703 -7.247409 2.827884
v 5.001935 -5.001935 2.926195
v 3.929994 -3.929995 1.682085
v 2.707027 -2.707028 0.757627
v 1.380030 -1.380030 0.188350
v 1.084283 -1.622744 19.811649
v 2.747082 -4.143140 21.469015
v 3.087776 -4.621185 18.317915
v 3.929995 -5.881654 17.073805
v 4.621184 -6.916092 15.557854
v 5.134787 -7.684750 13.828316
v 5.451058 -8.158088 11.951658
v 5.557848 -8.317913 10.000000
v 5.451058 -8.158088 8.048342
v 5.134787 -7.684750 6.171684
v 4.621184 -6.916092 4.442146
v 3.929995 -5.881654 2.926195
v 3.087776 -4.621185 1.682085
v 2.126898 -3.183128 0.757627
v 1.084283 -1.622744 0.188350
v 0.746867 -1.803096 19.811649
v 1.465032 -3.536902 19.242373
v 2.126897 -5.134785 18.317915
v 2.707028 -6.535343 17.073805
v 3.183126 -7.684750 15.557854
v 3.536902 -8.538836 13.828316
v 3.754754 -9.064780 11.951658
v 4.766788 -11.531476 9.621273
v 3.754754 -9.064780 8.048342
v 3.536902 -8.538836 6.171684
v 3.183126 -7.684750 4.442146
v 2.707028 -6.535343 2.926195
v 2.126897 -5.134785 1.682085
v 1.465032 -3.536902 0.757627
v 0.746867 -1.803096 0.188350
v 0.380749 -1.914157 19.811649
v 0.746867 -3.754755 19.242373
v 1.084282 -5.451058 18.317915
v 1.380031 -6.937883 17.073805
v 1.622743 -8.158086 15.557854
v 1.803097 -9.064780 13.828316
v 1.914156 -9.623119 11.951658
v 1.951654 -9.811646 10.000000
v 1.914156 -9.623119 8.048342
v 1.803097 -9.064780 6.171684
v 1.993983 -10.037093 2.831028
v 1.380031 -6.937883 2.926195
v 1.084282 -5.451058 1.682085
v 0.746867 -3.754755 0.757627
v 0.380749 -1.914157 0.188350
v 0.000000 -1.951657 19.811649
v -0.000001 -3.828315 19.242373
v -0.000001 -5.557850 18.317915
v 0.004227 -9.060398 18.596174
v -0.000001 -8.317912 15.557854
v 0.000000 -9.242370 13.828316
v -0.000001 -9.811647 11.951658
v -0.000003 -10.003865 10.000000
v -0.000001 -9.811647 8.048342
v 0.000000 -9.242370 6.171684
v -0.000001 -8.317912 4.442146
v 0.000000 -7.073804 2.926195
v -0.000001 -5.557850 1.682085
v -0.000001 -3.828315 0.757627
v 0.000000 -1.951657 0.188350
v -0.380750 -1.914157 19.811649
v -0.746868 -3.754755 19.242373
v -1.084284 -5.451058 18.317915
v -1.380031 -6.937883 17.073805
v -1.622745 -8.158086 15.557854
v -2.267129 -11.452143 14.419385
v -1.914159 -9.623118 11.951658
v -1.951661 -9.811643 10.000000
v -1.914159 -9.623118 8.048342
v -1.803097 -9.064780 6.171684
v -1.622745 -8.158086 4.442146
v -1.380031 -6.937883 2.926195
v -1.084284 -5.451058 1.682085
v -0.746868 -3.754755 0.757627
v -0.380750 -1.914157 0.188350
v -0.746867 -1.803096 19.811649
v -1.465033 -3.536902 19.242373
v -2.725306 -6.627634 20.235594
v -2.707028 -6.535343 17.073805
v -3.183128 -7.684748 15.557854
v -3.536901 -8.538836 13.828316
v -3.754756 -9.064779 11.951658
v -4.760350 -11.534034 9.620849
v -3.754756 -9.064779 8.048342
v -3.536901 -8.538836 6.171684
v -3.183128 -7.684748 4.442146
v -2.707028 -6.535343 2.926195
v -2.126898 -5.134784 1.682085
v -1.465033 -3.536902 0.757627
v -0.746867 -1.803096 0.188350
v -1.084283 -1.622744 19.811649
v -2.126898 -3.183127 19.242373
v -3.087777 -4.621182 18.317915
v -3.929995 -5.881653 17.073805
v -4.621185 -6.916090 15.557854
v -5.134785 -7.684750 13.828316
v -5.451060 -8.158085 11.951658
v -5.557852 -8.317907 10.000000
v -5.451060 -8.158085 8.048342
v -5.134785 -7.684750 6.171684
v -4.621185 -6.916090 4.442146
v -3.929995 -5.881653 2.926195
v -3.087777 -4.621182 1.682085
v -2.126898 -3.183127 0.757627
v -1.084283 -1.622744 0.188350
v -1.380030 -1.380030 19.811649
v -2.707028 -2.707027 19.242373
v -3.929994 -3.929992 18.317915
v -5.001935 -5.001935 17.073805
v -7.459014 -7.498880 16.635202
v -6.535342 -6.535342 13.828316
v -6.937883 -6.937881 11.951658
v -7.073802 -7.073797 10.000000
v -6.937883 -6.937881 8.048342
v -8.051034 -8.085503 4.921137
v -5.881652 -5.881650 4.442146
v -5.001935 -5.001935 2.926195
v -3.929994 -3.929992 1.682085
v -2.707028 -2.707027 0.757627
v -1.380030 -1.380030 0.188350
v 0.000000 0.000000 -0.003872
v -1.622744 -1.084282 19.811649
v -3.183128 -2.126897 19.242373
v -4.621184 -3.087775 18.317915
v -5.881653 -3.929995 17.073805
v -6.916091 -4.621183 15.557854
v -7.684749 -5.134785 13.828316
v -8.158087 -5.451057 11.951658
v -8.317910 -5.557845 10.000000
v -8.158087 -5.451057 8.048342
v -7.684749 -5.134785 6.171684
v -6.916091 -4.621183 4.442146
v -5.881653 -3.929995 2.926195
v -4.621184 -3.087775 1.682085
v -3.183128 -2.126897 0.757627
v -1.622744 -1.084282 0.188350
v -1.803096 -0.746867 19.811649
v -3.536901 -1.465032 19.242373
v -5.134784 -2.126895 18.317915
v -6.535343 -2.707027 17.073805
v -7.684748 -3.183125 15.557854
v -8.538836 -3.536901 13.828316
v -9.064780 -3.754752 11.951658
v -11.515263 -4.804084 9.617911
v -9.064780 -3.754752 8.048342
v -8.538836 -3.536901 6.171684
v -7.684748 -3.183125 4.442146
v -6.535343 -2.707027 2.926195
v -5.134784 -2.126895 1.682085
v -3.536901 -1.465032 0.757627
v -1.803096 -0.746867 0.188350
v -1.914156 -0.380749 19.811649
v -3.754755 -0.746867 19.242373
v -5.451057 -1.084281 18.317915
v -8.866441 -1.801529 18.612373
v -8.158085 -1.622742 15.557854
v -11.441338 -2.311538 14.426351
v -9.623118 -1.914155 11.951658
v -9.811642 -1.951652 10.000000
v -9.623118 -1.914155 8.048342
v -9.064779 -1.803097 6.171684
v -10.019099 -2.024001 2.817399
v -6.937883 -1.380030 2.926195
v -5.451057 -1.084281 1.682085
v -3.754755 -0.746867 0.757627
v -1.914156 -0.380749 0.188350
v -1.951657 0.000000 19.811649
v -3.828314 0.000001 19.242373
v -5.557849 0.000001 18.317915
v -7.073804 0.000000 17.073805
v -8.317911 0.000002 15.557854
v -9.242369 0.000000 13.828316
v -9.811646 0.000003 11.951658
v -10.003862 0.000004 10.000000
v -9.811646 0.000003 8.048342
v -9.242369 0.000000 6.171684
v -8.317911 0.000002 4.442146
v -7.073804 0.000000 2.926195
v -5.557849 0.000001 1.682085
v -3.828314 0.000001 0.757627
v -1.951657 0.000000 0.188350
v -1.914156 0.380750 19.811649
v -3.754754 0.746868 19.242373
v -5.451056 1.084284 18.317915
v -6.937882 1.380031 17.073805
v -10.374112 2.028193 16.648275
v -9.064779 1.803097 13.828316
v -9.623116 1.914160 11.951658
v -12.243138 2.403078 9.615003
v -9.623116 1.914160 8.048342
v -9.064779 1.803097 6.171684
v -8.158084 1.622746 4.442146
v -6.937882 1.380031 2.926195
v -5.451056 1.084284 1.682085
v -3.754754 0.746868 0.757627
v -1.914156 0.380750 0.188350
v -1.803096 0.746867 19.811649
v -3.536901 1.465033 19.242373
v -5.134782 2.126898 18.317915
v -6.535342 2.707028 17.073805
v -7.684746 3.183128 15.557854
v -8.538835 3.536901 13.828316
v -9.064777 3.754756 11.951658
v -9.242361 3.828317 10.000000
v -9.064777 3.754756 8.048342
v -8.538835 3.536901 6.171684
v -7.684746 3.183128 4.442146
v -6.535342 2.707028 2.926195
v -5.134782 2.126898 1.682085
v -3.536901 1.465033 0.757627
v -1.803096 0.746867 0.188350
v -1.622743 1.084283 19.811649
v -3.183126 2.126898 19.242373
v -5.945813 3.937582 20.264030
v -5.881652 3.929995 17.073805
v -6.916089 4.621185 15.557854
v -9.719170 6.461596 14.432374
v -8.158083 5.451060 11.951658
v -8.317904 5.557852 10.000000
v -8.158083 5.451060 8.048342
v -7.684748 5.134785 6.171684
v -8.504023 5.653975 2.806298
v -5.881652 3.929995 2.926195
v -4.621181 3.087777 1.682085
v -3.183126 2.126898 0.757627
v -1.622743 1.084283 0.188350
v -1.380030 1.380030 19.811649
v -2.707026 2.707027 19.242373
v -3.929991 3.929993 18.317915
v -5.001934 5.001935 17.073805
v -5.881649 5.881652 15.557854
v -6.535341 6.535341 13.828316
v -6.937879 6.937882 11.951658
v -7.073795 7.073802 10.000000
v -6.937879 6.937882 8.048342
v -6.535341 6.535341 6.171684
v -5.881649 5.881652 4.442146
v -5.001934 5.001935 2.926195
v -3.929991 3.929993 1.682085
v -2.707026 2.707027 0.757627
v -1.380030 1.380030 0.188350
v -1.084282 1.622743 19.811649
v -2.126897 3.183127 19.242373
v -3.087773 4.621183 18.317915
v -3.929994 5.881653 17.073805
v -4.621181 6.916090 15.557854
v -5.134784 7.684748 13.828316
v -5.451056 8.158086 11.951658
v -5.557843 8.317909 10.000000
v -5.451056 8.158086 8.048342
v -5.134784 7.684748 6.171684
v -4.621181 6.916090 4.442146
v -3.929994 5.881653 2.926195
v -3.087773 4.621183 1.682085
v -2.126897 3.183127 0.757627
v -1.084282 1.622743 0.188350
v -0.746866 1.803096 19.811649
v -1.465032 3.536901 19.242373
v -2.126894 5.134782 18.317915
v -2.707027 6.535343 17.073805
v -4.052764 9.757914 16.657804
v -3.536901 8.538835 13.828316
v -3.754751 9.064778 11.951658
v -3.828307 9.242363 10.000000
v -4.663661 11.235769 7.196949
v -3.536901 8.538835 6.171684
v -3.183124 7.684747 4.442146
v -2.707027 6.535343 2.926195
v -2.126894 5.134782 1.682085
v -1.465032 3.536901 0.757627
v -0.746866 1.803096 0.188350
v -0.380749 1.914156 19.811649
v -0.746866 3.754754 19.242373
v -1.084280 5.451055 18.317915
v -1.380030 6.937883 17.073805
v -1.622741 8.158083 15.557854
v -1.803096 9.064778 13.828316
v -1.914154 9.623116 11.951658
v -1.951652 9.811639 10.000000
v -1.914154 9.623116 8.048342
v -1.803096 9.064778 6.171684
v -1.622741 8.158083 4.442146
v -1.688559 8.476336 0.976282
v -1.084280 5.451055 1.682085
v -0.746866 3.754754 0.757627
v -0.380749 1.914156 0.188350
v 0.000000 1.951656 19.811649
v 0.000001 3.828314 19.242373
v 0.000001 7.073804 17.073805
v 0.000001 9.242368 13.828316
v 0.000001 9.242368 6.171684
v 0.000001 7.073804 2.926195
v 0.000002 5.557847 1.682085
v 0.000001 3.828314 0.757627
v 0.000000 1.951656 0.188350
vn -0.1278 0.8029 0.5823
vn 0.1023 0.4956 0.8625
vn 0.1836 0.9237 0.3363
vn -0.0000 0.8333 -0.5528
vn 0.1385 0.6965 -0.7041
vn 0.3230 0.7031 -0.6335
vn -0.0000 0.8333 0.5528
vn 0.1385 0.6975 0.7031
vn 0.1092 0.5490 -0.8286
vn -0.0000 0.5598 -0.8286
vn -0.3354 0.8229 0.4587
vn 0.2497 0.9073 0.3384
vn 0.0757 0.3804 -0.9217
vn -0.0000 0.3879 -0.9217
vn -0.1356 0.9561 0.2597
vn 0.3145 0.9362 -0.1568
vn 0.0392 0.1971 -0.9796
vn -0.0000 0.2010 -0.9796
vn 0.4850 0.8667 0.1162
vn -0.0606 0.9970 -0.0481
vn -0.0000 0.2010 0.9796
vn -0.0000 -0.0000 1.0000
vn 0.0392 0.1971 0.9796
vn -0.0000 -0.0000 -1.0000
vn 0.3170 0.8941 -0.3165
vn -0.1305 0.8375 -0.5306
vn -0.0000 0.3879 0.9217
vn 0.0499 0.2515 0.9666
vn 0.0798 0.9618 -0.2620
vn -0.0000 0.9248 -0.3805
vn -0.4838 0.4148 0.7706
vn -0.2486 0.7704 -0.5870
vn 0.6080 0.1954 0.7695
vn 0.2797 0.6648 -0.6926
vn 0.4259 0.6932 0.5815
vn 0.2044 0.4944 -0.8448
vn 0.3189 0.7699 0.5528
vn 0.2142 0.5172 -0.8286
vn 0.5695 0.7362 0.3656
vn 0.1484 0.3584 -0.9217
vn 0.2588 0.9172 0.3029
vn 0.0769 0.1857 -0.9796
vn -0.0327 0.9995 0.0031
vn 0.0769 0.1857 0.9796
vn 0.2338 0.9196 -0.3156
vn 0.1484 0.3584 0.9217
vn 0.3825 0.9239 -0.0077
vn 0.4640 0.6947 0.5496
vn 0.1117 0.1671 -0.9796
vn 0.5575 0.8257 -0.0861
vn 0.1117 0.1671 0.9796
vn 0.4313 0.6457 -0.6301
vn 0.2155 0.3225 0.9217
vn 0.6241 0.7364 -0.2611
vn 0.3110 0.4654 0.8286
vn 0.7223 0.3656 -0.5870
vn 0.2336 0.5770 0.7826
vn 0.3945 0.5905 -0.7041
vn 0.1710 0.8937 0.4149
vn 0.3110 0.4654 -0.8286
vn 0.5138 0.7689 0.3805
vn 0.2155 0.3225 -0.9217
vn 0.6539 0.6539 -0.3805
vn 0.5530 0.7100 -0.4360
vn 0.2671 0.2671 0.9259
vn 0.0920 0.7130 -0.6951
vn 0.5966 0.6632 0.4519
vn 0.3958 0.3958 -0.8286
vn 0.6114 0.7895 0.0527
vn 0.2743 0.2743 -0.9217
vn 0.7485 0.5893 0.3041
vn 0.1421 0.1421 -0.9796
vn 0.9378 0.3471 0.0031
vn 0.1421 0.1421 0.9796
vn 0.7604 0.5668 -0.3170
vn 0.0706 0.2706 0.9601
vn 0.1183 0.7382 0.6642
vn 0.1671 0.1117 -0.9796
vn 0.5773 0.7622 0.2930
vn 0.7438 0.6562 -0.1270
vn 0.1671 0.1117 0.9796
vn 0.8157 0.5450 -0.1939
vn 0.1749 -0.0481 0.9834
vn 0.7689 0.5138 -0.3805
vn 0.4748 0.3457 0.8093
vn 0.8445 0.4383 -0.3078
vn 0.6807 0.4504 0.5777
vn 0.5574 0.3488 -0.7534
vn 0.8692 0.0289 0.4937
vn 0.1261 0.2659 -0.9557
vn 0.8706 0.4252 0.2477
vn 0.3225 0.2155 -0.9217
vn 0.7922 0.1885 0.5804
vn 0.8366 -0.0654 -0.5439
vn 0.7699 0.3189 0.5528
vn 0.4460 0.0146 -0.8949
vn 0.6716 0.3925 0.6283
vn 0.3584 0.1484 -0.9217
vn 0.9302 0.3534 0.0989
vn 0.1857 0.0769 -0.9796
vn 0.8998 0.3565 -0.2515
vn 0.1857 0.0769 0.9796
vn 0.7010 0.6554 -0.2812
vn 0.3584 0.1484 0.9217
vn 0.8544 0.3539 -0.3805
vn 0.5676 -0.2943 0.7689
vn 0.7699 0.3189 -0.5528
vn 0.9871 -0.1414 0.0750
vn 0.9543 0.0880 0.2857
vn 0.1971 0.0392 0.9796
vn 0.1971 0.0392 -0.9796
vn 0.9412 0.1898 -0.2796
vn 0.3804 0.0757 0.9217
vn 0.6794 0.2720 -0.6815
vn 0.5490 0.1092 0.8286
vn 0.8173 0.1626 -0.5528
vn 0.6965 0.1385 0.7041
vn 0.6965 0.1385 -0.7041
vn 0.8173 0.1626 0.5528
vn 0.5490 0.1092 -0.8286
vn 0.8736 0.0553 0.4835
vn 0.3804 0.0757 -0.9217
vn 0.7101 -0.0000 -0.7041
vn 0.6189 0.4851 0.6177
vn 0.8184 0.2508 0.5170
vn 0.5598 -0.0000 -0.8286
vn 0.8349 0.4273 0.3470
vn 0.3879 -0.0000 -0.9217
vn 0.9894 0.1304 0.0638
vn 0.2010 -0.0000 -0.9796
vn 1.0000 -0.0000 -0.0000
vn 0.2010 -0.0000 0.9796
vn 0.9486 -0.3099 -0.0641
vn 0.3879 -0.0000 0.9217
vn 0.8572 -0.1412 -0.4953
vn 0.4369 0.1328 0.8896
vn 0.8184 0.2727 -0.5058
vn 0.1971 -0.0392 -0.9796
vn 0.9622 -0.1914 -0.1939
vn 0.3804 -0.0757 0.9217
vn 0.9897 -0.0921 -0.1099
vn 0.2702 -0.1822 0.9454
vn 0.7874 -0.0775 -0.6116
vn 0.7197 -0.2378 0.6523
vn 0.4404 0.0593 -0.8958
vn 0.7494 -0.4158 0.5153
vn 0.5490 -0.1092 -0.8286
vn 0.9126 -0.2858 0.2923
vn 0.3804 -0.0757 -0.9217
vn 0.9359 -0.3145 -0.1586
vn 0.9808 -0.1951 -0.0000
vn 0.1971 -0.0392 0.9796
vn 0.4898 -0.3666 -0.7910
vn 0.5172 -0.2142 -0.8286
vn 0.7352 -0.5707 0.3657
vn 0.3584 -0.1484 -0.9217
vn 0.9063 -0.3754 0.1939
vn 0.1857 -0.0769 -0.9796
vn 0.9854 -0.1701 0.0086
vn 0.1857 -0.0769 0.9796
vn 0.9063 -0.3754 -0.1939
vn 0.3584 -0.1484 0.9217
vn 0.8438 -0.4694 -0.2601
vn 0.5172 -0.2142 0.8286
vn 0.5026 -0.7143 -0.4870
vn 0.5111 -0.5650 0.6478
vn 0.7699 -0.3189 0.5528
vn 0.3225 -0.2155 0.9217
vn 0.7689 -0.5138 -0.3805
vn 0.4654 -0.3110 0.8286
vn 0.8322 -0.2269 -0.5058
vn 0.5905 -0.3945 0.7041
vn 0.5905 -0.3945 -0.7041
vn 0.8232 -0.2229 0.5221
vn 0.4654 -0.3110 -0.8286
vn 0.7689 -0.5138 0.3805
vn 0.3225 -0.2155 -0.9217
vn 0.7874 -0.4031 0.4664
vn 0.1671 -0.1117 -0.9796
vn 0.8741 -0.4768 -0.0923
vn 0.1671 -0.1117 0.9796
vn 0.7696 -0.3573 -0.5292
vn 0.7901 -0.6109 0.0504
vn 0.3958 -0.3958 -0.8286
vn 0.2743 -0.2743 -0.9217
vn 0.5891 -0.7486 0.3043
vn 0.1421 -0.1421 -0.9796
vn 0.3466 -0.9380 0.0030
vn 0.1421 -0.1421 0.9796
vn 0.5669 -0.7603 -0.3170
vn 0.5877 0.2107 0.7811
vn 0.7719 -0.6263 -0.1088
vn 0.5749 -0.3927 0.7178
vn 0.6145 -0.5007 -0.6096
vn 0.4197 -0.2538 0.8715
vn 0.3991 -0.1960 -0.8957
vn 0.6768 -0.5591 0.4789
vn 0.4407 -0.8591 -0.2602
vn 0.1657 -0.2589 0.9516
vn 0.4752 -0.7109 0.5184
vn 0.0225 -0.8728 -0.4875
vn 0.2333 -0.5764 0.7832
vn 0.2043 -0.5771 -0.7907
vn 0.0303 -0.8688 0.4942
vn 0.3110 -0.4654 -0.8286
vn 0.4247 -0.8708 0.2476
vn 0.2155 -0.3225 -0.9217
vn 0.5450 -0.8157 0.1939
vn 0.1117 -0.1671 -0.9796
vn 0.7256 -0.6880 0.0087
vn 0.0573 -0.0854 0.9947
vn 0.5450 -0.8157 -0.1939
vn 0.1484 -0.3584 -0.9217
vn 0.3539 -0.8544 0.3805
vn 0.4305 -0.7724 0.4669
vn 0.0769 -0.1857 -0.9796
vn 0.4655 -0.8803 -0.0920
vn 0.0769 -0.1857 0.9796
vn 0.4410 -0.7246 -0.5296
vn -0.4252 -0.4625 0.7780
vn 0.3539 -0.8544 -0.3805
vn 0.1427 -0.6827 0.7166
vn 0.5671 -0.6502 -0.5055
vn 0.2718 -0.6561 0.7041
vn 0.2718 -0.6561 -0.7041
vn 0.3189 -0.7699 0.5528
vn 0.2142 -0.5172 -0.8286
vn 0.2152 -0.4021 0.8900
vn 0.2938 -0.9497 -0.1080
vn 0.2374 -0.7571 -0.6086
vn 0.6009 -0.5095 0.6159
vn 0.2225 -0.3845 -0.8959
vn 0.3025 -0.8542 0.4228
vn 0.1092 -0.5490 -0.8286
vn 0.1804 -0.9070 0.3805
vn 0.0757 -0.3804 -0.9217
vn 0.0741 -0.9498 0.3039
vn 0.0392 -0.1971 -0.9796
vn -0.2310 -0.9729 0.0030
vn 0.0392 -0.1971 0.9796
vn 0.0494 -0.9473 -0.3165
vn 0.0757 -0.3804 0.9217
vn 0.4325 -0.8326 0.3462
vn 0.1315 -0.9894 0.0621
vn -0.0000 -0.3879 -0.9217
vn -0.0000 -0.2010 -0.9796
vn -0.0000 -1.0000 -0.0000
vn -0.0000 -0.2010 0.9796
vn -0.0000 -0.9810 -0.1939
vn -0.0000 -0.3879 0.9217
vn -0.1108 -0.9591 -0.2606
vn -0.1256 -0.3032 0.9446
vn -0.4641 -0.7392 -0.4881
vn -0.0811 -0.7552 0.6505
vn -0.1503 -0.5940 -0.7903
vn -0.0037 -0.9276 0.3737
vn -0.0000 -0.5598 -0.8286
vn -0.1804 -0.9070 -0.3805
vn -0.1626 -0.8173 -0.5528
vn -0.4503 -0.6129 0.6493
vn -0.1385 -0.6965 -0.7041
vn -0.2319 -0.6006 0.7652
vn -0.1092 -0.5490 -0.8286
vn -0.2747 -0.9162 0.2918
vn -0.0757 -0.3804 -0.9217
vn -0.3155 -0.9358 -0.1575
vn -0.0392 -0.1971 -0.9796
vn 0.0283 -0.9996 0.0088
vn -0.0392 -0.1971 0.9796
vn -0.1914 -0.9622 -0.1939
vn 0.0905 -0.2638 0.9603
vn 0.3194 -0.6796 0.6604
vn -0.0769 -0.1857 -0.9796
vn -0.2419 -0.8502 0.4675
vn -0.2873 -0.9534 -0.0922
vn -0.0769 -0.1857 0.9796
vn -0.2007 -0.8236 -0.5305
vn -0.1727 -0.0625 0.9830
vn -0.3539 -0.8544 -0.3805
vn -0.1892 -0.5664 0.8021
vn -0.3189 -0.7699 -0.5528
vn -0.2182 -0.8600 0.4613
vn -0.2718 -0.6561 -0.7041
vn -0.3189 -0.7699 0.5528
vn -0.2142 -0.5172 -0.8286
vn -0.5679 -0.7372 0.3661
vn -0.1484 -0.3584 -0.9217
vn -0.3945 -0.5905 -0.7041
vn -0.5539 -0.5960 0.5814
vn -0.2187 -0.8249 0.5213
vn -0.3110 -0.4654 -0.8286
vn -0.5138 -0.7689 0.3805
vn -0.2155 -0.3225 -0.9217
vn -0.6190 -0.7244 0.3033
vn -0.1117 -0.1671 -0.9796
vn -0.8497 -0.5273 0.0030
vn -0.1117 -0.1671 0.9796
vn -0.5655 -0.7996 -0.2023
vn -0.2155 -0.3225 0.9217
vn -0.0952 -0.9358 -0.3394
vn -0.6300 -0.0787 0.7726
vn -0.2906 -0.6971 -0.6554
vn -0.1421 -0.1421 0.9796
vn -0.1421 -0.1421 -0.9796
vn -0.7720 -0.6291 0.0907
vn -0.2743 -0.2743 0.9217
vn -0.6877 -0.5681 -0.4521
vn -0.3958 -0.3958 0.8286
vn -0.5066 -0.3110 -0.8041
vn -0.2530 -0.4184 0.8723
vn -0.5021 -0.5021 -0.7041
vn -0.5484 -0.6859 0.4784
vn -0.3958 -0.3958 -0.8286
vn -0.6117 -0.7896 0.0487
vn -0.2743 -0.2743 -0.9217
vn -0.6937 -0.6937 0.1939
vn -0.7071 -0.7071 -0.0000
vn -0.5770 -0.2344 0.7824
vn -0.8676 -0.0371 0.4960
vn -0.5905 -0.3945 -0.7041
vn -0.4654 -0.3110 -0.8286
vn -0.8699 -0.4255 0.2495
vn -0.3225 -0.2155 -0.9217
vn -0.8157 -0.5450 0.1939
vn -0.1671 -0.1117 -0.9796
vn -0.6860 -0.7275 0.0089
vn -0.1671 -0.1117 0.9796
vn -0.8157 -0.5450 -0.1939
vn -0.3225 -0.2155 0.9217
vn -0.8873 -0.3012 -0.3492
vn -0.4654 -0.3110 0.8286
vn -0.6929 -0.4630 -0.5528
vn -0.7239 -0.4401 -0.5313
vn -0.3584 -0.1484 0.9217
vn -0.8544 -0.3539 -0.3805
vn -0.3504 -0.2900 0.8906
vn -0.6490 -0.5696 -0.5044
vn -0.3787 -0.6927 0.6138
vn -0.6561 -0.2718 -0.7041
vn -0.6590 -0.5472 0.5160
vn -0.5172 -0.2142 -0.8286
vn -0.6012 -0.7205 0.3455
vn -0.3584 -0.1484 -0.9217
vn -0.7460 -0.5703 0.3438
vn -0.1857 -0.0769 -0.9796
vn -0.8753 -0.4745 -0.0930
vn -0.1857 -0.0769 0.9796
vn -0.3816 -0.2224 -0.8972
vn -0.5490 -0.1092 -0.8286
vn -0.9503 -0.1031 0.2939
vn -0.3804 -0.0757 -0.9217
vn -0.9975 0.0550 -0.0452
vn -0.1971 -0.0392 -0.9796
vn -0.9741 0.2259 0.0030
vn -0.1971 -0.0392 0.9796
vn -0.9477 -0.0503 -0.3152
vn -0.3804 -0.0757 0.9217
vn -0.9500 -0.2928 -0.1087
vn -0.3214 0.0652 0.9447
vn -0.7521 -0.2457 -0.6116
vn -0.7516 -0.0771 0.6551
vn -0.8507 0.0987 0.5163
vn -0.3879 -0.0000 0.9217
vn -0.9588 0.1097 -0.2621
vn -0.5598 -0.0000 0.8286
vn -0.7411 0.4599 -0.4892
vn -0.6901 0.3189 0.6496
vn -0.5946 0.1503 -0.7898
vn -0.8074 -0.2772 0.5208
vn -0.5598 -0.0000 -0.8286
vn -0.8989 0.2408 0.3660
vn -0.3879 -0.0000 -0.9217
vn -0.9810 -0.0000 0.1939
vn -0.2010 -0.0000 -0.9796
vn -0.9746 -0.2238 0.0090
vn -0.2010 -0.0000 0.9796
vn -0.9810 -0.0000 -0.1939
vn -0.9963 0.0706 0.0499
vn -0.3804 0.0757 -0.9217
vn -0.8811 0.0718 0.4674
vn -0.1971 0.0392 -0.9796
vn -0.9914 0.0918 -0.0937
vn -0.1971 0.0392 0.9796
vn -0.8463 0.0361 -0.5315
vn -0.3804 0.0757 0.9217
vn -0.9070 0.1804 -0.3805
vn -0.5490 0.1092 0.8286
vn -0.8173 0.1626 -0.5528
vn -0.4871 -0.0229 0.8730
vn -0.6965 0.1385 -0.7041
vn -0.8735 0.0729 0.4814
vn -0.5490 0.1092 -0.8286
vn -0.8544 0.3539 -0.3805
vn -0.2753 -0.0401 0.9605
vn -0.7302 -0.1809 0.6588
vn -0.8617 0.0571 -0.5042
vn -0.5151 0.3499 0.7825
vn -0.6561 0.2718 -0.7041
vn -0.5124 0.5865 0.6273
vn -0.5172 0.2142 -0.8286
vn -0.9734 0.0525 0.2232
vn -0.3584 0.1484 -0.9217
vn -0.9167 0.3585 0.1764
vn -0.1857 0.0769 -0.9796
vn -0.6845 0.7290 0.0031
vn -0.1857 0.0769 0.9796
vn -0.8159 0.4847 -0.3153
vn -0.4654 0.3110 -0.8286
vn -0.3225 0.2155 -0.9217
vn -0.7432 0.6004 0.2952
vn -0.7443 0.6495 -0.1555
vn -0.1671 0.1117 -0.9796
vn -0.8315 0.5556 -0.0000
vn -0.1671 0.1117 0.9796
vn -0.8157 0.5450 -0.1939
vn 0.0174 -0.0118 0.9998
vn -0.8784 0.4650 -0.1102
vn -0.5433 0.2929 0.7868
vn -0.7028 0.3585 -0.6145
vn -0.7987 0.3827 0.4644
vn -0.4266 0.1115 -0.8975
vn -0.4652 0.4443 0.7656
vn -0.6006 0.7553 -0.2622
vn -0.1979 0.8496 -0.4888
vn -0.4772 0.6578 0.5827
vn -0.3133 0.5269 -0.7901
vn -0.5893 0.5893 0.5528
vn -0.3958 0.3958 -0.8286
vn -0.4648 0.8063 0.3658
vn -0.2743 0.2743 -0.9217
vn -0.6937 0.6937 0.1939
vn -0.1421 0.1421 -0.9796
vn -0.7071 0.7071 -0.0000
vn -0.1421 0.1421 0.9796
vn -0.6937 0.6937 -0.1939
vn -0.0701 0.2706 0.9601
vn 0.0439 0.7107 0.7021
vn -0.1117 0.1671 -0.9796
vn -0.5450 0.8157 0.1939
vn -0.6400 0.7597 0.1150
vn -0.1116 0.1671 0.9796
vn -0.7821 0.5557 -0.2820
vn -0.2155 0.3225 0.9217
vn -0.5138 0.7689 -0.3805
vn -0.3110 0.4654 0.8286
vn -0.4630 0.6929 -0.5528
vn -0.3945 0.5905 0.7041
vn -0.3945 0.5905 -0.7041
vn -0.6778 0.5190 0.5209
vn -0.3110 0.4654 -0.8286
vn -0.5138 0.7689 0.3805
vn -0.2155 0.3225 -0.9217
vn -0.2902 0.3919 0.8731
vn -0.6985 0.3771 -0.6083
vn -0.4179 0.7687 0.4841
vn -0.3054 0.3261 -0.8946
vn -0.4947 0.8675 0.0518
vn -0.1484 0.3584 -0.9217
vn -0.3754 0.9063 0.1939
vn -0.0769 0.1857 -0.9796
vn -0.2725 0.9193 0.2838
vn -0.0769 0.1857 0.9796
vn -0.3791 0.8809 -0.2835
vn -0.1484 0.3584 0.9217
vn -0.3985 0.6117 -0.6834
vn -0.2142 0.5172 0.8286
vn -0.4445 0.7829 -0.4354
vn -0.1914 0.9622 0.1939
vn -0.4073 0.9133 0.0089
vn -0.0392 0.1971 0.9796
vn -0.0392 0.1971 -0.9796
vn 0.1148 0.9912 -0.0658
vn -0.0757 0.3804 0.9217
vn -0.0295 0.8688 -0.4942
vn -0.1092 0.5490 0.8286
vn -0.0817 0.9473 -0.3096
vn 0.0056 0.6220 0.7830
vn -0.0519 0.6548 -0.7540
vn 0.3008 0.8152 0.4950
vn 0.0997 0.2751 -0.9562
vn -0.0605 0.9666 0.2492
vn -0.0757 0.3804 -0.9217
vt 0.714575 0.505032
vt 0.708669 0.516842
vt 0.708669 0.505032
vt 0.714575 0.422344
vt 0.708669 0.410531
vt 0.714575 0.410531
vt 0.714575 0.493219
vt 0.708669 0.493219
vt 0.708669 0.398719
vt 0.714575 0.398719
vt 0.714575 0.481406
vt 0.708669 0.481406
vt 0.708669 0.386908
vt 0.714575 0.386908
vt 0.714575 0.469593
vt 0.708669 0.469593
vt 0.708669 0.375095
vt 0.714575 0.375095
vt 0.708669 0.457780
vt 0.714575 0.457780
vt 0.714575 0.540468
vt 0.711622 0.552281
vt 0.708669 0.540468
vt 0.711622 0.363282
vt 0.708669 0.445970
vt 0.714575 0.445970
vt 0.714575 0.528655
vt 0.708669 0.528655
vt 0.708669 0.434157
vt 0.714575 0.434157
vt 0.714575 0.516842
vt 0.708669 0.422344
vt 0.702762 0.516842
vt 0.702762 0.422344
vt 0.702762 0.505032
vt 0.702762 0.410531
vt 0.702762 0.493219
vt 0.702762 0.398719
vt 0.702762 0.481406
vt 0.702762 0.386908
vt 0.702762 0.469593
vt 0.702762 0.375095
vt 0.702762 0.457780
vt 0.705715 0.552281
vt 0.702762 0.540468
vt 0.705715 0.363282
vt 0.702762 0.445970
vt 0.702762 0.528655
vt 0.702762 0.434157
vt 0.696856 0.469593
vt 0.696856 0.375095
vt 0.696856 0.457780
vt 0.699809 0.552281
vt 0.696856 0.540468
vt 0.699809 0.363282
vt 0.696856 0.445970
vt 0.696856 0.528655
vt 0.696856 0.434157
vt 0.696856 0.516842
vt 0.696856 0.422344
vt 0.696856 0.505032
vt 0.696856 0.410531
vt 0.696856 0.493219
vt 0.696856 0.398719
vt 0.696856 0.481406
vt 0.696856 0.386908
vt 0.690949 0.434157
vt 0.690949 0.422344
vt 0.690949 0.505032
vt 0.690949 0.410531
vt 0.690949 0.493219
vt 0.690949 0.398719
vt 0.690949 0.481406
vt 0.690949 0.386908
vt 0.690949 0.469593
vt 0.690949 0.375095
vt 0.690949 0.457780
vt 0.693902 0.552281
vt 0.690949 0.540468
vt 0.693902 0.363282
vt 0.690949 0.445970
vt 0.690949 0.528655
vt 0.690949 0.516842
vt 0.685045 0.375095
vt 0.685045 0.469593
vt 0.685045 0.457780
vt 0.687999 0.552281
vt 0.685045 0.540468
vt 0.687999 0.363282
vt 0.685045 0.445970
vt 0.685045 0.528655
vt 0.685045 0.434157
vt 0.685045 0.516842
vt 0.685045 0.422344
vt 0.685045 0.505032
vt 0.685045 0.410531
vt 0.685045 0.493219
vt 0.685045 0.398719
vt 0.685045 0.481406
vt 0.685045 0.386908
vt 0.679139 0.505032
vt 0.679139 0.410531
vt 0.679139 0.493219
vt 0.679139 0.398719
vt 0.679139 0.481406
vt 0.679139 0.386908
vt 0.679139 0.469593
vt 0.679139 0.375095
vt 0.679139 0.457780
vt 0.682092 0.552281
vt 0.679139 0.540468
vt 0.682092 0.363282
vt 0.679139 0.445970
vt 0.679139 0.528655
vt 0.679139 0.434157
vt 0.679139 0.516842
vt 0.679139 0.422344
vt 0.673232 0.469593
vt 0.673232 0.457780
vt 0.676186 0.552281
vt 0.673232 0.540468
vt 0.676186 0.363282
vt 0.673232 0.375095
vt 0.673232 0.445970
vt 0.673232 0.528655
vt 0.673232 0.434157
vt 0.673232 0.516842
vt 0.673232 0.422344
vt 0.673232 0.505032
vt 0.673232 0.410531
vt 0.673232 0.493219
vt 0.673232 0.398719
vt 0.673232 0.481406
vt 0.673232 0.386908
vt 0.667326 0.410531
vt 0.667326 0.505032
vt 0.667326 0.493219
vt 0.667326 0.398719
vt 0.667326 0.481406
vt 0.667326 0.386908
vt 0.667326 0.469593
vt 0.667326 0.375095
vt 0.667326 0.457780
vt 0.670279 0.552281
vt 0.667326 0.540468
vt 0.670279 0.363282
vt 0.667326 0.445970
vt 0.667326 0.528655
vt 0.667326 0.434157
vt 0.667326 0.516842
vt 0.667326 0.422344
vt 0.664373 0.363282
vt 0.661420 0.375095
vt 0.661420 0.445970
vt 0.661420 0.528655
vt 0.661420 0.434157
vt 0.661420 0.516842
vt 0.661420 0.422344
vt 0.661420 0.505032
vt 0.661420 0.410531
vt 0.661420 0.493219
vt 0.661420 0.398719
vt 0.661420 0.481406
vt 0.661420 0.386908
vt 0.661420 0.469593
vt 0.661420 0.457780
vt 0.664373 0.552281
vt 0.661420 0.540468
vt 0.655513 0.410531
vt 0.655513 0.398719
vt 0.655513 0.481406
vt 0.655513 0.386908
vt 0.655513 0.469593
vt 0.655513 0.375095
vt 0.655513 0.457780
vt 0.658466 0.552281
vt 0.655513 0.540468
vt 0.658466 0.363282
vt 0.655513 0.445970
vt 0.655513 0.528655
vt 0.655513 0.434157
vt 0.655513 0.516842
vt 0.655513 0.422344
vt 0.655513 0.505032
vt 0.655513 0.493219
vt 0.649607 0.528655
vt 0.649607 0.434157
vt 0.649607 0.516842
vt 0.649607 0.422344
vt 0.649607 0.505032
vt 0.649607 0.410531
vt 0.649607 0.493219
vt 0.649607 0.398719
vt 0.649607 0.481406
vt 0.649607 0.386908
vt 0.649607 0.469593
vt 0.649607 0.375095
vt 0.649607 0.457780
vt 0.652560 0.552281
vt 0.649607 0.540468
vt 0.652560 0.363282
vt 0.649607 0.445970
vt 0.643700 0.481406
vt 0.643700 0.398719
vt 0.643700 0.386908
vt 0.643700 0.469593
vt 0.643700 0.375095
vt 0.643700 0.457780
vt 0.646653 0.552281
vt 0.643700 0.540468
vt 0.646653 0.363282
vt 0.643700 0.445970
vt 0.643700 0.528655
vt 0.643700 0.434157
vt 0.643700 0.516842
vt 0.643700 0.422344
vt 0.643700 0.505032
vt 0.643700 0.410531
vt 0.643700 0.493219
vt 0.637794 0.434157
vt 0.637794 0.528655
vt 0.637794 0.516842
vt 0.637794 0.422344
vt 0.637794 0.505032
vt 0.637794 0.410531
vt 0.637794 0.493219
vt 0.637794 0.398719
vt 0.637794 0.481406
vt 0.637794 0.386908
vt 0.637794 0.469593
vt 0.637794 0.375095
vt 0.637794 0.457780
vt 0.640747 0.552281
vt 0.637794 0.540468
vt 0.640747 0.363282
vt 0.637794 0.445970
vt 0.631890 0.386908
vt 0.631890 0.481406
vt 0.631890 0.469593
vt 0.631890 0.375095
vt 0.631890 0.457780
vt 0.634840 0.552281
vt 0.631890 0.540468
vt 0.634840 0.363282
vt 0.631890 0.445970
vt 0.631890 0.528655
vt 0.631890 0.434157
vt 0.631890 0.516842
vt 0.631890 0.422344
vt 0.631890 0.505032
vt 0.631890 0.410531
vt 0.631890 0.493219
vt 0.631890 0.398719
vt 0.625983 0.516842
vt 0.625983 0.434157
vt 0.625983 0.422344
vt 0.625983 0.505032
vt 0.625983 0.410531
vt 0.625983 0.493219
vt 0.625983 0.398719
vt 0.625983 0.481406
vt 0.625983 0.386908
vt 0.625983 0.469593
vt 0.625983 0.375095
vt 0.625983 0.457780
vt 0.628937 0.552281
vt 0.625983 0.540468
vt 0.628937 0.363282
vt 0.625983 0.445970
vt 0.625983 0.528655
vt 0.620077 0.481406
vt 0.620077 0.469593
vt 0.620077 0.386908
vt 0.620077 0.375095
vt 0.620077 0.457780
vt 0.623030 0.552281
vt 0.620077 0.540468
vt 0.623030 0.363282
vt 0.620077 0.445970
vt 0.620077 0.528655
vt 0.620077 0.434157
vt 0.620077 0.516842
vt 0.620077 0.422344
vt 0.620077 0.505032
vt 0.620077 0.410531
vt 0.620077 0.493219
vt 0.620077 0.398719
vt 0.614170 0.434157
vt 0.614170 0.422344
vt 0.614170 0.505032
vt 0.614170 0.410531
vt 0.614170 0.493219
vt 0.614170 0.398719
vt 0.614170 0.481406
vt 0.614170 0.386908
vt 0.614170 0.469593
vt 0.614170 0.375095
vt 0.614170 0.457780
vt 0.617124 0.552281
vt 0.614170 0.540468
vt 0.617124 0.363282
vt 0.614170 0.445970
vt 0.614170 0.528655
vt 0.614170 0.516842
vt 0.608264 0.375095
vt 0.608264 0.469593
vt 0.608264 0.457780
vt 0.611217 0.552281
vt 0.608264 0.540468
vt 0.611217 0.363282
vt 0.608264 0.445970
vt 0.608264 0.528655
vt 0.608264 0.434157
vt 0.608264 0.516842
vt 0.608264 0.422344
vt 0.608264 0.505032
vt 0.608264 0.410531
vt 0.608264 0.493219
vt 0.608264 0.398719
vt 0.608264 0.481406
vt 0.608264 0.386908
vt 0.602358 0.410531
vt 0.602358 0.505032
vt 0.602358 0.493219
vt 0.602358 0.398719
vt 0.602358 0.481406
vt 0.602358 0.386908
vt 0.602358 0.469593
vt 0.602358 0.375095
vt 0.602358 0.457780
vt 0.605311 0.552281
vt 0.602358 0.540468
vt 0.605311 0.363282
vt 0.602358 0.445970
vt 0.602358 0.528655
vt 0.602358 0.434157
vt 0.602358 0.516842
vt 0.602358 0.422344
vt 0.599404 0.552281
vt 0.596451 0.540468
vt 0.599404 0.363282
vt 0.596451 0.375095
vt 0.596451 0.445970
vt 0.596451 0.528655
vt 0.596451 0.434157
vt 0.596451 0.516842
vt 0.596451 0.422344
vt 0.596451 0.505032
vt 0.596451 0.410531
vt 0.596451 0.493219
vt 0.596451 0.398719
vt 0.596451 0.481406
vt 0.596451 0.386908
vt 0.596451 0.469593
vt 0.596451 0.457780
vt 0.590545 0.505032
vt 0.590545 0.493219
vt 0.590545 0.410531
vt 0.590545 0.398719
vt 0.590545 0.481406
vt 0.590545 0.386908
vt 0.590545 0.469593
vt 0.590545 0.375095
vt 0.590545 0.457780
vt 0.593498 0.552281
vt 0.590545 0.540468
vt 0.593498 0.363282
vt 0.590545 0.445970
vt 0.590545 0.528655
vt 0.590545 0.434157
vt 0.590545 0.516842
vt 0.590545 0.422344
vt 0.584638 0.445970
vt 0.584638 0.528655
vt 0.584638 0.434157
vt 0.584638 0.516842
vt 0.584638 0.422344
vt 0.584638 0.505032
vt 0.584638 0.410531
vt 0.584638 0.493219
vt 0.584638 0.398719
vt 0.584638 0.481406
vt 0.584638 0.386908
vt 0.584638 0.469593
vt 0.584638 0.375095
vt 0.584638 0.457780
vt 0.587591 0.552281
vt 0.584638 0.540468
vt 0.587591 0.363282
vt 0.578732 0.410531
vt 0.578732 0.398719
vt 0.578732 0.481406
vt 0.578732 0.386908
vt 0.578732 0.469593
vt 0.578732 0.375095
vt 0.578732 0.457780
vt 0.581685 0.552281
vt 0.578732 0.540468
vt 0.581685 0.363282
vt 0.578732 0.445970
vt 0.578732 0.528655
vt 0.578732 0.434157
vt 0.578732 0.516842
vt 0.578732 0.422344
vt 0.578732 0.505032
vt 0.578732 0.493219
vt 0.572828 0.528655
vt 0.572828 0.434157
vt 0.572828 0.516842
vt 0.572828 0.422344
vt 0.572828 0.505032
vt 0.572828 0.410531
vt 0.572828 0.493219
vt 0.572828 0.398719
vt 0.572828 0.481406
vt 0.572828 0.386908
vt 0.572828 0.469593
vt 0.572828 0.375095
vt 0.572828 0.457780
vt 0.575781 0.552281
vt 0.572828 0.540468
vt 0.575781 0.363282
vt 0.572828 0.445970
vt 0.761824 0.493219
vt 0.755918 0.481406
vt 0.761824 0.481406
vt 0.761824 0.398719
vt 0.755918 0.386908
vt 0.761824 0.386908
vt 0.761824 0.469593
vt 0.755918 0.469593
vt 0.755918 0.375095
vt 0.761824 0.375095
vt 0.761824 0.457780
vt 0.755918 0.457780
vt 0.761824 0.540468
vt 0.758871 0.552281
vt 0.755918 0.540468
vt 0.758871 0.363282
vt 0.755918 0.445970
vt 0.761824 0.445970
vt 0.755918 0.528655
vt 0.761824 0.528655
vt 0.755918 0.434157
vt 0.761824 0.434157
vt 0.761824 0.516842
vt 0.755918 0.516842
vt 0.761824 0.422344
vt 0.755918 0.422344
vt 0.755918 0.505032
vt 0.761824 0.505032
vt 0.755918 0.410531
vt 0.761824 0.410531
vt 0.755918 0.493219
vt 0.755918 0.398719
vt 0.750011 0.434157
vt 0.750011 0.528655
vt 0.750011 0.516842
vt 0.750011 0.422344
vt 0.750011 0.505032
vt 0.750011 0.410531
vt 0.750011 0.493219
vt 0.750011 0.398719
vt 0.750011 0.481406
vt 0.750011 0.386908
vt 0.750011 0.469593
vt 0.750011 0.375095
vt 0.750011 0.457780
vt 0.752964 0.552281
vt 0.750011 0.540468
vt 0.752964 0.363282
vt 0.750011 0.445970
vt 0.744105 0.398719
vt 0.744105 0.386908
vt 0.744105 0.481406
vt 0.744105 0.469593
vt 0.744105 0.375095
vt 0.744105 0.457780
vt 0.747058 0.552281
vt 0.744105 0.540468
vt 0.747058 0.363282
vt 0.744105 0.445970
vt 0.744105 0.528655
vt 0.744105 0.434157
vt 0.744105 0.516842
vt 0.744105 0.422344
vt 0.744105 0.505032
vt 0.744105 0.410531
vt 0.744105 0.493219
vt 0.738201 0.434157
vt 0.738201 0.422344
vt 0.738201 0.505032
vt 0.738201 0.410531
vt 0.738201 0.493219
vt 0.738201 0.398719
vt 0.738201 0.481406
vt 0.738201 0.386908
vt 0.738201 0.469593
vt 0.738201 0.375095
vt 0.738201 0.457780
vt 0.741154 0.552281
vt 0.738201 0.540468
vt 0.741154 0.363282
vt 0.738201 0.445970
vt 0.738201 0.528655
vt 0.738201 0.516842
vt 0.732294 0.375095
vt 0.732294 0.469593
vt 0.732294 0.457780
vt 0.735248 0.552281
vt 0.732294 0.540468
vt 0.735248 0.363282
vt 0.732294 0.445970
vt 0.732294 0.528655
vt 0.732294 0.434157
vt 0.732294 0.516842
vt 0.732294 0.422344
vt 0.732294 0.505032
vt 0.732294 0.410531
vt 0.732294 0.493219
vt 0.732294 0.398719
vt 0.732294 0.481406
vt 0.732294 0.386908
vt 0.726388 0.505032
vt 0.726388 0.410531
vt 0.726388 0.493219
vt 0.726388 0.398719
vt 0.726388 0.481406
vt 0.726388 0.386908
vt 0.726388 0.469593
vt 0.726388 0.375095
vt 0.726388 0.457780
vt 0.729341 0.552281
vt 0.726388 0.540468
vt 0.729341 0.363282
vt 0.726388 0.445970
vt 0.726388 0.528655
vt 0.726388 0.434157
vt 0.726388 0.516842
vt 0.726388 0.422344
vt 0.720482 0.469593
vt 0.720482 0.457780
vt 0.723435 0.552281
vt 0.720482 0.540468
vt 0.723435 0.363282
vt 0.720482 0.375095
vt 0.720482 0.445970
vt 0.720482 0.528655
vt 0.720482 0.434157
vt 0.720482 0.516842
vt 0.720482 0.422344
vt 0.720482 0.505032
vt 0.720482 0.410531
vt 0.720482 0.493219
vt 0.720482 0.398719
vt 0.720482 0.481406
vt 0.720482 0.386908
vt 0.717528 0.552281
vt 0.717528 0.363282
s 1
f 476/1/1 9/2/2 10/3/3
f 6/4/4 18/5/5 479/6/6
f 2/7/7 10/3/3 11/8/8
f 479/6/6 19/9/9 480/10/10
f 477/11/11 11/8/8 12/12/12
f 480/10/10 20/13/13 481/14/14
f 3/15/15 12/12/12 13/16/16
f 481/14/14 21/17/17 482/18/18
f 3/15/15 14/19/19 4/20/20
f 474/21/21 82/22/22 7/23/23
f 308/24/24 482/18/18 21/17/17
f 4/20/20 15/25/25 5/26/26
f 475/27/27 7/23/23 8/28/28
f 5/26/26 16/29/29 478/30/30
f 1/31/31 8/28/28 9/2/2
f 478/30/30 17/32/32 6/4/4
f 8/28/28 24/33/33 9/2/2
f 16/29/29 32/34/34 17/32/32
f 9/2/2 25/35/35 10/3/3
f 17/32/32 33/36/36 18/5/5
f 10/3/3 26/37/37 11/8/8
f 19/9/9 33/36/36 34/38/38
f 11/8/8 27/39/39 12/12/12
f 20/13/13 34/38/38 35/40/40
f 13/16/16 27/39/39 28/41/41
f 20/13/13 36/42/42 21/17/17
f 13/16/16 29/43/43 14/19/19
f 7/23/23 82/44/22 22/45/44
f 308/46/24 21/17/17 36/42/42
f 14/19/19 30/47/45 15/25/25
f 7/23/23 23/48/46 8/28/28
f 15/25/25 31/49/47 16/29/29
f 27/39/39 43/50/48 28/41/41
f 35/40/40 51/51/49 36/42/42
f 28/41/41 44/52/50 29/43/43
f 22/45/44 82/53/22 37/54/51
f 308/55/24 36/42/42 51/51/49
f 30/47/45 44/52/50 45/56/52
f 22/45/44 38/57/53 23/48/46
f 30/47/45 46/58/54 31/49/47
f 23/48/46 39/59/55 24/33/33
f 32/34/34 46/58/54 47/60/56
f 24/33/33 40/61/57 25/35/35
f 33/36/36 47/60/56 48/62/58
f 25/35/35 41/63/59 26/37/37
f 34/38/38 48/62/58 49/64/60
f 26/37/37 42/65/61 27/39/39
f 34/38/38 50/66/62 35/40/40
f 47/60/56 61/67/63 62/68/64
f 39/59/55 55/69/65 40/61/57
f 47/60/56 63/70/66 48/62/58
f 40/61/57 56/71/67 41/63/59
f 48/62/58 64/72/68 49/64/60
f 41/63/59 57/73/69 42/65/61
f 49/64/60 65/74/70 50/66/62
f 43/50/48 57/73/69 58/75/71
f 50/66/62 66/76/72 51/51/49
f 44/52/50 58/75/71 59/77/73
f 37/54/51 82/78/22 52/79/74
f 308/80/24 51/51/49 66/76/72
f 44/52/50 60/81/75 45/56/52
f 37/54/51 53/82/76 38/57/53
f 45/56/52 61/67/63 46/58/54
f 38/57/53 54/83/77 39/59/55
f 65/74/70 81/84/78 66/76/72
f 59/77/73 73/85/79 74/86/80
f 52/79/74 82/87/22 67/88/81
f 308/89/24 66/76/72 81/84/78
f 59/77/73 75/90/82 60/81/75
f 52/79/74 68/91/83 53/82/76
f 60/81/75 76/92/84 61/67/63
f 53/82/76 69/93/85 54/83/77
f 62/68/64 76/92/84 77/94/86
f 54/83/77 70/95/87 55/69/65
f 62/68/64 78/96/88 63/70/66
f 56/71/67 70/95/87 71/97/89
f 63/70/66 79/98/90 64/72/68
f 56/71/67 72/99/91 57/73/69
f 65/74/70 79/98/90 80/100/92
f 58/75/71 72/99/91 73/85/79
f 69/93/85 86/101/93 70/95/87
f 77/94/86 94/102/94 78/96/88
f 71/97/89 86/101/93 87/103/95
f 78/96/88 95/104/96 79/98/90
f 71/97/89 88/105/97 72/99/91
f 79/98/90 96/106/98 80/100/92
f 73/85/79 88/105/97 89/107/99
f 81/84/78 96/106/98 97/108/100
f 74/86/80 89/107/99 90/109/101
f 67/88/81 82/110/22 83/111/102
f 308/112/24 81/84/78 97/108/100
f 74/86/80 91/113/103 75/90/82
f 67/88/81 84/114/104 68/91/83
f 75/90/82 92/115/105 76/92/84
f 68/91/83 85/116/106 69/93/85
f 77/94/86 92/115/105 93/117/107
f 90/109/101 104/118/108 105/119/109
f 83/111/102 82/120/22 98/121/110
f 308/122/24 97/108/100 112/123/111
f 90/109/101 106/124/112 91/113/103
f 84/114/104 98/121/110 99/125/113
f 91/113/103 107/126/114 92/115/105
f 84/114/104 100/127/115 85/116/106
f 93/117/107 107/126/114 108/128/116
f 85/116/106 101/129/117 86/101/93
f 93/117/107 109/130/118 94/102/94
f 87/103/95 101/129/117 102/131/119
f 95/104/96 109/130/118 110/132/120
f 87/103/95 103/133/121 88/105/97
f 96/106/98 110/132/120 111/134/122
f 89/107/99 103/133/121 104/118/108
f 96/106/98 112/123/111 97/108/100
f 108/128/116 124/135/123 109/130/118
f 102/131/119 116/136/124 117/137/125
f 110/132/120 124/135/123 125/138/126
f 102/131/119 118/139/127 103/133/121
f 110/132/120 126/140/128 111/134/122
f 104/118/108 118/139/127 119/141/129
f 111/134/122 127/142/130 112/123/111
f 105/119/109 119/141/129 120/143/131
f 98/121/110 82/144/22 113/145/132
f 308/146/24 112/123/111 127/142/130
f 105/119/109 121/147/133 106/124/112
f 99/125/113 113/145/132 114/148/134
f 106/124/112 122/149/135 107/126/114
f 99/125/113 115/150/136 100/127/115
f 108/128/116 122/149/135 123/151/137
f 100/127/115 116/136/124 101/129/117
f 308/152/24 127/142/130 142/153/138
f 120/143/131 136/154/139 121/147/133
f 113/145/132 129/155/140 114/148/134
f 121/147/133 137/156/141 122/149/135
f 114/148/134 130/157/142 115/150/136
f 123/151/137 137/156/141 138/158/143
f 115/150/136 131/159/144 116/136/124
f 123/151/137 139/160/145 124/135/123
f 117/137/125 131/159/144 132/161/146
f 125/138/126 139/160/145 140/162/147
f 117/137/125 133/163/148 118/139/127
f 125/138/126 141/164/149 126/140/128
f 119/141/129 133/163/148 134/165/150
f 126/140/128 142/153/138 127/142/130
f 120/143/131 134/165/150 135/166/151
f 113/145/132 82/167/22 128/168/152
f 140/162/147 154/169/153 155/170/154
f 132/161/146 148/171/155 133/163/148
f 140/162/147 156/172/156 141/164/149
f 134/165/150 148/171/155 149/173/157
f 142/153/138 156/172/156 157/174/158
f 135/166/151 149/173/157 150/175/159
f 128/168/152 82/176/22 143/177/160
f 308/178/24 142/153/138 157/174/158
f 135/166/151 151/179/161 136/154/139
f 128/168/152 144/180/162 129/155/140
f 136/154/139 152/181/163 137/156/141
f 130/157/142 144/180/162 145/182/164
f 138/158/143 152/181/163 153/183/165
f 130/157/142 146/184/166 131/159/144
f 138/158/143 154/169/153 139/160/145
f 132/161/146 146/184/166 147/185/167
f 143/177/160 159/186/168 144/180/162
f 151/179/161 167/187/169 152/181/163
f 145/182/164 159/186/168 160/188/170
f 153/183/165 167/187/169 168/189/171
f 145/182/164 161/190/172 146/184/166
f 153/183/165 169/191/173 154/169/153
f 147/185/167 161/190/172 162/192/174
f 155/170/154 169/191/173 170/193/175
f 147/185/167 163/194/176 148/171/155
f 155/170/154 171/195/177 156/172/156
f 149/173/157 163/194/176 164/196/178
f 156/172/156 172/197/179 157/174/158
f 150/175/159 164/196/178 165/198/180
f 143/177/160 82/199/22 158/200/181
f 308/201/24 157/174/158 172/197/179
f 150/175/159 166/202/182 151/179/161
f 162/192/174 178/203/183 163/194/176
f 171/195/177 185/204/184 186/205/185
f 164/196/178 178/203/183 179/206/186
f 172/197/179 186/205/185 187/207/187
f 165/198/180 179/206/186 180/208/188
f 158/200/181 82/209/22 173/210/189
f 308/211/24 172/197/179 187/207/187
f 165/198/180 181/212/190 166/202/182
f 158/200/181 174/213/191 159/186/168
f 166/202/182 182/214/192 167/187/169
f 159/186/168 175/215/193 160/188/170
f 168/189/171 182/214/192 183/216/194
f 160/188/170 176/217/195 161/190/172
f 168/189/171 184/218/196 169/191/173
f 162/192/174 176/217/195 177/219/197
f 169/191/173 185/204/184 170/193/175
f 181/212/190 197/220/198 182/214/192
f 175/215/193 189/221/199 190/222/200
f 183/216/194 197/220/198 198/223/201
f 175/215/193 191/224/202 176/217/195
f 183/216/194 199/225/203 184/218/196
f 177/219/197 191/224/202 192/226/204
f 185/204/184 199/225/203 200/227/205
f 177/219/197 193/228/206 178/203/183
f 185/204/184 201/229/207 186/205/185
f 179/206/186 193/228/206 194/230/208
f 186/205/185 202/231/209 187/207/187
f 180/208/188 194/230/208 195/232/210
f 173/210/189 82/233/22 188/234/211
f 308/235/24 187/207/187 202/231/209
f 180/208/188 196/236/212 181/212/190
f 174/213/191 188/234/211 189/221/199
f 200/227/205 216/237/213 201/229/207
f 194/230/208 208/238/214 209/239/215
f 201/229/207 217/240/216 202/231/209
f 195/232/210 209/239/215 210/241/217
f 188/234/211 82/242/22 203/243/218
f 308/244/24 202/231/209 217/240/216
f 195/232/210 211/245/219 196/236/212
f 188/234/211 204/246/220 189/221/199
f 196/236/212 212/247/221 197/220/198
f 189/221/199 205/248/222 190/222/200
f 198/223/201 212/247/221 213/249/223
f 190/222/200 206/250/224 191/224/202
f 198/223/201 214/251/225 199/225/203
f 192/226/204 206/250/224 207/252/226
f 200/227/205 214/251/225 215/253/227
f 192/226/204 208/238/214 193/228/206
f 204/246/220 220/254/228 205/248/222
f 213/249/223 227/255/229 228/256/230
f 205/248/222 221/257/231 206/250/224
f 213/249/223 229/258/232 214/251/225
f 207/252/226 221/257/231 222/259/233
f 215/253/227 229/258/232 230/260/234
f 207/252/226 223/261/235 208/238/214
f 215/253/227 231/262/236 216/237/213
f 209/239/215 223/261/235 224/263/237
f 216/237/213 232/264/238 217/240/216
f 210/241/217 224/263/237 225/265/239
f 203/243/218 82/266/22 218/267/240
f 308/268/24 217/240/216 232/264/238
f 210/241/217 226/269/241 211/245/219
f 203/243/218 219/270/242 204/246/220
f 211/245/219 227/255/229 212/247/221
f 224/263/237 238/271/243 239/272/244
f 232/264/238 246/273/245 247/274/246
f 225/265/239 239/272/244 240/275/247
f 218/267/240 82/276/22 233/277/248
f 308/278/24 232/264/238 247/274/246
f 225/265/239 241/279/249 226/269/241
f 218/267/240 234/280/250 219/270/242
f 226/269/241 242/281/251 227/255/229
f 220/254/228 234/280/250 235/282/252
f 228/256/230 242/281/251 243/283/253
f 220/254/228 236/284/254 221/257/231
f 228/256/230 244/285/255 229/258/232
f 222/259/233 236/284/254 237/286/256
f 230/260/234 244/285/255 245/287/257
f 222/259/233 238/271/243 223/261/235
f 230/260/234 246/273/245 231/262/236
f 243/283/253 257/288/258 258/289/259
f 235/282/252 251/290/260 236/284/254
f 243/283/253 259/291/261 244/285/255
f 237/286/256 251/290/260 252/292/262
f 245/287/257 259/291/261 260/293/263
f 237/286/256 253/294/264 238/271/243
f 245/287/257 261/295/265 246/273/245
f 239/272/244 253/294/264 254/296/266
f 246/273/245 262/297/267 247/274/246
f 240/275/247 254/296/266 255/298/268
f 233/277/248 82/299/22 248/300/269
f 308/301/24 247/274/246 262/297/267
f 240/275/247 256/302/270 241/279/249
f 233/277/248 249/303/271 234/280/250
f 241/279/249 257/288/258 242/281/251
f 234/280/250 250/304/272 235/282/252
f 261/295/265 277/305/273 262/297/267
f 255/298/268 269/306/274 270/307/275
f 248/300/269 82/308/22 263/309/276
f 308/310/24 262/297/267 277/305/273
f 255/298/268 271/311/277 256/302/270
f 249/303/271 263/309/276 264/312/278
f 256/302/270 272/313/279 257/288/258
f 249/303/271 265/314/280 250/304/272
f 258/289/259 272/313/279 273/315/281
f 250/304/272 266/316/282 251/290/260
f 258/289/259 274/317/283 259/291/261
f 252/292/262 266/316/282 267/318/284
f 260/293/263 274/317/283 275/319/285
f 252/292/262 268/320/286 253/294/264
f 260/293/263 276/321/287 261/295/265
f 254/296/266 268/320/286 269/306/274
f 273/315/281 289/322/288 274/317/283
f 267/318/284 281/323/289 282/324/290
f 275/319/285 289/322/288 290/325/291
f 267/318/284 283/326/292 268/320/286
f 275/319/285 291/327/293 276/321/287
f 269/306/274 283/326/292 284/328/294
f 277/305/273 291/327/293 292/329/295
f 270/307/275 284/328/294 285/330/296
f 263/309/276 82/331/22 278/332/297
f 308/333/24 277/305/273 292/329/295
f 270/307/275 286/334/298 271/311/277
f 264/312/278 278/332/297 279/335/299
f 271/311/277 287/336/300 272/313/279
f 264/312/278 280/337/301 265/314/280
f 273/315/281 287/336/300 288/338/302
f 265/314/280 281/323/289 266/316/282
f 278/332/297 82/339/22 293/340/303
f 308/341/24 292/329/295 307/342/304
f 285/330/296 301/343/305 286/334/298
f 278/332/297 294/344/306 279/335/299
f 286/334/298 302/345/307 287/336/300
f 279/335/299 295/346/308 280/337/301
f 288/338/302 302/345/307 303/347/309
f 280/337/301 296/348/310 281/323/289
f 288/338/302 304/349/311 289/322/288
f 282/324/290 296/348/310 297/350/312
f 290/325/291 304/349/311 305/351/313
f 282/324/290 298/352/314 283/326/292
f 290/325/291 306/353/315 291/327/293
f 284/328/294 298/352/314 299/354/316
f 292/329/295 306/353/315 307/342/304
f 285/330/296 299/354/316 300/355/317
f 297/350/312 312/356/318 313/357/319
f 305/351/313 320/358/320 321/359/321
f 297/350/312 314/360/322 298/352/314
f 305/351/313 322/361/323 306/353/315
f 299/354/316 314/360/322 315/362/324
f 306/353/315 323/363/325 307/342/304
f 300/355/317 315/362/324 316/364/326
f 293/340/303 82/365/22 309/366/327
f 308/367/24 307/342/304 323/363/325
f 300/355/317 317/368/328 301/343/305
f 293/340/303 310/369/329 294/344/306
f 301/343/305 318/370/330 302/345/307
f 294/344/306 311/371/331 295/346/308
f 303/347/309 318/370/330 319/372/332
f 295/346/308 312/356/318 296/348/310
f 303/347/309 320/358/320 304/349/311
f 316/364/326 332/373/333 317/368/328
f 309/366/327 325/374/334 310/369/329
f 317/368/328 333/375/335 318/370/330
f 310/369/329 326/376/336 311/371/331
f 319/372/332 333/375/335 334/377/337
f 311/371/331 327/378/338 312/356/318
f 319/372/332 335/379/339 320/358/320
f 312/356/318 328/380/340 313/357/319
f 321/359/321 335/379/339 336/381/341
f 313/357/319 329/382/342 314/360/322
f 321/359/321 337/383/343 322/361/323
f 315/362/324 329/382/342 330/384/344
f 322/361/323 338/385/345 323/363/325
f 316/364/326 330/384/344 331/386/346
f 309/366/327 82/387/22 324/388/347
f 308/389/24 323/363/325 338/385/345
f 336/381/341 350/390/348 351/391/349
f 328/380/340 344/392/350 329/382/342
f 336/381/341 352/393/351 337/383/343
f 330/384/344 344/392/350 345/394/352
f 337/383/343 353/395/353 338/385/345
f 331/386/346 345/394/352 346/396/354
f 324/388/347 82/397/22 339/398/355
f 308/399/24 338/385/345 353/395/353
f 331/386/346 347/400/356 332/373/333
f 324/388/347 340/401/357 325/374/334
f 332/373/333 348/402/358 333/375/335
f 325/374/334 341/403/359 326/376/336
f 334/377/337 348/402/358 349/404/360
f 326/376/336 342/405/361 327/378/338
f 334/377/337 350/390/348 335/379/339
f 328/380/340 342/405/361 343/406/362
f 339/398/355 355/407/363 340/401/357
f 347/400/356 363/408/364 348/402/358
f 341/403/359 355/407/363 356/409/365
f 349/404/360 363/408/364 364/410/366
f 341/403/359 357/411/367 342/405/361
f 349/404/360 365/412/368 350/390/348
f 343/406/362 357/411/367 358/413/369
f 351/391/349 365/412/368 366/414/370
f 343/406/362 359/415/371 344/392/350
f 351/391/349 367/416/372 352/393/351
f 345/394/352 359/415/371 360/417/373
f 352/393/351 368/418/374 353/395/353
f 346/396/354 360/417/373 361/419/375
f 339/398/355 82/420/22 354/421/376
f 308/422/24 353/395/353 368/418/374
f 346/396/354 362/423/377 347/400/356
f 358/424/369 374/425/378 359/426/371
f 366/427/370 382/428/379 367/429/372
f 360/430/373 374/425/378 375/431/380
f 367/429/372 383/432/381 368/433/374
f 361/434/375 375/431/380 376/435/382
f 354/436/376 82/437/22 369/438/383
f 308/439/24 368/433/374 383/432/381
f 361/434/375 377/440/384 362/441/377
f 354/436/376 370/442/385 355/443/363
f 362/441/377 378/444/386 363/445/364
f 356/446/365 370/442/385 371/447/387
f 364/448/366 378/444/386 379/449/388
f 356/446/365 372/450/389 357/451/367
f 364/448/366 380/452/390 365/453/368
f 358/424/369 372/450/389 373/454/391
f 366/427/370 380/452/390 381/455/392
f 377/440/384 393/456/393 378/444/386
f 371/447/387 385/457/394 386/458/395
f 379/449/388 393/456/393 394/459/396
f 371/447/387 387/460/397 372/450/389
f 379/449/388 395/461/398 380/452/390
f 373/454/391 387/460/397 388/462/399
f 381/455/392 395/461/398 396/463/400
f 373/454/391 389/464/401 374/425/378
f 381/455/392 397/465/402 382/428/379
f 375/431/380 389/464/401 390/466/403
f 382/428/379 398/467/404 383/432/381
f 376/435/382 390/466/403 391/468/405
f 369/438/383 82/469/22 384/470/406
f 308/471/24 383/432/381 398/467/404
f 376/435/382 392/472/407 377/440/384
f 369/438/383 385/457/394 370/442/385
f 397/465/402 411/473/408 412/474/409
f 390/466/403 404/475/410 405/476/411
f 397/465/402 413/477/412 398/467/404
f 391/468/405 405/476/411 406/478/413
f 384/470/406 82/479/22 399/480/414
f 308/481/24 398/467/404 413/477/412
f 391/468/405 407/482/415 392/472/407
f 385/457/394 399/480/414 400/483/416
f 392/472/407 408/484/417 393/456/393
f 385/457/394 401/485/418 386/458/395
f 394/459/396 408/484/417 409/486/419
f 386/458/395 402/487/420 387/460/397
f 394/459/396 410/488/421 395/461/398
f 388/462/399 402/487/420 403/489/422
f 396/463/400 410/488/421 411/473/408
f 388/462/399 404/475/410 389/464/401
f 409/486/419 423/490/423 424/491/424
f 401/485/418 417/492/425 402/487/420
f 409/486/419 425/493/426 410/488/421
f 403/489/422 417/492/425 418/494/427
f 411/473/408 425/493/426 426/495/428
f 403/489/422 419/496/429 404/475/410
f 411/473/408 427/497/430 412/474/409
f 405/476/411 419/496/429 420/498/431
f 412/474/409 428/499/432 413/477/412
f 406/478/413 420/498/431 421/500/433
f 399/480/414 82/501/22 414/502/434
f 308/503/24 413/477/412 428/499/432
f 406/478/413 422/504/435 407/482/415
f 399/480/414 415/505/436 400/483/416
f 407/482/415 423/490/423 408/484/417
f 401/485/418 415/505/436 416/506/437
f 427/497/430 443/507/438 428/499/432
f 421/500/433 435/508/439 436/509/440
f 414/502/434 82/510/22 429/511/441
f 308/512/24 428/499/432 443/507/438
f 421/500/433 437/513/442 422/504/435
f 414/502/434 430/514/443 415/505/436
f 422/504/435 438/515/444 423/490/423
f 416/506/437 430/514/443 431/516/445
f 424/491/424 438/515/444 439/517/446
f 416/506/437 432/518/447 417/492/425
f 424/491/424 440/519/448 425/493/426
f 418/494/427 432/518/447 433/520/449
f 426/495/428 440/519/448 441/521/450
f 418/494/427 434/522/451 419/496/429
f 426/495/428 442/523/452 427/497/430
f 420/498/431 434/522/451 435/508/439
f 431/516/445 447/524/453 432/518/447
f 439/517/446 455/525/454 440/519/448
f 433/520/449 447/524/453 448/526/455
f 441/521/450 455/525/454 456/527/456
f 433/520/449 449/528/457 434/522/451
f 441/521/450 457/529/458 442/523/452
f 435/508/439 449/528/457 450/530/459
f 442/523/452 458/531/460 443/507/438
f 436/509/440 450/530/459 451/532/461
f 429/511/441 82/533/22 444/534/462
f 308/535/24 443/507/438 458/531/460
f 436/509/440 452/536/463 437/513/442
f 430/514/443 444/534/462 445/537/464
f 437/513/442 453/538/465 438/515/444
f 430/514/443 446/539/466 431/516/445
f 439/517/446 453/538/465 454/540/467
f 451/532/461 465/541/468 466/542/469
f 444/534/462 82/543/22 459/544/470
f 308/545/24 458/531/460 473/546/471
f 451/532/461 467/547/472 452/536/463
f 444/534/462 460/548/473 445/537/464
f 452/536/463 468/549/474 453/538/465
f 446/539/466 460/548/473 461/550/475
f 454/540/467 468/549/474 469/551/476
f 446/539/466 462/552/477 447/524/453
f 454/540/467 470/553/478 455/525/454
f 448/526/455 462/552/477 463/554/479
f 456/527/456 470/553/478 471/555/480
f 448/526/455 464/556/481 449/528/457
f 456/527/456 472/557/482 457/529/458
f 450/530/459 464/556/481 465/541/468
f 458/531/460 472/557/482 473/546/471
f 469/551/476 479/6/6 470/553/478
f 463/554/479 476/1/1 2/7/7
f 471/555/480 479/6/6 480/10/10
f 464/556/481 2/7/7 477/11/11
f 471/555/480 481/14/14 472/557/482
f 465/541/468 477/11/11 3/15/15
f 472/557/482 482/18/18 473/546/471
f 466/542/469 3/15/15 4/20/20
f 459/544/470 82/558/22 474/21/21
f 308/559/24 473/546/471 482/18/18
f 466/542/469 5/26/26 467/547/472
f 460/548/473 474/21/21 475/27/27
f 467/547/472 478/30/30 468/549/474
f 461/550/475 475/27/27 1/31/31
f 468/549/474 6/4/4 469/551/476
f 462/552/477 1/31/31 476/1/1
f 476/1/1 1/31/31 9/2/2
f 6/4/4 17/32/32 18/5/5
f 2/7/7 476/1/1 10/3/3
f 479/6/6 18/5/5 19/9/9
f 477/11/11 2/7/7 11/8/8
f 480/10/10 19/9/9 20/13/13
f 3/15/15 477/11/11 12/12/12
f 481/14/14 20/13/13 21/17/17
f 3/15/15 13/16/16 14/19/19
f 4/20/20 14/19/19 15/25/25
f 475/27/27 474/21/21 7/23/23
f 5/26/26 15/25/25 16/29/29
f 1/31/31 475/27/27 8/28/28
f 478/30/30 16/29/29 17/32/32
f 8/28/28 23/48/46 24/33/33
f 16/29/29 31/49/47 32/34/34
f 9/2/2 24/33/33 25/35/35
f 17/32/32 32/34/34 33/36/36
f 10/3/3 25/35/35 26/37/37
f 19/9/9 18/5/5 33/36/36
f 11/8/8 26/37/37 27/39/39
f 20/13/13 19/9/9 34/38/38
f 13/16/16 12/12/12 27/39/39
f 20/13/13 35/40/40 36/42/42
f 13/16/16 28/41/41 29/43/43
f 14/19/19 29/43/43 30/47/45
f 7/23/23 22/45/44 23/48/46
f 15/25/25 30/47/45 31/49/47
f 27/39/39 42/65/61 43/50/48
f 35/40/40 50/66/62 51/51/49
f 28/41/41 43/50/48 44/52/50
f 30/47/45 29/43/43 44/52/50
f 22/45/44 37/54/51 38/57/53
f 30/47/45 45/56/52 46/58/54
f 23/48/46 38/57/53 39/59/55
f 32/34/34 31/49/47 46/58/54
f 24/33/33 39/59/55 40/61/57
f 33/36/36 32/34/34 47/60/56
f 25/35/35 40/61/57 41/63/59
f 34/38/38 33/36/36 48/62/58
f 26/37/37 41/63/59 42/65/61
f 34/38/38 49/64/60 50/66/62
f 47/60/56 46/58/54 61/67/63
f 39/59/55 54/83/77 55/69/65
f 47/60/56 62/68/64 63/70/66
f 40/61/57 55/69/65 56/71/67
f 48/62/58 63/70/66 64/72/68
f 41/63/59 56/71/67 57/73/69
f 49/64/60 64/72/68 65/74/70
f 43/50/48 42/65/61 57/73/69
f 50/66/62 65/74/70 66/76/72
f 44/52/50 43/50/48 58/75/71
f 44/52/50 59/77/73 60/81/75
f 37/54/51 52/79/74 53/82/76
f 45/56/52 60/81/75 61/67/63
f 38/57/53 53/82/76 54/83/77
f 65/74/70 80/100/92 81/84/78
f 59/77/73 58/75/71 73/85/79
f 59/77/73 74/86/80 75/90/82
f 52/79/74 67/88/81 68/91/83
f 60/81/75 75/90/82 76/92/84
f 53/82/76 68/91/83 69/93/85
f 62/68/64 61/67/63 76/92/84
f 54/83/77 69/93/85 70/95/87
f 62/68/64 77/94/86 78/96/88
f 56/71/67 55/69/65 70/95/87
f 63/70/66 78/96/88 79/98/90
f 56/71/67 71/97/89 72/99/91
f 65/74/70 64/72/68 79/98/90
f 58/75/71 57/73/69 72/99/91
f 69/93/85 85/116/106 86/101/93
f 77/94/86 93/117/107 94/102/94
f 71/97/89 70/95/87 86/101/93
f 78/96/88 94/102/94 95/104/96
f 71/97/89 87/103/95 88/105/97
f 79/98/90 95/104/96 96/106/98
f 73/85/79 72/99/91 88/105/97
f 81/84/78 80/100/92 96/106/98
f 74/86/80 73/85/79 89/107/99
f 74/86/80 90/109/101 91/113/103
f 67/88/81 83/111/102 84/114/104
f 75/90/82 91/113/103 92/115/105
f 68/91/83 84/114/104 85/116/106
f 77/94/86 76/92/84 92/115/105
f 90/109/101 89/107/99 104/118/108
f 90/109/101 105/119/109 106/124/112
f 84/114/104 83/111/102 98/121/110
f 91/113/103 106/124/112 107/126/114
f 84/114/104 99/125/113 100/127/115
f 93/117/107 92/115/105 107/126/114
f 85/116/106 100/127/115 101/129/117
f 93/117/107 108/128/116 109/130/118
f 87/103/95 86/101/93 101/129/117
f 95/104/96 94/102/94 109/130/118
f 87/103/95 102/131/119 103/133/121
f 96/106/98 95/104/96 110/132/120
f 89/107/99 88/105/97 103/133/121
f 96/106/98 111/134/122 112/123/111
f 108/128/116 123/151/137 124/135/123
f 102/131/119 101/129/117 116/136/124
f 110/132/120 109/130/118 124/135/123
f 102/131/119 117/137/125 118/139/127
f 110/132/120 125/138/126 126/140/128
f 104/118/108 103/133/121 118/139/127
f 111/134/122 126/140/128 127/142/130
f 105/119/109 104/118/108 119/141/129
f 105/119/109 120/143/131 121/147/133
f 99/125/113 98/121/110 113/145/132
f 106/124/112 121/147/133 122/149/135
f 99/125/113 114/148/134 115/150/136
f 108/128/116 107/126/114 122/149/135
f 100/127/115 115/150/136 116/136/124
f 120/143/131 135/166/151 136/154/139
f 113/145/132 128/168/152 129/155/140
f 121/147/133 136/154/139 137/156/141
f 114/148/134 129/155/140 130/157/142
f 123/151/137 122/149/135 137/156/141
f 115/150/136 130/157/142 131/159/144
f 123/151/137 138/158/143 139/160/145
f 117/137/125 116/136/124 131/159/144
f 125/138/126 124/135/123 139/160/145
f 117/137/125 132/161/146 133/163/148
f 125/138/126 140/162/147 141/164/149
f 119/141/129 118/139/127 133/163/148
f 126/140/128 141/164/149 142/153/138
f 120/143/131 119/141/129 134/165/150
f 140/162/147 139/160/145 154/169/153
f 132/161/146 147/185/167 148/171/155
f 140/162/147 155/170/154 156/172/156
f 134/165/150 133/163/148 148/171/155
f 142/153/138 141/164/149 156/172/156
f 135/166/151 134/165/150 149/173/157
f 135/166/151 150/175/159 151/179/161
f 128/168/152 143/177/160 144/180/162
f 136/154/139 151/179/161 152/181/163
f 130/157/142 129/155/140 144/180/162
f 138/158/143 137/156/141 152/181/163
f 130/157/142 145/182/164 146/184/166
f 138/158/143 153/183/165 154/169/153
f 132/161/146 131/159/144 146/184/166
f 143/177/160 158/200/181 159/186/168
f 151/179/161 166/202/182 167/187/169
f 145/182/164 144/180/162 159/186/168
f 153/183/165 152/181/163 167/187/169
f 145/182/164 160/188/170 161/190/172
f 153/183/165 168/189/171 169/191/173
f 147/185/167 146/184/166 161/190/172
f 155/170/154 154/169/153 169/191/173
f 147/185/167 162/192/174 163/194/176
f 155/170/154 170/193/175 171/195/177
f 149/173/157 148/171/155 163/194/176
f 156/172/156 171/195/177 172/197/179
f 150/175/159 149/173/157 164/196/178
f 150/175/159 165/198/180 166/202/182
f 162/192/174 177/219/197 178/203/183
f 171/195/177 170/193/175 185/204/184
f 164/196/178 163/194/176 178/203/183
f 172/197/179 171/195/177 186/205/185
f 165/198/180 164/196/178 179/206/186
f 165/198/180 180/208/188 181/212/190
f 158/200/181 173/210/189 174/213/191
f 166/202/182 181/212/190 182/214/192
f 159/186/168 174/213/191 175/215/193
f 168/189/171 167/187/169 182/214/192
f 160/188/170 175/215/193 176/217/195
f 168/189/171 183/216/194 184/218/196
f 162/192/174 161/190/172 176/217/195
f 169/191/173 184/218/196 185/204/184
f 181/212/190 196/236/212 197/220/198
f 175/215/193 174/213/191 189/221/199
f 183/216/194 182/214/192 197/220/198
f 175/215/193 190/222/200 191/224/202
f 183/216/194 198/223/201 199/225/203
f 177/219/197 176/217/195 191/224/202
f 185/204/184 184/218/196 199/225/203
f 177/219/197 192/226/204 193/228/206
f 185/204/184 200/227/205 201/229/207
f 179/206/186 178/203/183 193/228/206
f 186/205/185 201/229/207 202/231/209
f 180/208/188 179/206/186 194/230/208
f 180/208/188 195/232/210 196/236/212
f 174/213/191 173/210/189 188/234/211
f 200/227/205 215/253/227 216/237/213
f 194/230/208 193/228/206 208/238/214
f 201/229/207 216/237/213 217/240/216
f 195/232/210 194/230/208 209/239/215
f 195/232/210 210/241/217 211/245/219
f 188/234/211 203/243/218 204/246/220
f 196/236/212 211/245/219 212/247/221
f 189/221/199 204/246/220 205/248/222
f 198/223/201 197/220/198 212/247/221
f 190/222/200 205/248/222 206/250/224
f 198/223/201 213/249/223 214/251/225
f 192/226/204 191/224/202 206/250/224
f 200/227/205 199/225/203 214/251/225
f 192/226/204 207/252/226 208/238/214
f 204/246/220 219/270/242 220/254/228
f 213/249/223 212/247/221 227/255/229
f 205/248/222 220/254/228 221/257/231
f 213/249/223 228/256/230 229/258/232
f 207/252/226 206/250/224 221/257/231
f 215/253/227 214/251/225 229/258/232
f 207/252/226 222/259/233 223/261/235
f 215/253/227 230/260/234 231/262/236
f 209/239/215 208/238/214 223/261/235
f 216/237/213 231/262/236 232/264/238
f 210/241/217 209/239/215 224/263/237
f 210/241/217 225/265/239 226/269/241
f 203/243/218 218/267/240 219/270/242
f 211/245/219 226/269/241 227/255/229
f 224/263/237 223/261/235 238/271/243
f 232/264/238 231/262/236 246/273/245
f 225/265/239 224/263/237 239/272/244
f 225/265/239 240/275/247 241/279/249
f 218/267/240 233/277/248 234/280/250
f 226/269/241 241/279/249 242/281/251
f 220/254/228 219/270/242 234/280/250
f 228/256/230 227/255/229 242/281/251
f 220/254/228 235/282/252 236/284/254
f 228/256/230 243/283/253 244/285/255
f 222/259/233 221/257/231 236/284/254
f 230/260/234 229/258/232 244/285/255
f 222/259/233 237/286/256 238/271/243
f 230/260/234 245/287/257 246/273/245
f 243/283/253 242/281/251 257/288/258
f 235/282/252 250/304/272 251/290/260
f 243/283/253 258/289/259 259/291/261
f 237/286/256 236/284/254 251/290/260
f 245/287/257 244/285/255 259/291/261
f 237/286/256 252/292/262 253/294/264
f 245/287/257 260/293/263 261/295/265
f 239/272/244 238/271/243 253/294/264
f 246/273/245 261/295/265 262/297/267
f 240/275/247 239/272/244 254/296/266
f 240/275/247 255/298/268 256/302/270
f 233/277/248 248/300/269 249/303/271
f 241/279/249 256/302/270 257/288/258
f 234/280/250 249/303/271 250/304/272
f 261/295/265 276/321/287 277/305/273
f 255/298/268 254/296/266 269/306/274
f 255/298/268 270/307/275 271/311/277
f 249/303/271 248/300/269 263/309/276
f 256/302/270 271/311/277 272/313/279
f 249/303/271 264/312/278 265/314/280
f 258/289/259 257/288/258 272/313/279
f 250/304/272 265/314/280 266/316/282
f 258/289/259 273/315/281 274/317/283
f 252/292/262 251/290/260 266/316/282
f 260/293/263 259/291/261 274/317/283
f 252/292/262 267/318/284 268/320/286
f 260/293/263 275/319/285 276/321/287
f 254/296/266 253/294/264 268/320/286
f 273/315/281 288/338/302 289/322/288
f 267/318/284 266/316/282 281/323/289
f 275/319/285 274/317/283 289/322/288
f 267/318/284 282/324/290 283/326/292
f 275/319/285 290/325/291 291/327/293
f 269/306/274 268/320/286 283/326/292
f 277/305/273 276/321/287 291/327/293
f 270/307/275 269/306/274 284/328/294
f 270/307/275 285/330/296 286/334/298
f 264/312/278 263/309/276 278/332/297
f 271/311/277 286/334/298 287/336/300
f 264/312/278 279/335/299 280/337/301
f 273/315/281 272/313/279 287/336/300
f 265/314/280 280/337/301 281/323/289
f 285/330/296 300/355/317 301/343/305
f 278/332/297 293/340/303 294/344/306
f 286/334/298 301/343/305 302/345/307
f 279/335/299 294/344/306 295/346/308
f 288/338/302 287/336/300 302/345/307
f 280/337/301 295/346/308 296/348/310
f 288/338/302 303/347/309 304/349/311
f 282/324/290 281/323/289 296/348/310
f 290/325/291 289/322/288 304/349/311
f 282/324/290 297/350/312 298/352/314
f 290/325/291 305/351/313 306/353/315
f 284/328/294 283/326/292 298/352/314
f 292/329/295 291/327/293 306/353/315
f 285/330/296 284/328/294 299/354/316
f 297/350/312 296/348/310 312/356/318
f 305/351/313 304/349/311 320/358/320
f 297/350/312 313/357/319 314/360/322
f 305/351/313 321/359/321 322/361/323
f 299/354/316 298/352/314 314/360/322
f 306/353/315 322/361/323 323/363/325
f 300/355/317 299/354/316 315/362/324
f 300/355/317 316/364/326 317/368/328
f 293/340/303 309/366/327 310/369/329
f 301/343/305 317/368/328 318/370/330
f 294/344/306 310/369/329 311/371/331
f 303/347/309 302/345/307 318/370/330
f 295/346/308 311/371/331 312/356/318
f 303/347/309 319/372/332 320/358/320
f 316/364/326 331/386/346 332/373/333
f 309/366/327 324/388/347 325/374/334
f 317/368/328 332/373/333 333/375/335
f 310/369/329 325/374/334 326/376/336
f 319/372/332 318/370/330 333/375/335
f 311/371/331 326/376/336 327/378/338
f 319/372/332 334/377/337 335/379/339
f 312/356/318 327/378/338 328/380/340
f 321/359/321 320/358/320 335/379/339
f 313/357/319 328/380/340 329/382/342
f 321/359/321 336/381/341 337/383/343
f 315/362/324 314/360/322 329/382/342
f 322/361/323 337/383/343 338/385/345
f 316/364/326 315/362/324 330/384/344
f 336/381/341 335/379/339 350/390/348
f 328/380/340 343/406/362 344/392/350
f 336/381/341 351/391/349 352/393/351
f 330/384/344 329/382/342 344/392/350
f 337/383/343 352/393/351 353/395/353
f 331/386/346 330/384/344 345/394/352
f 331/386/346 346/396/354 347/400/356
f 324/388/347 339/398/355 340/401/357
f 332/373/333 347/400/356 348/402/358
f 325/374/334 340/401/357 341/403/359
f 334/377/337 333/375/335 348/402/358
f 326/376/336 341/403/359 342/405/361
f 334/377/337 349/404/360 350/390/348
f 328/380/340 327/378/338 342/405/361
f 339/398/355 354/421/376 355/407/363
f 347/400/356 362/423/377 363/408/364
f 341/403/359 340/401/357 355/407/363
f 349/404/360 348/402/358 363/408/364
f 341/403/359 356/409/365 357/411/367
f 349/404/360 364/410/366 365/412/368
f 343/406/362 342/405/361 357/411/367
f 351/391/349 350/390/348 365/412/368
f 343/406/362 358/413/369 359/415/371
f 351/391/349 366/414/370 367/416/372
f 345/394/352 344/392/350 359/415/371
f 352/393/351 367/416/372 368/418/374
f 346/396/354 345/394/352 360/417/373
f 346/396/354 361/419/375 362/423/377
f 358/424/369 373/454/391 374/425/378
f 366/427/370 381/455/392 382/428/379
f 360/430/373 359/426/371 374/425/378
f 367/429/372 382/428/379 383/432/381
f 361/434/375 360/430/373 375/431/380
f 361/434/375 376/435/382 377/440/384
f 354/436/376 369/438/383 370/442/385
f 362/441/377 377/440/384 378/444/386
f 356/446/365 355/443/363 370/442/385
f 364/448/366 363/445/364 378/444/386
f 356/446/365 371/447/387 372/450/389
f 364/448/366 379/449/388 380/452/390
f 358/424/369 357/451/367 372/450/389
f 366/427/370 365/453/368 380/452/390
f 377/440/384 392/472/407 393/456/393
f 371/447/387 370/442/385 385/457/394
f 379/449/388 378/444/386 393/456/393
f 371/447/387 386/458/395 387/460/397
f 379/449/388 394/459/396 395/461/398
f 373/454/391 372/450/389 387/460/397
f 381/455/392 380/452/390 395/461/398
f 373/454/391 388/462/399 389/464/401
f 381/455/392 396/463/400 397/465/402
f 375/431/380 374/425/378 389/464/401
f 382/428/379 397/465/402 398/467/404
f 376/435/382 375/431/380 390/466/403
f 376/435/382 391/468/405 392/472/407
f 369/438/383 384/470/406 385/457/394
f 397/465/402 396/463/400 411/473/408
f 390/466/403 389/464/401 404/475/410
f 397/465/402 412/474/409 413/477/412
f 391/468/405 390/466/403 405/476/411
f 391/468/405 406/478/413 407/482/415
f 385/457/394 384/470/406 399/480/414
f 392/472/407 407/482/415 408/484/417
f 385/457/394 400/483/416 401/485/418
f 394/459/396 393/456/393 408/484/417
f 386/458/395 401/485/418 402/487/420
f 394/459/396 409/486/419 410/488/421
f 388/462/399 387/460/397 402/487/420
f 396/463/400 395/461/398 410/488/421
f 388/462/399 403/489/422 404/475/410
f 409/486/419 408/484/417 423/490/423
f 401/485/418 416/506/437 417/492/425
f 409/486/419 424/491/424 425/493/426
f 403/489/422 402/487/420 417/492/425
f 411/473/408 410/488/421 425/493/426
f 403/489/422 418/494/427 419/496/429
f 411/473/408 426/495/428 427/497/430
f 405/476/411 404/475/410 419/496/429
f 412/474/409 427/497/430 428/499/432
f 406/478/413 405/476/411 420/498/431
f 406/478/413 421/500/433 422/504/435
f 399/480/414 414/502/434 415/505/436
f 407/482/415 422/504/435 423/490/423
f 401/485/418 400/483/416 415/505/436
f 427/497/430 442/523/452 443/507/438
f 421/500/433 420/498/431 435/508/439
f 421/500/433 436/509/440 437/513/442
f 414/502/434 429/511/441 430/514/443
f 422/504/435 437/513/442 438/515/444
f 416/506/437 415/505/436 430/514/443
f 424/491/424 423/490/423 438/515/444
f 416/506/437 431/516/445 432/518/447
f 424/491/424 439/517/446 440/519/448
f 418/494/427 417/492/425 432/518/447
f 426/495/428 425/493/426 440/519/448
f 418/494/427 433/520/449 434/522/451
f 426/495/428 441/521/450 442/523/452
f 420/498/431 419/496/429 434/522/451
f 431/516/445 446/539/466 447/524/453
f 439/517/446 454/540/467 455/525/454
f 433/520/449 432/518/447 447/524/453
f 441/521/450 440/519/448 455/525/454
f 433/520/449 448/526/455 449/528/457
f 441/521/450 456/527/456 457/529/458
f 435/508/439 434/522/451 449/528/457
f 442/523/452 457/529/458 458/531/460
f 436/509/440 435/508/439 450/530/459
f 436/509/440 451/532/461 452/536/463
f 430/514/443 429/511/441 444/534/462
f 437/513/442 452/536/463 453/538/465
f 430/514/443 445/537/464 446/539/466
f 439/517/446 438/515/444 453/538/465
f 451/532/461 450/530/459 465/541/468
f 451/532/461 466/542/469 467/547/472
f 444/534/462 459/544/470 460/548/473
f 452/536/463 467/547/472 468/549/474
f 446/539/466 445/537/464 460/548/473
f 454/540/467 453/538/465 468/549/474
f 446/539/466 461/550/475 462/552/477
f 454/540/467 469/551/476 470/553/478
f 448/526/455 447/524/453 462/552/477
f 456/527/456 455/525/454 470/553/478
f 448/526/455 463/554/479 464/556/481
f 456/527/456 471/555/480 472/557/482
f 450/530/459 449/528/457 464/556/481
f 458/531/460 457/529/458 472/557/482
f 469/551/476 6/4/4 479/6/6
f 463/554/479 462/552/477 476/1/1
f 471/555/480 470/553/478 479/6/6
f 464/556/481 463/554/479 2/7/7
f 471/555/480 480/10/10 481/14/14
f 465/541/468 464/556/481 477/11/11
f 472/557/482 481/14/14 482/18/18
f 466/542/469 465/541/468 3/15/15
f 466/542/469 4/20/20 5/26/26
f 460/548/473 459/544/470 474/21/21
f 467/547/472 5/26/26 478/30/30
f 461/550/475 460/548/473 475/27/27
f 468/549/474 478/30/30 6/4/4
f 462/552/477 461/550/475 1/31/31
