# Blender 4.5.3 LTS
# www.blender.org
mtllib saucer2.mtl
o Cylinder
v 0.000000 3.325533 0.027402
v 0.000000 3.325533 0.468045
v 0.648779 3.261634 0.027402
v 0.648779 3.261634 0.468045
v 1.272626 3.072392 0.027402
v 1.272626 3.072392 0.468045
v 1.847567 2.765079 0.027402
v 1.847567 2.765079 0.468045
v 2.351507 2.351507 0.027402
v 2.351507 2.351507 0.468045
v 2.765079 1.847567 0.027402
v 2.765079 1.847567 0.468045
v 3.072392 1.272626 0.027402
v 3.072392 1.272626 0.468045
v 3.261634 0.648779 0.027402
v 3.261634 0.648779 0.468045
v 3.325533 0.000000 0.027402
v 3.325533 0.000000 0.468045
v 3.261634 -0.648779 0.027402
v 3.261634 -0.648779 0.468045
v 3.072392 -1.272626 0.027402
v 3.072392 -1.272626 0.468045
v 2.765079 -1.847567 0.027402
v 2.765079 -1.847567 0.468045
v 2.351507 -2.351507 0.027402
v 2.351507 -2.351507 0.468045
v 1.847567 -2.765079 0.027402
v 1.847567 -2.765079 0.468045
v 1.272626 -3.072392 0.027402
v 1.272626 -3.072392 0.468045
v 0.648779 -3.261634 0.027402
v 0.648779 -3.261634 0.468045
v 0.000000 -3.325533 0.027402
v 0.000000 -3.325533 0.468045
v -0.648779 -3.261634 0.027402
v -0.648779 -3.261634 0.468045
v -1.272626 -3.072392 0.027402
v -1.272626 -3.072392 0.468045
v -1.847567 -2.765079 0.027402
v -1.847567 -2.765079 0.468045
v -2.351507 -2.351507 0.027402
v -2.351507 -2.351507 0.468045
v -2.765079 -1.847567 0.027402
v -2.765079 -1.847567 0.468045
v -3.072392 -1.272626 0.027402
v -3.072392 -1.272626 0.468045
v -3.261634 -0.648779 0.027402
v -3.261634 -0.648779 0.468045
v -3.325533 0.000000 0.027402
v -3.325533 0.000000 0.468045
v -3.261634 0.648779 0.027402
v -3.261634 0.648779 0.468045
v -3.072392 1.272626 0.027402
v -3.072392 1.272626 0.468045
v -2.765079 1.847567 0.027402
v -2.765079 1.847567 0.468045
v -2.351507 2.351507 0.027402
v -2.351507 2.351507 0.468045
v -1.847567 2.765079 0.027402
v -1.847567 2.765079 0.468045
v -1.272626 3.072392 0.027402
v -1.272626 3.072392 0.468045
v -0.648779 3.261634 0.027402
v -0.648779 3.261634 0.468045
v 0.648780 3.261634 18.332111
v 0.000000 3.325533 18.332111
v 1.272627 3.072392 18.332111
v 1.847568 2.765079 18.332111
v 2.351507 2.351507 18.332111
v 2.765080 1.847567 18.332111
v 3.072392 1.272626 18.332111
v 3.261634 0.648779 18.332111
v 3.325533 0.000000 18.332111
v 3.261634 -0.648779 18.332111
v 3.072392 -1.272626 18.332111
v 2.765080 -1.847567 18.332111
v 2.351507 -2.351507 18.332111
v 1.847568 -2.765079 18.332111
v 1.272627 -3.072392 18.332111
v 0.648780 -3.261634 18.332111
v 0.000000 -3.325533 18.332111
v -0.648779 -3.261634 18.332111
v -1.272626 -3.072392 18.332111
v -1.847567 -2.765079 18.332111
v -2.351506 -2.351507 18.332111
v -2.765079 -1.847567 18.332111
v -3.072391 -1.272626 18.332111
v -3.261633 -0.648779 18.332111
v -3.325532 0.000000 18.332111
v -3.261633 0.648779 18.332111
v -3.072391 1.272626 18.332111
v -2.765079 1.847567 18.332111
v -2.351506 2.351507 18.332111
v -1.847567 2.765079 18.332111
v -1.272626 3.072392 18.332111
v -0.648779 3.261634 18.332111
v 2.157238 10.845167 0.468045
v 0.000000 11.057636 0.468045
v 4.231575 10.215926 0.468045
v 6.143294 9.194090 0.468045
v 7.818931 7.818931 0.468045
v 9.194090 6.143294 0.468045
v 10.215924 4.231575 0.468045
v 10.845167 2.157238 0.468045
v 11.057636 0.000000 0.468045
v 10.845167 -2.157238 0.468045
v 10.215924 -4.231575 0.468045
v 9.194090 -6.143294 0.468045
v 7.818931 -7.818931 0.468045
v 6.143294 -9.194090 0.468045
v 4.231575 -10.215926 0.468045
v 2.157238 -10.845167 0.468045
v 0.000000 -11.057636 0.468045
v -2.157238 -10.845167 0.468045
v -4.231575 -10.215924 0.468045
v -6.143294 -9.194090 0.468045
v -7.818931 -7.818931 0.468045
v -9.194090 -6.143294 0.468045
v -10.215924 -4.231575 0.468045
v -10.845167 -2.157238 0.468045
v -11.057636 0.000000 0.468045
v -10.845167 2.157238 0.468045
v -10.215924 4.231575 0.468045
v -9.194090 6.143294 0.468045
v -7.818931 7.818931 0.468045
v -6.143294 9.194090 0.468045
v -4.231575 10.215924 0.468045
v -2.157238 10.845167 0.468045
v 2.157239 10.845167 18.332111
v 0.000000 11.057636 18.332111
v 4.231575 10.215926 18.332111
v 6.143295 9.194090 18.332111
v 7.818931 7.818931 18.332111
v 9.194090 6.143294 18.332111
v 10.215925 4.231575 18.332111
v 10.845168 2.157238 18.332111
v 11.057637 0.000000 18.332111
v 10.845168 -2.157238 18.332111
v 10.215925 -4.231575 18.332111
v 9.194090 -6.143294 18.332111
v 7.818931 -7.818931 18.332111
v 6.143295 -9.194090 18.332111
v 4.231575 -10.215926 18.332111
v 2.157239 -10.845167 18.332111
v 0.000000 -11.057636 18.332111
v -2.157238 -10.845167 18.332111
v -4.231575 -10.215924 18.332111
v -6.143294 -9.194090 18.332111
v -7.818930 -7.818931 18.332111
v -9.194089 -6.143294 18.332111
v -10.215924 -4.231575 18.332111
v -10.845167 -2.157238 18.332111
v -11.057635 0.000000 18.332111
v -10.845167 2.157238 18.332111
v -10.215924 4.231575 18.332111
v -9.194089 6.143294 18.332111
v -7.818930 7.818931 18.332111
v -6.143294 9.194090 18.332111
v -4.231575 10.215924 18.332111
v -2.157238 10.845167 18.332111
v 5.754141 28.928080 6.439938
v -0.000001 29.494812 6.439938
v 11.287173 27.249655 6.439938
v 16.386444 24.524036 6.439938
v 20.855982 20.855982 6.439938
v 24.524040 16.386440 6.439938
v 27.249653 11.287176 6.439938
v 28.928076 5.754150 6.439938
v 29.494812 -0.000000 6.439938
v 28.928076 -5.754150 6.439938
v 27.249653 -11.287176 6.439938
v 24.524040 -16.386440 6.439938
v 20.855982 -20.855982 6.439938
v 16.386444 -24.524036 6.439938
v 11.287173 -27.249655 6.439938
v 5.754141 -28.928080 6.439938
v -0.000001 -29.494812 6.439938
v -5.754151 -28.928080 6.439938
v -11.287175 -27.249655 6.439938
v -16.386438 -24.524040 6.439938
v -20.855980 -20.855982 6.439939
v -24.524038 -16.386438 6.439939
v -27.249653 -11.287176 6.439938
v -28.928080 -5.754149 6.439938
v -29.494812 -0.000000 6.439939
v -28.928080 5.754149 6.439938
v -27.249653 11.287176 6.439938
v -24.524038 16.386438 6.439939
v -20.855980 20.855982 6.439939
v -16.386438 24.524040 6.439938
v -11.287175 27.249655 6.439938
v -5.754151 28.928080 6.439938
v 5.754142 28.928080 12.360215
v -0.000000 29.494812 12.360215
v 11.287173 27.249655 12.360215
v 16.386446 24.524036 12.360215
v 20.855986 20.855982 12.360215
v 24.524040 16.386440 12.360215
v 27.249653 11.287176 12.360215
v 28.928076 5.754150 12.360215
v 29.494812 -0.000000 12.360215
v 28.928076 -5.754150 12.360215
v 27.249653 -11.287176 12.360215
v 24.524040 -16.386440 12.360215
v 20.855986 -20.855982 12.360215
v 16.386446 -24.524036 12.360215
v 11.287173 -27.249655 12.360215
v 5.754142 -28.928080 12.360215
v -0.000000 -29.494812 12.360215
v -5.754151 -28.928080 12.360215
v -11.287175 -27.249655 12.360215
v -16.386438 -24.524040 12.360215
v -20.855984 -20.855982 12.360215
v -24.524038 -16.386438 12.360215
v -27.249653 -11.287176 12.360215
v -28.928080 -5.754149 12.360215
v -29.494812 -0.000000 12.360215
v -28.928080 5.754149 12.360215
v -27.249653 11.287176 12.360215
v -24.524038 16.386438 12.360215
v -20.855984 20.855982 12.360215
v -16.386438 24.524040 12.360215
v -11.287175 27.249655 12.360215
v -5.754151 28.928080 12.360215
v 0.648780 3.261634 18.830879
v 0.000000 3.325533 18.830879
v 1.272627 3.072392 18.830879
v 1.847568 2.765079 18.830879
v 2.351507 2.351507 18.830879
v 2.765080 1.847567 18.830879
v 3.072392 1.272626 18.830879
v 3.261634 0.648779 18.830879
v 3.325533 0.000000 18.830879
v 3.261634 -0.648779 18.830879
v 3.072392 -1.272626 18.830879
v 2.765080 -1.847567 18.830879
v 2.351507 -2.351507 18.830879
v 1.847568 -2.765079 18.830879
v 1.272627 -3.072392 18.830879
v 0.648780 -3.261634 18.830879
v 0.000000 -3.325533 18.830879
v -0.648779 -3.261634 18.830879
v -1.272626 -3.072392 18.830879
v -1.847567 -2.765079 18.830879
v -2.351506 -2.351507 18.830879
v -2.765079 -1.847567 18.830879
v -3.072391 -1.272626 18.830879
v -3.261633 -0.648779 18.830879
v -3.325532 0.000000 18.830879
v -3.261633 0.648779 18.830879
v -3.072391 1.272626 18.830879
v -2.765079 1.847567 18.830879
v -2.351506 2.351507 18.830879
v -1.847567 2.765079 18.830879
v -1.272626 3.072392 18.830879
v -0.648779 3.261634 18.830879
vn 0.0980 0.9952 -0.0000
vn 0.2903 0.9569 -0.0000
vn 0.4714 0.8819 -0.0000
vn 0.6344 0.7730 -0.0000
vn 0.7730 0.6344 -0.0000
vn 0.8819 0.4714 -0.0000
vn 0.9569 0.2903 -0.0000
vn 0.9952 0.0980 -0.0000
vn 0.9952 -0.0980 -0.0000
vn 0.9569 -0.2903 -0.0000
vn 0.8819 -0.4714 -0.0000
vn 0.7730 -0.6344 -0.0000
vn 0.6344 -0.7730 -0.0000
vn 0.4714 -0.8819 -0.0000
vn 0.2903 -0.9569 -0.0000
vn 0.0980 -0.9952 -0.0000
vn -0.0980 -0.9952 -0.0000
vn -0.2903 -0.9569 -0.0000
vn -0.4714 -0.8819 -0.0000
vn -0.6344 -0.7730 -0.0000
vn -0.7730 -0.6344 -0.0000
vn -0.8819 -0.4714 -0.0000
vn -0.9569 -0.2903 -0.0000
vn -0.9952 -0.0980 -0.0000
vn -0.9952 0.0980 -0.0000
vn -0.9569 0.2903 -0.0000
vn -0.8819 0.4714 -0.0000
vn -0.7730 0.6344 -0.0000
vn -0.6344 0.7730 -0.0000
vn -0.4714 0.8819 -0.0000
vn -0.0000 -0.0000 -1.0000
vn -0.2903 0.9569 -0.0000
vn -0.0980 0.9952 -0.0000
vn -0.0000 -0.0000 1.0000
vn -0.1963 0.2392 0.9509
vn 0.3080 0.0303 -0.9509
vn 0.0898 0.2962 0.9509
vn -0.2392 0.1963 0.9509
vn 0.2962 0.0898 -0.9509
vn 0.0303 0.3080 0.9509
vn -0.2729 0.1459 0.9509
vn 0.2729 0.1459 -0.9509
vn -0.0303 0.3080 -0.9509
vn -0.2962 0.0898 0.9509
vn 0.2392 0.1963 -0.9509
vn -0.0898 0.2962 -0.9509
vn -0.3080 0.0303 0.9509
vn 0.1963 0.2392 -0.9509
vn -0.1459 0.2729 -0.9509
vn -0.3080 -0.0303 0.9509
vn 0.1459 0.2729 -0.9509
vn -0.1963 0.2392 -0.9509
vn -0.2962 -0.0898 0.9509
vn 0.0898 0.2962 -0.9509
vn -0.2392 0.1963 -0.9509
vn -0.2729 -0.1459 0.9509
vn 0.0303 0.3080 -0.9509
vn -0.2729 0.1459 -0.9509
vn -0.2392 -0.1963 0.9509
vn -0.2962 0.0898 -0.9509
vn -0.1963 -0.2392 0.9509
vn -0.3080 0.0303 -0.9509
vn -0.1459 -0.2729 0.9509
vn -0.3080 -0.0303 -0.9509
vn -0.0898 -0.2962 0.9509
vn -0.2962 -0.0898 -0.9509
vn 0.1459 0.2729 0.9509
vn 0.3080 -0.0303 -0.9509
vn -0.1459 0.2729 0.9509
vn 0.1963 0.2392 0.9509
vn 0.2962 -0.0898 -0.9509
vn -0.0898 0.2962 0.9509
vn 0.2392 0.1963 0.9509
vn 0.2729 -0.1459 -0.9509
vn -0.0303 0.3080 0.9509
vn 0.2729 0.1459 0.9509
vn 0.2392 -0.1963 -0.9509
vn 0.2962 0.0898 0.9509
vn 0.1963 -0.2392 -0.9509
vn 0.3080 0.0303 0.9509
vn 0.1459 -0.2729 -0.9509
vn 0.3080 -0.0303 0.9509
vn 0.0898 -0.2962 -0.9509
vn 0.2962 -0.0898 0.9509
vn 0.0303 -0.3080 -0.9509
vn 0.2729 -0.1459 0.9509
vn -0.0303 -0.3080 -0.9509
vn 0.2392 -0.1963 0.9509
vn -0.0898 -0.2962 -0.9509
vn 0.1963 -0.2392 0.9509
vn -0.1459 -0.2729 -0.9509
vn 0.1459 -0.2729 0.9509
vn -0.1963 -0.2392 -0.9509
vn 0.0898 -0.2962 0.9509
vn -0.2392 -0.1963 -0.9509
vn 0.0303 -0.3080 0.9509
vn -0.2729 -0.1459 -0.9509
vn -0.0303 -0.3080 0.9509
vt 0.304655 0.214673
vt 0.305054 0.221045
vt 0.304655 0.221045
vt 0.305054 0.214673
vt 0.305452 0.221045
vt 0.305452 0.214673
vt 0.305850 0.221045
vt 0.305850 0.214673
vt 0.306248 0.221045
vt 0.306248 0.214673
vt 0.306647 0.221045
vt 0.306647 0.214673
vt 0.307045 0.221045
vt 0.307045 0.214673
vt 0.307443 0.221045
vt 0.307443 0.214673
vt 0.307841 0.221045
vt 0.307841 0.214673
vt 0.308240 0.221045
vt 0.308240 0.214673
vt 0.308638 0.221045
vt 0.308638 0.214673
vt 0.309036 0.221045
vt 0.309036 0.214673
vt 0.309434 0.221045
vt 0.309434 0.214673
vt 0.309833 0.221045
vt 0.309833 0.214673
vt 0.310231 0.221045
vt 0.310231 0.214673
vt 0.310629 0.221045
vt 0.310629 0.214673
vt 0.311027 0.221045
vt 0.311027 0.214673
vt 0.311426 0.221045
vt 0.311426 0.214673
vt 0.311824 0.221045
vt 0.311824 0.214673
vt 0.312222 0.221045
vt 0.312222 0.214673
vt 0.312620 0.221045
vt 0.312620 0.214673
vt 0.313019 0.221045
vt 0.313019 0.214673
vt 0.313417 0.221045
vt 0.313417 0.214673
vt 0.313815 0.221045
vt 0.313815 0.214673
vt 0.314213 0.221045
vt 0.314213 0.214673
vt 0.314612 0.221045
vt 0.314612 0.214673
vt 0.315010 0.221045
vt 0.315010 0.214673
vt 0.315408 0.221045
vt 0.315408 0.214673
vt 0.315806 0.221045
vt 0.315806 0.214673
vt 0.316205 0.221045
vt 0.316205 0.214673
vt 0.316603 0.221045
vt 0.316603 0.214673
vt 0.317001 0.221045
vt 0.317001 0.214673
vt 0.317399 0.221045
vt 0.307245 0.227230
vt 0.310841 0.224827
vt 0.308438 0.221231
vt 0.311214 0.224827
vt 0.311388 0.225401
vt 0.314213 0.227289
vt 0.313617 0.227230
vt 0.313043 0.227056
vt 0.312514 0.226774
vt 0.312051 0.226393
vt 0.311670 0.225930
vt 0.311155 0.224231
vt 0.311214 0.223634
vt 0.311388 0.223060
vt 0.311670 0.222531
vt 0.314213 0.221172
vt 0.314810 0.221231
vt 0.312051 0.222068
vt 0.315384 0.221405
vt 0.312514 0.221688
vt 0.315913 0.221688
vt 0.316376 0.222068
vt 0.313617 0.221231
vt 0.313043 0.221405
vt 0.316756 0.222531
vt 0.317039 0.223060
vt 0.317399 0.214673
vt 0.317213 0.223634
vt 0.317272 0.224231
vt 0.317213 0.224827
vt 0.317039 0.225401
vt 0.316756 0.225930
vt 0.316376 0.226393
vt 0.315913 0.226774
vt 0.315384 0.227056
vt 0.314810 0.227230
vt 0.307841 0.221172
vt 0.307245 0.221231
vt 0.306671 0.221405
vt 0.306142 0.221688
vt 0.305679 0.222068
vt 0.305298 0.222531
vt 0.305016 0.223060
vt 0.304842 0.223634
vt 0.304783 0.224231
vt 0.304842 0.224827
vt 0.305016 0.225401
vt 0.305298 0.225930
vt 0.305679 0.226393
vt 0.306142 0.226774
vt 0.306671 0.227056
vt 0.307841 0.227289
vt 0.308438 0.227230
vt 0.309012 0.227056
vt 0.309541 0.226774
vt 0.310004 0.226393
vt 0.310385 0.225930
vt 0.310667 0.225401
vt 0.310900 0.224231
vt 0.310841 0.223634
vt 0.310667 0.223060
vt 0.310385 0.222531
vt 0.310004 0.222068
vt 0.309541 0.221688
vt 0.309012 0.221405
s 0
f 2/1/1 3/2/1 1/3/1
f 4/4/2 5/5/2 3/2/2
f 6/6/3 7/7/3 5/5/3
f 8/8/4 9/9/4 7/7/4
f 10/10/5 11/11/5 9/9/5
f 12/12/6 13/13/6 11/11/6
f 14/14/7 15/15/7 13/13/7
f 16/16/8 17/17/8 15/15/8
f 18/18/9 19/19/9 17/17/9
f 20/20/10 21/21/10 19/19/10
f 22/22/11 23/23/11 21/21/11
f 24/24/12 25/25/12 23/23/12
f 26/26/13 27/27/13 25/25/13
f 28/28/14 29/29/14 27/27/14
f 30/30/15 31/31/15 29/29/15
f 32/32/16 33/33/16 31/31/16
f 34/34/17 35/35/17 33/33/17
f 36/36/18 37/37/18 35/35/18
f 38/38/19 39/39/19 37/37/19
f 40/40/20 41/41/20 39/39/20
f 42/42/21 43/43/21 41/41/21
f 44/44/22 45/45/22 43/43/22
f 46/46/23 47/47/23 45/45/23
f 48/48/24 49/49/24 47/47/24
f 50/50/25 51/51/25 49/49/25
f 52/52/26 53/53/26 51/51/26
f 54/54/27 55/55/27 53/53/27
f 56/56/28 57/57/28 55/55/28
f 58/58/29 59/59/29 57/57/29
f 60/60/30 61/61/30 59/59/30
f 42/42/31 116/40/31 117/42/31
f 62/62/32 63/63/32 61/61/32
f 64/64/33 1/65/33 63/63/33
f 31/66/31 47/67/31 63/68/31
f 74/69/10 235/70/10 75/70/10
f 81/71/34 144/72/34 80/72/34
f 22/22/31 108/24/31 24/24/31
f 79/73/34 144/72/34 143/73/34
f 4/4/31 99/6/31 6/6/31
f 58/58/31 124/56/31 125/58/31
f 79/73/34 142/74/34 78/74/34
f 38/38/31 116/40/31 40/40/31
f 77/75/34 142/74/34 141/75/34
f 20/20/31 107/22/31 22/22/31
f 77/75/34 140/76/34 76/76/34
f 54/54/31 124/56/31 56/56/31
f 76/76/34 139/70/34 75/70/34
f 2/1/31 97/4/31 4/4/31
f 36/36/31 115/38/31 38/38/31
f 74/69/34 139/70/34 138/69/34
f 18/18/31 106/20/31 20/20/31
f 74/69/34 137/77/34 73/77/34
f 52/52/31 123/54/31 54/54/31
f 73/77/34 136/78/34 72/78/34
f 34/34/31 114/36/31 36/36/31
f 72/78/34 135/79/34 71/79/34
f 18/18/31 104/16/31 105/18/31
f 70/80/34 135/79/34 134/80/34
f 66/81/34 160/82/34 96/82/34
f 50/50/31 122/52/31 52/52/31
f 70/80/34 133/83/34 69/83/34
f 96/82/34 159/84/34 95/84/34
f 34/34/31 112/32/31 113/34/31
f 69/83/34 132/85/34 68/85/34
f 95/84/34 158/86/34 94/86/34
f 16/16/31 103/14/31 104/16/31
f 158/86/35 221/87/35 157/87/35
f 104/16/36 169/18/36 105/18/36
f 129/88/37 195/89/37 193/88/37
f 157/87/38 220/90/38 156/90/38
f 103/14/39 168/16/39 104/16/39
f 129/88/40 194/81/40 130/81/40
f 155/91/41 220/90/41 219/91/41
f 102/12/42 167/14/42 103/14/42
f 128/64/43 162/92/43 98/92/43
f 155/91/44 218/93/44 154/93/44
f 101/10/45 166/12/45 102/12/45
f 127/62/46 192/64/46 128/64/46
f 154/93/47 217/94/47 153/94/47
f 100/8/48 165/10/48 101/10/48
f 126/60/49 191/62/49 127/62/49
f 153/94/50 216/95/50 152/95/50
f 99/6/51 164/8/51 100/8/51
f 125/58/52 190/60/52 126/60/52
f 152/95/53 215/96/53 151/96/53
f 97/4/54 163/6/54 99/6/54
f 124/56/55 189/58/55 125/58/55
f 151/96/56 214/97/56 150/97/56
f 98/1/57 161/4/57 97/4/57
f 123/54/58 188/56/58 124/56/58
f 150/97/59 213/98/59 149/98/59
f 122/52/60 187/54/60 123/54/60
f 148/99/61 213/98/61 212/99/61
f 121/50/62 186/52/62 122/52/62
f 147/100/63 212/99/63 211/100/63
f 120/48/64 185/50/64 121/50/64
f 147/100/65 210/101/65 146/101/65
f 120/48/66 183/46/66 184/48/66
f 81/71/34 146/101/34 145/71/34
f 58/58/31 126/60/31 60/60/31
f 6/6/31 100/8/31 8/8/31
f 83/100/34 146/101/34 82/101/34
f 26/26/31 108/24/31 109/26/31
f 84/99/34 147/100/34 83/100/34
f 42/42/31 118/44/31 44/44/31
f 85/98/34 148/99/34 84/99/34
f 60/60/31 127/62/31 62/62/31
f 10/10/31 100/8/31 101/10/31
f 86/97/34 149/98/34 85/98/34
f 26/26/31 110/28/31 28/28/31
f 86/97/34 151/96/34 150/97/34
f 44/44/31 119/46/31 46/46/31
f 88/95/34 151/96/34 87/96/34
f 64/64/31 127/62/31 128/64/31
f 10/10/31 102/12/31 12/12/31
f 88/95/34 153/94/34 152/95/34
f 28/28/31 111/30/31 30/30/31
f 90/93/34 153/94/34 89/94/34
f 48/48/31 119/46/31 120/48/31
f 90/93/34 155/91/34 154/93/34
f 2/92/31 128/64/31 98/92/31
f 12/12/31 103/14/31 14/14/31
f 92/90/34 155/91/34 91/91/34
f 66/81/34 129/88/34 130/81/34
f 30/30/31 112/32/31 32/32/31
f 93/87/34 156/90/34 92/90/34
f 67/89/34 129/88/34 65/88/34
f 50/50/31 120/48/31 121/50/31
f 93/87/34 158/86/34 157/87/34
f 68/85/34 131/89/34 67/89/34
f 183/46/23 216/48/23 184/48/23
f 162/1/1 193/4/1 161/4/1
f 192/64/33 194/92/33 162/92/33
f 170/20/10 203/22/10 171/22/10
f 179/38/19 212/40/19 180/40/19
f 188/56/28 221/58/28 189/58/28
f 166/12/6 199/14/6 167/14/6
f 175/30/15 208/32/15 176/32/15
f 184/48/24 217/50/24 185/50/24
f 161/4/2 195/6/2 163/6/2
f 171/22/11 204/24/11 172/24/11
f 181/42/20 212/40/20 213/42/20
f 189/58/29 222/60/29 190/60/29
f 167/14/7 200/16/7 168/16/7
f 176/32/16 209/34/16 177/34/16
f 185/50/25 218/52/25 186/52/25
f 164/8/3 195/6/3 196/8/3
f 172/24/12 205/26/12 173/26/12
f 181/42/21 214/44/21 182/44/21
f 190/60/30 223/62/30 191/62/30
f 168/16/8 201/18/8 169/18/8
f 177/34/17 210/36/17 178/36/17
f 186/52/26 219/54/26 187/54/26
f 165/10/4 196/8/4 197/10/4
f 173/26/13 206/28/13 174/28/13
f 182/44/22 215/46/22 183/46/22
f 191/62/32 224/64/32 192/64/32
f 169/18/9 202/20/9 170/20/9
f 178/36/18 211/38/18 179/38/18
f 187/54/27 220/56/27 188/56/27
f 166/12/5 197/10/5 198/12/5
f 174/28/14 207/30/14 175/30/14
f 131/89/67 196/85/67 195/89/67
f 105/18/68 170/20/68 106/20/68
f 159/84/69 222/86/69 158/86/69
f 133/83/70 196/85/70 132/85/70
f 106/20/71 171/22/71 107/22/71
f 160/82/72 223/84/72 159/84/72
f 133/83/73 198/80/73 197/83/73
f 107/22/74 172/24/74 108/24/74
f 130/81/75 224/82/75 160/82/75
f 135/79/76 198/80/76 134/80/76
f 108/24/77 173/26/77 109/26/77
f 136/78/78 199/79/78 135/79/78
f 109/26/79 174/28/79 110/28/79
f 137/77/80 200/78/80 136/78/80
f 111/30/81 174/28/81 175/30/81
f 138/69/82 201/77/82 137/77/82
f 111/30/83 176/32/83 112/32/83
f 139/70/84 202/69/84 138/69/84
f 113/34/85 176/32/85 177/34/85
f 139/70/86 204/76/86 203/70/86
f 113/34/87 178/36/87 114/36/87
f 141/75/88 204/76/88 140/76/88
f 114/36/89 179/38/89 115/38/89
f 141/75/90 206/74/90 205/75/90
f 115/38/91 180/40/91 116/40/91
f 143/73/92 206/74/92 142/74/92
f 116/40/93 181/42/93 117/42/93
f 144/72/94 207/73/94 143/73/94
f 117/42/95 182/44/95 118/44/95
f 145/71/96 208/72/96 144/72/96
f 119/46/97 182/44/97 183/46/97
f 146/101/98 209/71/98 145/71/98
f 243/100/34 235/70/34 227/89/34
f 88/95/24 249/94/24 89/94/24
f 75/70/11 236/76/11 76/76/11
f 89/94/25 250/93/25 90/93/25
f 76/76/12 237/75/12 77/75/12
f 90/93/26 251/91/26 91/91/26
f 77/75/13 238/74/13 78/74/13
f 91/91/27 252/90/27 92/90/27
f 79/73/14 238/74/14 239/73/14
f 66/81/1 225/88/1 65/88/1
f 92/90/28 253/87/28 93/87/28
f 80/72/15 239/73/15 240/72/15
f 65/88/2 227/89/2 67/89/2
f 93/87/29 254/86/29 94/86/29
f 80/72/16 241/71/16 81/71/16
f 67/89/3 228/85/3 68/85/3
f 94/86/30 255/84/30 95/84/30
f 81/71/17 242/101/17 82/101/17
f 68/85/4 229/83/4 69/83/4
f 95/84/32 256/82/32 96/82/32
f 83/100/18 242/101/18 243/100/18
f 69/83/5 230/80/5 70/80/5
f 96/82/33 226/81/33 66/81/33
f 83/100/19 244/99/19 84/99/19
f 70/80/6 231/79/6 71/79/6
f 84/99/20 245/98/20 85/98/20
f 71/79/7 232/78/7 72/78/7
f 85/98/21 246/97/21 86/97/21
f 72/78/8 233/77/8 73/77/8
f 86/97/22 247/96/22 87/96/22
f 73/77/9 234/69/9 74/69/9
f 87/96/23 248/95/23 88/95/23
f 2/1/1 4/4/1 3/2/1
f 4/4/2 6/6/2 5/5/2
f 6/6/3 8/8/3 7/7/3
f 8/8/4 10/10/4 9/9/4
f 10/10/5 12/12/5 11/11/5
f 12/12/6 14/14/6 13/13/6
f 14/14/7 16/16/7 15/15/7
f 16/16/8 18/18/8 17/17/8
f 18/18/9 20/20/9 19/19/9
f 20/20/10 22/22/10 21/21/10
f 22/22/11 24/24/11 23/23/11
f 24/24/12 26/26/12 25/25/12
f 26/26/13 28/28/13 27/27/13
f 28/28/14 30/30/14 29/29/14
f 30/30/15 32/32/15 31/31/15
f 32/32/16 34/34/16 33/33/16
f 34/34/17 36/36/17 35/35/17
f 36/36/18 38/38/18 37/37/18
f 38/38/19 40/40/19 39/39/19
f 40/40/20 42/42/20 41/41/20
f 42/42/21 44/44/21 43/43/21
f 44/44/22 46/46/22 45/45/22
f 46/46/23 48/48/23 47/47/23
f 48/48/24 50/50/24 49/49/24
f 50/50/25 52/52/25 51/51/25
f 52/52/26 54/54/26 53/53/26
f 54/54/27 56/56/27 55/55/27
f 56/56/28 58/58/28 57/57/28
f 58/58/29 60/60/29 59/59/29
f 60/60/30 62/62/30 61/61/30
f 42/42/31 40/40/31 116/40/31
f 62/62/32 64/64/32 63/63/32
f 64/64/33 2/92/33 1/65/33
f 63/68/31 1/102/31 3/103/31
f 3/103/31 5/104/31 7/105/31
f 7/105/31 9/106/31 11/107/31
f 11/107/31 13/108/31 15/109/31
f 15/109/31 17/110/31 19/111/31
f 19/111/31 21/112/31 23/113/31
f 23/113/31 25/114/31 27/115/31
f 27/115/31 29/116/31 31/66/31
f 31/66/31 33/117/31 35/118/31
f 35/118/31 37/119/31 39/120/31
f 39/120/31 41/121/31 43/122/31
f 43/122/31 45/123/31 47/67/31
f 47/67/31 49/124/31 51/125/31
f 51/125/31 53/126/31 55/127/31
f 55/127/31 57/128/31 59/129/31
f 59/129/31 61/130/31 63/68/31
f 63/68/31 3/103/31 7/105/31
f 7/105/31 11/107/31 15/109/31
f 15/109/31 19/111/31 23/113/31
f 23/113/31 27/115/31 31/66/31
f 31/66/31 35/118/31 39/120/31
f 39/120/31 43/122/31 47/67/31
f 47/67/31 51/125/31 55/127/31
f 55/127/31 59/129/31 63/68/31
f 63/68/31 7/105/31 15/109/31
f 15/109/31 23/113/31 31/66/31
f 31/66/31 39/120/31 47/67/31
f 47/67/31 55/127/31 63/68/31
f 63/68/31 15/109/31 31/66/31
f 74/69/10 234/69/10 235/70/10
f 81/71/34 145/71/34 144/72/34
f 22/22/31 107/22/31 108/24/31
f 79/73/34 80/72/34 144/72/34
f 4/4/31 97/4/31 99/6/31
f 58/58/31 56/56/31 124/56/31
f 79/73/34 143/73/34 142/74/34
f 38/38/31 115/38/31 116/40/31
f 77/75/34 78/74/34 142/74/34
f 20/20/31 106/20/31 107/22/31
f 77/75/34 141/75/34 140/76/34
f 54/54/31 123/54/31 124/56/31
f 76/76/34 140/76/34 139/70/34
f 2/1/31 98/1/31 97/4/31
f 36/36/31 114/36/31 115/38/31
f 74/69/34 75/70/34 139/70/34
f 18/18/31 105/18/31 106/20/31
f 74/69/34 138/69/34 137/77/34
f 52/52/31 122/52/31 123/54/31
f 73/77/34 137/77/34 136/78/34
f 34/34/31 113/34/31 114/36/31
f 72/78/34 136/78/34 135/79/34
f 18/18/31 16/16/31 104/16/31
f 70/80/34 71/79/34 135/79/34
f 66/81/34 130/81/34 160/82/34
f 50/50/31 121/50/31 122/52/31
f 70/80/34 134/80/34 133/83/34
f 96/82/34 160/82/34 159/84/34
f 34/34/31 32/32/31 112/32/31
f 69/83/34 133/83/34 132/85/34
f 95/84/34 159/84/34 158/86/34
f 16/16/31 14/14/31 103/14/31
f 158/86/35 222/86/35 221/87/35
f 104/16/36 168/16/36 169/18/36
f 129/88/37 131/89/37 195/89/37
f 157/87/38 221/87/38 220/90/38
f 103/14/39 167/14/39 168/16/39
f 129/88/40 193/88/40 194/81/40
f 155/91/41 156/90/41 220/90/41
f 102/12/42 166/12/42 167/14/42
f 128/64/43 192/64/43 162/92/43
f 155/91/44 219/91/44 218/93/44
f 101/10/45 165/10/45 166/12/45
f 127/62/46 191/62/46 192/64/46
f 154/93/47 218/93/47 217/94/47
f 100/8/48 164/8/48 165/10/48
f 126/60/49 190/60/49 191/62/49
f 153/94/50 217/94/50 216/95/50
f 99/6/51 163/6/51 164/8/51
f 125/58/52 189/58/52 190/60/52
f 152/95/53 216/95/53 215/96/53
f 97/4/54 161/4/54 163/6/54
f 124/56/55 188/56/55 189/58/55
f 151/96/56 215/96/56 214/97/56
f 98/1/57 162/1/57 161/4/57
f 123/54/58 187/54/58 188/56/58
f 150/97/59 214/97/59 213/98/59
f 122/52/60 186/52/60 187/54/60
f 148/99/61 149/98/61 213/98/61
f 121/50/62 185/50/62 186/52/62
f 147/100/63 148/99/63 212/99/63
f 120/48/64 184/48/64 185/50/64
f 147/100/65 211/100/65 210/101/65
f 120/48/66 119/46/66 183/46/66
f 81/71/34 82/101/34 146/101/34
f 58/58/31 125/58/31 126/60/31
f 6/6/31 99/6/31 100/8/31
f 83/100/34 147/100/34 146/101/34
f 26/26/31 24/24/31 108/24/31
f 84/99/34 148/99/34 147/100/34
f 42/42/31 117/42/31 118/44/31
f 85/98/34 149/98/34 148/99/34
f 60/60/31 126/60/31 127/62/31
f 10/10/31 8/8/31 100/8/31
f 86/97/34 150/97/34 149/98/34
f 26/26/31 109/26/31 110/28/31
f 86/97/34 87/96/34 151/96/34
f 44/44/31 118/44/31 119/46/31
f 88/95/34 152/95/34 151/96/34
f 64/64/31 62/62/31 127/62/31
f 10/10/31 101/10/31 102/12/31
f 88/95/34 89/94/34 153/94/34
f 28/28/31 110/28/31 111/30/31
f 90/93/34 154/93/34 153/94/34
f 48/48/31 46/46/31 119/46/31
f 90/93/34 91/91/34 155/91/34
f 2/92/31 64/64/31 128/64/31
f 12/12/31 102/12/31 103/14/31
f 92/90/34 156/90/34 155/91/34
f 66/81/34 65/88/34 129/88/34
f 30/30/31 111/30/31 112/32/31
f 93/87/34 157/87/34 156/90/34
f 67/89/34 131/89/34 129/88/34
f 50/50/31 48/48/31 120/48/31
f 93/87/34 94/86/34 158/86/34
f 68/85/34 132/85/34 131/89/34
f 183/46/23 215/46/23 216/48/23
f 162/1/1 194/1/1 193/4/1
f 192/64/33 224/64/33 194/92/33
f 170/20/10 202/20/10 203/22/10
f 179/38/19 211/38/19 212/40/19
f 188/56/28 220/56/28 221/58/28
f 166/12/6 198/12/6 199/14/6
f 175/30/15 207/30/15 208/32/15
f 184/48/24 216/48/24 217/50/24
f 161/4/2 193/4/2 195/6/2
f 171/22/11 203/22/11 204/24/11
f 181/42/20 180/40/20 212/40/20
f 189/58/29 221/58/29 222/60/29
f 167/14/7 199/14/7 200/16/7
f 176/32/16 208/32/16 209/34/16
f 185/50/25 217/50/25 218/52/25
f 164/8/3 163/6/3 195/6/3
f 172/24/12 204/24/12 205/26/12
f 181/42/21 213/42/21 214/44/21
f 190/60/30 222/60/30 223/62/30
f 168/16/8 200/16/8 201/18/8
f 177/34/17 209/34/17 210/36/17
f 186/52/26 218/52/26 219/54/26
f 165/10/4 164/8/4 196/8/4
f 173/26/13 205/26/13 206/28/13
f 182/44/22 214/44/22 215/46/22
f 191/62/32 223/62/32 224/64/32
f 169/18/9 201/18/9 202/20/9
f 178/36/18 210/36/18 211/38/18
f 187/54/27 219/54/27 220/56/27
f 166/12/5 165/10/5 197/10/5
f 174/28/14 206/28/14 207/30/14
f 131/89/67 132/85/67 196/85/67
f 105/18/68 169/18/68 170/20/68
f 159/84/69 223/84/69 222/86/69
f 133/83/70 197/83/70 196/85/70
f 106/20/71 170/20/71 171/22/71
f 160/82/72 224/82/72 223/84/72
f 133/83/73 134/80/73 198/80/73
f 107/22/74 171/22/74 172/24/74
f 130/81/75 194/81/75 224/82/75
f 135/79/76 199/79/76 198/80/76
f 108/24/77 172/24/77 173/26/77
f 136/78/78 200/78/78 199/79/78
f 109/26/79 173/26/79 174/28/79
f 137/77/80 201/77/80 200/78/80
f 111/30/81 110/28/81 174/28/81
f 138/69/82 202/69/82 201/77/82
f 111/30/83 175/30/83 176/32/83
f 139/70/84 203/70/84 202/69/84
f 113/34/85 112/32/85 176/32/85
f 139/70/86 140/76/86 204/76/86
f 113/34/87 177/34/87 178/36/87
f 141/75/88 205/75/88 204/76/88
f 114/36/89 178/36/89 179/38/89
f 141/75/90 142/74/90 206/74/90
f 115/38/91 179/38/91 180/40/91
f 143/73/92 207/73/92 206/74/92
f 116/40/93 180/40/93 181/42/93
f 144/72/94 208/72/94 207/73/94
f 117/42/95 181/42/95 182/44/95
f 145/71/96 209/71/96 208/72/96
f 119/46/97 118/44/97 182/44/97
f 146/101/98 210/101/98 209/71/98
f 227/89/34 225/88/34 226/81/34
f 226/81/34 256/82/34 255/84/34
f 255/84/34 254/86/34 253/87/34
f 253/87/34 252/90/34 251/91/34
f 251/91/34 250/93/34 249/94/34
f 249/94/34 248/95/34 247/96/34
f 247/96/34 246/97/34 245/98/34
f 245/98/34 244/99/34 243/100/34
f 243/100/34 242/101/34 241/71/34
f 241/71/34 240/72/34 239/73/34
f 239/73/34 238/74/34 237/75/34
f 237/75/34 236/76/34 235/70/34
f 235/70/34 234/69/34 233/77/34
f 233/77/34 232/78/34 231/79/34
f 231/79/34 230/80/34 229/83/34
f 229/83/34 228/85/34 227/89/34
f 227/89/34 226/81/34 255/84/34
f 255/84/34 253/87/34 251/91/34
f 251/91/34 249/94/34 247/96/34
f 247/96/34 245/98/34 243/100/34
f 243/100/34 241/71/34 239/73/34
f 239/73/34 237/75/34 235/70/34
f 235/70/34 233/77/34 231/79/34
f 231/79/34 229/83/34 227/89/34
f 227/89/34 255/84/34 251/91/34
f 251/91/34 247/96/34 243/100/34
f 243/100/34 239/73/34 235/70/34
f 235/70/34 231/79/34 227/89/34
f 227/89/34 251/91/34 243/100/34
f 88/95/24 248/95/24 249/94/24
f 75/70/11 235/70/11 236/76/11
f 89/94/25 249/94/25 250/93/25
f 76/76/12 236/76/12 237/75/12
f 90/93/26 250/93/26 251/91/26
f 77/75/13 237/75/13 238/74/13
f 91/91/27 251/91/27 252/90/27
f 79/73/14 78/74/14 238/74/14
f 66/81/1 226/81/1 225/88/1
f 92/90/28 252/90/28 253/87/28
f 80/72/15 79/73/15 239/73/15
f 65/88/2 225/88/2 227/89/2
f 93/87/29 253/87/29 254/86/29
f 80/72/16 240/72/16 241/71/16
f 67/89/3 227/89/3 228/85/3
f 94/86/30 254/86/30 255/84/30
f 81/71/17 241/71/17 242/101/17
f 68/85/4 228/85/4 229/83/4
f 95/84/32 255/84/32 256/82/32
f 83/100/18 82/101/18 242/101/18
f 69/83/5 229/83/5 230/80/5
f 96/82/33 256/82/33 226/81/33
f 83/100/19 243/100/19 244/99/19
f 70/80/6 230/80/6 231/79/6
f 84/99/20 244/99/20 245/98/20
f 71/79/7 231/79/7 232/78/7
f 85/98/21 245/98/21 246/97/21
f 72/78/8 232/78/8 233/77/8
f 86/97/22 246/97/22 247/96/22
f 73/77/9 233/77/9 234/69/9
f 87/96/23 247/96/23 248/95/23
