# Blender 4.5.1 LTS
# www.blender.org
o Weird_Ball
v 0.000000 0.555570 1.839528
v 0.000000 0.831470 1.563628
v 0.000000 0.980785 1.203148
v 0.000000 1.000000 1.008058
v 0.000000 0.980785 0.812968
v 0.000000 1.380833 0.452488
v 0.038060 0.191342 1.988843
v 0.074658 0.375330 1.931938
v 0.108386 0.544895 1.839528
v 0.137950 0.693520 1.715165
v 0.162212 0.815493 1.563628
v 0.180240 0.906127 1.390742
v 0.191342 0.961940 1.203148
v 0.195090 0.980785 1.008058
v 0.191342 0.961940 0.812968
v 0.180240 1.455491 0.625375
v 0.162212 1.364857 0.452488
v 0.137950 1.242884 0.300951
v 0.108386 1.094259 0.176589
v 0.074658 0.924694 0.084179
v 0.038060 0.740706 0.027273
v 0.074658 0.180240 1.988843
v 0.146447 0.353553 1.931938
v 0.212608 0.513280 1.839528
v 0.270598 0.653281 1.715165
v 0.318190 0.768178 1.563628
v 0.353553 0.853553 1.390742
v 0.375330 0.906127 1.203148
v 0.382683 0.923879 1.008058
v 0.375330 0.906127 0.812968
v 0.353553 1.402917 0.625375
v 0.318190 1.317542 0.452488
v 0.270598 1.202646 0.300951
v 0.212608 1.062644 0.176589
v 0.146447 0.902917 0.084179
v 0.074658 0.729604 0.027273
v 0.108386 0.162212 1.988843
v 0.212608 0.318190 1.931938
v 0.308658 0.461940 1.839528
v 0.392847 0.587938 1.715165
v 0.461940 0.691342 1.563628
v 0.513280 0.768178 1.390742
v 0.544895 0.815493 1.203148
v 0.555570 0.831469 1.008058
v 0.544895 0.815493 0.812968
v 1.280416 1.118232 0.326132
v 1.517539 1.073333 0.225106
v 1.477165 1.012909 0.136555
v 1.427969 0.939282 0.063884
v 1.371841 0.855282 0.009884
v 0.108386 0.711576 0.027273
v 0.137950 0.137950 1.988843
v 0.270598 0.270598 1.931938
v 0.392847 0.392847 1.839528
v 0.500000 0.500000 1.715165
v 0.587938 0.587938 1.563628
v 0.653281 0.653281 1.390742
v 0.693520 0.693520 1.203148
v 0.707107 0.707107 1.008058
v 0.693520 0.693520 0.812968
v 1.362226 0.730071 0.326132
v 1.591166 0.691888 0.225106
v 1.539779 0.640501 0.136555
v 1.477165 0.577886 0.063884
v 1.405728 0.740899 0.009884
v 0.137950 0.539162 0.027273
v 0.162212 0.108386 1.988843
v 0.318190 0.212608 1.931938
v 0.461940 0.308658 1.839528
v 0.587938 0.392847 1.715165
v 0.691342 0.461940 1.563628
v 0.768178 0.513280 1.390742
v 0.815493 0.544895 1.203148
v 0.831470 0.555570 1.008058
v 0.815493 0.544895 0.812968
v 0.768178 0.513280 0.625375
v 0.691342 0.461940 0.452488
v 0.587938 0.392847 0.300951
v 0.461940 0.308658 0.176589
v 0.318190 0.212608 0.084179
v 0.162212 0.108386 0.027273
v 0.000000 0.000000 2.008058
v 0.180240 0.074658 1.988843
v 0.353553 0.146447 1.931938
v 0.513280 0.212607 1.839528
v 0.653281 0.270598 1.715165
v 0.768178 0.318190 1.563628
v 0.853553 0.353553 1.390742
v 0.906127 0.375330 1.203148
v 0.923879 0.382683 1.008058
v 0.906127 0.375330 0.812968
v 0.853553 0.353553 0.625375
v 0.768178 0.318190 0.452488
v 0.653281 0.270598 0.300951
v 0.513280 0.212607 0.176589
v 0.353553 0.146447 0.084179
v 0.180240 0.074658 0.027273
v 0.191342 0.038060 1.988843
v 0.375330 0.074658 1.931938
v 0.544895 0.108386 1.839528
v 0.693520 0.137950 1.715165
v 0.815493 0.162212 1.563628
v 0.906127 0.180240 1.390742
v 0.961940 0.191342 1.203148
v 0.980785 0.195090 1.008058
v 0.961940 0.191342 0.812968
v 0.906127 0.180240 0.625375
v 0.815493 0.162212 0.452488
v 0.693520 0.137950 0.300951
v 0.544895 0.108386 0.176589
v 0.375330 0.074658 0.084179
v 0.191342 0.038060 0.027273
v 0.195090 -0.000000 1.988843
v 0.382683 -0.000000 1.931938
v 0.555570 -0.000000 1.839528
v 0.707107 0.000000 1.715165
v 0.831469 -0.000000 1.563628
v 0.923879 0.000000 1.390742
v 0.980785 -0.000000 1.203148
v 1.000000 -0.000000 1.008058
v 0.980785 -0.000000 0.812968
v 0.923879 0.000000 0.625375
v 0.831469 -0.000000 0.452488
v 0.707107 0.000000 0.300951
v 0.555570 -0.000000 0.176589
v 0.382683 -0.000000 0.084179
v 0.195090 -0.000000 0.027273
v 0.191342 -0.038060 1.988843
v 0.375330 -0.074658 1.931938
v 0.544895 -0.108386 1.839528
v 0.693520 -0.137950 1.715165
v 0.815493 -0.162212 1.563628
v 0.906127 -0.180240 1.390742
v 0.961940 -0.191342 1.203148
v 0.980785 -0.195090 1.008058
v 0.961940 -0.191342 0.812968
v 0.906127 -0.180240 0.625375
v 0.815493 -0.162212 0.452488
v 0.693520 -0.137950 0.300951
v 0.544895 -0.108386 0.176589
v 0.375330 -0.074658 0.084179
v 0.191342 -0.038060 0.027273
v 0.180240 -0.074658 1.988843
v 0.353553 -0.146447 1.931938
v 0.513280 -0.212608 1.839528
v 0.653281 -0.270598 1.715165
v 0.768178 -0.318190 1.563628
v 0.853553 -0.353553 1.390742
v 0.906127 -0.375330 1.203148
v 0.923879 -0.382683 1.008058
v 0.906127 -0.375330 0.812968
v 0.853553 -0.353553 0.625375
v 0.768178 -0.318190 0.452488
v 0.653281 -0.270598 0.300951
v 0.513280 -0.212608 0.176589
v 0.353553 -0.146447 0.084179
v 0.180240 -0.074658 0.027273
v 0.162212 -0.108386 1.988843
v 0.318190 -0.212608 1.931938
v 0.461940 -0.308658 1.839528
v 0.587938 -0.392847 1.715165
v 0.691341 -0.461940 1.563628
v 0.768178 -0.513280 1.390742
v 0.815493 -0.544895 1.203148
v 0.831469 -0.555570 1.008058
v 0.815493 -0.544895 0.812968
v 0.768178 -0.513280 0.625375
v 0.691341 -0.461940 0.452488
v 0.587938 -0.392847 0.300951
v 0.461940 -0.308658 0.176589
v 0.318190 -0.212608 0.084179
v 0.162212 -0.108386 0.027273
v 0.137950 -0.137950 1.988843
v 0.270598 -0.270598 1.931938
v 0.392847 -0.392847 1.839528
v 0.500000 -0.500000 1.715165
v 0.587938 -0.587938 1.563628
v 0.653281 -0.653281 1.390742
v 0.693520 -0.693520 1.203148
v 0.707106 -0.707107 1.008058
v 0.693520 -0.693520 0.812968
v 1.362226 -0.730071 0.326132
v 1.591166 -0.691888 0.225106
v 1.539779 -0.640501 0.136555
v 1.477165 -0.577886 0.063884
v 1.405728 -0.740899 0.009884
v 0.137950 -0.539162 0.027273
v 0.108386 -0.162212 1.988843
v 0.212607 -0.318190 1.931938
v 0.308658 -0.461940 1.839528
v 0.392847 -0.587938 1.715165
v 0.461940 -0.691342 1.563628
v 0.513280 -0.768178 1.390742
v 0.544895 -0.815493 1.203148
v 0.555570 -0.831469 1.008058
v 0.544895 -0.815493 0.812968
v 1.280416 -1.118232 0.326132
v 1.517539 -1.073333 0.225106
v 1.477165 -1.012909 0.136555
v 1.427969 -0.939282 0.063884
v 1.371841 -0.855282 0.009884
v 0.108386 -0.711576 0.027273
v 0.074658 -0.180240 1.988843
v 0.146447 -0.353553 1.931938
v 0.212607 -0.513280 1.839528
v 0.270598 -0.653281 1.715165
v 0.318189 -0.768178 1.563628
v 0.353553 -0.853553 1.390742
v 0.375330 -0.906127 1.203148
v 0.382683 -0.923879 1.008058
v 0.375330 -0.906127 0.812968
v 0.353553 -1.402917 0.625375
v 0.318190 -1.317542 0.452488
v 0.270598 -1.202646 0.300951
v 0.212608 -1.062644 0.176589
v 0.146447 -0.902917 0.084179
v 0.074658 -0.729604 0.027273
v 0.038060 -0.191342 1.988843
v 0.074658 -0.375330 1.931938
v 0.108386 -0.544895 1.839528
v 0.137950 -0.693520 1.715165
v 0.162212 -0.815493 1.563628
v 0.180240 -0.906127 1.390742
v 0.191342 -0.961939 1.203148
v 0.195090 -0.980785 1.008058
v 0.191342 -0.961939 0.812968
v 0.180240 -1.455491 0.625375
v 0.162212 -1.364857 0.452488
v 0.137950 -1.242884 0.300951
v 0.108386 -1.094259 0.176589
v 0.074658 -0.924694 0.084179
v 0.038060 -0.740706 0.027273
v -0.000000 -0.195090 1.988843
v -0.000000 -0.382683 1.931938
v -0.000000 -0.555570 1.839528
v -0.000000 -0.707107 1.715165
v -0.000000 -0.831469 1.563628
v 0.000000 -0.923879 1.390742
v -0.000000 -0.980785 1.203148
v -0.000000 -0.999999 1.008058
v -0.000000 -0.980785 0.812968
v 0.000000 -1.473243 0.625375
v 0.000000 -1.380833 0.452488
v 0.000000 -1.822306 0.151363
v 0.000000 -1.670769 0.027000
v 0.000000 -0.932047 0.084179
v 0.000000 -0.744454 0.027273
v -0.038060 -0.191342 1.988843
v -0.074658 -0.375330 1.931938
v -0.108386 -0.544895 1.839528
v -0.137950 -0.693520 1.715165
v -0.162212 -0.815493 1.563628
v -0.180240 -0.906127 1.390742
v -0.191342 -0.961939 1.203148
v -0.195091 -0.980785 1.008058
v -0.191342 -0.961939 0.812968
v -0.180240 -1.455491 0.625375
v -0.162212 -1.364857 0.452488
v -0.137950 -1.808719 0.151363
v -0.108386 -1.660094 0.027000
v -0.074658 -0.924694 0.084179
v -0.038060 -0.740706 0.027273
v -0.074658 -0.180240 1.988843
v -0.146447 -0.353553 1.931938
v -0.212608 -0.513280 1.839528
v -0.270598 -0.653281 2.413259
v -0.318190 -0.768177 2.261722
v -0.353553 -0.853553 1.390742
v -0.375330 -0.906127 1.203148
v -0.382683 -0.923879 1.008058
v -0.375330 -0.906127 0.812968
v -0.353553 -1.402917 0.625375
v -0.318190 -1.317542 0.452488
v -0.270598 -1.202646 0.300951
v -0.212608 -1.062644 0.176589
v -0.146447 -0.902917 0.084179
v -0.074658 -0.729604 0.027273
v -0.108386 -0.162212 1.988843
v -0.212608 -0.318190 1.931938
v -0.308658 -0.461939 1.839528
v -0.392847 -0.587938 2.413259
v -0.461940 -0.691341 2.261722
v -0.513280 -0.768178 1.390742
v -0.544895 -0.815493 1.203148
v -0.555570 -0.831469 1.008058
v -0.544895 -0.815493 0.812968
v -0.513280 -1.317542 0.625375
v -0.461940 -1.240705 0.452488
v -0.392847 -1.137302 0.300951
v -0.308658 -1.011304 0.176589
v -0.212608 -0.867554 0.084179
v -0.108386 -0.711576 0.027273
v -0.137950 -0.137950 1.988843
v -0.270598 -0.270598 1.931938
v -0.392847 -0.392847 1.839528
v -0.500000 -0.500000 1.715165
v -0.587938 -0.587937 1.563628
v -0.653281 -0.653281 1.390742
v -0.693520 -0.693520 1.203148
v -0.707106 -0.707106 1.008058
v -0.693520 -0.693520 0.812968
v -0.653281 -0.653281 0.625375
v -0.587938 -0.587937 0.452488
v -0.500000 -0.500000 0.300951
v -0.392847 -0.392847 0.176589
v -0.270598 -0.270598 0.084179
v -0.137950 -0.137950 0.027273
v 0.000000 0.000000 0.008058
v -0.162212 -0.108386 1.988843
v -0.318190 -0.212607 1.931938
v -0.461940 -0.308658 1.839528
v -0.587938 -0.392847 1.715165
v -0.691341 -0.461939 1.563628
v -0.768177 -0.513280 1.390742
v -0.815493 -0.544895 1.203148
v -0.831469 -0.555569 1.008058
v -0.815493 -0.544895 0.812968
v -0.768177 -0.513280 0.625375
v -2.186461 -0.526032 0.256899
v -2.017469 -0.413115 0.009245
v -0.461940 -0.308658 0.176589
v -0.318190 -0.212607 0.084179
v -0.162212 -0.108386 0.027273
v -0.180240 -0.074658 1.988843
v -0.353553 -0.146447 1.931938
v -0.513280 -0.212607 1.839528
v -0.653281 -0.270598 1.715165
v -0.768177 -0.318189 1.563628
v -0.853553 -0.353553 1.390742
v -0.906127 -0.375330 1.203148
v -0.923879 -0.382683 1.008058
v -0.906127 -0.375330 0.812968
v -0.853553 -0.353553 0.625375
v -2.312034 -0.291103 0.256899
v -2.124260 -0.213324 0.009245
v -0.513280 -0.212607 0.176589
v -0.353553 -0.146447 0.084179
v -0.180240 -0.074658 0.027273
v -0.191342 -0.038060 1.988843
v -0.375330 -0.074658 1.931938
v -0.544895 -0.108386 1.839528
v -0.693520 -0.137950 3.047915
v -0.815493 -0.162212 2.896378
v -0.906127 -0.180240 1.390742
v -0.961939 -0.191341 1.203148
v -0.980784 -0.195090 1.008058
v -0.961939 -0.191341 0.812968
v -0.906127 -0.180240 0.625375
v -0.815493 -0.162211 0.452488
v -0.693520 -0.137950 0.300951
v -0.544895 -0.108386 0.176589
v -0.375330 -0.074658 0.084179
v -0.191342 -0.038060 0.027273
v -0.195090 0.000000 1.988843
v -0.382683 0.000000 1.931938
v -0.555570 0.000000 1.839528
v -0.707107 0.000000 3.047915
v -0.831469 0.000000 2.896378
v -0.923879 0.000000 1.390742
v -0.980785 0.000000 1.203148
v -0.999999 0.000000 1.008058
v -0.980785 0.000000 0.812968
v -0.923879 0.000000 0.625375
v -0.831469 0.000000 0.452488
v -0.707107 0.000000 0.300951
v -0.555570 0.000000 0.176589
v -0.382683 0.000000 0.084179
v -0.195090 0.000000 0.027273
v -0.191342 0.038060 1.988843
v -0.375330 0.074658 1.931938
v -0.544895 0.108386 1.839528
v -0.693520 0.137950 3.047915
v -0.815493 0.162212 2.896378
v -0.906127 0.180240 1.390742
v -0.961939 0.191342 1.203148
v -0.980784 0.195091 1.008058
v -0.961939 0.191342 0.812968
v -0.906127 0.180240 0.625375
v -0.815493 0.162212 0.452488
v -0.693520 0.137950 0.300951
v -0.544895 0.108386 0.176589
v -0.375330 0.074658 0.084179
v -0.191342 0.038060 0.027273
v -0.180240 0.074658 1.988843
v -0.353553 0.146447 1.931938
v -0.513279 0.212607 1.839528
v -0.653281 0.270598 1.715165
v -0.768177 0.318190 1.563628
v -0.853553 0.353553 1.390742
v -0.906127 0.375330 1.203148
v -0.923878 0.382683 1.008058
v -0.906127 0.375330 0.812968
v -0.853553 0.353553 0.625375
v -2.312034 0.291103 0.256899
v -2.124260 0.213324 0.009245
v -0.513279 0.212607 0.176589
v -0.353553 0.146447 0.084179
v -0.180240 0.074658 0.027273
v -0.162212 0.108386 1.988843
v -0.318189 0.212607 1.931938
v -0.461939 0.308658 1.839528
v -0.587938 0.392847 1.715165
v -0.691341 0.461940 1.563628
v -0.768177 0.513280 1.390742
v -0.815493 0.544895 1.203148
v -0.831468 0.555570 1.008058
v -0.815493 0.544895 0.812968
v -0.768177 0.513280 0.625375
v -2.186461 0.526032 0.256899
v -2.017469 0.413115 0.009245
v -0.461939 0.308658 0.176589
v -0.318189 0.212607 0.084179
v -0.162212 0.108386 0.027273
v -0.137950 0.137950 1.988843
v -0.270598 0.270598 1.931938
v -0.392847 0.392847 1.839528
v -0.500000 0.500000 1.715165
v -0.587937 0.587938 1.563628
v -0.653281 0.653281 1.390742
v -0.693519 0.693520 1.203148
v -0.707106 0.707106 1.008058
v -0.693519 0.693520 0.812968
v -0.653281 0.653281 0.625375
v -0.587937 0.587938 0.452488
v -0.500000 0.500000 0.300951
v -0.392847 0.392847 0.176589
v -0.270598 0.270598 0.084179
v -0.137950 0.137950 0.027273
v -0.108386 0.162212 1.988843
v -0.212607 0.318190 1.931938
v -0.308658 0.461939 1.839528
v -0.392847 0.587938 2.413259
v -0.461940 0.691341 2.261722
v -0.513280 0.768177 1.390742
v -0.544895 0.815493 1.203148
v -0.555569 0.831469 1.008058
v -0.544895 0.815493 0.812968
v -0.513280 1.317542 0.625375
v -0.461940 1.240705 0.452488
v -0.392847 1.137302 0.300951
v -0.308658 1.011304 0.176589
v -0.212608 0.867554 0.084179
v -0.108386 0.711576 0.027273
v -0.074658 0.180240 1.988843
v -0.146446 0.353553 1.931938
v -0.212607 0.513279 1.839528
v -0.270598 0.653281 2.413259
v -0.318190 0.768177 2.261722
v -0.353553 0.853553 1.390742
v -0.375330 0.906127 1.203148
v -0.382683 0.923879 1.008058
v -0.375330 0.906127 0.812968
v -0.353553 1.402917 0.625375
v -0.318190 1.317542 0.452488
v -0.270598 1.202646 0.300951
v -0.212608 1.062644 0.176589
v -0.146447 0.902917 0.084179
v -0.074658 0.729604 0.027273
v -0.038060 0.191342 1.988843
v -0.074658 0.375330 1.931938
v -0.108386 0.544895 1.839528
v -0.137950 0.693520 1.715165
v -0.162211 0.815493 1.563628
v -0.180240 0.906127 1.390742
v -0.191341 0.961939 1.203148
v -0.195090 0.980784 1.008058
v -0.191341 0.961939 0.812968
v -0.180240 1.455491 0.625375
v -0.162212 1.364857 0.452488
v -0.137950 1.808719 0.151363
v -0.108386 1.660094 0.027000
v -0.074658 0.924694 0.084179
v -0.038060 0.740706 0.027273
v 0.000000 0.195090 1.988843
v 0.000000 0.382683 1.931938
v 0.000000 0.707107 1.715165
v 0.000000 0.923879 1.390742
v 0.000000 1.473243 0.625375
v 0.000000 1.822306 0.151363
v 0.000000 1.670769 0.027000
v 0.000000 0.932047 0.084179
v 0.000000 0.744454 0.027273
v 0.139376 0.551771 1.236293
v 1.430501 1.840836 2.763706
v 0.221585 0.541169 1.166801
v 1.704771 1.805465 2.531866
v 0.300636 0.509770 1.099980
v 1.968502 1.700710 2.308936
v 0.373489 0.458781 1.038398
v 2.211555 1.530600 2.103481
v 0.437345 0.390161 0.984420
v 2.424595 1.301668 1.923398
v 0.489750 0.306547 0.940122
v 2.599430 1.022716 1.775609
v 0.528691 0.211154 0.907205
v 2.729344 0.704461 1.665793
v 0.552670 0.107645 0.886935
v 2.809347 0.359126 1.598165
v 0.560767 0.000000 0.880090
v 2.836361 0.000000 1.575331
v 0.552670 -0.107645 0.886935
v 2.809347 -0.359126 1.598165
v 0.528691 -0.211153 0.907205
v 2.729344 -0.704461 1.665793
v 0.489750 -0.306547 0.940122
v 2.599430 -1.022716 1.775609
v 0.437345 -0.390161 0.984420
v 2.424595 -1.301668 1.923398
v 0.373489 -0.458780 1.038398
v 2.211555 -1.530600 2.103481
v 0.300636 -0.509770 1.099980
v 1.968502 -1.700710 2.308936
v 0.221585 -0.541169 1.166801
v 1.704771 -1.805465 2.531866
v 0.139376 -0.551771 1.236293
v 1.430501 -1.840836 2.763706
v 0.057167 -0.541169 1.305785
v 1.156232 -1.805464 2.995546
v -0.021883 -0.509770 1.372606
v 0.892504 -1.700710 3.218479
v -0.094736 -0.458780 1.434189
v 0.649450 -1.530600 3.423932
v -0.158592 -0.390161 1.488167
v 0.436411 -1.301669 3.604012
v -0.210998 -0.306547 1.532465
v 0.261572 -1.022712 3.751804
v -0.249938 -0.211153 1.565382
v 0.131658 -0.704458 3.861622
v -0.273918 -0.107645 1.585652
v 0.051657 -0.359135 3.929246
v -0.282015 0.000000 1.592496
v 0.024644 0.000000 3.952081
v -0.273918 0.107645 1.585652
v 0.051657 0.359135 3.929246
v -0.249938 0.211154 1.565382
v 0.131658 0.704458 3.861622
v -0.210998 0.306547 1.532465
v 0.261572 1.022712 3.751804
v -0.158592 0.390161 1.488167
v 0.436411 1.301669 3.604012
v -0.094736 0.458781 1.434189
v 0.649450 1.530600 3.423932
v -0.021883 0.509770 1.372606
v 0.892504 1.700710 3.218479
v 0.057167 0.541169 1.305785
v 1.156232 1.805464 2.995546
v 1.736944 2.017251 2.504671
v 1.430502 2.056772 2.763707
v 2.031610 1.900209 2.255589
v 2.303176 1.710143 2.026034
v 2.541205 1.454357 1.824828
v 2.736551 1.142681 1.659701
v 2.881705 0.787093 1.537002
v 2.971091 0.401256 1.461444
v 3.001273 0.000000 1.435931
v 2.971091 -0.401256 1.461444
v 2.881705 -0.787093 1.537002
v 2.736551 -1.142681 1.659701
v 2.541205 -1.454357 1.824828
v 2.303176 -1.710143 2.026034
v 2.031610 -1.900209 2.255589
v 1.736944 -2.017251 2.504671
v 1.430502 -2.056772 2.763707
v 1.124060 -2.017251 3.022743
v 0.829394 -1.900209 3.271825
v 0.557829 -1.710143 3.501379
v 0.319800 -1.454357 3.702586
v 0.124454 -1.142681 3.867712
v -0.020701 -0.787093 3.990412
v -0.110086 -0.401256 4.065969
v -0.140268 0.000000 4.091482
v -0.110086 0.401256 4.065969
v -0.020701 0.787093 3.990412
v 0.124454 1.142681 3.867712
v 0.319800 1.454357 3.702586
v 0.557829 1.710143 3.501379
v 0.829394 1.900209 3.271825
v 1.124060 2.017251 3.022743
v 1.106850 0.407262 1.509537
v 1.044983 0.415241 1.561833
v 1.166341 0.383632 1.459250
v 1.221167 0.345260 1.412905
v 1.269222 0.293619 1.372284
v 1.308660 0.230696 1.338947
v 1.337965 0.158906 1.314175
v 1.356011 0.081009 1.298920
v 1.362105 0.000000 1.293770
v 1.356011 -0.081009 1.298920
v 1.337965 -0.158906 1.314175
v 1.308660 -0.230696 1.338947
v 1.269222 -0.293619 1.372284
v 1.221167 -0.345260 1.412905
v 1.166341 -0.383632 1.459250
v 1.106850 -0.407262 1.509537
v 1.044983 -0.415241 1.561833
v 0.983116 -0.407262 1.614130
v 0.923626 -0.383632 1.664417
v 0.868800 -0.345260 1.710762
v 0.820744 -0.293620 1.751383
v 0.781306 -0.230695 1.784720
v 0.752001 -0.158906 1.809492
v 0.733955 -0.081011 1.824746
v 0.727861 0.000000 1.829897
v 0.733955 0.081011 1.824746
v 0.752001 0.158906 1.809492
v 0.781306 0.230695 1.784720
v 0.820744 0.293620 1.751383
v 0.868800 0.345260 1.710762
v 0.923626 0.383632 1.664417
v 0.983116 0.407262 1.614130
vn -0.0000 0.5598 0.8286
vn -0.0000 0.8333 0.5528
vn -0.0000 0.9810 0.1939
vn -0.0000 1.0000 -0.0000
vn -0.0000 0.8391 0.5440
vn 0.2643 0.9644 0.0094
vn 0.0392 0.1971 0.9796
vn 0.0757 0.3804 0.9217
vn 0.1092 0.5490 0.8286
vn 0.1385 0.6965 0.7041
vn 0.1626 0.8173 0.5528
vn 0.1804 0.9070 0.3805
vn 0.1914 0.9622 0.1939
vn 0.1951 0.9808 -0.0000
vn 0.1674 0.8246 0.5403
vn 0.1808 0.9254 0.3330
vn 0.1626 0.8173 -0.5528
vn 0.6397 0.5781 -0.5066
vn 0.5008 0.3094 -0.8084
vn 0.0757 0.3804 -0.9217
vn 0.0326 0.1646 -0.9858
vn 0.0769 0.1857 0.9796
vn 0.1484 0.3584 0.9217
vn 0.2142 0.5172 0.8286
vn 0.2718 0.6561 0.7041
vn 0.3189 0.7699 0.5528
vn 0.3539 0.8544 0.3805
vn 0.3754 0.9063 0.1939
vn 0.3827 0.9239 -0.0000
vn 0.3313 0.7818 0.5283
vn 0.2964 0.8771 0.3780
vn 0.1636 0.8251 -0.5409
vn 0.1124 0.7085 -0.6967
vn 0.0717 0.5625 -0.8237
vn 0.0412 0.3785 -0.9247
vn 0.0642 0.1555 -0.9857
vn 0.1117 0.1671 0.9796
vn 0.2155 0.3225 0.9217
vn 0.3110 0.4654 0.8286
vn 0.3945 0.5905 0.7041
vn 0.4630 0.6929 0.5528
vn 0.5138 0.7689 0.3805
vn 0.5450 0.8157 0.1939
vn 0.5556 0.8315 -0.0000
vn 0.5199 0.7200 0.4597
vn 0.4249 0.7041 0.5690
vn 0.7193 0.6812 0.1363
vn 0.4914 0.5304 -0.6908
vn 0.3986 0.4307 -0.8097
vn 0.1958 0.2634 -0.9446
vn 0.0239 0.1209 -0.9924
vn 0.1421 0.1421 0.9796
vn 0.2743 0.2743 0.9217
vn 0.3958 0.3958 0.8286
vn 0.5021 0.5021 0.7041
vn 0.5893 0.5893 0.5528
vn 0.6539 0.6539 0.3805
vn 0.6937 0.6937 0.1939
vn 0.7071 0.7071 -0.0000
vn 0.6582 0.6274 0.4161
vn 0.4519 -0.1726 0.8752
vn 0.9071 -0.3019 0.2934
vn 0.8093 -0.5398 -0.2318
vn 0.5468 -0.7049 -0.4517
vn 0.3643 -0.0568 -0.9296
vn 0.0656 -0.0250 -0.9975
vn 0.1671 0.1117 0.9796
vn 0.3225 0.2155 0.9217
vn 0.4654 0.3110 0.8286
vn 0.5905 0.3945 0.7041
vn 0.6929 0.4630 0.5528
vn 0.7689 0.5138 0.3805
vn 0.8157 0.5450 0.1939
vn 0.8315 0.5556 -0.0000
vn 0.9199 0.3735 0.1197
vn 0.8902 -0.4029 -0.2128
vn 0.8520 -0.4604 -0.2493
vn 0.7809 -0.5364 -0.3200
vn 0.7046 -0.5307 -0.4710
vn 0.3048 -0.0256 -0.9521
vn 0.1831 0.0528 -0.9817
vn -0.0000 -0.0000 1.0000
vn 0.1857 0.0769 0.9796
vn 0.3584 0.1484 0.9217
vn 0.5172 0.2142 0.8286
vn 0.6561 0.2718 0.7041
vn 0.7699 0.3189 0.5528
vn 0.8544 0.3539 0.3805
vn 0.9063 0.3754 0.1939
vn 0.9239 0.3827 -0.0000
vn 0.9063 0.3754 -0.1939
vn 0.8544 0.3539 -0.3805
vn 0.7699 0.3189 -0.5528
vn 0.6561 0.2718 -0.7041
vn 0.5172 0.2142 -0.8286
vn 0.3584 0.1484 -0.9217
vn 0.1857 0.0769 -0.9796
vn 0.1971 0.0392 0.9796
vn 0.3804 0.0757 0.9217
vn 0.5490 0.1092 0.8286
vn 0.6965 0.1385 0.7041
vn 0.8173 0.1626 0.5528
vn 0.9070 0.1804 0.3805
vn 0.9622 0.1914 0.1939
vn 0.9808 0.1951 -0.0000
vn 0.9622 0.1914 -0.1939
vn 0.9070 0.1804 -0.3805
vn 0.8173 0.1626 -0.5528
vn 0.6965 0.1385 -0.7041
vn 0.5490 0.1092 -0.8286
vn 0.3804 0.0757 -0.9217
vn 0.1971 0.0392 -0.9796
vn 0.2010 -0.0000 0.9796
vn 0.3879 -0.0000 0.9217
vn 0.5598 -0.0000 0.8286
vn 0.7101 -0.0000 0.7041
vn 0.8333 -0.0000 0.5528
vn 0.9248 -0.0000 0.3805
vn 0.9810 -0.0000 0.1939
vn 1.0000 -0.0000 -0.0000
vn 0.9810 -0.0000 -0.1939
vn 0.9248 -0.0000 -0.3805
vn 0.8333 -0.0000 -0.5528
vn 0.7101 -0.0000 -0.7041
vn 0.5598 -0.0000 -0.8286
vn 0.3879 -0.0000 -0.9217
vn 0.2010 -0.0000 -0.9796
vn 0.1971 -0.0392 0.9796
vn 0.3804 -0.0757 0.9217
vn 0.5490 -0.1092 0.8286
vn 0.6965 -0.1385 0.7041
vn 0.8173 -0.1626 0.5528
vn 0.9070 -0.1804 0.3805
vn 0.9622 -0.1914 0.1939
vn 0.9808 -0.1951 -0.0000
vn 0.9622 -0.1914 -0.1939
vn 0.9070 -0.1804 -0.3805
vn 0.8173 -0.1626 -0.5528
vn 0.6965 -0.1385 -0.7041
vn 0.5490 -0.1092 -0.8286
vn 0.3804 -0.0757 -0.9217
vn 0.1971 -0.0392 -0.9796
vn 0.1857 -0.0769 0.9796
vn 0.3584 -0.1484 0.9217
vn 0.5172 -0.2142 0.8286
vn 0.6561 -0.2718 0.7041
vn 0.7699 -0.3189 0.5528
vn 0.8544 -0.3539 0.3805
vn 0.9063 -0.3754 0.1939
vn 0.9239 -0.3827 -0.0000
vn 0.9063 -0.3754 -0.1939
vn 0.8544 -0.3539 -0.3805
vn 0.7699 -0.3189 -0.5528
vn 0.6561 -0.2718 -0.7041
vn 0.5172 -0.2142 -0.8286
vn 0.3584 -0.1484 -0.9217
vn 0.1857 -0.0769 -0.9796
vn 0.1671 -0.1117 0.9796
vn 0.3225 -0.2155 0.9217
vn 0.4654 -0.3110 0.8286
vn 0.5905 -0.3945 0.7041
vn 0.6929 -0.4630 0.5528
vn 0.7689 -0.5138 0.3805
vn 0.8157 -0.5450 0.1939
vn 0.8315 -0.5556 -0.0000
vn 0.8157 -0.5450 -0.1939
vn 0.9924 0.1222 0.0134
vn 0.8520 0.4604 -0.2493
vn 0.7809 0.5364 -0.3200
vn 0.7046 0.5307 -0.4711
vn 0.3048 0.0256 -0.9521
vn 0.1831 -0.0528 -0.9817
vn 0.1421 -0.1421 0.9796
vn 0.2743 -0.2743 0.9217
vn 0.3958 -0.3958 0.8286
vn 0.5021 -0.5021 0.7041
vn 0.5893 -0.5893 0.5528
vn 0.6539 -0.6539 0.3805
vn 0.6937 -0.6937 0.1939
vn 0.7071 -0.7071 -0.0000
vn 0.7567 -0.5539 0.3473
vn 0.4435 0.1743 0.8791
vn 0.9071 0.3019 0.2934
vn 0.8093 0.5398 -0.2318
vn 0.5468 0.7049 -0.4517
vn 0.3643 0.0568 -0.9296
vn 0.0656 0.0250 -0.9975
vn 0.1117 -0.1671 0.9796
vn 0.2155 -0.3225 0.9217
vn 0.3110 -0.4654 0.8286
vn 0.3945 -0.5905 0.7041
vn 0.4630 -0.6929 0.5528
vn 0.5138 -0.7689 0.3805
vn 0.5450 -0.8157 0.1939
vn 0.5556 -0.8315 -0.0000
vn 0.5199 -0.7200 0.4597
vn 0.4249 -0.7041 0.5690
vn 0.7193 -0.6812 0.1363
vn 0.4914 -0.5304 -0.6908
vn 0.3986 -0.4307 -0.8097
vn 0.1958 -0.2634 -0.9446
vn 0.0239 -0.1209 -0.9924
vn 0.0769 -0.1857 0.9796
vn 0.1484 -0.3584 0.9217
vn 0.2142 -0.5172 0.8286
vn 0.2718 -0.6561 0.7041
vn 0.3189 -0.7699 0.5528
vn 0.3539 -0.8544 0.3805
vn 0.3754 -0.9063 0.1939
vn 0.3827 -0.9239 -0.0000
vn 0.3312 -0.7818 0.5283
vn 0.2964 -0.8771 0.3780
vn 0.1636 -0.8251 -0.5409
vn 0.1124 -0.7085 -0.6967
vn 0.0717 -0.5625 -0.8237
vn 0.0412 -0.3785 -0.9247
vn 0.0642 -0.1555 -0.9857
vn 0.0392 -0.1971 0.9796
vn 0.0757 -0.3804 0.9217
vn 0.1092 -0.5490 0.8286
vn 0.1385 -0.6965 0.7041
vn 0.1626 -0.8173 0.5528
vn 0.1804 -0.9070 0.3805
vn 0.1914 -0.9622 0.1939
vn 0.1951 -0.9808 -0.0000
vn 0.1674 -0.8246 0.5403
vn 0.1808 -0.9254 0.3330
vn 0.1626 -0.8173 -0.5528
vn 0.6397 -0.5781 -0.5066
vn 0.5008 -0.3094 -0.8084
vn 0.0757 -0.3804 -0.9217
vn 0.0326 -0.1646 -0.9858
vn -0.0000 -0.2010 0.9796
vn -0.0000 -0.3879 0.9217
vn -0.0000 -0.5598 0.8286
vn -0.0000 -0.7101 0.7041
vn -0.0000 -0.8333 0.5528
vn -0.0000 -0.9248 0.3805
vn -0.0000 -0.9810 0.1939
vn -0.0000 -1.0000 -0.0000
vn -0.0000 -0.8391 0.5440
vn -0.0000 -0.9419 0.3359
vn 0.2643 -0.9644 0.0094
vn 0.4622 -0.8863 0.0268
vn 0.5135 -0.2985 -0.8045
vn 0.0972 -0.1967 -0.9756
vn -0.0000 -0.1676 -0.9859
vn -0.0392 -0.1971 0.9796
vn -0.0757 -0.3804 0.9217
vn -0.1092 -0.5490 0.8286
vn 0.4900 -0.6291 0.6034
vn 0.0634 -0.9163 0.3956
vn -0.1804 -0.9070 0.3805
vn -0.1914 -0.9622 0.1939
vn -0.1951 -0.9808 -0.0000
vn -0.1674 -0.8246 0.5403
vn -0.1808 -0.9254 0.3330
vn -0.4550 -0.8888 -0.0547
vn -0.5668 -0.8238 0.0082
vn -0.4833 -0.2409 -0.8417
vn -0.1380 -0.1865 -0.9727
vn -0.0326 -0.1646 -0.9858
vn -0.0769 -0.1857 0.9796
vn -0.1484 -0.3584 0.9217
vn 0.4098 -0.0000 0.9122
vn 0.5187 -0.0685 0.8522
vn 0.1529 -0.9187 0.3642
vn -0.3250 -0.9120 0.2504
vn -0.3754 -0.9063 0.1939
vn -0.3827 -0.9239 -0.0000
vn -0.3312 -0.7818 0.5283
vn -0.3560 -0.8765 0.3240
vn -0.3189 -0.7699 -0.5528
vn -0.6717 -0.4915 -0.5543
vn -0.5063 -0.2613 -0.8218
vn -0.1484 -0.3584 -0.9217
vn -0.0642 -0.1555 -0.9857
vn -0.1117 -0.1671 0.9796
vn -0.2155 -0.3225 0.9217
vn 0.2439 0.3650 0.8985
vn -0.3390 0.3809 0.8602
vn -0.8488 -0.3833 0.3642
vn -0.5777 -0.7769 0.2504
vn -0.5450 -0.8157 0.1939
vn -0.5556 -0.8315 -0.0000
vn -0.7141 -0.6736 0.1907
vn -0.7213 -0.6434 0.2565
vn -0.6898 -0.5004 -0.5232
vn -0.6121 -0.4189 -0.6707
vn -0.5120 -0.3220 -0.7964
vn -0.3875 -0.2156 -0.8963
vn -0.2161 -0.0939 -0.9718
vn -0.1421 -0.1421 0.9796
vn -0.2743 -0.2743 0.9217
vn -0.4825 0.0972 0.8705
vn -0.8415 0.0408 0.5387
vn -0.7970 -0.4563 0.3956
vn -0.6539 -0.6539 0.3805
vn -0.6937 -0.6937 0.1939
vn -0.7071 -0.7071 -0.0000
vn -0.6937 -0.6937 -0.1939
vn -0.8311 -0.4700 -0.2974
vn -0.6062 -0.6397 -0.4725
vn -0.4312 -0.4599 -0.7763
vn -0.5379 -0.2154 -0.8151
vn -0.3754 -0.1398 -0.9163
vn -0.1788 -0.0690 -0.9815
vn -0.0023 -0.0000 -1.0000
vn -0.1671 -0.1117 0.9796
vn -0.3225 -0.2155 0.9217
vn -0.4654 -0.3110 0.8286
vn -0.5905 -0.3945 0.7041
vn -0.6929 -0.4630 0.5528
vn -0.7689 -0.5138 0.3805
vn -0.8157 -0.5450 0.1939
vn -0.8315 -0.5556 -0.0000
vn -0.8157 -0.5450 -0.1939
vn -0.6357 -0.7682 0.0756
vn -0.5927 -0.7733 0.2251
vn -0.1851 -0.5010 -0.8454
vn -0.2213 -0.3098 -0.9247
vn -0.3225 -0.2155 -0.9217
vn -0.1671 -0.1117 -0.9796
vn -0.1857 -0.0769 0.9796
vn -0.3584 -0.1484 0.9217
vn -0.0350 -0.5231 0.8516
vn -0.2199 -0.8345 0.5053
vn -0.7212 -0.5835 0.3733
vn -0.8544 -0.3539 0.3805
vn -0.9063 -0.3754 0.1939
vn -0.9239 -0.3827 -0.0000
vn -0.9063 -0.3754 -0.1939
vn -0.7980 -0.3367 0.4997
vn -0.9238 0.2808 0.2603
vn -0.4678 0.5830 -0.6642
vn -0.2748 0.0121 -0.9614
vn -0.3584 -0.1484 -0.9217
vn -0.1857 -0.0769 -0.9796
vn -0.1971 -0.0392 0.9796
vn -0.3804 -0.0757 0.9217
vn 0.4888 0.0972 0.8670
vn 0.2846 -0.4791 0.8303
vn -0.6523 -0.6860 0.3225
vn -0.9412 -0.2428 0.2347
vn -0.9622 -0.1914 0.1939
vn -0.9808 -0.1951 -0.0000
vn -0.9622 -0.1914 -0.1939
vn -0.9820 0.1855 0.0354
vn -0.6474 0.6920 -0.3193
vn -0.4843 0.5441 -0.6852
vn -0.5490 -0.1092 -0.8286
vn -0.3804 -0.0757 -0.9217
vn -0.1971 -0.0392 -0.9796
vn -0.2010 -0.0000 0.9796
vn -0.3879 -0.0000 0.9217
vn 0.4984 -0.0000 0.8670
vn 0.2230 -0.0000 0.9748
vn -0.9333 -0.0000 0.3592
vn -0.9840 -0.0000 0.1783
vn -0.9810 -0.0000 0.1939
vn -1.0000 -0.0000 -0.0000
vn -0.9810 -0.0000 -0.1939
vn -0.9248 -0.0000 -0.3805
vn -0.8333 -0.0000 -0.5528
vn -0.7101 -0.0000 -0.7041
vn -0.5598 -0.0000 -0.8286
vn -0.3879 -0.0000 -0.9217
vn -0.2010 -0.0000 -0.9796
vn -0.1971 0.0392 0.9796
vn -0.3804 0.0757 0.9217
vn 0.4888 -0.0972 0.8670
vn 0.2846 0.4791 0.8303
vn -0.6522 0.6860 0.3225
vn -0.9412 0.2428 0.2347
vn -0.9622 0.1914 0.1939
vn -0.9808 0.1951 -0.0000
vn -0.9622 0.1914 -0.1939
vn -0.9820 -0.1855 0.0354
vn -0.6474 -0.6920 -0.3193
vn -0.4843 -0.5441 -0.6852
vn -0.5490 0.1092 -0.8286
vn -0.3804 0.0757 -0.9217
vn -0.1971 0.0392 -0.9796
vn -0.1857 0.0769 0.9796
vn -0.3584 0.1484 0.9217
vn -0.0350 0.5231 0.8516
vn -0.2199 0.8345 0.5053
vn -0.7212 0.5835 0.3733
vn -0.8544 0.3539 0.3805
vn -0.9063 0.3754 0.1939
vn -0.9239 0.3827 -0.0000
vn -0.9063 0.3754 -0.1939
vn -0.7981 0.3367 0.4997
vn -0.9238 -0.2808 0.2603
vn -0.4678 -0.5830 -0.6642
vn -0.2748 -0.0121 -0.9614
vn -0.3584 0.1484 -0.9217
vn -0.1857 0.0769 -0.9796
vn -0.1671 0.1117 0.9796
vn -0.3225 0.2155 0.9217
vn -0.4654 0.3110 0.8286
vn -0.5905 0.3945 0.7041
vn -0.6929 0.4630 0.5528
vn -0.7689 0.5138 0.3805
vn -0.8157 0.5450 0.1939
vn -0.8315 0.5556 -0.0000
vn -0.8157 0.5450 -0.1939
vn -0.6357 0.7682 0.0756
vn -0.5927 0.7733 0.2251
vn -0.1851 0.5010 -0.8454
vn -0.2213 0.3098 -0.9247
vn -0.3225 0.2155 -0.9217
vn -0.1671 0.1117 -0.9796
vn -0.1421 0.1421 0.9796
vn -0.2743 0.2743 0.9217
vn -0.3958 0.3958 0.8286
vn -0.7953 -0.0579 0.6034
vn -0.7971 0.4563 0.3956
vn -0.6539 0.6539 0.3805
vn -0.6937 0.6937 0.1939
vn -0.7071 0.7071 -0.0000
vn -0.6937 0.6937 -0.1939
vn -0.8311 0.4700 -0.2974
vn -0.6062 0.6397 -0.4725
vn -0.4312 0.4599 -0.7763
vn -0.5378 0.2154 -0.8151
vn -0.3754 0.1398 -0.9163
vn -0.1788 0.0690 -0.9815
vn -0.1117 0.1671 0.9796
vn -0.2155 0.3225 0.9217
vn -0.2276 -0.3408 0.9122
vn -0.3452 -0.3932 0.8522
vn -0.8488 0.3833 0.3642
vn -0.5777 0.7769 0.2504
vn -0.5450 0.8157 0.1939
vn -0.5556 0.8315 -0.0000
vn -0.7141 0.6736 0.1908
vn -0.7213 0.6434 0.2565
vn -0.6898 0.5004 -0.5232
vn -0.6121 0.4189 -0.6707
vn -0.5120 0.3220 -0.7964
vn -0.3875 0.2156 -0.8963
vn -0.2161 0.0939 -0.9718
vn -0.0769 0.1857 0.9796
vn -0.1484 0.3584 0.9217
vn 0.1680 -0.4056 0.8985
vn 0.5050 0.0702 0.8602
vn 0.1529 0.9187 0.3642
vn -0.3250 0.9120 0.2504
vn -0.3754 0.9063 0.1939
vn -0.3827 0.9239 -0.0000
vn -0.3313 0.7818 0.5283
vn -0.3560 0.8765 0.3240
vn -0.3189 0.7699 -0.5528
vn -0.6717 0.4915 -0.5543
vn -0.5063 0.2613 -0.8218
vn -0.1484 0.3584 -0.9217
vn -0.0642 0.1555 -0.9857
vn -0.0392 0.1971 0.9796
vn -0.0757 0.3804 0.9217
vn 0.3489 0.3472 0.8705
vn 0.5015 0.6770 0.5387
vn 0.0634 0.9163 0.3956
vn -0.1804 0.9070 0.3805
vn -0.1914 0.9622 0.1939
vn -0.1951 0.9808 -0.0000
vn -0.1674 0.8246 0.5403
vn -0.1809 0.9254 0.3330
vn -0.4550 0.8888 -0.0547
vn -0.5668 0.8238 0.0082
vn -0.4833 0.2409 -0.8417
vn -0.1380 0.1865 -0.9727
vn -0.0326 0.1646 -0.9858
vn -0.0000 0.2010 0.9796
vn -0.0000 0.3879 0.9217
vn -0.0000 0.7101 0.7041
vn -0.0000 0.9248 0.3805
vn -0.0000 0.9419 0.3359
vn 0.4622 0.8863 0.0268
vn 0.5135 0.2985 -0.8045
vn 0.0972 0.1967 -0.9756
vn -0.0000 0.1676 -0.9859
vn -0.5704 0.4683 -0.6748
vn 0.6160 -0.3163 0.7215
vn -0.5006 0.4593 -0.7338
vn 0.5635 -0.3259 0.7591
vn -0.4335 0.4326 -0.7905
vn 0.5077 -0.3225 0.7989
vn -0.3717 0.3894 -0.8427
vn 0.4511 -0.3042 0.8390
vn -0.3175 0.3311 -0.8886
vn 0.3968 -0.2700 0.8773
vn -0.2730 0.2602 -0.9262
vn 0.3486 -0.2198 0.9111
vn -0.2400 0.1792 -0.9541
vn 0.3105 -0.1556 0.9378
vn -0.2196 0.0914 -0.9713
vn 0.2860 -0.0807 0.9548
vn -0.2128 -0.0000 -0.9771
vn 0.2775 -0.0000 0.9607
vn -0.2196 -0.0914 -0.9713
vn 0.2860 0.0807 0.9548
vn -0.2400 -0.1792 -0.9541
vn 0.3105 0.1556 0.9378
vn -0.2730 -0.2602 -0.9262
vn 0.3486 0.2198 0.9111
vn -0.3175 -0.3311 -0.8886
vn 0.3968 0.2700 0.8773
vn -0.3717 -0.3894 -0.8427
vn 0.4511 0.3042 0.8390
vn -0.4335 -0.4326 -0.7905
vn 0.5077 0.3225 0.7989
vn -0.5006 -0.4593 -0.7338
vn 0.5635 0.3259 0.7591
vn -0.5704 -0.4683 -0.6748
vn 0.6160 0.3163 0.7215
vn -0.6402 -0.4593 -0.6158
vn 0.6636 0.2958 0.6872
vn -0.7073 -0.4326 -0.5591
vn 0.7052 0.2666 0.6570
vn -0.7691 -0.3894 -0.5068
vn 0.7404 0.2306 0.6314
vn -0.8233 -0.3311 -0.4610
vn 0.7690 0.1897 0.6104
vn -0.8678 -0.2602 -0.4234
vn 0.7911 0.1451 0.5943
vn -0.9008 -0.1792 -0.3955
vn 0.8067 0.0980 0.5828
vn -0.9212 -0.0914 -0.3783
vn 0.8160 0.0494 0.5759
vn -0.9280 -0.0000 -0.3725
vn 0.8191 -0.0000 0.5736
vn -0.9212 0.0914 -0.3783
vn 0.8160 -0.0494 0.5759
vn -0.9008 0.1792 -0.3955
vn 0.8067 -0.0980 0.5828
vn -0.8678 0.2602 -0.4234
vn 0.7911 -0.1451 0.5943
vn -0.8233 0.3311 -0.4610
vn 0.7690 -0.1897 0.6104
vn -0.7691 0.3894 -0.5068
vn 0.7404 -0.2306 0.6314
vn -0.7073 0.4326 -0.5591
vn 0.7052 -0.2666 0.6570
vn -0.6402 0.4593 -0.6158
vn 0.6636 -0.2958 0.6872
vn 0.4096 0.8875 0.2111
vn 0.2747 0.9049 0.3250
vn 0.5392 0.8360 0.1015
vn 0.6587 0.7524 0.0005
vn 0.7634 0.6399 -0.0881
vn 0.8494 0.5027 -0.1607
vn 0.9132 0.3463 -0.2147
vn 0.9526 0.1765 -0.2479
vn 0.9658 -0.0000 -0.2592
vn 0.9526 -0.1765 -0.2479
vn 0.9132 -0.3463 -0.2147
vn 0.8494 -0.5027 -0.1607
vn 0.7634 -0.6399 -0.0880
vn 0.6587 -0.7524 0.0005
vn 0.5392 -0.8360 0.1015
vn 0.4096 -0.8875 0.2111
vn 0.2747 -0.9049 0.3250
vn 0.1399 -0.8875 0.4390
vn 0.0103 -0.8360 0.5486
vn -0.1092 -0.7524 0.6496
vn -0.2139 -0.6399 0.7381
vn -0.2999 -0.5027 0.8108
vn -0.3637 -0.3463 0.8647
vn -0.4031 -0.1765 0.8980
vn -0.4163 -0.0000 0.9092
vn -0.4031 0.1765 0.8980
vn -0.3637 0.3463 0.8647
vn -0.2999 0.5027 0.8108
vn -0.2139 0.6399 0.7381
vn -0.1092 0.7524 0.6496
vn 0.0103 0.8360 0.5486
vn 0.1399 0.8875 0.4390
vn 0.5387 -0.3640 0.7598
vn 0.5986 -0.3560 0.7176
vn 0.4761 -0.3572 0.8036
vn 0.4137 -0.3338 0.8470
vn 0.3551 -0.2935 0.8876
vn 0.3040 -0.2370 0.9227
vn 0.2644 -0.1666 0.9499
vn 0.2392 -0.0860 0.9672
vn 0.2306 -0.0000 0.9731
vn 0.2392 0.0860 0.9672
vn 0.2644 0.1666 0.9499
vn 0.3040 0.2370 0.9227
vn 0.3551 0.2935 0.8876
vn 0.4137 0.3338 0.8470
vn 0.4761 0.3572 0.8036
vn 0.5387 0.3640 0.7598
vn 0.5986 0.3560 0.7176
vn 0.6536 0.3351 0.6787
vn 0.7022 0.3036 0.6440
vn 0.7437 0.2639 0.6143
vn 0.7776 0.2177 0.5899
vn 0.8039 0.1669 0.5709
vn 0.8225 0.1129 0.5574
vn 0.8337 0.0569 0.5493
vn 0.8374 -0.0000 0.5466
vn 0.8337 -0.0569 0.5493
vn 0.8225 -0.1129 0.5574
vn 0.8039 -0.1669 0.5709
vn 0.7776 -0.2177 0.5899
vn 0.7437 -0.2639 0.6143
vn 0.7022 -0.3037 0.6440
vn 0.6536 -0.3351 0.6787
vt 0.878360 0.921796
vt 0.864769 0.948980
vt 0.864769 0.921796
vt 0.878360 0.731513
vt 0.864769 0.704329
vt 0.878360 0.704329
vt 0.878360 0.894613
vt 0.864769 0.894613
vt 0.878360 0.677146
vt 0.864769 0.677146
vt 0.878360 0.867430
vt 0.864769 0.867430
vt 0.864769 0.649962
vt 0.878360 0.649962
vt 0.878360 0.840246
vt 0.864769 0.840246
vt 0.878360 0.622779
vt 0.864769 0.622779
vt 0.878360 0.813063
vt 0.864769 0.813063
vt 0.878360 0.595596
vt 0.864769 0.595596
vt 0.878360 0.785879
vt 0.864769 0.785879
vt 0.864769 0.568412
vt 0.878360 0.568412
vt 0.864769 0.758696
vt 0.878360 0.758696
vt 0.878360 0.948980
vt 0.871565 0.976163
vt 0.871565 0.541229
vt 0.864769 0.731513
vt 0.857973 0.976163
vt 0.851177 0.948980
vt 0.857973 0.541229
vt 0.851177 0.568412
vt 0.851177 0.731513
vt 0.851177 0.921796
vt 0.851177 0.704329
vt 0.851177 0.894613
vt 0.851177 0.677146
vt 0.851177 0.867430
vt 0.851177 0.649962
vt 0.851177 0.840246
vt 0.851177 0.622779
vt 0.851177 0.813063
vt 0.851177 0.595596
vt 0.851177 0.785879
vt 0.851177 0.758696
vt 0.837585 0.840246
vt 0.837585 0.622779
vt 0.837585 0.813063
vt 0.837585 0.595596
vt 0.837585 0.785879
vt 0.837585 0.568412
vt 0.837585 0.758696
vt 0.844381 0.976163
vt 0.837585 0.948980
vt 0.844381 0.541229
vt 0.837585 0.731513
vt 0.837585 0.921796
vt 0.837585 0.704329
vt 0.837585 0.894613
vt 0.837585 0.677146
vt 0.837585 0.867430
vt 0.837585 0.649962
vt 0.823994 0.731513
vt 0.823994 0.921796
vt 0.823994 0.704329
vt 0.823994 0.894613
vt 0.823994 0.677146
vt 0.823994 0.867430
vt 0.823994 0.649962
vt 0.823994 0.840246
vt 0.823994 0.622779
vt 0.823994 0.813063
vt 0.823994 0.595596
vt 0.823994 0.785879
vt 0.823994 0.568412
vt 0.823994 0.758696
vt 0.830789 0.976163
vt 0.823994 0.948980
vt 0.830789 0.541229
vt 0.810402 0.649962
vt 0.810402 0.622779
vt 0.810402 0.813063
vt 0.810402 0.595596
vt 0.810402 0.785879
vt 0.810402 0.568412
vt 0.810402 0.758696
vt 0.817198 0.976163
vt 0.810402 0.948980
vt 0.817198 0.541229
vt 0.810402 0.731513
vt 0.810402 0.921796
vt 0.810402 0.704329
vt 0.810402 0.894613
vt 0.810402 0.677146
vt 0.810402 0.867430
vt 0.810402 0.840246
vt 0.796810 0.921796
vt 0.796810 0.704329
vt 0.796810 0.894613
vt 0.796810 0.677146
vt 0.796810 0.867430
vt 0.796810 0.649962
vt 0.796810 0.840246
vt 0.796810 0.622779
vt 0.796810 0.813063
vt 0.796810 0.595596
vt 0.796810 0.785879
vt 0.796810 0.568412
vt 0.796810 0.758696
vt 0.803606 0.976163
vt 0.796810 0.948980
vt 0.803606 0.541229
vt 0.796810 0.731513
vt 0.783219 0.813063
vt 0.783219 0.622779
vt 0.783219 0.595596
vt 0.783219 0.785879
vt 0.783219 0.568412
vt 0.783219 0.758696
vt 0.790014 0.976163
vt 0.783219 0.948980
vt 0.790014 0.541229
vt 0.783219 0.731513
vt 0.783219 0.921796
vt 0.783219 0.704329
vt 0.783219 0.894613
vt 0.783219 0.677146
vt 0.783219 0.867430
vt 0.783219 0.649962
vt 0.783219 0.840246
vt 0.769627 0.704329
vt 0.769627 0.894613
vt 0.769627 0.677146
vt 0.769627 0.867430
vt 0.769627 0.649962
vt 0.769627 0.840246
vt 0.769627 0.622779
vt 0.769627 0.813063
vt 0.769627 0.595596
vt 0.769627 0.785879
vt 0.769627 0.568412
vt 0.769627 0.758696
vt 0.776423 0.976163
vt 0.769627 0.948980
vt 0.776423 0.541229
vt 0.769627 0.731513
vt 0.769627 0.921796
vt 0.756035 0.595596
vt 0.756035 0.813063
vt 0.756035 0.785879
vt 0.756035 0.568412
vt 0.756035 0.758696
vt 0.762831 0.976163
vt 0.756035 0.948980
vt 0.762831 0.541229
vt 0.756035 0.731513
vt 0.756035 0.921796
vt 0.756035 0.704329
vt 0.756035 0.894613
vt 0.756035 0.677146
vt 0.756035 0.867430
vt 0.756035 0.649962
vt 0.756035 0.840246
vt 0.756035 0.622779
vt 0.742443 0.704329
vt 0.742443 0.677146
vt 0.742443 0.867430
vt 0.742443 0.649962
vt 0.742443 0.840246
vt 0.742443 0.622779
vt 0.742443 0.813063
vt 0.742443 0.595596
vt 0.742443 0.785879
vt 0.742443 0.568412
vt 0.742443 0.758696
vt 0.749239 0.976163
vt 0.742443 0.948980
vt 0.749239 0.541229
vt 0.742443 0.731513
vt 0.742443 0.921796
vt 0.742443 0.894613
vt 0.728852 0.568412
vt 0.728852 0.785879
vt 0.728852 0.758696
vt 0.735648 0.976163
vt 0.728852 0.948980
vt 0.735648 0.541229
vt 0.728852 0.731513
vt 0.728852 0.921796
vt 0.728852 0.704329
vt 0.728852 0.894613
vt 0.728852 0.677146
vt 0.728852 0.867430
vt 0.728852 0.649962
vt 0.728852 0.840246
vt 0.728852 0.622779
vt 0.728852 0.813063
vt 0.728852 0.595596
vt 0.715260 0.867430
vt 0.715260 0.649962
vt 0.715260 0.840246
vt 0.715260 0.622779
vt 0.715260 0.813063
vt 0.715260 0.595596
vt 0.715260 0.785879
vt 0.715260 0.568412
vt 0.715260 0.758696
vt 0.722056 0.976163
vt 0.715260 0.948980
vt 0.722056 0.541229
vt 0.715260 0.731513
vt 0.715260 0.921796
vt 0.715260 0.704329
vt 0.715260 0.894613
vt 0.715260 0.677146
vt 0.701668 0.785879
vt 0.701668 0.758696
vt 0.708464 0.976163
vt 0.701668 0.948980
vt 0.708464 0.541229
vt 0.701668 0.568412
vt 0.701668 0.731513
vt 0.701668 0.921796
vt 0.701668 0.704329
vt 0.701668 0.894613
vt 0.701668 0.677146
vt 0.701668 0.867430
vt 0.701668 0.649962
vt 0.701668 0.840246
vt 0.701668 0.622779
vt 0.701668 0.813063
vt 0.701668 0.595596
vt 0.688077 0.677146
vt 0.688077 0.649962
vt 0.688077 0.867430
vt 0.688077 0.840246
vt 0.688077 0.622779
vt 0.688077 0.813063
vt 0.688077 0.595596
vt 0.688077 0.785879
vt 0.688077 0.568412
vt 0.688076 0.758696
vt 0.694872 0.976163
vt 0.688077 0.948980
vt 0.694872 0.541229
vt 0.688077 0.731513
vt 0.688077 0.921796
vt 0.688077 0.704329
vt 0.688077 0.894613
vt 0.681281 0.976163
vt 0.674485 0.948980
vt 0.681281 0.541229
vt 0.674485 0.568412
vt 0.674485 0.731513
vt 0.674485 0.921796
vt 0.674485 0.704329
vt 0.674485 0.894613
vt 0.674485 0.677146
vt 0.674485 0.867430
vt 0.674485 0.649962
vt 0.674485 0.840246
vt 0.674485 0.622779
vt 0.674485 0.813063
vt 0.674485 0.595596
vt 0.674485 0.785879
vt 0.674485 0.758696
vt 0.660893 0.867430
vt 0.660893 0.840246
vt 0.660893 0.622779
vt 0.660893 0.813063
vt 0.660893 0.595596
vt 0.660893 0.785879
vt 0.660893 0.568412
vt 0.660893 0.758696
vt 0.667689 0.976163
vt 0.660893 0.948980
vt 0.667689 0.541229
vt 0.660893 0.731513
vt 0.660893 0.921796
vt 0.660893 0.704329
vt 0.660893 0.894613
vt 0.660893 0.677146
vt 0.660893 0.649962
vt 0.647301 0.731513
vt 0.647301 0.921796
vt 0.647301 0.704329
vt 0.647301 0.894613
vt 0.647301 0.677146
vt 0.647301 0.867430
vt 0.647301 0.649962
vt 0.647301 0.840246
vt 0.647301 0.622779
vt 0.647301 0.813063
vt 0.647301 0.595596
vt 0.647301 0.785879
vt 0.647301 0.568412
vt 0.647301 0.758696
vt 0.654097 0.976163
vt 0.647301 0.948980
vt 0.654097 0.541229
vt 0.633710 0.649962
vt 0.633710 0.622779
vt 0.633710 0.813063
vt 0.633710 0.595596
vt 0.633710 0.785879
vt 0.633710 0.568412
vt 0.633710 0.758696
vt 0.640506 0.976163
vt 0.633710 0.948980
vt 0.640506 0.541229
vt 0.633710 0.731513
vt 0.633710 0.921796
vt 0.633710 0.704329
vt 0.633710 0.894613
vt 0.633710 0.677146
vt 0.633710 0.867430
vt 0.633710 0.840246
vt 0.620118 0.704329
vt 0.620118 0.894613
vt 0.620118 0.677146
vt 0.620118 0.867430
vt 0.620118 0.649962
vt 0.620118 0.840246
vt 0.620118 0.622779
vt 0.620118 0.813063
vt 0.620118 0.595596
vt 0.620118 0.785879
vt 0.620118 0.568412
vt 0.620118 0.758696
vt 0.626914 0.976163
vt 0.620118 0.948980
vt 0.626914 0.541229
vt 0.620118 0.731513
vt 0.620118 0.921796
vt 0.606526 0.622779
vt 0.606526 0.595596
vt 0.606526 0.813063
vt 0.606526 0.785879
vt 0.606526 0.568412
vt 0.606526 0.758696
vt 0.613322 0.976163
vt 0.606526 0.948980
vt 0.613322 0.541229
vt 0.606526 0.731513
vt 0.606526 0.921796
vt 0.606526 0.704329
vt 0.606526 0.894613
vt 0.606526 0.677146
vt 0.606526 0.867430
vt 0.606526 0.649962
vt 0.606526 0.840246
vt 0.592935 0.894613
vt 0.592935 0.704329
vt 0.592935 0.677146
vt 0.592935 0.867430
vt 0.592935 0.649962
vt 0.592935 0.840246
vt 0.592935 0.622779
vt 0.592935 0.813063
vt 0.592935 0.595596
vt 0.592935 0.785879
vt 0.592935 0.568412
vt 0.592935 0.758696
vt 0.599731 0.976163
vt 0.592935 0.948980
vt 0.599731 0.541229
vt 0.592935 0.731513
vt 0.592935 0.921796
vt 0.579343 0.813063
vt 0.579343 0.785879
vt 0.579343 0.568412
vt 0.579343 0.758696
vt 0.586139 0.976163
vt 0.579343 0.948980
vt 0.586139 0.541229
vt 0.579343 0.731513
vt 0.579343 0.921796
vt 0.579343 0.704329
vt 0.579343 0.894613
vt 0.579343 0.677146
vt 0.579343 0.867430
vt 0.579343 0.649962
vt 0.579343 0.840246
vt 0.579343 0.622779
vt 0.579343 0.595596
vt 0.565751 0.704329
vt 0.565751 0.677146
vt 0.565751 0.867430
vt 0.565751 0.649962
vt 0.565751 0.840246
vt 0.565751 0.622779
vt 0.565751 0.813063
vt 0.565751 0.595596
vt 0.565751 0.785879
vt 0.565751 0.568412
vt 0.565751 0.758696
vt 0.572547 0.976163
vt 0.565751 0.948980
vt 0.572547 0.541229
vt 0.565751 0.731513
vt 0.565751 0.921796
vt 0.565751 0.894613
vt 0.552160 0.568412
vt 0.552160 0.785879
vt 0.552160 0.758696
vt 0.558955 0.976163
vt 0.552160 0.948980
vt 0.558955 0.541229
vt 0.552160 0.731513
vt 0.552160 0.921796
vt 0.552160 0.704329
vt 0.552160 0.894613
vt 0.552160 0.677146
vt 0.552160 0.867430
vt 0.552160 0.649962
vt 0.552160 0.840246
vt 0.552160 0.622779
vt 0.552160 0.813063
vt 0.552160 0.595596
vt 0.987094 0.894613
vt 0.973502 0.867430
vt 0.987094 0.867430
vt 0.987094 0.677146
vt 0.973502 0.649962
vt 0.987094 0.649962
vt 0.987094 0.840246
vt 0.973502 0.840246
vt 0.987094 0.622779
vt 0.973502 0.622779
vt 0.973502 0.813063
vt 0.987094 0.813063
vt 0.973502 0.595596
vt 0.987094 0.595596
vt 0.987094 0.785879
vt 0.973502 0.785879
vt 0.973502 0.568412
vt 0.987094 0.568412
vt 0.987094 0.758696
vt 0.973502 0.758696
vt 0.987094 0.948980
vt 0.980298 0.976163
vt 0.973502 0.948980
vt 0.980298 0.541229
vt 0.973502 0.731513
vt 0.987094 0.731513
vt 0.973502 0.921796
vt 0.987094 0.921796
vt 0.973502 0.704329
vt 0.987094 0.704329
vt 0.973502 0.894613
vt 0.973502 0.677146
vt 0.959911 0.785879
vt 0.959911 0.758696
vt 0.966706 0.976163
vt 0.959911 0.948980
vt 0.966706 0.541229
vt 0.959911 0.568412
vt 0.959911 0.731513
vt 0.959911 0.921796
vt 0.959911 0.704329
vt 0.959911 0.894613
vt 0.959911 0.677146
vt 0.959911 0.867430
vt 0.959911 0.649962
vt 0.959911 0.840246
vt 0.959911 0.622779
vt 0.959911 0.813063
vt 0.959911 0.595596
vt 0.946319 0.649962
vt 0.946319 0.867430
vt 0.946319 0.840246
vt 0.946319 0.622779
vt 0.946319 0.813063
vt 0.946319 0.595596
vt 0.946319 0.785879
vt 0.946319 0.568412
vt 0.946319 0.758696
vt 0.953115 0.976163
vt 0.946319 0.948980
vt 0.953115 0.541229
vt 0.946319 0.731513
vt 0.946319 0.921796
vt 0.946319 0.704329
vt 0.946319 0.894613
vt 0.946319 0.677146
vt 0.939523 0.541229
vt 0.932727 0.568412
vt 0.932727 0.731513
vt 0.932727 0.921796
vt 0.932727 0.704329
vt 0.932727 0.894613
vt 0.932727 0.677146
vt 0.932727 0.867430
vt 0.932727 0.649962
vt 0.932727 0.840246
vt 0.932727 0.622779
vt 0.932727 0.813063
vt 0.932727 0.595596
vt 0.932727 0.785879
vt 0.932727 0.758696
vt 0.939523 0.976163
vt 0.932727 0.948980
vt 0.919135 0.622779
vt 0.919135 0.813063
vt 0.919135 0.595596
vt 0.919135 0.785879
vt 0.919135 0.568412
vt 0.919135 0.758696
vt 0.925931 0.976163
vt 0.919135 0.948980
vt 0.925931 0.541229
vt 0.919135 0.731513
vt 0.919135 0.921796
vt 0.919135 0.704329
vt 0.919135 0.894613
vt 0.919135 0.677146
vt 0.919135 0.867430
vt 0.919135 0.649962
vt 0.919135 0.840246
vt 0.905544 0.948980
vt 0.905544 0.921796
vt 0.905544 0.731513
vt 0.905544 0.704329
vt 0.905544 0.894613
vt 0.905544 0.677146
vt 0.905544 0.867430
vt 0.905544 0.649962
vt 0.905544 0.840246
vt 0.905544 0.622779
vt 0.905544 0.813063
vt 0.905544 0.595596
vt 0.905544 0.785879
vt 0.905544 0.568412
vt 0.905544 0.758696
vt 0.912340 0.976163
vt 0.912340 0.541229
vt 0.891952 0.840246
vt 0.891952 0.813063
vt 0.891952 0.595596
vt 0.891952 0.785879
vt 0.891952 0.568412
vt 0.891952 0.758696
vt 0.898748 0.976163
vt 0.891952 0.948980
vt 0.898748 0.541229
vt 0.891952 0.731513
vt 0.891952 0.921796
vt 0.891952 0.704329
vt 0.891952 0.894613
vt 0.891952 0.677146
vt 0.891952 0.867430
vt 0.891952 0.649962
vt 0.891952 0.622779
vt 0.885156 0.976163
vt 0.885156 0.541229
vt 0.505203 0.273105
vt 0.490531 0.507855
vt 0.490531 0.273105
vt 0.475859 0.273105
vt 0.475859 0.507855
vt 0.461187 0.273105
vt 0.461187 0.507855
vt 0.446515 0.273105
vt 0.446515 0.507855
vt 0.431843 0.273105
vt 0.431843 0.507855
vt 0.417171 0.273105
vt 0.402500 0.507855
vt 0.402500 0.273105
vt 0.387828 0.507855
vt 0.387828 0.273105
vt 0.373156 0.273105
vt 0.373156 0.507855
vt 0.358484 0.273105
vt 0.358484 0.507855
vt 0.343812 0.273105
vt 0.329140 0.507855
vt 0.329140 0.273105
vt 0.314468 0.273105
vt 0.314468 0.507855
vt 0.299797 0.273105
vt 0.285125 0.507855
vt 0.285125 0.273105
vt 0.270453 0.507855
vt 0.270453 0.273105
vt 0.255781 0.507855
vt 0.255781 0.273105
vt 0.241109 0.273105
vt 0.241109 0.507855
vt 0.226437 0.273105
vt 0.211765 0.507855
vt 0.211765 0.273105
vt 0.197094 0.273105
vt 0.197094 0.507855
vt 0.182422 0.273105
vt 0.182422 0.507855
vt 0.167750 0.273105
vt 0.167750 0.507855
vt 0.153078 0.273105
vt 0.153078 0.507855
vt 0.138406 0.273105
vt 0.123734 0.507855
vt 0.123734 0.273105
vt 0.109062 0.273105
vt 0.094391 0.507855
vt 0.094391 0.273105
vt 0.079719 0.273105
vt 0.065047 0.507855
vt 0.065047 0.273105
vt 0.144372 0.134713
vt 0.140439 0.136816
vt 0.050375 0.273105
vt 0.035703 0.507855
vt 0.035703 0.273105
vt 0.409810 0.045216
vt 0.277313 0.133748
vt 0.365845 0.266245
vt 0.157516 0.178042
vt 0.153078 0.268410
vt 0.153078 0.178479
vt 0.196199 0.259833
vt 0.175061 0.266245
vt 0.165717 0.174646
vt 0.161784 0.176748
vt 0.169164 0.171816
vt 0.215680 0.249420
vt 0.171993 0.168369
vt 0.232755 0.235407
vt 0.174095 0.164436
vt 0.246768 0.218332
vt 0.175390 0.160169
vt 0.257181 0.198851
vt 0.265758 0.155731
vt 0.263593 0.177713
vt 0.175390 0.151292
vt 0.175827 0.155731
vt 0.257181 0.112610
vt 0.263593 0.133748
vt 0.174095 0.147025
vt 0.246768 0.093129
vt 0.171993 0.143092
vt 0.232755 0.076054
vt 0.169164 0.139645
vt 0.215680 0.062041
vt 0.165717 0.136816
vt 0.196199 0.051628
vt 0.157516 0.133419
vt 0.161784 0.134713
vt 0.153078 0.043051
vt 0.175061 0.045216
vt 0.153078 0.132982
vt 0.131095 0.045216
vt 0.148640 0.133419
vt 0.109957 0.051628
vt 0.136992 0.139645
vt 0.090476 0.062041
vt 0.134163 0.143092
vt 0.073401 0.076054
vt 0.132061 0.147025
vt 0.059388 0.093129
vt 0.130766 0.151292
vt 0.048975 0.112610
vt 0.130329 0.155731
vt 0.042563 0.133748
vt 0.042563 0.177713
vt 0.040398 0.155731
vt 0.130766 0.160169
vt 0.048975 0.198851
vt 0.134163 0.168369
vt 0.132061 0.164436
vt 0.073401 0.235407
vt 0.059388 0.218332
vt 0.136992 0.171816
vt 0.090476 0.249420
vt 0.140439 0.174646
vt 0.109957 0.259833
vt 0.144372 0.176748
vt 0.131095 0.266245
vt 0.148640 0.178042
vt 0.505203 0.507855
vt 0.417171 0.507855
vt 0.343812 0.507855
vt 0.299797 0.507855
vt 0.226437 0.507855
vt 0.138406 0.507855
vt 0.109062 0.507855
vt 0.079719 0.507855
vt 0.050375 0.507855
vt 0.387828 0.268410
vt 0.409810 0.266245
vt 0.430948 0.259833
vt 0.450429 0.249420
vt 0.467504 0.235407
vt 0.481518 0.218332
vt 0.491930 0.198851
vt 0.498342 0.177713
vt 0.500507 0.155731
vt 0.498342 0.133748
vt 0.491930 0.112610
vt 0.481518 0.093129
vt 0.467504 0.076054
vt 0.450429 0.062041
vt 0.430948 0.051628
vt 0.387828 0.043051
vt 0.365845 0.045216
vt 0.344707 0.051628
vt 0.325226 0.062041
vt 0.308151 0.076054
vt 0.294138 0.093129
vt 0.283725 0.112610
vt 0.275148 0.155731
vt 0.277313 0.177713
vt 0.283725 0.198851
vt 0.294138 0.218332
vt 0.308151 0.235407
vt 0.325226 0.249420
vt 0.344707 0.259833
s 1
f 475/1/475 7/2/7 8/3/8
f 5/4/5 16/5/16 478/6/478
f 1/7/1 8/3/8 9/8/9
f 6/9/6 16/5/16 17/10/17
f 476/11/476 9/8/9 10/12/10
f 6/9/6 18/13/18 479/14/479
f 2/15/2 10/12/10 11/16/11
f 480/17/480 18/13/18 19/18/19
f 477/19/477 11/16/11 12/20/12
f 481/21/481 19/18/19 20/22/20
f 3/23/3 12/20/12 13/24/13
f 481/21/481 21/25/21 482/26/482
f 3/23/3 14/27/14 4/28/4
f 474/29/474 82/30/82 7/2/7
f 308/31/308 482/26/482 21/25/21
f 4/28/4 15/32/15 5/4/5
f 7/2/7 82/33/82 22/34/22
f 308/35/308 21/25/21 36/36/36
f 14/27/14 30/37/30 15/32/15
f 7/2/7 23/38/23 8/3/8
f 15/32/15 31/39/31 16/5/16
f 8/3/8 24/40/24 9/8/9
f 17/10/17 31/39/31 32/41/32
f 9/8/9 25/42/25 10/12/10
f 17/10/17 33/43/33 18/13/18
f 10/12/10 26/44/26 11/16/11
f 19/18/19 33/43/33 34/45/34
f 11/16/11 27/46/27 12/20/12
f 20/22/20 34/45/34 35/47/35
f 13/24/13 27/46/27 28/48/28
f 20/22/20 36/36/36 21/25/21
f 13/24/13 29/49/29 14/27/14
f 25/42/25 41/50/41 26/44/26
f 33/43/33 49/51/49 34/45/34
f 26/44/26 42/52/42 27/46/27
f 34/45/34 50/53/50 35/47/35
f 27/46/27 43/54/43 28/48/28
f 35/47/35 51/55/51 36/36/36
f 28/48/28 44/56/44 29/49/29
f 22/34/22 82/57/82 37/58/37
f 308/59/308 36/36/36 51/55/51
f 30/37/30 44/56/44 45/60/45
f 22/34/22 38/61/38 23/38/23
f 31/39/31 45/60/45 46/62/46
f 23/38/23 39/63/39 24/40/24
f 32/41/32 46/62/46 47/64/47
f 24/40/24 40/65/40 25/42/25
f 32/41/32 48/66/48 33/43/33
f 44/56/44 60/67/60 45/60/45
f 37/58/37 53/68/53 38/61/38
f 46/62/46 60/67/60 61/69/61
f 38/61/38 54/70/54 39/63/39
f 47/64/47 61/69/61 62/71/62
f 39/63/39 55/72/55 40/65/40
f 48/66/48 62/71/62 63/73/63
f 40/65/40 56/74/56 41/50/41
f 49/51/49 63/73/63 64/75/64
f 41/50/41 57/76/57 42/52/42
f 49/51/49 65/77/65 50/53/50
f 43/54/43 57/76/57 58/78/58
f 50/53/50 66/79/66 51/55/51
f 44/56/44 58/78/58 59/80/59
f 37/58/37 82/81/82 52/82/52
f 308/83/308 51/55/51 66/79/66
f 64/75/64 78/84/78 79/85/79
f 56/74/56 72/86/72 57/76/57
f 65/77/65 79/85/79 80/87/80
f 58/78/58 72/86/72 73/88/73
f 66/79/66 80/87/80 81/89/81
f 59/80/59 73/88/73 74/90/74
f 52/82/52 82/91/82 67/92/67
f 308/93/308 66/79/66 81/89/81
f 59/80/59 75/94/75 60/67/60
f 52/82/52 68/95/68 53/68/53
f 61/69/61 75/94/75 76/96/76
f 53/68/53 69/97/69 54/70/54
f 61/69/61 77/98/77 62/71/62
f 54/70/54 70/99/70 55/72/55
f 63/73/63 77/98/77 78/84/78
f 56/74/56 70/99/70 71/100/71
f 67/92/67 84/101/84 68/95/68
f 75/94/75 92/102/92 76/96/76
f 68/95/68 85/103/85 69/97/69
f 77/98/77 92/102/92 93/104/93
f 69/97/69 86/105/86 70/99/70
f 77/98/77 94/106/94 78/84/78
f 71/100/71 86/105/86 87/107/87
f 78/84/78 95/108/95 79/85/79
f 71/100/71 88/109/88 72/86/72
f 79/85/79 96/110/96 80/87/80
f 73/88/73 88/109/88 89/111/89
f 81/89/81 96/110/96 97/112/97
f 74/90/74 89/111/89 90/113/90
f 67/92/67 82/114/82 83/115/83
f 308/116/308 81/89/81 97/112/97
f 74/90/74 91/117/91 75/94/75
f 87/107/87 103/118/103 88/109/88
f 96/110/96 110/119/110 111/120/111
f 89/111/89 103/118/103 104/121/104
f 96/110/96 112/122/112 97/112/97
f 90/113/90 104/121/104 105/123/105
f 83/115/83 82/124/82 98/125/98
f 308/126/308 97/112/97 112/122/112
f 90/113/90 106/127/106 91/117/91
f 84/101/84 98/125/98 99/128/99
f 91/117/91 107/129/107 92/102/92
f 84/101/84 100/130/100 85/103/85
f 93/104/93 107/129/107 108/131/108
f 85/103/85 101/132/101 86/105/86
f 93/104/93 109/133/109 94/106/94
f 87/107/87 101/132/101 102/134/102
f 95/108/95 109/133/109 110/119/110
f 106/127/106 122/135/122 107/129/107
f 99/128/99 115/136/115 100/130/100
f 108/131/108 122/135/122 123/137/123
f 100/130/100 116/138/116 101/132/101
f 108/131/108 124/139/124 109/133/109
f 102/134/102 116/138/116 117/140/117
f 110/119/110 124/139/124 125/141/125
f 102/134/102 118/142/118 103/118/103
f 110/119/110 126/143/126 111/120/111
f 104/121/104 118/142/118 119/144/119
f 111/120/111 127/145/127 112/122/112
f 105/123/105 119/144/119 120/146/120
f 98/125/98 82/147/82 113/148/113
f 308/149/308 112/122/112 127/145/127
f 105/123/105 121/150/121 106/127/106
f 99/128/99 113/148/113 114/151/114
f 125/141/125 141/152/141 126/143/126
f 119/144/119 133/153/133 134/154/134
f 126/143/126 142/155/142 127/145/127
f 120/146/120 134/154/134 135/156/135
f 113/148/113 82/157/82 128/158/128
f 308/159/308 127/145/127 142/155/142
f 120/146/120 136/160/136 121/150/121
f 113/148/113 129/161/129 114/151/114
f 121/150/121 137/162/137 122/135/122
f 114/151/114 130/163/130 115/136/115
f 123/137/123 137/162/137 138/164/138
f 115/136/115 131/165/131 116/138/116
f 123/137/123 139/166/139 124/139/124
f 117/140/117 131/165/131 132/167/132
f 125/141/125 139/166/139 140/168/140
f 117/140/117 133/153/133 118/142/118
f 138/164/138 152/169/152 153/170/153
f 130/163/130 146/171/146 131/165/131
f 138/164/138 154/172/154 139/166/139
f 132/167/132 146/171/146 147/173/147
f 140/168/140 154/172/154 155/174/155
f 132/167/132 148/175/148 133/153/133
f 140/168/140 156/176/156 141/152/141
f 134/154/134 148/175/148 149/177/149
f 142/155/142 156/176/156 157/178/157
f 135/156/135 149/177/149 150/179/150
f 128/158/128 82/180/82 143/181/143
f 308/182/308 142/155/142 157/178/157
f 135/156/135 151/183/151 136/160/136
f 128/158/128 144/184/144 129/161/129
f 136/160/136 152/169/152 137/162/137
f 130/163/130 144/184/144 145/185/145
f 156/176/156 172/186/172 157/178/157
f 150/179/150 164/187/164 165/188/165
f 143/181/143 82/189/82 158/190/158
f 308/191/308 157/178/157 172/186/172
f 150/179/150 166/192/166 151/183/151
f 143/181/143 159/193/159 144/184/144
f 151/183/151 167/194/167 152/169/152
f 145/185/145 159/193/159 160/195/160
f 153/170/153 167/194/167 168/196/168
f 145/185/145 161/197/161 146/171/146
f 153/170/153 169/198/169 154/172/154
f 147/173/147 161/197/161 162/199/162
f 155/174/155 169/198/169 170/200/170
f 147/173/147 163/201/163 148/175/148
f 155/174/155 171/202/171 156/176/156
f 149/177/149 163/201/163 164/187/164
f 160/195/160 176/203/176 161/197/161
f 168/196/168 184/204/184 169/198/169
f 162/199/162 176/203/176 177/205/177
f 169/198/169 185/206/185 170/200/170
f 162/199/162 178/207/178 163/201/163
f 170/200/170 186/208/186 171/202/171
f 164/187/164 178/207/178 179/209/179
f 171/202/171 187/210/187 172/186/172
f 165/188/165 179/209/179 180/211/180
f 158/190/158 82/212/82 173/213/173
f 308/214/308 172/186/172 187/210/187
f 165/188/165 181/215/181 166/192/166
f 158/190/158 174/216/174 159/193/159
f 167/194/167 181/215/181 182/217/182
f 159/193/159 175/218/175 160/195/160
f 168/196/168 182/217/182 183/219/183
f 180/211/180 194/220/194 195/221/195
f 173/213/173 82/222/82 188/223/188
f 308/224/308 187/210/187 202/225/202
f 180/211/180 196/226/196 181/215/181
f 174/216/174 188/223/188 189/227/189
f 181/215/181 197/228/197 182/217/182
f 175/218/175 189/227/189 190/229/190
f 182/217/182 198/230/198 183/219/183
f 175/218/175 191/231/191 176/203/176
f 183/219/183 199/232/199 184/204/184
f 177/205/177 191/231/191 192/233/192
f 184/204/184 200/234/200 185/206/185
f 177/205/177 193/235/193 178/207/178
f 186/208/186 200/234/200 201/236/201
f 179/209/179 193/235/193 194/220/194
f 187/210/187 201/236/201 202/225/202
f 199/232/199 213/237/213 214/238/214
f 192/233/192 206/239/206 207/240/207
f 200/234/200 214/238/214 215/241/215
f 192/233/192 208/242/208 193/235/193
f 201/236/201 215/241/215 216/243/216
f 194/220/194 208/242/208 209/244/209
f 202/225/202 216/243/216 217/245/217
f 195/221/195 209/244/209 210/246/210
f 188/223/188 82/247/82 203/248/203
f 308/249/308 202/225/202 217/245/217
f 195/221/195 211/250/211 196/226/196
f 188/223/188 204/251/204 189/227/189
f 196/226/196 212/252/212 197/228/197
f 189/227/189 205/253/205 190/229/190
f 197/228/197 213/237/213 198/230/198
f 190/229/190 206/239/206 191/231/191
f 203/248/203 82/254/82 218/255/218
f 308/256/308 217/245/217 232/257/232
f 210/246/210 226/258/226 211/250/211
f 203/248/203 219/259/219 204/251/204
f 212/252/212 226/258/226 227/260/227
f 204/251/204 220/261/220 205/253/205
f 212/252/212 228/262/228 213/237/213
f 205/253/205 221/263/221 206/239/206
f 214/238/214 228/262/228 229/264/229
f 207/240/207 221/263/221 222/265/222
f 214/238/214 230/266/230 215/241/215
f 207/240/207 223/267/223 208/242/208
f 215/241/215 231/268/231 216/243/216
f 209/244/209 223/267/223 224/269/224
f 216/243/216 232/257/232 217/245/217
f 210/246/210 224/269/224 225/270/225
f 222/265/222 236/271/236 237/272/237
f 229/264/229 245/273/245 230/266/230
f 222/265/222 238/274/238 223/267/223
f 230/266/230 246/275/246 231/268/231
f 224/269/224 238/274/238 239/276/239
f 232/257/232 246/275/246 247/277/247
f 225/270/225 239/276/239 240/278/240
f 218/255/218 82/279/82 233/280/233
f 308/281/308 232/257/232 247/277/247
f 225/270/225 241/282/241 226/258/226
f 218/255/218 234/283/234 219/259/219
f 227/260/227 241/282/241 242/284/242
f 220/261/220 234/283/234 235/285/235
f 227/260/227 243/286/243 228/262/228
f 220/261/220 236/271/236 221/263/221
f 229/264/229 243/286/243 244/287/244
f 240/278/240 256/288/256 241/282/241
f 233/280/233 249/289/249 234/283/234
f 241/282/241 257/290/257 242/284/242
f 234/283/234 250/291/250 235/285/235
f 243/286/243 257/290/257 258/292/258
f 235/285/235 251/293/251 236/271/236
f 243/286/243 259/294/259 244/287/244
f 237/272/237 251/293/251 252/295/252
f 245/273/245 259/294/259 260/296/260
f 237/272/237 253/297/253 238/274/238
f 246/275/246 260/296/260 261/298/261
f 239/276/239 253/297/253 254/299/254
f 246/275/246 262/300/262 247/277/247
f 240/278/240 254/299/254 255/301/255
f 233/280/233 82/302/82 248/303/248
f 308/304/308 247/277/247 262/300/262
f 260/296/260 274/305/274 275/306/275
f 252/295/252 268/307/268 253/297/253
f 261/298/261 275/306/275 276/308/276
f 254/299/254 268/307/268 269/309/269
f 261/298/261 277/310/277 262/300/262
f 255/301/255 269/309/269 270/311/270
f 248/303/248 82/312/82 263/313/263
f 308/314/308 262/300/262 277/310/277
f 255/301/255 271/315/271 256/288/256
f 249/289/249 263/313/263 264/316/264
f 256/288/256 272/317/272 257/290/257
f 249/289/249 265/318/265 250/291/250
f 258/292/258 272/317/272 273/319/273
f 251/293/251 265/318/265 266/320/266
f 258/292/258 274/305/274 259/294/259
f 251/293/251 267/321/267 252/295/252
f 271/315/271 287/322/287 272/317/272
f 264/316/264 280/323/280 265/318/265
f 273/319/273 287/322/287 288/324/288
f 265/318/265 281/325/281 266/320/266
f 274/305/274 288/324/288 289/326/289
f 267/321/267 281/325/281 282/327/282
f 275/306/275 289/326/289 290/328/290
f 267/321/267 283/329/283 268/307/268
f 276/308/276 290/328/290 291/330/291
f 269/309/269 283/329/283 284/331/284
f 276/308/276 292/332/292 277/310/277
f 270/311/270 284/331/284 285/333/285
f 263/313/263 82/334/82 278/335/278
f 308/336/308 277/310/277 292/332/292
f 270/311/270 286/337/286 271/315/271
f 264/316/264 278/335/278 279/338/279
f 291/330/291 305/339/305 306/340/306
f 284/331/284 298/341/298 299/342/299
f 292/332/292 306/340/306 307/343/307
f 285/333/285 299/342/299 300/344/300
f 278/335/278 82/345/82 293/346/293
f 308/347/308 292/332/292 307/343/307
f 285/333/285 301/348/301 286/337/286
f 278/335/278 294/349/294 279/338/279
f 286/337/286 302/350/302 287/322/287
f 279/338/279 295/351/295 280/323/280
f 288/324/288 302/350/302 303/352/303
f 281/325/281 295/351/295 296/353/296
f 289/326/289 303/352/303 304/354/304
f 282/327/282 296/353/296 297/355/297
f 290/328/290 304/354/304 305/339/305
f 283/329/283 297/355/297 298/341/298
f 294/349/294 311/356/311 295/351/295
f 303/352/303 318/357/318 319/358/319
f 295/351/295 312/359/312 296/353/296
f 303/352/303 320/360/320 304/354/304
f 297/355/297 312/359/312 313/361/313
f 304/354/304 321/362/321 305/339/305
f 297/355/297 314/363/314 298/341/298
f 305/339/305 322/364/322 306/340/306
f 299/342/299 314/363/314 315/365/315
f 306/340/306 323/366/323 307/343/307
f 300/344/300 315/365/315 316/367/316
f 293/346/293 82/368/82 309/369/309
f 308/370/308 307/343/307 323/366/323
f 300/344/300 317/371/317 301/348/301
f 293/346/293 310/372/310 294/349/294
f 301/348/301 318/357/318 302/350/302
f 315/365/315 329/373/329 330/374/330
f 322/364/322 338/375/338 323/366/323
f 316/367/316 330/374/330 331/376/331
f 309/369/309 82/377/82 324/378/324
f 308/379/308 323/366/323 338/375/338
f 316/367/316 332/380/332 317/371/317
f 309/369/309 325/381/325 310/372/310
f 317/371/317 333/382/333 318/357/318
f 310/372/310 326/383/326 311/356/311
f 319/358/319 333/382/333 334/384/334
f 311/356/311 327/385/327 312/359/312
f 320/360/320 334/384/334 335/386/335
f 312/359/312 328/387/328 313/361/313
f 320/360/320 336/388/336 321/362/321
f 313/361/313 329/373/329 314/363/314
f 321/362/321 337/389/337 322/364/322
f 334/384/334 348/390/348 349/391/349
f 326/383/326 342/392/342 327/385/327
f 335/386/335 349/391/349 350/393/350
f 327/385/327 343/394/343 328/387/328
f 336/388/336 350/393/350 351/395/351
f 328/387/328 344/396/344 329/373/329
f 336/388/336 352/397/352 337/389/337
f 330/374/330 344/396/344 345/398/345
f 337/389/337 353/399/353 338/375/338
f 331/376/331 345/398/345 346/400/346
f 324/378/324 82/401/82 339/402/339
f 308/403/308 338/375/338 353/399/353
f 331/376/331 347/404/347 332/380/332
f 324/378/324 340/405/340 325/381/325
f 332/380/332 348/390/348 333/382/333
f 325/381/325 341/406/341 326/383/326
f 352/397/352 368/407/368 353/399/353
f 346/400/346 360/408/360 361/409/361
f 339/402/339 82/410/82 354/411/354
f 308/412/308 353/399/353 368/407/368
f 346/400/346 362/413/362 347/404/347
f 339/402/339 355/414/355 340/405/340
f 347/404/347 363/415/363 348/390/348
f 341/406/341 355/414/355 356/416/356
f 349/391/349 363/415/363 364/417/364
f 341/406/341 357/418/357 342/392/342
f 349/391/349 365/419/365 350/393/350
f 342/392/342 358/420/358 343/394/343
f 351/395/351 365/419/365 366/421/366
f 343/394/343 359/422/359 344/396/344
f 351/395/351 367/423/367 352/397/352
f 345/398/345 359/422/359 360/408/360
f 356/424/356 372/425/372 357/426/357
f 364/427/364 380/428/380 365/429/365
f 358/430/358 372/425/372 373/431/373
f 366/432/366 380/428/380 381/433/381
f 358/430/358 374/434/374 359/435/359
f 366/432/366 382/436/382 367/437/367
f 360/438/360 374/434/374 375/439/375
f 367/437/367 383/440/383 368/441/368
f 361/442/361 375/439/375 376/443/376
f 354/444/354 82/445/82 369/446/369
f 308/447/308 368/441/368 383/440/383
f 361/442/361 377/448/377 362/449/362
f 354/444/354 370/450/370 355/451/355
f 362/449/362 378/452/378 363/453/363
f 356/424/356 370/450/370 371/454/371
f 364/427/364 378/452/378 379/455/379
f 376/443/376 390/456/390 391/457/391
f 369/446/369 82/458/82 384/459/384
f 308/460/308 383/440/383 398/461/398
f 376/443/376 392/462/392 377/448/377
f 369/446/369 385/463/385 370/450/370
f 377/448/377 393/464/393 378/452/378
f 371/454/371 385/463/385 386/465/386
f 378/452/378 394/466/394 379/455/379
f 372/425/372 386/465/386 387/467/387
f 379/455/379 395/468/395 380/428/380
f 373/431/373 387/467/387 388/469/388
f 380/428/380 396/470/396 381/433/381
f 374/434/374 388/469/388 389/471/389
f 381/433/381 397/472/397 382/436/382
f 375/439/375 389/471/389 390/456/390
f 382/436/382 398/461/398 383/440/383
f 394/466/394 410/473/410 395/468/395
f 388/469/388 402/474/402 403/475/403
f 396/470/396 410/473/410 411/476/411
f 388/469/388 404/477/404 389/471/389
f 397/472/397 411/476/411 412/478/412
f 390/456/390 404/477/404 405/479/405
f 397/472/397 413/480/413 398/461/398
f 391/457/391 405/479/405 406/481/406
f 384/459/384 82/482/82 399/483/399
f 308/484/308 398/461/398 413/480/413
f 391/457/391 407/485/407 392/462/392
f 385/463/385 399/483/399 400/486/400
f 392/462/392 408/487/408 393/464/393
f 385/463/385 401/488/401 386/465/386
f 393/464/393 409/489/409 394/466/394
f 386/465/386 402/474/402 387/467/387
f 308/490/308 413/480/413 428/491/428
f 406/481/406 422/492/422 407/485/407
f 399/483/399 415/493/415 400/486/400
f 407/485/407 423/494/423 408/487/408
f 401/488/401 415/493/415 416/495/416
f 408/487/408 424/496/424 409/489/409
f 401/488/401 417/497/417 402/474/402
f 410/473/410 424/496/424 425/498/425
f 403/475/403 417/497/417 418/499/418
f 411/476/411 425/498/425 426/500/426
f 403/475/403 419/501/419 404/477/404
f 411/476/411 427/502/427 412/478/412
f 405/479/405 419/501/419 420/503/420
f 412/478/412 428/491/428 413/480/413
f 406/481/406 420/503/420 421/504/421
f 399/483/399 82/505/82 414/506/414
f 425/498/425 441/507/441 426/500/426
f 418/499/418 434/508/434 419/501/419
f 426/500/426 442/509/442 427/502/427
f 420/503/420 434/508/434 435/510/435
f 427/502/427 443/511/443 428/491/428
f 421/504/421 435/510/435 436/512/436
f 414/506/414 82/513/82 429/514/429
f 308/515/308 428/491/428 443/511/443
f 421/504/421 437/516/437 422/492/422
f 414/506/414 430/517/430 415/493/415
f 423/494/423 437/516/437 438/518/438
f 416/495/416 430/517/430 431/519/431
f 423/494/423 439/520/439 424/496/424
f 417/497/417 431/519/431 432/521/432
f 424/496/424 440/522/440 425/498/425
f 417/497/417 433/523/433 418/499/418
f 430/517/430 444/524/444 445/525/445
f 438/518/438 452/526/452 453/527/453
f 430/517/430 446/528/446 431/519/431
f 438/518/438 454/529/454 439/520/439
f 431/519/431 447/530/447 432/521/432
f 439/520/439 455/531/455 440/522/440
f 432/521/432 448/532/448 433/523/433
f 440/522/440 456/533/456 441/507/441
f 434/508/434 448/532/448 449/534/449
f 441/507/441 457/535/457 442/509/442
f 435/510/435 449/534/449 450/536/450
f 442/509/442 458/537/458 443/511/443
f 436/512/436 450/536/450 451/538/451
f 429/514/429 82/539/82 444/524/444
f 308/540/308 443/511/443 458/537/458
f 436/512/436 452/526/452 437/516/437
f 449/534/449 463/541/463 464/542/464
f 456/533/456 472/543/472 457/535/457
f 450/536/450 464/542/464 465/544/465
f 457/535/457 473/545/473 458/537/458
f 451/538/451 465/544/465 466/546/466
f 444/524/444 82/547/82 459/548/459
f 308/549/308 458/537/458 473/545/473
f 451/538/451 467/550/467 452/526/452
f 444/524/444 460/551/460 445/525/445
f 453/527/453 467/550/467 468/552/468
f 446/528/446 460/551/460 461/553/461
f 453/527/453 469/554/469 454/529/454
f 447/530/447 461/553/461 462/555/462
f 455/531/455 469/554/469 470/556/470
f 448/532/448 462/555/462 463/541/463
f 455/531/455 471/557/471 456/533/456
f 468/552/468 5/4/5 478/6/478
f 461/553/461 475/1/475 1/7/1
f 468/552/468 6/9/6 469/554/469
f 462/555/462 1/7/1 476/11/476
f 470/556/470 6/9/6 479/14/479
f 463/541/463 476/11/476 2/15/2
f 470/556/470 480/17/480 471/557/471
f 464/542/464 2/15/2 477/19/477
f 471/557/471 481/21/481 472/543/472
f 465/544/465 477/19/477 3/23/3
f 473/545/473 481/21/481 482/26/482
f 466/546/466 3/23/3 4/28/4
f 459/548/459 82/558/82 474/29/474
f 308/559/308 473/545/473 482/26/482
f 466/546/466 5/4/5 467/550/467
f 460/551/460 474/29/474 475/1/475
f 483/560/483 547/561/547 485/562/485
f 547/561/547 487/563/487 485/562/485
f 549/564/549 489/565/489 487/563/487
f 550/566/550 491/567/491 489/565/489
f 551/568/551 493/569/493 491/567/491
f 552/570/552 495/571/495 493/569/493
f 495/571/495 554/572/554 497/573/497
f 497/573/497 555/574/555 499/575/499
f 555/574/555 501/576/501 499/575/499
f 556/577/556 503/578/503 501/576/501
f 557/579/557 505/580/505 503/578/503
f 505/580/505 559/581/559 507/582/507
f 559/581/559 509/583/509 507/582/507
f 560/584/560 511/585/511 509/583/509
f 511/585/511 562/586/562 513/587/513
f 513/587/513 563/588/563 515/589/515
f 515/589/515 564/590/564 517/591/517
f 564/590/564 519/592/519 517/591/517
f 565/593/565 521/594/521 519/592/519
f 521/594/521 567/595/567 523/596/523
f 567/595/567 525/597/525 523/596/523
f 568/598/568 527/599/527 525/597/525
f 569/600/569 529/601/529 527/599/527
f 570/602/570 531/603/531 529/601/529
f 571/604/571 533/605/533 531/603/531
f 533/605/533 573/606/573 535/607/535
f 573/606/573 537/608/537 535/607/535
f 537/608/537 575/609/575 539/610/539
f 575/609/575 541/611/541 539/610/539
f 541/611/541 577/612/577 543/613/543
f 520/614/520 598/615/598 522/615/522
f 577/612/577 545/616/545 543/613/543
f 545/616/545 548/617/548 483/618/483
f 513/619/513 529/620/529 545/621/545
f 486/622/486 548/623/548 484/624/484
f 486/622/486 549/625/549 547/626/547
f 490/627/490 549/625/549 488/628/488
f 492/629/492 550/630/550 490/627/490
f 494/631/494 551/632/551 492/629/492
f 496/633/496 552/634/552 494/631/494
f 498/635/498 553/636/553 496/633/496
f 498/635/498 555/637/555 554/638/554
f 502/639/502 555/637/555 500/640/500
f 502/639/502 557/641/557 556/642/556
f 504/643/504 558/644/558 557/641/557
f 506/645/506 559/646/559 558/644/558
f 508/647/508 560/648/560 559/646/559
f 510/649/510 561/650/561 560/648/560
f 514/651/514 561/650/561 512/652/512
f 514/651/514 563/653/563 562/654/562
f 516/655/516 564/656/564 563/653/563
f 520/614/520 564/656/564 518/657/518
f 522/615/522 565/658/565 520/614/520
f 524/659/524 566/660/566 522/615/522
f 526/661/526 567/662/567 524/659/524
f 528/663/528 568/664/568 526/661/526
f 530/665/530 569/666/569 528/663/528
f 532/667/532 570/668/570 530/665/530
f 532/667/532 572/669/572 571/670/571
f 534/671/534 573/672/573 572/669/572
f 538/673/538 573/672/573 536/674/536
f 538/673/538 575/675/575 574/676/574
f 540/677/540 576/678/576 575/675/575
f 542/679/542 577/680/577 576/678/576
f 544/681/544 578/682/578 577/680/577
f 484/624/484 578/682/578 546/683/546
f 597/614/597 589/643/589 581/628/581
f 496/633/496 584/631/584 585/633/585
f 522/615/522 599/659/599 524/659/524
f 498/635/498 585/633/585 586/635/586
f 524/659/524 600/661/600 526/661/526
f 500/640/500 586/635/586 587/640/587
f 526/661/526 601/663/601 528/663/528
f 500/640/500 588/639/588 502/639/502
f 528/663/528 602/665/602 530/665/530
f 502/639/502 589/643/589 504/643/504
f 530/665/530 603/667/603 532/667/532
f 504/643/504 590/645/590 506/645/506
f 534/671/534 603/667/603 604/671/604
f 506/645/506 591/647/591 508/647/508
f 536/674/536 604/671/604 605/674/605
f 508/647/508 592/649/592 510/649/510
f 538/673/538 605/674/605 606/673/606
f 510/649/510 593/652/593 512/652/512
f 486/622/486 580/624/580 579/622/579
f 540/677/540 606/673/606 607/677/607
f 512/652/512 594/651/594 514/651/514
f 488/628/488 579/622/579 581/628/581
f 542/679/542 607/677/607 608/679/608
f 514/651/514 595/655/595 516/655/516
f 490/627/490 581/628/581 582/627/582
f 544/681/544 608/679/608 609/681/609
f 516/655/516 596/657/596 518/657/518
f 492/629/492 582/627/582 583/629/583
f 546/683/546 609/681/609 610/683/610
f 518/657/518 597/614/597 520/614/520
f 494/631/494 583/629/583 584/631/584
f 484/624/484 610/683/610 580/624/580
f 475/1/475 474/29/474 7/2/7
f 5/4/5 15/32/15 16/5/16
f 1/7/1 475/1/475 8/3/8
f 6/9/6 478/6/478 16/5/16
f 476/11/476 1/7/1 9/8/9
f 6/9/6 17/10/17 18/13/18
f 2/15/2 476/11/476 10/12/10
f 480/17/480 479/14/479 18/13/18
f 477/19/477 2/15/2 11/16/11
f 481/21/481 480/17/480 19/18/19
f 3/23/3 477/19/477 12/20/12
f 481/21/481 20/22/20 21/25/21
f 3/23/3 13/24/13 14/27/14
f 4/28/4 14/27/14 15/32/15
f 14/27/14 29/49/29 30/37/30
f 7/2/7 22/34/22 23/38/23
f 15/32/15 30/37/30 31/39/31
f 8/3/8 23/38/23 24/40/24
f 17/10/17 16/5/16 31/39/31
f 9/8/9 24/40/24 25/42/25
f 17/10/17 32/41/32 33/43/33
f 10/12/10 25/42/25 26/44/26
f 19/18/19 18/13/18 33/43/33
f 11/16/11 26/44/26 27/46/27
f 20/22/20 19/18/19 34/45/34
f 13/24/13 12/20/12 27/46/27
f 20/22/20 35/47/35 36/36/36
f 13/24/13 28/48/28 29/49/29
f 25/42/25 40/65/40 41/50/41
f 33/43/33 48/66/48 49/51/49
f 26/44/26 41/50/41 42/52/42
f 34/45/34 49/51/49 50/53/50
f 27/46/27 42/52/42 43/54/43
f 35/47/35 50/53/50 51/55/51
f 28/48/28 43/54/43 44/56/44
f 30/37/30 29/49/29 44/56/44
f 22/34/22 37/58/37 38/61/38
f 31/39/31 30/37/30 45/60/45
f 23/38/23 38/61/38 39/63/39
f 32/41/32 31/39/31 46/62/46
f 24/40/24 39/63/39 40/65/40
f 32/41/32 47/64/47 48/66/48
f 44/56/44 59/80/59 60/67/60
f 37/58/37 52/82/52 53/68/53
f 46/62/46 45/60/45 60/67/60
f 38/61/38 53/68/53 54/70/54
f 47/64/47 46/62/46 61/69/61
f 39/63/39 54/70/54 55/72/55
f 48/66/48 47/64/47 62/71/62
f 40/65/40 55/72/55 56/74/56
f 49/51/49 48/66/48 63/73/63
f 41/50/41 56/74/56 57/76/57
f 49/51/49 64/75/64 65/77/65
f 43/54/43 42/52/42 57/76/57
f 50/53/50 65/77/65 66/79/66
f 44/56/44 43/54/43 58/78/58
f 64/75/64 63/73/63 78/84/78
f 56/74/56 71/100/71 72/86/72
f 65/77/65 64/75/64 79/85/79
f 58/78/58 57/76/57 72/86/72
f 66/79/66 65/77/65 80/87/80
f 59/80/59 58/78/58 73/88/73
f 59/80/59 74/90/74 75/94/75
f 52/82/52 67/92/67 68/95/68
f 61/69/61 60/67/60 75/94/75
f 53/68/53 68/95/68 69/97/69
f 61/69/61 76/96/76 77/98/77
f 54/70/54 69/97/69 70/99/70
f 63/73/63 62/71/62 77/98/77
f 56/74/56 55/72/55 70/99/70
f 67/92/67 83/115/83 84/101/84
f 75/94/75 91/117/91 92/102/92
f 68/95/68 84/101/84 85/103/85
f 77/98/77 76/96/76 92/102/92
f 69/97/69 85/103/85 86/105/86
f 77/98/77 93/104/93 94/106/94
f 71/100/71 70/99/70 86/105/86
f 78/84/78 94/106/94 95/108/95
f 71/100/71 87/107/87 88/109/88
f 79/85/79 95/108/95 96/110/96
f 73/88/73 72/86/72 88/109/88
f 81/89/81 80/87/80 96/110/96
f 74/90/74 73/88/73 89/111/89
f 74/90/74 90/113/90 91/117/91
f 87/107/87 102/134/102 103/118/103
f 96/110/96 95/108/95 110/119/110
f 89/111/89 88/109/88 103/118/103
f 96/110/96 111/120/111 112/122/112
f 90/113/90 89/111/89 104/121/104
f 90/113/90 105/123/105 106/127/106
f 84/101/84 83/115/83 98/125/98
f 91/117/91 106/127/106 107/129/107
f 84/101/84 99/128/99 100/130/100
f 93/104/93 92/102/92 107/129/107
f 85/103/85 100/130/100 101/132/101
f 93/104/93 108/131/108 109/133/109
f 87/107/87 86/105/86 101/132/101
f 95/108/95 94/106/94 109/133/109
f 106/127/106 121/150/121 122/135/122
f 99/128/99 114/151/114 115/136/115
f 108/131/108 107/129/107 122/135/122
f 100/130/100 115/136/115 116/138/116
f 108/131/108 123/137/123 124/139/124
f 102/134/102 101/132/101 116/138/116
f 110/119/110 109/133/109 124/139/124
f 102/134/102 117/140/117 118/142/118
f 110/119/110 125/141/125 126/143/126
f 104/121/104 103/118/103 118/142/118
f 111/120/111 126/143/126 127/145/127
f 105/123/105 104/121/104 119/144/119
f 105/123/105 120/146/120 121/150/121
f 99/128/99 98/125/98 113/148/113
f 125/141/125 140/168/140 141/152/141
f 119/144/119 118/142/118 133/153/133
f 126/143/126 141/152/141 142/155/142
f 120/146/120 119/144/119 134/154/134
f 120/146/120 135/156/135 136/160/136
f 113/148/113 128/158/128 129/161/129
f 121/150/121 136/160/136 137/162/137
f 114/151/114 129/161/129 130/163/130
f 123/137/123 122/135/122 137/162/137
f 115/136/115 130/163/130 131/165/131
f 123/137/123 138/164/138 139/166/139
f 117/140/117 116/138/116 131/165/131
f 125/141/125 124/139/124 139/166/139
f 117/140/117 132/167/132 133/153/133
f 138/164/138 137/162/137 152/169/152
f 130/163/130 145/185/145 146/171/146
f 138/164/138 153/170/153 154/172/154
f 132/167/132 131/165/131 146/171/146
f 140/168/140 139/166/139 154/172/154
f 132/167/132 147/173/147 148/175/148
f 140/168/140 155/174/155 156/176/156
f 134/154/134 133/153/133 148/175/148
f 142/155/142 141/152/141 156/176/156
f 135/156/135 134/154/134 149/177/149
f 135/156/135 150/179/150 151/183/151
f 128/158/128 143/181/143 144/184/144
f 136/160/136 151/183/151 152/169/152
f 130/163/130 129/161/129 144/184/144
f 156/176/156 171/202/171 172/186/172
f 150/179/150 149/177/149 164/187/164
f 150/179/150 165/188/165 166/192/166
f 143/181/143 158/190/158 159/193/159
f 151/183/151 166/192/166 167/194/167
f 145/185/145 144/184/144 159/193/159
f 153/170/153 152/169/152 167/194/167
f 145/185/145 160/195/160 161/197/161
f 153/170/153 168/196/168 169/198/169
f 147/173/147 146/171/146 161/197/161
f 155/174/155 154/172/154 169/198/169
f 147/173/147 162/199/162 163/201/163
f 155/174/155 170/200/170 171/202/171
f 149/177/149 148/175/148 163/201/163
f 160/195/160 175/218/175 176/203/176
f 168/196/168 183/219/183 184/204/184
f 162/199/162 161/197/161 176/203/176
f 169/198/169 184/204/184 185/206/185
f 162/199/162 177/205/177 178/207/178
f 170/200/170 185/206/185 186/208/186
f 164/187/164 163/201/163 178/207/178
f 171/202/171 186/208/186 187/210/187
f 165/188/165 164/187/164 179/209/179
f 165/188/165 180/211/180 181/215/181
f 158/190/158 173/213/173 174/216/174
f 167/194/167 166/192/166 181/215/181
f 159/193/159 174/216/174 175/218/175
f 168/196/168 167/194/167 182/217/182
f 180/211/180 179/209/179 194/220/194
f 180/211/180 195/221/195 196/226/196
f 174/216/174 173/213/173 188/223/188
f 181/215/181 196/226/196 197/228/197
f 175/218/175 174/216/174 189/227/189
f 182/217/182 197/228/197 198/230/198
f 175/218/175 190/229/190 191/231/191
f 183/219/183 198/230/198 199/232/199
f 177/205/177 176/203/176 191/231/191
f 184/204/184 199/232/199 200/234/200
f 177/205/177 192/233/192 193/235/193
f 186/208/186 185/206/185 200/234/200
f 179/209/179 178/207/178 193/235/193
f 187/210/187 186/208/186 201/236/201
f 199/232/199 198/230/198 213/237/213
f 192/233/192 191/231/191 206/239/206
f 200/234/200 199/232/199 214/238/214
f 192/233/192 207/240/207 208/242/208
f 201/236/201 200/234/200 215/241/215
f 194/220/194 193/235/193 208/242/208
f 202/225/202 201/236/201 216/243/216
f 195/221/195 194/220/194 209/244/209
f 195/221/195 210/246/210 211/250/211
f 188/223/188 203/248/203 204/251/204
f 196/226/196 211/250/211 212/252/212
f 189/227/189 204/251/204 205/253/205
f 197/228/197 212/252/212 213/237/213
f 190/229/190 205/253/205 206/239/206
f 210/246/210 225/270/225 226/258/226
f 203/248/203 218/255/218 219/259/219
f 212/252/212 211/250/211 226/258/226
f 204/251/204 219/259/219 220/261/220
f 212/252/212 227/260/227 228/262/228
f 205/253/205 220/261/220 221/263/221
f 214/238/214 213/237/213 228/262/228
f 207/240/207 206/239/206 221/263/221
f 214/238/214 229/264/229 230/266/230
f 207/240/207 222/265/222 223/267/223
f 215/241/215 230/266/230 231/268/231
f 209/244/209 208/242/208 223/267/223
f 216/243/216 231/268/231 232/257/232
f 210/246/210 209/244/209 224/269/224
f 222/265/222 221/263/221 236/271/236
f 229/264/229 244/287/244 245/273/245
f 222/265/222 237/272/237 238/274/238
f 230/266/230 245/273/245 246/275/246
f 224/269/224 223/267/223 238/274/238
f 232/257/232 231/268/231 246/275/246
f 225/270/225 224/269/224 239/276/239
f 225/270/225 240/278/240 241/282/241
f 218/255/218 233/280/233 234/283/234
f 227/260/227 226/258/226 241/282/241
f 220/261/220 219/259/219 234/283/234
f 227/260/227 242/284/242 243/286/243
f 220/261/220 235/285/235 236/271/236
f 229/264/229 228/262/228 243/286/243
f 240/278/240 255/301/255 256/288/256
f 233/280/233 248/303/248 249/289/249
f 241/282/241 256/288/256 257/290/257
f 234/283/234 249/289/249 250/291/250
f 243/286/243 242/284/242 257/290/257
f 235/285/235 250/291/250 251/293/251
f 243/286/243 258/292/258 259/294/259
f 237/272/237 236/271/236 251/293/251
f 245/273/245 244/287/244 259/294/259
f 237/272/237 252/295/252 253/297/253
f 246/275/246 245/273/245 260/296/260
f 239/276/239 238/274/238 253/297/253
f 246/275/246 261/298/261 262/300/262
f 240/278/240 239/276/239 254/299/254
f 260/296/260 259/294/259 274/305/274
f 252/295/252 267/321/267 268/307/268
f 261/298/261 260/296/260 275/306/275
f 254/299/254 253/297/253 268/307/268
f 261/298/261 276/308/276 277/310/277
f 255/301/255 254/299/254 269/309/269
f 255/301/255 270/311/270 271/315/271
f 249/289/249 248/303/248 263/313/263
f 256/288/256 271/315/271 272/317/272
f 249/289/249 264/316/264 265/318/265
f 258/292/258 257/290/257 272/317/272
f 251/293/251 250/291/250 265/318/265
f 258/292/258 273/319/273 274/305/274
f 251/293/251 266/320/266 267/321/267
f 271/315/271 286/337/286 287/322/287
f 264/316/264 279/338/279 280/323/280
f 273/319/273 272/317/272 287/322/287
f 265/318/265 280/323/280 281/325/281
f 274/305/274 273/319/273 288/324/288
f 267/321/267 266/320/266 281/325/281
f 275/306/275 274/305/274 289/326/289
f 267/321/267 282/327/282 283/329/283
f 276/308/276 275/306/275 290/328/290
f 269/309/269 268/307/268 283/329/283
f 276/308/276 291/330/291 292/332/292
f 270/311/270 269/309/269 284/331/284
f 270/311/270 285/333/285 286/337/286
f 264/316/264 263/313/263 278/335/278
f 291/330/291 290/328/290 305/339/305
f 284/331/284 283/329/283 298/341/298
f 292/332/292 291/330/291 306/340/306
f 285/333/285 284/331/284 299/342/299
f 285/333/285 300/344/300 301/348/301
f 278/335/278 293/346/293 294/349/294
f 286/337/286 301/348/301 302/350/302
f 279/338/279 294/349/294 295/351/295
f 288/324/288 287/322/287 302/350/302
f 281/325/281 280/323/280 295/351/295
f 289/326/289 288/324/288 303/352/303
f 282/327/282 281/325/281 296/353/296
f 290/328/290 289/326/289 304/354/304
f 283/329/283 282/327/282 297/355/297
f 294/349/294 310/372/310 311/356/311
f 303/352/303 302/350/302 318/357/318
f 295/351/295 311/356/311 312/359/312
f 303/352/303 319/358/319 320/360/320
f 297/355/297 296/353/296 312/359/312
f 304/354/304 320/360/320 321/362/321
f 297/355/297 313/361/313 314/363/314
f 305/339/305 321/362/321 322/364/322
f 299/342/299 298/341/298 314/363/314
f 306/340/306 322/364/322 323/366/323
f 300/344/300 299/342/299 315/365/315
f 300/344/300 316/367/316 317/371/317
f 293/346/293 309/369/309 310/372/310
f 301/348/301 317/371/317 318/357/318
f 315/365/315 314/363/314 329/373/329
f 322/364/322 337/389/337 338/375/338
f 316/367/316 315/365/315 330/374/330
f 316/367/316 331/376/331 332/380/332
f 309/369/309 324/378/324 325/381/325
f 317/371/317 332/380/332 333/382/333
f 310/372/310 325/381/325 326/383/326
f 319/358/319 318/357/318 333/382/333
f 311/356/311 326/383/326 327/385/327
f 320/360/320 319/358/319 334/384/334
f 312/359/312 327/385/327 328/387/328
f 320/360/320 335/386/335 336/388/336
f 313/361/313 328/387/328 329/373/329
f 321/362/321 336/388/336 337/389/337
f 334/384/334 333/382/333 348/390/348
f 326/383/326 341/406/341 342/392/342
f 335/386/335 334/384/334 349/391/349
f 327/385/327 342/392/342 343/394/343
f 336/388/336 335/386/335 350/393/350
f 328/387/328 343/394/343 344/396/344
f 336/388/336 351/395/351 352/397/352
f 330/374/330 329/373/329 344/396/344
f 337/389/337 352/397/352 353/399/353
f 331/376/331 330/374/330 345/398/345
f 331/376/331 346/400/346 347/404/347
f 324/378/324 339/402/339 340/405/340
f 332/380/332 347/404/347 348/390/348
f 325/381/325 340/405/340 341/406/341
f 352/397/352 367/423/367 368/407/368
f 346/400/346 345/398/345 360/408/360
f 346/400/346 361/409/361 362/413/362
f 339/402/339 354/411/354 355/414/355
f 347/404/347 362/413/362 363/415/363
f 341/406/341 340/405/340 355/414/355
f 349/391/349 348/390/348 363/415/363
f 341/406/341 356/416/356 357/418/357
f 349/391/349 364/417/364 365/419/365
f 342/392/342 357/418/357 358/420/358
f 351/395/351 350/393/350 365/419/365
f 343/394/343 358/420/358 359/422/359
f 351/395/351 366/421/366 367/423/367
f 345/398/345 344/396/344 359/422/359
f 356/424/356 371/454/371 372/425/372
f 364/427/364 379/455/379 380/428/380
f 358/430/358 357/426/357 372/425/372
f 366/432/366 365/429/365 380/428/380
f 358/430/358 373/431/373 374/434/374
f 366/432/366 381/433/381 382/436/382
f 360/438/360 359/435/359 374/434/374
f 367/437/367 382/436/382 383/440/383
f 361/442/361 360/438/360 375/439/375
f 361/442/361 376/443/376 377/448/377
f 354/444/354 369/446/369 370/450/370
f 362/449/362 377/448/377 378/452/378
f 356/424/356 355/451/355 370/450/370
f 364/427/364 363/453/363 378/452/378
f 376/443/376 375/439/375 390/456/390
f 376/443/376 391/457/391 392/462/392
f 369/446/369 384/459/384 385/463/385
f 377/448/377 392/462/392 393/464/393
f 371/454/371 370/450/370 385/463/385
f 378/452/378 393/464/393 394/466/394
f 372/425/372 371/454/371 386/465/386
f 379/455/379 394/466/394 395/468/395
f 373/431/373 372/425/372 387/467/387
f 380/428/380 395/468/395 396/470/396
f 374/434/374 373/431/373 388/469/388
f 381/433/381 396/470/396 397/472/397
f 375/439/375 374/434/374 389/471/389
f 382/436/382 397/472/397 398/461/398
f 394/466/394 409/489/409 410/473/410
f 388/469/388 387/467/387 402/474/402
f 396/470/396 395/468/395 410/473/410
f 388/469/388 403/475/403 404/477/404
f 397/472/397 396/470/396 411/476/411
f 390/456/390 389/471/389 404/477/404
f 397/472/397 412/478/412 413/480/413
f 391/457/391 390/456/390 405/479/405
f 391/457/391 406/481/406 407/485/407
f 385/463/385 384/459/384 399/483/399
f 392/462/392 407/485/407 408/487/408
f 385/463/385 400/486/400 401/488/401
f 393/464/393 408/487/408 409/489/409
f 386/465/386 401/488/401 402/474/402
f 406/481/406 421/504/421 422/492/422
f 399/483/399 414/506/414 415/493/415
f 407/485/407 422/492/422 423/494/423
f 401/488/401 400/486/400 415/493/415
f 408/487/408 423/494/423 424/496/424
f 401/488/401 416/495/416 417/497/417
f 410/473/410 409/489/409 424/496/424
f 403/475/403 402/474/402 417/497/417
f 411/476/411 410/473/410 425/498/425
f 403/475/403 418/499/418 419/501/419
f 411/476/411 426/500/426 427/502/427
f 405/479/405 404/477/404 419/501/419
f 412/478/412 427/502/427 428/491/428
f 406/481/406 405/479/405 420/503/420
f 425/498/425 440/522/440 441/507/441
f 418/499/418 433/523/433 434/508/434
f 426/500/426 441/507/441 442/509/442
f 420/503/420 419/501/419 434/508/434
f 427/502/427 442/509/442 443/511/443
f 421/504/421 420/503/420 435/510/435
f 421/504/421 436/512/436 437/516/437
f 414/506/414 429/514/429 430/517/430
f 423/494/423 422/492/422 437/516/437
f 416/495/416 415/493/415 430/517/430
f 423/494/423 438/518/438 439/520/439
f 417/497/417 416/495/416 431/519/431
f 424/496/424 439/520/439 440/522/440
f 417/497/417 432/521/432 433/523/433
f 430/517/430 429/514/429 444/524/444
f 438/518/438 437/516/437 452/526/452
f 430/517/430 445/525/445 446/528/446
f 438/518/438 453/527/453 454/529/454
f 431/519/431 446/528/446 447/530/447
f 439/520/439 454/529/454 455/531/455
f 432/521/432 447/530/447 448/532/448
f 440/522/440 455/531/455 456/533/456
f 434/508/434 433/523/433 448/532/448
f 441/507/441 456/533/456 457/535/457
f 435/510/435 434/508/434 449/534/449
f 442/509/442 457/535/457 458/537/458
f 436/512/436 435/510/435 450/536/450
f 436/512/436 451/538/451 452/526/452
f 449/534/449 448/532/448 463/541/463
f 456/533/456 471/557/471 472/543/472
f 450/536/450 449/534/449 464/542/464
f 457/535/457 472/543/472 473/545/473
f 451/538/451 450/536/450 465/544/465
f 451/538/451 466/546/466 467/550/467
f 444/524/444 459/548/459 460/551/460
f 453/527/453 452/526/452 467/550/467
f 446/528/446 445/525/445 460/551/460
f 453/527/453 468/552/468 469/554/469
f 447/530/447 446/528/446 461/553/461
f 455/531/455 454/529/454 469/554/469
f 448/532/448 447/530/447 462/555/462
f 455/531/455 470/556/470 471/557/471
f 468/552/468 467/550/467 5/4/5
f 461/553/461 460/551/460 475/1/475
f 468/552/468 478/6/478 6/9/6
f 462/555/462 461/553/461 1/7/1
f 470/556/470 469/554/469 6/9/6
f 463/541/463 462/555/462 476/11/476
f 470/556/470 479/14/479 480/17/480
f 464/542/464 463/541/463 2/15/2
f 471/557/471 480/17/480 481/21/481
f 465/544/465 464/542/464 477/19/477
f 473/545/473 472/543/472 481/21/481
f 466/546/466 465/544/465 3/23/3
f 466/546/466 4/28/4 5/4/5
f 460/551/460 459/548/459 474/29/474
f 483/560/483 548/684/548 547/561/547
f 547/561/547 549/564/549 487/563/487
f 549/564/549 550/566/550 489/565/489
f 550/566/550 551/568/551 491/567/491
f 551/568/551 552/570/552 493/569/493
f 552/570/552 553/685/553 495/571/495
f 495/571/495 553/685/553 554/572/554
f 497/573/497 554/572/554 555/574/555
f 555/574/555 556/577/556 501/576/501
f 556/577/556 557/579/557 503/578/503
f 557/579/557 558/686/558 505/580/505
f 505/580/505 558/686/558 559/581/559
f 559/581/559 560/584/560 509/583/509
f 560/584/560 561/687/561 511/585/511
f 511/585/511 561/687/561 562/586/562
f 513/587/513 562/586/562 563/588/563
f 515/589/515 563/588/563 564/590/564
f 564/590/564 565/593/565 519/592/519
f 565/593/565 566/688/566 521/594/521
f 521/594/521 566/688/566 567/595/567
f 567/595/567 568/598/568 525/597/525
f 568/598/568 569/600/569 527/599/527
f 569/600/569 570/602/570 529/601/529
f 570/602/570 571/604/571 531/603/531
f 571/604/571 572/689/572 533/605/533
f 533/605/533 572/689/572 573/606/573
f 573/606/573 574/690/574 537/608/537
f 537/608/537 574/690/574 575/609/575
f 575/609/575 576/691/576 541/611/541
f 541/611/541 576/691/576 577/612/577
f 520/614/520 597/614/597 598/615/598
f 577/612/577 578/692/578 545/616/545
f 545/616/545 578/692/578 548/617/548
f 545/621/545 483/693/483 485/694/485
f 485/694/485 487/695/487 489/696/489
f 489/696/489 491/697/491 493/698/493
f 493/698/493 495/699/495 497/700/497
f 497/700/497 499/701/499 501/702/501
f 501/702/501 503/703/503 505/704/505
f 505/704/505 507/705/507 509/706/509
f 509/706/509 511/707/511 513/619/513
f 513/619/513 515/708/515 517/709/517
f 517/709/517 519/710/519 521/711/521
f 521/711/521 523/712/523 525/713/525
f 525/713/525 527/714/527 529/620/529
f 529/620/529 531/715/531 533/716/533
f 533/716/533 535/717/535 537/718/537
f 537/718/537 539/719/539 541/720/541
f 541/720/541 543/721/543 545/621/545
f 545/621/545 485/694/485 489/696/489
f 489/696/489 493/698/493 497/700/497
f 497/700/497 501/702/501 505/704/505
f 505/704/505 509/706/509 513/619/513
f 513/619/513 517/709/517 521/711/521
f 521/711/521 525/713/525 529/620/529
f 529/620/529 533/716/533 537/718/537
f 537/718/537 541/720/541 545/621/545
f 545/621/545 489/696/489 497/700/497
f 497/700/497 505/704/505 513/619/513
f 513/619/513 521/711/521 529/620/529
f 529/620/529 537/718/537 545/621/545
f 545/621/545 497/700/497 513/619/513
f 486/622/486 547/626/547 548/623/548
f 486/622/486 488/628/488 549/625/549
f 490/627/490 550/630/550 549/625/549
f 492/629/492 551/632/551 550/630/550
f 494/631/494 552/634/552 551/632/551
f 496/633/496 553/636/553 552/634/552
f 498/635/498 554/638/554 553/636/553
f 498/635/498 500/640/500 555/637/555
f 502/639/502 556/642/556 555/637/555
f 502/639/502 504/643/504 557/641/557
f 504/643/504 506/645/506 558/644/558
f 506/645/506 508/647/508 559/646/559
f 508/647/508 510/649/510 560/648/560
f 510/649/510 512/652/512 561/650/561
f 514/651/514 562/654/562 561/650/561
f 514/651/514 516/655/516 563/653/563
f 516/655/516 518/657/518 564/656/564
f 520/614/520 565/658/565 564/656/564
f 522/615/522 566/660/566 565/658/565
f 524/659/524 567/662/567 566/660/566
f 526/661/526 568/664/568 567/662/567
f 528/663/528 569/666/569 568/664/568
f 530/665/530 570/668/570 569/666/569
f 532/667/532 571/670/571 570/668/570
f 532/667/532 534/671/534 572/669/572
f 534/671/534 536/674/536 573/672/573
f 538/673/538 574/676/574 573/672/573
f 538/673/538 540/677/540 575/675/575
f 540/677/540 542/679/542 576/678/576
f 542/679/542 544/681/544 577/680/577
f 544/681/544 546/683/546 578/682/578
f 484/624/484 548/623/548 578/682/578
f 581/628/581 579/622/579 580/624/580
f 580/624/580 610/683/610 609/681/609
f 609/681/609 608/679/608 607/677/607
f 607/677/607 606/673/606 605/674/605
f 605/674/605 604/671/604 603/667/603
f 603/667/603 602/665/602 601/663/601
f 601/663/601 600/661/600 599/659/599
f 599/659/599 598/615/598 597/614/597
f 597/614/597 596/657/596 595/655/595
f 595/655/595 594/651/594 593/652/593
f 593/652/593 592/649/592 591/647/591
f 591/647/591 590/645/590 589/643/589
f 589/643/589 588/639/588 587/640/587
f 587/640/587 586/635/586 585/633/585
f 585/633/585 584/631/584 583/629/583
f 583/629/583 582/627/582 581/628/581
f 581/628/581 580/624/580 609/681/609
f 609/681/609 607/677/607 605/674/605
f 605/674/605 603/667/603 601/663/601
f 601/663/601 599/659/599 597/614/597
f 597/614/597 595/655/595 593/652/593
f 593/652/593 591/647/591 589/643/589
f 589/643/589 587/640/587 585/633/585
f 585/633/585 583/629/583 581/628/581
f 581/628/581 609/681/609 605/674/605
f 605/674/605 601/663/601 597/614/597
f 597/614/597 593/652/593 589/643/589
f 589/643/589 585/633/585 581/628/581
f 581/628/581 605/674/605 597/614/597
f 496/633/496 494/631/494 584/631/584
f 522/615/522 598/615/598 599/659/599
f 498/635/498 496/633/496 585/633/585
f 524/659/524 599/659/599 600/661/600
f 500/640/500 498/635/498 586/635/586
f 526/661/526 600/661/600 601/663/601
f 500/640/500 587/640/587 588/639/588
f 528/663/528 601/663/601 602/665/602
f 502/639/502 588/639/588 589/643/589
f 530/665/530 602/665/602 603/667/603
f 504/643/504 589/643/589 590/645/590
f 534/671/534 532/667/532 603/667/603
f 506/645/506 590/645/590 591/647/591
f 536/674/536 534/671/534 604/671/604
f 508/647/508 591/647/591 592/649/592
f 538/673/538 536/674/536 605/674/605
f 510/649/510 592/649/592 593/652/593
f 486/622/486 484/624/484 580/624/580
f 540/677/540 538/673/538 606/673/606
f 512/652/512 593/652/593 594/651/594
f 488/628/488 486/622/486 579/622/579
f 542/679/542 540/677/540 607/677/607
f 514/651/514 594/651/594 595/655/595
f 490/627/490 488/628/488 581/628/581
f 544/681/544 542/679/542 608/679/608
f 516/655/516 595/655/595 596/657/596
f 492/629/492 490/627/490 582/627/582
f 546/683/546 544/681/544 609/681/609
f 518/657/518 596/657/596 597/614/597
f 494/631/494 492/629/492 583/629/583
f 484/624/484 546/683/546 610/683/610
