# Blender 4.5.3 LTS
# www.blender.org
mtllib bouncepad.mtl
o Cylinder
v 0.000000 0.027402 -3.325533
v 0.000000 0.468045 -3.325533
v 0.648779 0.027402 -3.261634
v 0.648779 0.468045 -3.261634
v 1.272626 0.027402 -3.072392
v 1.272626 0.468045 -3.072392
v 1.847567 0.027402 -2.765079
v 1.847567 0.468045 -2.765079
v 2.351507 0.027402 -2.351507
v 2.351507 0.468045 -2.351507
v 2.765079 0.027402 -1.847567
v 2.765079 0.468045 -1.847567
v 3.072392 0.027402 -1.272626
v 3.072392 0.468045 -1.272626
v 3.261634 0.027402 -0.648779
v 3.261634 0.468045 -0.648779
v 3.325533 0.027402 0.000000
v 3.325533 0.468045 0.000000
v 3.261634 0.027402 0.648779
v 3.261634 0.468045 0.648779
v 3.072392 0.027402 1.272626
v 3.072392 0.468045 1.272626
v 2.765079 0.027402 1.847567
v 2.765079 0.468045 1.847567
v 2.351507 0.027402 2.351507
v 2.351507 0.468045 2.351507
v 1.847567 0.027402 2.765079
v 1.847567 0.468045 2.765079
v 1.272626 0.027402 3.072392
v 1.272626 0.468045 3.072392
v 0.648779 0.027402 3.261634
v 0.648779 0.468045 3.261634
v 0.000000 0.027402 3.325533
v 0.000000 0.468045 3.325533
v -0.648779 0.027402 3.261634
v -0.648779 0.468045 3.261634
v -1.272626 0.027402 3.072392
v -1.272626 0.468045 3.072392
v -1.847567 0.027402 2.765079
v -1.847567 0.468045 2.765079
v -2.351507 0.027402 2.351507
v -2.351507 0.468045 2.351507
v -2.765079 0.027402 1.847567
v -2.765079 0.468045 1.847567
v -3.072392 0.027402 1.272626
v -3.072392 0.468045 1.272626
v -3.261634 0.027402 0.648779
v -3.261634 0.468045 0.648779
v -3.325533 0.027402 0.000000
v -3.325533 0.468045 0.000000
v -3.261634 0.027402 -0.648779
v -3.261634 0.468045 -0.648779
v -3.072392 0.027402 -1.272626
v -3.072392 0.468045 -1.272626
v -2.765079 0.027402 -1.847567
v -2.765079 0.468045 -1.847567
v -2.351507 0.027402 -2.351507
v -2.351507 0.468045 -2.351507
v -1.847567 0.027402 -2.765079
v -1.847567 0.468045 -2.765079
v -1.272626 0.027402 -3.072392
v -1.272626 0.468045 -3.072392
v -0.648779 0.027402 -3.261634
v -0.648779 0.468045 -3.261634
v 0.648780 18.332111 -3.261634
v 0.000000 18.332111 -3.325533
v 1.272627 18.332111 -3.072392
v 1.847568 18.332111 -2.765079
v 2.351507 18.332111 -2.351507
v 2.765080 18.332111 -1.847567
v 3.072392 18.332111 -1.272626
v 3.261634 18.332111 -0.648779
v 3.325533 18.332111 0.000000
v 3.261634 18.332111 0.648779
v 3.072392 18.332111 1.272626
v 2.765080 18.332111 1.847567
v 2.351507 18.332111 2.351507
v 1.847568 18.332111 2.765079
v 1.272627 18.332111 3.072392
v 0.648780 18.332111 3.261634
v 0.000000 18.332111 3.325533
v -0.648779 18.332111 3.261634
v -1.272626 18.332111 3.072392
v -1.847567 18.332111 2.765079
v -2.351506 18.332111 2.351507
v -2.765079 18.332111 1.847567
v -3.072391 18.332111 1.272626
v -3.261633 18.332111 0.648779
v -3.325532 18.332111 0.000000
v -3.261633 18.332111 -0.648779
v -3.072391 18.332111 -1.272626
v -2.765079 18.332111 -1.847567
v -2.351506 18.332111 -2.351507
v -1.847567 18.332111 -2.765079
v -1.272626 18.332111 -3.072392
v -0.648779 18.332111 -3.261634
v 2.157238 0.468045 -10.845167
v 0.000000 0.468045 -11.057636
v 4.231575 0.468045 -10.215926
v 6.143294 0.468045 -9.194090
v 7.818931 0.468045 -7.818931
v 9.194090 0.468045 -6.143294
v 10.215924 0.468045 -4.231575
v 10.845167 0.468045 -2.157238
v 11.057636 0.468045 0.000000
v 10.845167 0.468045 2.157238
v 10.215924 0.468045 4.231575
v 9.194090 0.468045 6.143294
v 7.818931 0.468045 7.818931
v 6.143294 0.468045 9.194090
v 4.231575 0.468045 10.215926
v 2.157238 0.468045 10.845167
v 0.000000 0.468045 11.057636
v -2.157238 0.468045 10.845167
v -4.231575 0.468045 10.215924
v -6.143294 0.468045 9.194090
v -7.818931 0.468045 7.818931
v -9.194090 0.468045 6.143294
v -10.215924 0.468045 4.231575
v -10.845167 0.468045 2.157238
v -11.057636 0.468045 0.000000
v -10.845167 0.468045 -2.157238
v -10.215924 0.468045 -4.231575
v -9.194090 0.468045 -6.143294
v -7.818931 0.468045 -7.818931
v -6.143294 0.468045 -9.194090
v -4.231575 0.468045 -10.215924
v -2.157238 0.468045 -10.845167
v 2.157239 18.332111 -10.845167
v 0.000000 18.332111 -11.057636
v 4.231575 18.332111 -10.215926
v 6.143295 18.332111 -9.194090
v 7.818931 18.332111 -7.818931
v 9.194090 18.332111 -6.143294
v 10.215925 18.332111 -4.231575
v 10.845168 18.332111 -2.157238
v 11.057637 18.332111 0.000000
v 10.845168 18.332111 2.157238
v 10.215925 18.332111 4.231575
v 9.194090 18.332111 6.143294
v 7.818931 18.332111 7.818931
v 6.143295 18.332111 9.194090
v 4.231575 18.332111 10.215926
v 2.157239 18.332111 10.845167
v 0.000000 18.332111 11.057636
v -2.157238 18.332111 10.845167
v -4.231575 18.332111 10.215924
v -6.143294 18.332111 9.194090
v -7.818930 18.332111 7.818931
v -9.194089 18.332111 6.143294
v -10.215924 18.332111 4.231575
v -10.845167 18.332111 2.157238
v -11.057635 18.332111 0.000000
v -10.845167 18.332111 -2.157238
v -10.215924 18.332111 -4.231575
v -9.194089 18.332111 -6.143294
v -7.818930 18.332111 -7.818931
v -6.143294 18.332111 -9.194090
v -4.231575 18.332111 -10.215924
v -2.157238 18.332111 -10.845167
v 5.754141 6.439938 -28.928080
v -0.000001 6.439938 -29.494812
v 11.287173 6.439938 -27.249655
v 16.386444 6.439938 -24.524036
v 20.855982 6.439938 -20.855982
v 24.524040 6.439938 -16.386440
v 27.249653 6.439938 -11.287176
v 28.928076 6.439938 -5.754150
v 29.494812 6.439938 0.000000
v 28.928076 6.439938 5.754150
v 27.249653 6.439938 11.287176
v 24.524040 6.439938 16.386440
v 20.855982 6.439938 20.855982
v 16.386444 6.439938 24.524036
v 11.287173 6.439938 27.249655
v 5.754141 6.439938 28.928080
v -0.000001 6.439938 29.494812
v -5.754151 6.439938 28.928080
v -11.287175 6.439938 27.249655
v -16.386438 6.439938 24.524040
v -20.855980 6.439939 20.855982
v -24.524038 6.439939 16.386438
v -27.249653 6.439938 11.287176
v -28.928080 6.439938 5.754149
v -29.494812 6.439939 0.000000
v -28.928080 6.439938 -5.754149
v -27.249653 6.439938 -11.287176
v -24.524038 6.439939 -16.386438
v -20.855980 6.439939 -20.855982
v -16.386438 6.439938 -24.524040
v -11.287175 6.439938 -27.249655
v -5.754151 6.439938 -28.928080
v 5.754142 12.360215 -28.928080
v -0.000000 12.360215 -29.494812
v 11.287173 12.360215 -27.249655
v 16.386446 12.360215 -24.524036
v 20.855986 12.360215 -20.855982
v 24.524040 12.360215 -16.386440
v 27.249653 12.360215 -11.287176
v 28.928076 12.360215 -5.754150
v 29.494812 12.360215 0.000000
v 28.928076 12.360215 5.754150
v 27.249653 12.360215 11.287176
v 24.524040 12.360215 16.386440
v 20.855986 12.360215 20.855982
v 16.386446 12.360215 24.524036
v 11.287173 12.360215 27.249655
v 5.754142 12.360215 28.928080
v -0.000000 12.360215 29.494812
v -5.754151 12.360215 28.928080
v -11.287175 12.360215 27.249655
v -16.386438 12.360215 24.524040
v -20.855984 12.360215 20.855982
v -24.524038 12.360215 16.386438
v -27.249653 12.360215 11.287176
v -28.928080 12.360215 5.754149
v -29.494812 12.360215 0.000000
v -28.928080 12.360215 -5.754149
v -27.249653 12.360215 -11.287176
v -24.524038 12.360215 -16.386438
v -20.855984 12.360215 -20.855982
v -16.386438 12.360215 -24.524040
v -11.287175 12.360215 -27.249655
v -5.754151 12.360215 -28.928080
v 0.648780 18.830879 -3.261634
v 0.000000 18.830879 -3.325533
v 1.272627 18.830879 -3.072392
v 1.847568 18.830879 -2.765079
v 2.351507 18.830879 -2.351507
v 2.765080 18.830879 -1.847567
v 3.072392 18.830879 -1.272626
v 3.261634 18.830879 -0.648779
v 3.325533 18.830879 0.000000
v 3.261634 18.830879 0.648779
v 3.072392 18.830879 1.272626
v 2.765080 18.830879 1.847567
v 2.351507 18.830879 2.351507
v 1.847568 18.830879 2.765079
v 1.272627 18.830879 3.072392
v 0.648780 18.830879 3.261634
v 0.000000 18.830879 3.325533
v -0.648779 18.830879 3.261634
v -1.272626 18.830879 3.072392
v -1.847567 18.830879 2.765079
v -2.351506 18.830879 2.351507
v -2.765079 18.830879 1.847567
v -3.072391 18.830879 1.272626
v -3.261633 18.830879 0.648779
v -3.325532 18.830879 0.000000
v -3.261633 18.830879 -0.648779
v -3.072391 18.830879 -1.272626
v -2.765079 18.830879 -1.847567
v -2.351506 18.830879 -2.351507
v -1.847567 18.830879 -2.765079
v -1.272626 18.830879 -3.072392
v -0.648779 18.830879 -3.261634
vn 0.0980 -0.0000 -0.9952
vn 0.2903 -0.0000 -0.9569
vn 0.4714 -0.0000 -0.8819
vn 0.6344 -0.0000 -0.7730
vn 0.7730 -0.0000 -0.6344
vn 0.8819 -0.0000 -0.4714
vn 0.9569 -0.0000 -0.2903
vn 0.9952 -0.0000 -0.0980
vn 0.9952 -0.0000 0.0980
vn 0.9569 -0.0000 0.2903
vn 0.8819 -0.0000 0.4714
vn 0.7730 -0.0000 0.6344
vn 0.6344 -0.0000 0.7730
vn 0.4714 -0.0000 0.8819
vn 0.2903 -0.0000 0.9569
vn 0.0980 -0.0000 0.9952
vn -0.0980 -0.0000 0.9952
vn -0.2903 -0.0000 0.9569
vn -0.4714 -0.0000 0.8819
vn -0.6344 -0.0000 0.7730
vn -0.7730 -0.0000 0.6344
vn -0.8819 -0.0000 0.4714
vn -0.9569 -0.0000 0.2903
vn -0.9952 -0.0000 0.0980
vn -0.9952 -0.0000 -0.0980
vn -0.9569 -0.0000 -0.2903
vn -0.8819 -0.0000 -0.4714
vn -0.7730 -0.0000 -0.6344
vn -0.6344 -0.0000 -0.7730
vn -0.4714 -0.0000 -0.8819
vn -0.0000 -1.0000 -0.0000
vn -0.2903 -0.0000 -0.9569
vn -0.0980 -0.0000 -0.9952
vn -0.0000 1.0000 -0.0000
vn -0.1963 0.9509 -0.2392
vn 0.3080 -0.9509 -0.0303
vn 0.0898 0.9509 -0.2962
vn -0.2392 0.9509 -0.1963
vn 0.2962 -0.9509 -0.0898
vn 0.0303 0.9509 -0.3080
vn -0.2729 0.9509 -0.1459
vn 0.2729 -0.9509 -0.1459
vn -0.0303 -0.9509 -0.3080
vn -0.2962 0.9509 -0.0898
vn 0.2392 -0.9509 -0.1963
vn -0.0898 -0.9509 -0.2962
vn -0.3080 0.9509 -0.0303
vn 0.1963 -0.9509 -0.2392
vn -0.1459 -0.9509 -0.2729
vn -0.3080 0.9509 0.0303
vn 0.1459 -0.9509 -0.2729
vn -0.1963 -0.9509 -0.2392
vn -0.2962 0.9509 0.0898
vn 0.0898 -0.9509 -0.2962
vn -0.2392 -0.9509 -0.1963
vn -0.2729 0.9509 0.1459
vn 0.0303 -0.9509 -0.3080
vn -0.2729 -0.9509 -0.1459
vn -0.2392 0.9509 0.1963
vn -0.2962 -0.9509 -0.0898
vn -0.1963 0.9509 0.2392
vn -0.3080 -0.9509 -0.0303
vn -0.1459 0.9509 0.2729
vn -0.3080 -0.9509 0.0303
vn -0.0898 0.9509 0.2962
vn -0.2962 -0.9509 0.0898
vn 0.1459 0.9509 -0.2729
vn 0.3080 -0.9509 0.0303
vn -0.1459 0.9509 -0.2729
vn 0.1963 0.9509 -0.2392
vn 0.2962 -0.9509 0.0898
vn -0.0898 0.9509 -0.2962
vn 0.2392 0.9509 -0.1963
vn 0.2729 -0.9509 0.1459
vn -0.0303 0.9509 -0.3080
vn 0.2729 0.9509 -0.1459
vn 0.2392 -0.9509 0.1963
vn 0.2962 0.9509 -0.0898
vn 0.1963 -0.9509 0.2392
vn 0.3080 0.9509 -0.0303
vn 0.1459 -0.9509 0.2729
vn 0.3080 0.9509 0.0303
vn 0.0898 -0.9509 0.2962
vn 0.2962 0.9509 0.0898
vn 0.0303 -0.9509 0.3080
vn 0.2729 0.9509 0.1459
vn -0.0303 -0.9509 0.3080
vn 0.2392 0.9509 0.1963
vn -0.0898 -0.9509 0.2962
vn 0.1963 0.9509 0.2392
vn -0.1459 -0.9509 0.2729
vn 0.1459 0.9509 0.2729
vn -0.1963 -0.9509 0.2392
vn 0.0898 0.9509 0.2962
vn -0.2392 -0.9509 0.1963
vn 0.0303 0.9509 0.3080
vn -0.2729 -0.9509 0.1459
vn -0.0303 0.9509 0.3080
vt 0.304655 0.221045
vt 0.304655 0.214673
vt 0.305054 0.214673
vt 0.305054 0.221045
vt 0.305452 0.214673
vt 0.305452 0.221045
vt 0.305850 0.214673
vt 0.305850 0.221045
vt 0.306248 0.214673
vt 0.306248 0.221045
vt 0.306647 0.214673
vt 0.306647 0.221045
vt 0.307045 0.214673
vt 0.307045 0.221045
vt 0.307443 0.214673
vt 0.307443 0.221045
vt 0.307841 0.214673
vt 0.307841 0.221045
vt 0.308240 0.214673
vt 0.308240 0.221045
vt 0.308638 0.214673
vt 0.308638 0.221045
vt 0.309036 0.214673
vt 0.309036 0.221045
vt 0.309434 0.214673
vt 0.309434 0.221045
vt 0.309833 0.214673
vt 0.309833 0.221045
vt 0.310231 0.214673
vt 0.310231 0.221045
vt 0.310629 0.214673
vt 0.310629 0.221045
vt 0.311027 0.214673
vt 0.311027 0.221045
vt 0.311426 0.214673
vt 0.311426 0.221045
vt 0.311824 0.214673
vt 0.311824 0.221045
vt 0.312222 0.214673
vt 0.312222 0.221045
vt 0.312620 0.214673
vt 0.312620 0.221045
vt 0.313019 0.214673
vt 0.313019 0.221045
vt 0.313417 0.214673
vt 0.313417 0.221045
vt 0.313815 0.214673
vt 0.313815 0.221045
vt 0.314213 0.214673
vt 0.314213 0.221045
vt 0.314612 0.214673
vt 0.314612 0.221045
vt 0.315010 0.214673
vt 0.315010 0.221045
vt 0.315408 0.214673
vt 0.315408 0.221045
vt 0.315806 0.214673
vt 0.315806 0.221045
vt 0.316205 0.214673
vt 0.316205 0.221045
vt 0.316603 0.214673
vt 0.316603 0.221045
vt 0.317001 0.214673
vt 0.317001 0.221045
vt 0.317399 0.214673
vt 0.317399 0.221045
vt 0.307841 0.221172
vt 0.307245 0.221231
vt 0.306671 0.221405
vt 0.306142 0.221688
vt 0.305679 0.222068
vt 0.305298 0.222531
vt 0.305016 0.223060
vt 0.304842 0.223634
vt 0.304783 0.224231
vt 0.304842 0.224827
vt 0.305016 0.225401
vt 0.305298 0.225930
vt 0.305679 0.226393
vt 0.306142 0.226774
vt 0.306671 0.227056
vt 0.307245 0.227230
vt 0.307841 0.227289
vt 0.308438 0.227230
vt 0.309012 0.227056
vt 0.309541 0.226774
vt 0.310004 0.226393
vt 0.310385 0.225930
vt 0.310667 0.225401
vt 0.310841 0.224827
vt 0.310900 0.224231
vt 0.310841 0.223634
vt 0.310667 0.223060
vt 0.310385 0.222531
vt 0.310004 0.222068
vt 0.309541 0.221688
vt 0.309012 0.221405
vt 0.308438 0.221231
vt 0.311388 0.225401
vt 0.311214 0.224827
vt 0.313617 0.227230
vt 0.314213 0.227289
vt 0.313043 0.227056
vt 0.312514 0.226774
vt 0.312051 0.226393
vt 0.311670 0.225930
vt 0.311155 0.224231
vt 0.311214 0.223634
vt 0.311388 0.223060
vt 0.311670 0.222531
vt 0.314810 0.221231
vt 0.314213 0.221172
vt 0.312051 0.222068
vt 0.315384 0.221405
vt 0.312514 0.221688
vt 0.315913 0.221688
vt 0.316376 0.222068
vt 0.313617 0.221231
vt 0.313043 0.221405
vt 0.316756 0.222531
vt 0.317039 0.223060
vt 0.317213 0.223634
vt 0.317272 0.224231
vt 0.317213 0.224827
vt 0.317039 0.225401
vt 0.316756 0.225930
vt 0.316376 0.226393
vt 0.315913 0.226774
vt 0.315384 0.227056
vt 0.314810 0.227230
s 0
f 1/1/1 2/2/1 4/3/1 3/4/1
f 3/4/2 4/3/2 6/5/2 5/6/2
f 5/6/3 6/5/3 8/7/3 7/8/3
f 7/8/4 8/7/4 10/9/4 9/10/4
f 9/10/5 10/9/5 12/11/5 11/12/5
f 11/12/6 12/11/6 14/13/6 13/14/6
f 13/14/7 14/13/7 16/15/7 15/16/7
f 15/16/8 16/15/8 18/17/8 17/18/8
f 17/18/9 18/17/9 20/19/9 19/20/9
f 19/20/10 20/19/10 22/21/10 21/22/10
f 21/22/11 22/21/11 24/23/11 23/24/11
f 23/24/12 24/23/12 26/25/12 25/26/12
f 25/26/13 26/25/13 28/27/13 27/28/13
f 27/28/14 28/27/14 30/29/14 29/30/14
f 29/30/15 30/29/15 32/31/15 31/32/15
f 31/32/16 32/31/16 34/33/16 33/34/16
f 33/34/17 34/33/17 36/35/17 35/36/17
f 35/36/18 36/35/18 38/37/18 37/38/18
f 37/38/19 38/37/19 40/39/19 39/40/19
f 39/40/20 40/39/20 42/41/20 41/42/20
f 41/42/21 42/41/21 44/43/21 43/44/21
f 43/44/22 44/43/22 46/45/22 45/46/22
f 45/46/23 46/45/23 48/47/23 47/48/23
f 47/48/24 48/47/24 50/49/24 49/50/24
f 49/50/25 50/49/25 52/51/25 51/52/25
f 51/52/26 52/51/26 54/53/26 53/54/26
f 53/54/27 54/53/27 56/55/27 55/56/27
f 55/56/28 56/55/28 58/57/28 57/58/28
f 57/58/29 58/57/29 60/59/29 59/60/29
f 59/60/30 60/59/30 62/61/30 61/62/30
f 42/41/31 40/39/31 116/39/31 117/41/31
f 61/62/32 62/61/32 64/63/32 63/64/32
f 63/64/33 64/63/33 2/65/33 1/66/33
f 1/67/31 3/68/31 5/69/31 7/70/31 9/71/31 11/72/31 13/73/31 15/74/31 17/75/31 19/76/31 21/77/31 23/78/31 25/79/31 27/80/31 29/81/31 31/82/31 33/83/31 35/84/31 37/85/31 39/86/31 41/87/31 43/88/31 45/89/31 47/90/31 49/91/31 51/92/31 53/93/31 55/94/31 57/95/31 59/96/31 61/97/31 63/98/31
f 75/99/10 74/100/10 234/100/10 235/99/10
f 80/101/34 81/102/34 145/102/34 144/101/34
f 24/23/31 22/21/31 107/21/31 108/23/31
f 79/103/34 80/101/34 144/101/34 143/103/34
f 6/5/31 4/3/31 97/3/31 99/5/31
f 58/57/31 56/55/31 124/55/31 125/57/31
f 78/104/34 79/103/34 143/103/34 142/104/34
f 40/39/31 38/37/31 115/37/31 116/39/31
f 77/105/34 78/104/34 142/104/34 141/105/34
f 22/21/31 20/19/31 106/19/31 107/21/31
f 76/106/34 77/105/34 141/105/34 140/106/34
f 56/55/31 54/53/31 123/53/31 124/55/31
f 75/99/34 76/106/34 140/106/34 139/99/34
f 4/3/31 2/2/31 98/2/31 97/3/31
f 38/37/31 36/35/31 114/35/31 115/37/31
f 74/100/34 75/99/34 139/99/34 138/100/34
f 20/19/31 18/17/31 105/17/31 106/19/31
f 73/107/34 74/100/34 138/100/34 137/107/34
f 54/53/31 52/51/31 122/51/31 123/53/31
f 72/108/34 73/107/34 137/107/34 136/108/34
f 36/35/31 34/33/31 113/33/31 114/35/31
f 71/109/34 72/108/34 136/108/34 135/109/34
f 18/17/31 16/15/31 104/15/31 105/17/31
f 70/110/34 71/109/34 135/109/34 134/110/34
f 96/111/34 66/112/34 130/112/34 160/111/34
f 52/51/31 50/49/31 121/49/31 122/51/31
f 69/113/34 70/110/34 134/110/34 133/113/34
f 95/114/34 96/111/34 160/111/34 159/114/34
f 34/33/31 32/31/31 112/31/31 113/33/31
f 68/115/34 69/113/34 133/113/34 132/115/34
f 94/116/34 95/114/34 159/114/34 158/116/34
f 16/15/31 14/13/31 103/13/31 104/15/31
f 157/117/35 158/116/35 222/116/35 221/117/35
f 105/17/36 104/15/36 168/15/36 169/17/36
f 129/118/37 131/119/37 195/119/37 193/118/37
f 156/120/38 157/117/38 221/117/38 220/120/38
f 104/15/39 103/13/39 167/13/39 168/15/39
f 130/112/40 129/118/40 193/118/40 194/112/40
f 155/121/41 156/120/41 220/120/41 219/121/41
f 103/13/42 102/11/42 166/11/42 167/13/42
f 98/65/43 128/63/43 192/63/43 162/65/43
f 154/122/44 155/121/44 219/121/44 218/122/44
f 102/11/45 101/9/45 165/9/45 166/11/45
f 128/63/46 127/61/46 191/61/46 192/63/46
f 153/123/47 154/122/47 218/122/47 217/123/47
f 101/9/48 100/7/48 164/7/48 165/9/48
f 127/61/49 126/59/49 190/59/49 191/61/49
f 152/124/50 153/123/50 217/123/50 216/124/50
f 100/7/51 99/5/51 163/5/51 164/7/51
f 126/59/52 125/57/52 189/57/52 190/59/52
f 151/125/53 152/124/53 216/124/53 215/125/53
f 99/5/54 97/3/54 161/3/54 163/5/54
f 125/57/55 124/55/55 188/55/55 189/57/55
f 150/126/56 151/125/56 215/125/56 214/126/56
f 97/3/57 98/2/57 162/2/57 161/3/57
f 124/55/58 123/53/58 187/53/58 188/55/58
f 149/127/59 150/126/59 214/126/59 213/127/59
f 123/53/60 122/51/60 186/51/60 187/53/60
f 148/128/61 149/127/61 213/127/61 212/128/61
f 122/51/62 121/49/62 185/49/62 186/51/62
f 147/129/63 148/128/63 212/128/63 211/129/63
f 121/49/64 120/47/64 184/47/64 185/49/64
f 146/130/65 147/129/65 211/129/65 210/130/65
f 120/47/66 119/45/66 183/45/66 184/47/66
f 81/102/34 82/130/34 146/130/34 145/102/34
f 60/59/31 58/57/31 125/57/31 126/59/31
f 8/7/31 6/5/31 99/5/31 100/7/31
f 82/130/34 83/129/34 147/129/34 146/130/34
f 26/25/31 24/23/31 108/23/31 109/25/31
f 83/129/34 84/128/34 148/128/34 147/129/34
f 44/43/31 42/41/31 117/41/31 118/43/31
f 84/128/34 85/127/34 149/127/34 148/128/34
f 62/61/31 60/59/31 126/59/31 127/61/31
f 10/9/31 8/7/31 100/7/31 101/9/31
f 85/127/34 86/126/34 150/126/34 149/127/34
f 28/27/31 26/25/31 109/25/31 110/27/31
f 86/126/34 87/125/34 151/125/34 150/126/34
f 46/45/31 44/43/31 118/43/31 119/45/31
f 87/125/34 88/124/34 152/124/34 151/125/34
f 64/63/31 62/61/31 127/61/31 128/63/31
f 12/11/31 10/9/31 101/9/31 102/11/31
f 88/124/34 89/123/34 153/123/34 152/124/34
f 30/29/31 28/27/31 110/27/31 111/29/31
f 89/123/34 90/122/34 154/122/34 153/123/34
f 48/47/31 46/45/31 119/45/31 120/47/31
f 90/122/34 91/121/34 155/121/34 154/122/34
f 2/65/31 64/63/31 128/63/31 98/65/31
f 14/13/31 12/11/31 102/11/31 103/13/31
f 91/121/34 92/120/34 156/120/34 155/121/34
f 66/112/34 65/118/34 129/118/34 130/112/34
f 32/31/31 30/29/31 111/29/31 112/31/31
f 92/120/34 93/117/34 157/117/34 156/120/34
f 65/118/34 67/119/34 131/119/34 129/118/34
f 50/49/31 48/47/31 120/47/31 121/49/31
f 93/117/34 94/116/34 158/116/34 157/117/34
f 67/119/34 68/115/34 132/115/34 131/119/34
f 184/47/23 183/45/23 215/45/23 216/47/23
f 161/3/1 162/2/1 194/2/1 193/3/1
f 162/65/33 192/63/33 224/63/33 194/65/33
f 171/21/10 170/19/10 202/19/10 203/21/10
f 180/39/19 179/37/19 211/37/19 212/39/19
f 189/57/28 188/55/28 220/55/28 221/57/28
f 167/13/6 166/11/6 198/11/6 199/13/6
f 176/31/15 175/29/15 207/29/15 208/31/15
f 185/49/24 184/47/24 216/47/24 217/49/24
f 163/5/2 161/3/2 193/3/2 195/5/2
f 172/23/11 171/21/11 203/21/11 204/23/11
f 181/41/20 180/39/20 212/39/20 213/41/20
f 190/59/29 189/57/29 221/57/29 222/59/29
f 168/15/7 167/13/7 199/13/7 200/15/7
f 177/33/16 176/31/16 208/31/16 209/33/16
f 186/51/25 185/49/25 217/49/25 218/51/25
f 164/7/3 163/5/3 195/5/3 196/7/3
f 173/25/12 172/23/12 204/23/12 205/25/12
f 182/43/21 181/41/21 213/41/21 214/43/21
f 191/61/30 190/59/30 222/59/30 223/61/30
f 169/17/8 168/15/8 200/15/8 201/17/8
f 178/35/17 177/33/17 209/33/17 210/35/17
f 187/53/26 186/51/26 218/51/26 219/53/26
f 165/9/4 164/7/4 196/7/4 197/9/4
f 174/27/13 173/25/13 205/25/13 206/27/13
f 183/45/22 182/43/22 214/43/22 215/45/22
f 192/63/32 191/61/32 223/61/32 224/63/32
f 170/19/9 169/17/9 201/17/9 202/19/9
f 179/37/18 178/35/18 210/35/18 211/37/18
f 188/55/27 187/53/27 219/53/27 220/55/27
f 166/11/5 165/9/5 197/9/5 198/11/5
f 175/29/14 174/27/14 206/27/14 207/29/14
f 131/119/67 132/115/67 196/115/67 195/119/67
f 106/19/68 105/17/68 169/17/68 170/19/68
f 158/116/69 159/114/69 223/114/69 222/116/69
f 132/115/70 133/113/70 197/113/70 196/115/70
f 107/21/71 106/19/71 170/19/71 171/21/71
f 159/114/72 160/111/72 224/111/72 223/114/72
f 133/113/73 134/110/73 198/110/73 197/113/73
f 108/23/74 107/21/74 171/21/74 172/23/74
f 160/111/75 130/112/75 194/112/75 224/111/75
f 134/110/76 135/109/76 199/109/76 198/110/76
f 109/25/77 108/23/77 172/23/77 173/25/77
f 135/109/78 136/108/78 200/108/78 199/109/78
f 110/27/79 109/25/79 173/25/79 174/27/79
f 136/108/80 137/107/80 201/107/80 200/108/80
f 111/29/81 110/27/81 174/27/81 175/29/81
f 137/107/82 138/100/82 202/100/82 201/107/82
f 112/31/83 111/29/83 175/29/83 176/31/83
f 138/100/84 139/99/84 203/99/84 202/100/84
f 113/33/85 112/31/85 176/31/85 177/33/85
f 139/99/86 140/106/86 204/106/86 203/99/86
f 114/35/87 113/33/87 177/33/87 178/35/87
f 140/106/88 141/105/88 205/105/88 204/106/88
f 115/37/89 114/35/89 178/35/89 179/37/89
f 141/105/90 142/104/90 206/104/90 205/105/90
f 116/39/91 115/37/91 179/37/91 180/39/91
f 142/104/92 143/103/92 207/103/92 206/104/92
f 117/41/93 116/39/93 180/39/93 181/41/93
f 143/103/94 144/101/94 208/101/94 207/103/94
f 118/43/95 117/41/95 181/41/95 182/43/95
f 144/101/96 145/102/96 209/102/96 208/101/96
f 119/45/97 118/43/97 182/43/97 183/45/97
f 145/102/98 146/130/98 210/130/98 209/102/98
f 225/118/34 226/112/34 256/111/34 255/114/34 254/116/34 253/117/34 252/120/34 251/121/34 250/122/34 249/123/34 248/124/34 247/125/34 246/126/34 245/127/34 244/128/34 243/129/34 242/130/34 241/102/34 240/101/34 239/103/34 238/104/34 237/105/34 236/106/34 235/99/34 234/100/34 233/107/34 232/108/34 231/109/34 230/110/34 229/113/34 228/115/34 227/119/34
f 89/123/24 88/124/24 248/124/24 249/123/24
f 76/106/11 75/99/11 235/99/11 236/106/11
f 90/122/25 89/123/25 249/123/25 250/122/25
f 77/105/12 76/106/12 236/106/12 237/105/12
f 91/121/26 90/122/26 250/122/26 251/121/26
f 78/104/13 77/105/13 237/105/13 238/104/13
f 92/120/27 91/121/27 251/121/27 252/120/27
f 79/103/14 78/104/14 238/104/14 239/103/14
f 65/118/1 66/112/1 226/112/1 225/118/1
f 93/117/28 92/120/28 252/120/28 253/117/28
f 80/101/15 79/103/15 239/103/15 240/101/15
f 67/119/2 65/118/2 225/118/2 227/119/2
f 94/116/29 93/117/29 253/117/29 254/116/29
f 81/102/16 80/101/16 240/101/16 241/102/16
f 68/115/3 67/119/3 227/119/3 228/115/3
f 95/114/30 94/116/30 254/116/30 255/114/30
f 82/130/17 81/102/17 241/102/17 242/130/17
f 69/113/4 68/115/4 228/115/4 229/113/4
f 96/111/32 95/114/32 255/114/32 256/111/32
f 83/129/18 82/130/18 242/130/18 243/129/18
f 70/110/5 69/113/5 229/113/5 230/110/5
f 66/112/33 96/111/33 256/111/33 226/112/33
f 84/128/19 83/129/19 243/129/19 244/128/19
f 71/109/6 70/110/6 230/110/6 231/109/6
f 85/127/20 84/128/20 244/128/20 245/127/20
f 72/108/7 71/109/7 231/109/7 232/108/7
f 86/126/21 85/127/21 245/127/21 246/126/21
f 73/107/8 72/108/8 232/108/8 233/107/8
f 87/125/22 86/126/22 246/126/22 247/125/22
f 74/100/9 73/107/9 233/107/9 234/100/9
f 88/124/23 87/125/23 247/125/23 248/124/23
