# Blender 4.5.3 LTS
# www.blender.org
o Cube
v -7.963258 -11.376082 0.110425
v -7.963258 -7.963258 0.522936
v -11.376082 7.963258 0.110425
v -7.963258 7.963258 0.522936
v 7.963258 -11.376082 0.110425
v 7.963258 -7.963258 0.522936
v 7.963258 11.376082 0.110425
v 7.963258 7.963258 0.522936
v 7.963258 -11.376082 0.555409
v 7.963258 11.376082 0.555409
v -7.963258 -11.376082 0.555409
v -11.376082 7.963258 0.555409
v -11.376082 -7.963258 0.555409
v 11.376082 -7.963258 0.555409
v -11.376082 -7.963258 0.110425
v 11.376082 -7.963258 0.110425
v -7.963258 -7.963258 0.015072
v -11.908018 -11.908018 0.665625
v -7.963258 11.376082 0.110425
v -7.963258 11.376082 0.555409
v 11.376082 7.963258 0.555409
v 11.376082 7.963258 0.110425
v -7.963258 7.963258 0.015072
v -11.908018 11.908018 0.665625
v 11.908018 -11.908018 0.665625
v 11.908018 11.908018 0.665625
v 7.963258 7.963258 0.015072
v 7.963258 -7.963258 0.015072
v -11.908018 11.908018 0.000209
v 11.908018 11.908018 0.000209
v -11.908018 -11.908018 0.000209
v 11.908018 -11.908018 0.000209
vn -0.0000 -0.0000 -1.0000
vn -0.0000 1.0000 -0.0000
vn 1.0000 -0.0000 -0.0000
vn -0.0000 -0.0000 1.0000
vn -1.0000 -0.0000 -0.0000
vn -0.0000 -1.0000 -0.0000
vn -0.0361 -0.0000 0.9993
vn -0.0000 0.0361 0.9993
vn -0.0000 -0.0361 0.9993
vn 0.0361 -0.0000 0.9993
vn -0.0000 -0.2029 -0.9792
vn 0.1336 -0.9910 -0.0000
vn -0.1336 -0.9910 -0.0000
vn -0.0000 -0.2029 0.9792
vn -0.9910 0.1336 -0.0000
vn -0.9910 -0.1336 -0.0000
vn -0.2029 -0.0000 0.9792
vn -0.2029 -0.0000 -0.9792
vn -0.1336 0.9910 -0.0000
vn 0.1336 0.9910 -0.0000
vn -0.0000 0.2029 0.9792
vn -0.0000 0.2029 -0.9792
vn 0.2029 -0.0000 -0.9792
vn 0.9910 -0.1336 -0.0000
vn 0.9910 0.1336 -0.0000
vn 0.2029 -0.0000 0.9792
vn -0.0000 -0.0038 -1.0000
vn 0.0038 -0.0000 -1.0000
vn -0.0038 -0.0000 -1.0000
vn -0.0000 0.0038 -1.0000
vt 0.688530 0.773668
vt 0.859794 0.771636
vt 0.857761 0.600371
vt 0.867992 0.539470
vt 0.877942 0.499826
vt 0.662839 0.499090
vt 0.625597 0.592173
vt 0.585952 0.582222
vt 0.585216 0.797326
vt 0.445419 0.868378
vt 0.446097 0.540434
vt 0.118130 0.540112
vt 0.920694 0.781866
vt 0.960339 0.791817
vt 0.961075 0.576713
vt 0.678299 0.834569
vt 0.668349 0.874213
vt 0.883452 0.874949
vt 0.530147 0.455651
vt 0.530146 0.952412
vt 0.117451 0.868056
vt 0.033402 0.456078
vt 0.033402 0.952839
vt 0.569364 0.890801
vt 0.875453 0.830874
vt 0.976927 0.890800
vt 0.640393 0.821715
vt 0.907841 0.819772
vt 0.916999 0.584711
vt 0.976927 0.483238
vt 0.905897 0.552324
vt 0.670838 0.543165
vt 0.569364 0.483239
vt 0.638450 0.554267
vt 0.629292 0.789327
vt 0.686497 0.602403
s 1
f 28/1/1 17/2/1 23/3/1
f 19/4/2 20/5/2 10/6/2
f 22/7/3 21/8/3 14/9/3
f 2/10/4 6/11/4 8/12/4
f 15/13/5 13/14/5 12/15/5
f 5/16/6 9/17/6 11/18/6
f 8/12/7 6/11/7 25/19/7
f 6/11/8 2/10/8 18/20/8
f 4/21/9 8/12/9 26/22/9
f 2/10/10 4/21/10 24/23/10
f 11/18/11 9/17/11 25/24/11
f 1/25/12 11/18/12 18/26/12
f 9/17/13 5/16/13 32/27/13
f 5/16/14 1/25/14 31/28/14
f 13/14/15 15/13/15 31/28/15
f 3/29/16 12/15/16 24/30/16
f 15/13/17 3/29/17 29/31/17
f 12/15/18 13/14/18 18/26/18
f 7/32/19 10/6/19 26/33/19
f 20/5/20 19/4/20 29/31/20
f 19/4/21 7/32/21 30/34/21
f 10/6/22 20/5/22 24/30/22
f 14/9/23 21/8/23 26/33/23
f 21/8/24 22/7/24 30/34/24
f 16/35/25 14/9/25 25/24/25
f 22/7/26 16/35/26 32/27/26
f 27/36/27 23/3/27 29/31/27
f 23/3/28 17/2/28 31/28/28
f 28/1/29 27/36/29 30/34/29
f 17/2/30 28/1/30 32/27/30
f 28/1/1 23/3/1 27/36/1
f 19/4/2 10/6/2 7/32/2
f 22/7/3 14/9/3 16/35/3
f 2/10/4 8/12/4 4/21/4
f 15/13/5 12/15/5 3/29/5
f 5/16/6 11/18/6 1/25/6
f 8/12/7 25/19/7 26/22/7
f 6/11/8 18/20/8 25/19/8
f 4/21/9 26/22/9 24/23/9
f 2/10/10 24/23/10 18/20/10
f 11/18/11 25/24/11 18/26/11
f 1/25/12 18/26/12 31/28/12
f 9/17/13 32/27/13 25/24/13
f 5/16/14 31/28/14 32/27/14
f 13/14/15 31/28/15 18/26/15
f 3/29/16 24/30/16 29/31/16
f 15/13/17 29/31/17 31/28/17
f 12/15/18 18/26/18 24/30/18
f 7/32/19 26/33/19 30/34/19
f 20/5/20 29/31/20 24/30/20
f 19/4/21 30/34/21 29/31/21
f 10/6/22 24/30/22 26/33/22
f 14/9/23 26/33/23 25/24/23
f 21/8/24 30/34/24 26/33/24
f 16/35/25 25/24/25 32/27/25
f 22/7/26 32/27/26 30/34/26
f 27/36/27 29/31/27 30/34/27
f 23/3/28 31/28/28 29/31/28
f 28/1/29 30/34/29 32/27/29
f 17/2/30 32/27/30 31/28/30
