# Blender 4.5.3 LTS
# www.blender.org
o Cube.001
v -1.000000 -1.000000 0.060661
v -1.000000 -1.000000 3.920504
v -1.000000 1.000000 0.060661
v -1.000000 1.000000 3.920504
v 1.000000 -1.000000 0.060661
v 1.000000 -1.000000 3.920504
v 1.000000 1.000000 0.060661
v 1.000000 1.000000 3.920504
v -11.606602 -11.606602 2.151088
v -11.192571 -11.192571 3.920504
v -11.567744 -11.567744 2.808613
v -11.475669 -11.475669 3.360950
v -11.346426 -11.346426 3.754446
v -11.192571 11.192571 3.920504
v -11.606602 11.606602 2.151088
v -11.346426 11.346426 3.754446
v -11.475669 11.475669 3.360950
v -11.567744 11.567744 2.808613
v 11.192571 11.192571 3.920504
v 11.606602 11.606602 2.151088
v 11.346426 11.346426 3.754446
v 11.475669 11.475669 3.360950
v 11.567744 11.567744 2.808613
v 11.192571 -11.192571 3.920504
v 11.606602 -11.606602 2.151088
v 11.346426 -11.346426 3.754446
v 11.475669 -11.475669 3.360950
v 11.567744 -11.567744 2.808613
v -11.606602 11.606602 1.925456
v -11.170253 11.170253 0.060661
v -11.565652 11.565652 1.232487
v -11.468614 11.468614 0.650378
v -11.332403 11.332403 0.235670
v -11.170253 -11.170253 0.060661
v -11.606602 -11.606602 1.925456
v -11.332403 -11.332403 0.235670
v -11.468614 -11.468614 0.650378
v -11.565652 -11.565652 1.232487
v 11.606602 11.606602 1.925456
v 11.170253 11.170253 0.060661
v 11.565652 11.565652 1.232487
v 11.468614 11.468614 0.650378
v 11.332403 11.332403 0.235670
v 11.606602 -11.606602 1.925456
v 11.170253 -11.170253 0.060661
v 11.565652 -11.565652 1.232487
v 11.468614 -11.468614 0.650378
v 11.332403 -11.332403 0.235670
vn -0.0000 -0.0000 -1.0000
vn -0.0000 -0.0000 1.0000
vn -0.7335 -0.0000 0.6796
vn -0.9501 -0.0000 0.3120
vn -0.9864 -0.0000 0.1644
vn -0.9983 -0.0000 0.0590
vn -0.0000 0.7335 0.6796
vn -0.0000 0.9501 0.3120
vn -0.0000 0.9864 0.1644
vn -0.0000 0.9983 0.0590
vn 0.7335 -0.0000 0.6796
vn 0.9501 -0.0000 0.3120
vn 0.9864 -0.0000 0.1644
vn 0.9983 -0.0000 0.0590
vn -0.0000 -0.7335 0.6796
vn -0.0000 -0.9501 0.3120
vn -0.0000 -0.9864 0.1644
vn -0.0000 -0.9983 0.0590
vn -0.7335 -0.0000 -0.6796
vn -0.9501 -0.0000 -0.3120
vn -0.9864 -0.0000 -0.1644
vn -0.9983 -0.0000 -0.0590
vn -0.0000 0.7335 -0.6796
vn -0.0000 0.9501 -0.3121
vn -0.0000 0.9864 -0.1644
vn -0.0000 0.9983 -0.0590
vn 0.7335 -0.0000 -0.6796
vn 0.9501 -0.0000 -0.3120
vn 0.9864 -0.0000 -0.1644
vn 0.9983 -0.0000 -0.0590
vn -0.0000 -0.7335 -0.6796
vn -0.0000 -0.9501 -0.3121
vn -0.0000 -0.9864 -0.1644
vn -0.0000 -0.9983 -0.0590
vn -0.0000 1.0000 -0.0000
vn -1.0000 -0.0000 -0.0000
vn -0.0000 -1.0000 -0.0000
vn 1.0000 -0.0000 -0.0000
vn -0.0000 0.7336 0.6796
vn -0.0000 0.9501 0.3121
vn -0.0000 -0.7336 0.6796
vn -0.0000 -0.9501 0.3121
vn -0.0000 0.9501 -0.3120
vn -0.0000 -0.9501 -0.3120
vt 0.375000 0.500000
vt 0.125000 0.750000
vt 0.125000 0.500000
vt 0.875000 0.500000
vt 0.625000 0.750000
vt 0.625000 0.500000
vt 0.875000 0.500000
vt 0.875000 0.750000
vt 0.875000 0.750000
vt 0.875000 0.500000
vt 0.874295 0.749295
vt 0.625000 0.250000
vt 0.552983 0.000418
vt 0.625000 0.001410
vt 0.552983 0.250000
vt 0.510396 0.000000
vt 0.625000 0.500000
vt 0.625000 0.500000
vt 0.874295 0.500705
vt 0.625351 0.500351
vt 0.552983 0.500000
vt 0.510396 0.250000
vt 0.625000 0.750000
vt 0.625351 0.749649
vt 0.552983 0.750000
vt 0.510396 0.500000
vt 0.625000 0.998590
vt 0.552983 0.999582
vt 0.510396 0.750000
vt 0.875000 0.750000
vt 0.125000 0.750000
vt 0.125000 0.750000
vt 0.125743 0.500743
vt 0.375000 0.001486
vt 0.450899 0.250000
vt 0.375000 0.250000
vt 0.450899 0.000441
vt 0.495782 0.250000
vt 0.375000 0.500000
vt 0.375000 0.500000
vt 0.374630 0.500370
vt 0.450899 0.500000
vt 0.495782 0.500000
vt 0.375000 0.750000
vt 0.375000 0.750000
vt 0.374630 0.749630
vt 0.450899 0.750000
vt 0.495782 0.750000
vt 0.125743 0.749257
vt 0.450898 0.999559
vt 0.375000 0.998514
vt 0.495782 1.000000
vt 0.495782 0.000000
vt 0.510396 1.000000
s 0
f 7/1/1 1/2/1 3/3/1
f 4/4/2 6/5/2 8/6/2
f 14/7/3 13/8/3 10/9/3
f 16/10/4 12/11/4 13/8/4
f 17/12/5 11/13/5 12/14/5
f 18/15/6 9/16/6 11/13/6
f 19/17/7 16/10/7 14/7/7
f 21/18/8 17/19/8 16/10/8
f 22/20/9 18/15/9 17/12/9
f 23/21/10 15/22/10 18/15/10
f 24/23/11 21/18/11 19/17/11
f 26/5/12 22/20/12 21/18/12
f 27/24/13 23/21/13 22/20/13
f 28/25/14 20/26/14 23/21/14
f 10/9/15 26/5/15 24/23/15
f 13/8/16 27/24/16 26/5/16
f 12/27/17 28/25/17 27/24/17
f 11/28/18 25/29/18 28/25/18
f 4/4/2 10/9/2 2/30/2
f 2/30/2 24/23/2 6/5/2
f 8/6/2 14/7/2 4/4/2
f 6/5/2 19/17/2 8/6/2
f 34/31/19 33/3/19 30/3/19
f 36/32/20 32/33/20 33/3/20
f 37/34/21 31/35/21 32/36/21
f 38/37/22 29/38/22 31/35/22
f 30/3/23 43/39/23 40/40/23
f 33/3/24 42/41/24 43/39/24
f 32/36/25 41/42/25 42/41/25
f 31/35/26 39/43/26 41/42/26
f 40/40/27 48/44/27 45/45/27
f 43/39/28 47/46/28 48/44/28
f 42/41/29 46/47/29 47/46/29
f 41/42/30 44/48/30 46/47/30
f 45/45/31 36/32/31 34/31/31
f 48/44/32 37/49/32 36/32/32
f 47/46/33 38/50/33 37/51/33
f 46/47/34 35/52/34 38/50/34
f 3/3/1 40/40/1 7/1/1
f 15/22/35 39/43/35 29/38/35
f 1/2/1 30/3/1 3/3/1
f 9/16/36 29/38/36 35/53/36
f 5/45/1 34/31/1 1/2/1
f 25/29/37 35/52/37 44/48/37
f 7/1/1 45/45/1 5/45/1
f 20/26/38 44/48/38 39/43/38
f 7/1/1 5/45/1 1/2/1
f 4/4/2 2/30/2 6/5/2
f 14/7/3 16/10/3 13/8/3
f 16/10/4 17/19/4 12/11/4
f 17/12/5 18/15/5 11/13/5
f 18/15/6 15/22/6 9/16/6
f 19/17/39 21/18/39 16/10/39
f 21/18/40 22/20/40 17/19/40
f 22/20/9 23/21/9 18/15/9
f 23/21/10 20/26/10 15/22/10
f 24/23/11 26/5/11 21/18/11
f 26/5/12 27/24/12 22/20/12
f 27/24/13 28/25/13 23/21/13
f 28/25/14 25/29/14 20/26/14
f 10/9/41 13/8/41 26/5/41
f 13/8/42 12/11/42 27/24/42
f 12/27/17 11/28/17 28/25/17
f 11/28/18 9/54/18 25/29/18
f 4/4/2 14/7/2 10/9/2
f 2/30/2 10/9/2 24/23/2
f 8/6/2 19/17/2 14/7/2
f 6/5/2 24/23/2 19/17/2
f 34/31/19 36/32/19 33/3/19
f 36/32/20 37/49/20 32/33/20
f 37/34/21 38/37/21 31/35/21
f 38/37/22 35/53/22 29/38/22
f 30/3/23 33/3/23 43/39/23
f 33/3/43 32/33/43 42/41/43
f 32/36/25 31/35/25 41/42/25
f 31/35/26 29/38/26 39/43/26
f 40/40/27 43/39/27 48/44/27
f 43/39/28 42/41/28 47/46/28
f 42/41/29 41/42/29 46/47/29
f 41/42/30 39/43/30 44/48/30
f 45/45/31 48/44/31 36/32/31
f 48/44/44 47/46/44 37/49/44
f 47/46/33 46/47/33 38/50/33
f 46/47/34 44/48/34 35/52/34
f 3/3/1 30/3/1 40/40/1
f 15/22/35 20/26/35 39/43/35
f 1/2/1 34/31/1 30/3/1
f 9/16/36 15/22/36 29/38/36
f 5/45/1 45/45/1 34/31/1
f 25/29/37 9/54/37 35/52/37
f 7/1/1 40/40/1 45/45/1
f 20/26/38 25/29/38 44/48/38
