# Blender 4.5.3 LTS
# www.blender.org
mtllib 2.mtl
o Plane
v -254.159348 -254.159348 -24.999998
v 254.159348 -254.159348 -24.999998
v -254.159348 254.159348 -24.999998
v 254.159348 254.159348 -24.999998
v -254.159348 0.000000 -24.999998
v 0.000000 -254.159348 -24.999998
v 254.159348 0.000000 -24.999998
v 0.000000 254.159348 -24.999998
v 0.000000 0.000000 -24.999998
v -254.159348 -127.079674 -24.999998
v 127.079674 -254.159348 -24.999998
v 254.159348 127.079674 -24.999998
v -127.079674 254.159348 -24.999998
v -254.159348 127.079674 -24.999998
v -127.079674 -254.159348 -24.999998
v 254.159348 -127.079674 -24.999998
v 127.079674 254.159348 -24.999998
v 0.000000 127.079674 -24.999998
v 0.000000 -127.079674 -24.999998
v -127.079674 0.000000 -24.999998
v 127.079674 0.000000 -24.999998
v 127.079674 -127.079674 -24.999998
v -127.079674 -127.079674 -24.999998
v -127.079674 127.079674 -24.999998
v 127.079674 127.079674 -24.999998
v -254.159348 -190.619507 -24.999998
v 190.619507 -254.159348 -24.999998
v 254.159348 190.619507 -24.999998
v -190.619507 254.159348 -24.999998
v -254.159348 63.539837 -24.999998
v -63.539837 -254.159348 -24.999998
v 254.159348 -63.539837 -24.999998
v 63.539837 254.159348 -24.999998
v 0.000000 190.619507 -24.999998
v 0.000000 -63.539837 -24.999998
v -190.619507 0.000000 -24.999998
v 63.539837 0.000000 -24.999998
v -254.159348 -63.539837 -24.999998
v 63.539837 -254.159348 -24.999998
v 254.159348 63.539837 -24.999998
v -63.539837 254.159348 -24.999998
v -254.159348 190.619507 -24.999998
v -190.619507 -254.159348 -24.999998
v 254.159348 -190.619507 -24.999998
v 190.619507 254.159348 -24.999998
v 0.000000 63.539837 -24.999998
v 0.000000 -190.619507 -24.999998
v -63.539837 0.000000 -24.999998
v 190.619507 0.000000 -24.999998
v 127.079674 -63.539837 -24.999998
v 127.079674 -190.619507 -24.999998
v 63.539837 -127.079674 -24.999998
v 190.619507 -127.079674 -24.999998
v -127.079674 -63.539837 -24.999998
v -127.079674 -190.619507 -24.999998
v -190.619507 -127.079674 -24.999998
v -63.539837 -127.079674 -24.999998
v -127.079674 190.619507 -24.999998
v -127.079674 63.539837 -24.999998
v -190.619507 127.079674 -24.999998
v -63.539837 127.079674 -24.999998
v 127.079674 190.619507 -24.999998
v 127.079674 63.539837 -24.999998
v 63.539837 127.079674 -24.999998
v 190.619507 127.079674 -24.999998
v 190.619507 63.539837 -24.999998
v 63.539837 63.539837 -24.999998
v 63.539837 190.619507 -24.999998
v -63.539837 63.539837 -24.999998
v -190.619507 63.539837 -24.999998
v -190.619507 190.619507 -24.999998
v -63.539837 -190.619507 -24.999998
v -190.619507 -190.619507 -24.999998
v -190.619507 -63.539837 -24.999998
v 190.619507 -190.619507 -24.999998
v 63.539837 -190.619507 -24.999998
v 63.539837 -63.539837 -24.999998
v 190.619507 -63.539837 -24.999998
v -63.539837 -63.539837 -24.999998
v -63.539837 190.619507 -24.999998
v 190.619507 190.619507 -24.999998
v -254.159348 -254.159348 153.597931
v 254.159348 -254.159348 153.597931
v -254.159348 254.159348 153.597931
v 254.159348 254.159348 153.597931
v -254.159348 0.000000 153.597931
v 0.000000 -254.159348 153.597931
v 254.159348 0.000000 153.597931
v 0.000000 254.159348 153.597931
v -254.159348 -127.079674 153.597931
v 127.079674 -254.159348 153.597931
v 254.159348 127.079674 153.597931
v -127.079674 254.159348 153.597931
v -254.159348 127.079674 153.597931
v -127.079674 -254.159348 153.597931
v 254.159348 -127.079674 153.597931
v 127.079674 254.159348 153.597931
v -254.159348 -190.619507 153.597931
v 190.619507 -254.159348 153.597931
v 254.159348 190.619507 153.597931
v -190.619507 254.159348 153.597931
v -254.159348 63.539837 153.597931
v -63.539837 -254.159348 153.597931
v 254.159348 -63.539837 153.597931
v 63.539837 254.159348 153.597931
v 0.000000 190.619507 153.597931
v -190.619507 0.000000 153.597931
v -254.159348 -63.539837 153.597931
v 63.539837 -254.159348 153.597931
v 254.159348 63.539837 153.597931
v -63.539837 254.159348 153.597931
v -254.159348 190.619507 153.597931
v -190.619507 -254.159348 153.597931
v 254.159348 -190.619507 153.597931
v 190.619507 254.159348 153.597931
v 0.000000 -190.619507 153.597931
v 190.619507 0.000000 153.597931
v 127.079674 -190.619507 153.597931
v 190.619507 -127.079674 153.597931
v -127.079674 -190.619507 153.597931
v -190.619507 -127.079674 153.597931
v -127.079674 190.619507 153.597931
v -190.619507 127.079674 153.597931
v 127.079674 190.619507 153.597931
v 190.619507 127.079674 153.597931
v 190.619507 63.539837 153.597931
v 63.539837 190.619507 153.597931
v -190.619507 63.539837 153.597931
v -190.619507 190.619507 153.597931
v -63.539837 -190.619507 153.597931
v -190.619507 -190.619507 153.597931
v -190.619507 -63.539837 153.597931
v 190.619507 -190.619507 153.597931
v 63.539837 -190.619507 153.597931
v 190.619507 -63.539837 153.597931
v -63.539837 190.619507 153.597931
v 190.619507 190.619507 153.597931
v -189.147232 -189.147232 220.787796
v 189.147232 -189.147232 220.787796
v -189.147232 189.147232 220.787796
v 189.147232 189.147232 220.787796
v -189.147232 -0.000000 220.787796
v 0.000000 -189.147232 220.787796
v 189.147232 -0.000000 220.787796
v 0.000000 189.147232 220.787796
v -189.147232 -94.573616 220.787796
v 94.573616 -189.147232 220.787796
v 189.147232 94.573616 220.787796
v -94.573616 189.147232 220.787796
v -189.147232 94.573616 220.787796
v -94.573616 -189.147232 220.787796
v 189.147232 -94.573616 220.787796
v 94.573616 189.147232 220.787796
v -189.147232 -141.860413 220.787796
v 141.860413 -189.147232 220.787796
v 189.147232 141.860413 220.787796
v -141.860413 189.147232 220.787796
v -189.147232 47.286808 220.787796
v -47.286808 -189.147232 220.787796
v 189.147232 -47.286808 220.787796
v 47.286808 189.147232 220.787796
v 0.000000 -0.000001 220.787842
v -189.147232 -47.286808 220.787796
v 47.286808 -189.147232 220.787796
v 189.147232 47.286808 220.787796
v -47.286808 189.147232 220.787796
v -189.147232 141.860413 220.787796
v -141.860413 -189.147232 220.787796
v 189.147232 -141.860413 220.787796
v 141.860413 189.147232 220.787796
vn -0.0000 -1.0000 -0.0000
vn -1.0000 -0.0000 -0.0000
vn -0.0000 -0.0000 1.0000
vn 1.0000 -0.0000 -0.0000
vn -0.0000 1.0000 -0.0000
vn 0.7187 -0.0000 0.6954
vn 0.3324 -0.0000 -0.9431
vn -0.0000 -0.7187 0.6954
vn -0.0000 -0.3324 -0.9431
vn -0.7187 -0.0000 0.6954
vn -0.0000 0.7187 0.6954
vn -0.3324 -0.0000 -0.9431
vn -0.0000 0.3324 -0.9431
vt 0.625000 0.875000
vt 0.500000 0.875000
vt 0.875000 0.125000
vt 0.875000 0.250000
vt 0.500000 0.375000
vt 0.375000 0.500000
vt 0.375000 0.375000
vt 0.875000 0.875000
vt 0.750000 0.875000
vt 0.750000 0.375000
vt 0.625000 0.500000
vt 0.625000 0.375000
vt 0.750000 0.125000
vt 0.625000 0.250000
vt 0.625000 0.125000
vt 0.875000 0.750000
vt 0.250000 0.375000
vt 0.125000 0.500000
vt 0.125000 0.375000
vt 0.250000 0.125000
vt 0.125000 0.250000
vt 0.125000 0.125000
vt 0.500000 0.125000
vt 0.375000 0.250000
vt 0.375000 0.125000
vt 0.250000 0.625000
vt 0.125000 0.750000
vt 0.125000 0.625000
vt 0.500000 0.625000
vt 0.375000 0.750000
vt 0.375000 0.625000
vt 0.375000 0.875000
vt 0.750000 0.625000
vt 0.625000 0.750000
vt 0.625000 0.625000
vt 0.875000 0.625000
vt 0.750000 0.750000
vt 0.875000 0.500000
vt 0.750000 0.500000
vt 0.000000 0.000000
vt 0.500000 0.750000
vt 0.500000 0.500000
vt 0.250000 0.875000
vt 0.250000 0.750000
vt 0.250000 0.500000
vt 0.125000 0.875000
vt 0.250000 0.250000
vt 0.750000 0.250000
vt 0.500000 0.250000
vt 0.875000 0.375000
vt 1.000000 0.875000
vt 0.875000 1.000000
vt 0.500000 1.000000
vt 0.375000 1.000000
vt 1.000000 0.375000
vt 1.000000 0.500000
vt 1.000000 0.125000
vt 1.000000 0.250000
vt 0.250000 1.000000
vt 0.125000 1.000000
vt 0.750000 1.000000
vt 0.625000 1.000000
vt 1.000000 0.625000
vt 1.000000 0.750000
vt 0.000000 0.625000
vt 0.000000 0.750000
vt 0.000000 0.500000
vt 0.000000 0.875000
vt 0.000000 1.000000
vt 0.250000 0.000000
vt 0.375000 0.000000
vt 0.500000 0.000000
vt 0.000000 0.125000
vt 0.000000 0.250000
vt 0.125000 0.000000
vt 0.000000 0.375000
vt 0.750000 0.000000
vt 0.875000 0.000000
vt 0.625000 0.000000
vt 1.000000 1.000000
vt 1.000000 0.000000
s 0
f 68/1/1 106/2/1 34/2/1
f 75/3/2 119/4/2 53/4/2
f 35/5/3 48/6/3 79/7/3
f 81/8/1 124/9/1 62/9/1
f 50/10/3 37/11/3 77/12/3
f 51/13/3 52/14/3 76/15/3
f 65/16/2 137/8/2 81/8/2
f 54/17/3 36/18/3 74/19/3
f 55/20/3 56/21/3 73/22/3
f 47/23/3 57/24/3 72/25/3
f 74/19/4 121/21/4 56/21/4
f 59/26/3 60/27/3 70/28/3
f 46/29/3 61/30/3 69/31/3
f 34/2/1 136/32/1 80/32/1
f 63/33/3 64/34/3 67/35/3
f 36/18/4 132/19/4 74/19/4
f 66/36/3 25/37/3 63/33/3
f 49/38/3 63/33/3 21/39/3
f 8/40/5 105/40/5 33/40/5
f 67/35/3 18/41/3 46/29/3
f 37/11/3 46/29/3 9/42/3
f 21/39/3 67/35/3 37/11/3
f 80/32/1 122/43/1 58/43/1
f 64/34/3 34/2/3 18/41/3
f 25/37/3 68/1/3 64/34/3
f 69/31/3 24/44/3 59/26/3
f 48/6/3 59/26/3 20/45/3
f 9/42/3 69/31/3 48/6/3
f 45/40/5 85/40/5 4/40/5
f 73/22/5 120/20/5 55/20/5
f 20/45/3 70/28/3 36/18/3
f 7/40/4 104/40/4 32/40/4
f 44/40/4 83/40/4 2/40/4
f 24/44/3 71/46/3 60/27/3
f 72/25/3 23/47/3 55/20/3
f 6/40/1 103/40/1 31/40/1
f 43/40/1 82/40/1 1/40/1
f 5/40/2 102/40/2 30/40/2
f 42/40/2 84/40/2 3/40/2
f 56/21/4 131/22/4 73/22/4
f 3/40/5 101/40/5 29/40/5
f 41/40/5 89/40/5 8/40/5
f 23/47/3 74/19/3 56/21/3
f 75/3/3 22/48/3 51/13/3
f 49/38/2 126/36/2 66/36/2
f 72/25/5 116/23/5 47/23/5
f 76/15/3 19/49/3 47/23/3
f 4/40/4 100/40/4 28/40/4
f 40/40/4 88/40/4 7/40/4
f 77/12/3 9/42/3 35/5/3
f 52/14/3 35/5/3 19/49/3
f 22/48/3 77/12/3 52/14/3
f 78/50/3 21/39/3 50/10/3
f 53/4/3 50/10/3 22/48/3
f 66/36/2 125/16/2 65/16/2
f 79/7/3 20/45/3 54/17/3
f 57/24/3 54/17/3 23/47/3
f 19/49/3 79/7/3 57/24/3
f 55/20/5 130/25/5 72/25/5
f 61/30/3 58/43/3 24/44/3
f 18/41/3 80/32/3 61/30/3
f 2/40/1 99/40/1 27/40/1
f 65/16/3 62/9/3 25/37/3
f 39/40/1 87/40/1 6/40/1
f 104/40/6 152/40/6 96/40/6
f 123/27/7 129/46/7 162/27/7
f 99/40/8 139/40/8 155/40/8
f 103/40/8 151/40/8 95/40/8
f 136/32/9 106/2/9 162/32/9
f 98/40/10 138/40/10 154/40/10
f 102/40/10 150/40/10 94/40/10
f 122/43/9 136/32/9 162/43/9
f 93/40/11 157/40/11 149/40/11
f 107/18/7 128/28/7 162/18/7
f 92/40/6 156/40/6 148/40/6
f 128/28/7 123/27/7 162/28/7
f 91/40/8 155/40/8 147/40/8
f 127/1/9 124/9/9 162/1/9
f 135/50/12 119/4/12 162/50/12
f 90/40/10 154/40/10 146/40/10
f 106/2/9 127/1/9 162/2/9
f 117/38/12 135/50/12 162/38/12
f 118/13/13 134/15/13 162/13/13
f 134/15/13 116/23/13 162/15/13
f 126/36/12 117/38/12 162/36/12
f 125/16/12 126/36/12 162/16/12
f 97/40/11 170/40/11 115/40/11
f 133/3/13 118/13/13 162/3/13
f 96/40/6 169/40/6 114/40/6
f 95/40/8 168/40/8 113/40/8
f 119/4/12 133/3/12 162/4/12
f 94/40/10 167/40/10 112/40/10
f 10/40/2 108/40/2 38/40/2
f 62/9/1 127/1/1 68/1/1
f 11/40/1 109/40/1 39/40/1
f 51/13/5 133/3/5 75/3/5
f 26/40/2 90/40/2 10/40/2
f 12/40/4 110/40/4 40/40/4
f 27/40/1 91/40/1 11/40/1
f 13/40/5 111/40/5 41/40/5
f 28/40/4 92/40/4 12/40/4
f 14/40/2 112/40/2 42/40/2
f 29/40/5 93/40/5 13/40/5
f 15/40/1 113/40/1 43/40/1
f 47/23/5 134/15/5 76/15/5
f 60/27/4 128/28/4 70/28/4
f 30/40/2 94/40/2 14/40/2
f 16/40/4 114/40/4 44/40/4
f 76/15/5 118/13/5 51/13/5
f 70/28/4 107/18/4 36/18/4
f 31/40/1 95/40/1 15/40/1
f 17/40/5 115/40/5 45/40/5
f 32/40/4 96/40/4 16/40/4
f 33/40/5 97/40/5 17/40/5
f 71/46/4 123/27/4 60/27/4
f 78/50/2 117/38/2 49/38/2
f 53/4/2 135/50/2 78/50/2
f 58/43/1 129/46/1 71/46/1
f 38/40/2 86/40/2 5/40/2
f 1/40/2 98/40/2 26/40/2
f 156/51/3 170/52/3 162/8/3
f 162/2/3 145/53/3 166/54/3
f 162/50/3 160/55/3 144/56/3
f 162/3/3 169/57/3 152/58/3
f 162/43/3 149/59/3 157/60/3
f 162/9/3 153/61/3 161/62/3
f 162/36/3 165/63/3 148/64/3
f 162/38/3 144/56/3 165/63/3
f 162/1/3 161/62/3 145/53/3
f 158/65/3 162/27/3 150/66/3
f 142/67/3 162/28/3 158/65/3
f 167/68/3 157/60/3 140/69/3
f 150/66/3 162/46/3 167/68/3
f 151/70/3 159/71/3 162/20/3
f 159/71/3 143/72/3 162/25/3
f 154/73/3 162/21/3 146/74/3
f 168/75/3 154/73/3 138/40/3
f 168/75/3 151/70/3 162/22/3
f 163/76/3 162/18/3 142/67/3
f 146/74/3 162/19/3 163/76/3
f 147/77/3 155/78/3 162/13/3
f 155/78/3 169/57/3 162/3/3
f 143/72/3 164/79/3 162/23/3
f 164/79/3 147/77/3 162/15/3
f 162/4/3 152/58/3 160/55/3
f 162/32/3 166/54/3 149/59/3
f 162/8/3 170/52/3 153/61/3
f 162/16/3 148/64/3 156/51/3
f 100/40/6 141/40/6 156/40/6
f 137/8/12 125/16/12 162/8/12
f 105/40/11 153/40/11 97/40/11
f 101/40/11 140/40/11 157/40/11
f 124/9/9 137/8/9 162/9/9
f 129/46/9 122/43/9 162/46/9
f 86/40/10 163/40/10 142/40/10
f 86/40/10 158/40/10 102/40/10
f 87/40/8 164/40/8 143/40/8
f 87/40/8 159/40/8 103/40/8
f 130/25/13 120/20/13 162/25/13
f 88/40/6 165/40/6 144/40/6
f 88/40/6 160/40/6 104/40/6
f 116/23/13 130/25/13 162/23/13
f 89/40/11 166/40/11 145/40/11
f 89/40/11 161/40/11 105/40/11
f 131/22/7 121/21/7 162/22/7
f 112/40/10 140/40/10 84/40/10
f 113/40/8 138/40/8 82/40/8
f 114/40/6 139/40/6 83/40/6
f 108/40/10 146/40/10 163/40/10
f 120/20/13 131/22/13 162/20/13
f 115/40/11 141/40/11 85/40/11
f 109/40/8 147/40/8 164/40/8
f 132/19/7 107/18/7 162/19/7
f 110/40/6 148/40/6 165/40/6
f 121/21/7 132/19/7 162/21/7
f 111/40/11 149/40/11 166/40/11
f 68/1/1 127/1/1 106/2/1
f 75/3/2 133/3/2 119/4/2
f 35/5/3 9/42/3 48/6/3
f 81/8/1 137/8/1 124/9/1
f 50/10/3 21/39/3 37/11/3
f 51/13/3 22/48/3 52/14/3
f 65/16/2 125/16/2 137/8/2
f 54/17/3 20/45/3 36/18/3
f 55/20/3 23/47/3 56/21/3
f 47/23/3 19/49/3 57/24/3
f 74/19/4 132/19/4 121/21/4
f 59/26/3 24/44/3 60/27/3
f 46/29/3 18/41/3 61/30/3
f 34/2/1 106/2/1 136/32/1
f 63/33/3 25/37/3 64/34/3
f 36/18/4 107/18/4 132/19/4
f 66/36/3 65/16/3 25/37/3
f 49/38/3 66/36/3 63/33/3
f 8/40/5 89/40/5 105/40/5
f 67/35/3 64/34/3 18/41/3
f 37/11/3 67/35/3 46/29/3
f 21/39/3 63/33/3 67/35/3
f 80/32/1 136/32/1 122/43/1
f 64/34/3 68/1/3 34/2/3
f 25/37/3 62/9/3 68/1/3
f 69/31/3 61/30/3 24/44/3
f 48/6/3 69/31/3 59/26/3
f 9/42/3 46/29/3 69/31/3
f 45/40/5 115/40/5 85/40/5
f 73/22/5 131/22/5 120/20/5
f 20/45/3 59/26/3 70/28/3
f 7/40/4 88/40/4 104/40/4
f 44/40/4 114/40/4 83/40/4
f 24/44/3 58/43/3 71/46/3
f 72/25/3 57/24/3 23/47/3
f 6/40/1 87/40/1 103/40/1
f 43/40/1 113/40/1 82/40/1
f 5/40/2 86/40/2 102/40/2
f 42/40/2 112/40/2 84/40/2
f 56/21/4 121/21/4 131/22/4
f 3/40/5 84/40/5 101/40/5
f 41/40/5 111/40/5 89/40/5
f 23/47/3 54/17/3 74/19/3
f 75/3/3 53/4/3 22/48/3
f 49/38/2 117/38/2 126/36/2
f 72/25/5 130/25/5 116/23/5
f 76/15/3 52/14/3 19/49/3
f 4/40/4 85/40/4 100/40/4
f 40/40/4 110/40/4 88/40/4
f 77/12/3 37/11/3 9/42/3
f 52/14/3 77/12/3 35/5/3
f 22/48/3 50/10/3 77/12/3
f 78/50/3 49/38/3 21/39/3
f 53/4/3 78/50/3 50/10/3
f 66/36/2 126/36/2 125/16/2
f 79/7/3 48/6/3 20/45/3
f 57/24/3 79/7/3 54/17/3
f 19/49/3 35/5/3 79/7/3
f 55/20/5 120/20/5 130/25/5
f 61/30/3 80/32/3 58/43/3
f 18/41/3 34/2/3 80/32/3
f 2/40/1 83/40/1 99/40/1
f 65/16/3 81/8/3 62/9/3
f 39/40/1 109/40/1 87/40/1
f 104/40/6 160/40/6 152/40/6
f 99/40/8 83/40/8 139/40/8
f 103/40/8 159/40/8 151/40/8
f 98/40/10 82/40/10 138/40/10
f 102/40/10 158/40/10 150/40/10
f 93/40/11 101/40/11 157/40/11
f 92/40/6 100/40/6 156/40/6
f 91/40/8 99/40/8 155/40/8
f 90/40/10 98/40/10 154/40/10
f 97/40/11 153/40/11 170/40/11
f 96/40/6 152/40/6 169/40/6
f 95/40/8 151/40/8 168/40/8
f 94/40/10 150/40/10 167/40/10
f 10/40/2 90/40/2 108/40/2
f 62/9/1 124/9/1 127/1/1
f 11/40/1 91/40/1 109/40/1
f 51/13/5 118/13/5 133/3/5
f 26/40/2 98/40/2 90/40/2
f 12/40/4 92/40/4 110/40/4
f 27/40/1 99/40/1 91/40/1
f 13/40/5 93/40/5 111/40/5
f 28/40/4 100/40/4 92/40/4
f 14/40/2 94/40/2 112/40/2
f 29/40/5 101/40/5 93/40/5
f 15/40/1 95/40/1 113/40/1
f 47/23/5 116/23/5 134/15/5
f 60/27/4 123/27/4 128/28/4
f 30/40/2 102/40/2 94/40/2
f 16/40/4 96/40/4 114/40/4
f 76/15/5 134/15/5 118/13/5
f 70/28/4 128/28/4 107/18/4
f 31/40/1 103/40/1 95/40/1
f 17/40/5 97/40/5 115/40/5
f 32/40/4 104/40/4 96/40/4
f 33/40/5 105/40/5 97/40/5
f 71/46/4 129/46/4 123/27/4
f 78/50/2 135/50/2 117/38/2
f 53/4/2 119/4/2 135/50/2
f 58/43/1 122/43/1 129/46/1
f 38/40/2 108/40/2 86/40/2
f 1/40/2 82/40/2 98/40/2
f 156/51/3 141/80/3 170/52/3
f 167/68/3 162/46/3 157/60/3
f 168/75/3 162/22/3 154/73/3
f 155/78/3 139/81/3 169/57/3
f 100/40/6 85/40/6 141/40/6
f 105/40/11 161/40/11 153/40/11
f 101/40/11 84/40/11 140/40/11
f 86/40/10 108/40/10 163/40/10
f 86/40/10 142/40/10 158/40/10
f 87/40/8 109/40/8 164/40/8
f 87/40/8 143/40/8 159/40/8
f 88/40/6 110/40/6 165/40/6
f 88/40/6 144/40/6 160/40/6
f 89/40/11 111/40/11 166/40/11
f 89/40/11 145/40/11 161/40/11
f 112/40/10 167/40/10 140/40/10
f 113/40/8 168/40/8 138/40/8
f 114/40/6 169/40/6 139/40/6
f 108/40/10 90/40/10 146/40/10
f 115/40/11 170/40/11 141/40/11
f 109/40/8 91/40/8 147/40/8
f 110/40/6 92/40/6 148/40/6
f 111/40/11 93/40/11 149/40/11
