# Blender 4.5.3 LTS
# www.blender.org
o Dino
v -0.321368 -0.991318 2.623406
v 0.000000 -0.845095 2.608984
v -0.571368 2.568884 2.601686
v 0.321368 1.009589 2.601686
v 0.321368 -0.964417 2.601686
v 0.000000 2.467021 2.608984
v 0.571368 2.568884 2.601686
v -0.321368 1.009589 2.601686
v -0.242145 -1.034707 2.784891
v -0.242145 -1.034707 3.788975
v 0.242145 -1.034707 3.788975
v 0.242145 -1.034707 2.784891
v -0.270555 -1.568678 3.795056
v -0.270555 -1.255335 4.152841
v 0.270555 -1.255335 4.152841
v 0.270555 -1.568678 3.795056
v -0.167440 -2.090397 3.748254
v -0.266491 -1.774815 4.483036
v 0.274618 -1.774815 4.483036
v 0.198674 -2.090397 3.748254
v -0.270555 -1.590360 3.903700
v 0.270555 -1.590360 3.903700
v -0.018906 -2.471804 3.746623
v 0.006095 -2.621709 4.399020
v 0.015104 -2.748539 4.226905
v 0.010885 -2.629977 4.020239
v -0.128832 -2.700615 4.236151
v 0.142038 -2.700873 4.235628
v -0.119690 -2.397925 3.915962
v 0.149279 -2.401947 3.906999
v 0.216537 -1.308255 4.203990
v -0.215389 -1.308255 4.203990
v 0.005439 -1.725154 4.400496
v -0.212146 -1.722916 4.400673
v 0.219781 -1.722916 4.400673
v 0.168919 -1.293217 4.379769
v 0.002890 -2.118779 3.601177
v 0.216536 -1.268769 4.287630
v -0.215391 -1.268769 4.287630
v 0.005438 -1.685668 4.484137
v -0.212147 -1.683430 4.484313
v 0.219779 -1.683430 4.484313
v 0.168918 -1.240493 4.491450
v -0.166765 -1.293217 4.379769
v 0.004859 -1.617222 4.532490
v -0.164244 -1.615483 4.532627
v 0.171440 -1.615483 4.532627
v -0.166767 -1.240493 4.491450
v 0.004857 -1.564498 4.644171
v -0.164246 -1.562759 4.644308
v 0.171439 -1.562759 4.644308
v 0.267330 -1.222457 4.265767
v -0.266545 -1.222782 4.265919
v 0.005443 -1.750895 4.514930
v -0.263147 -1.729557 4.506089
v 0.271140 -1.729228 4.505935
v 0.002184 -1.295175 4.778040
v -0.078292 -0.845095 3.414752
v -0.301251 -0.845095 3.191793
v -0.270145 -0.944881 3.611692
v -0.163614 -0.845095 3.397780
v -0.235947 -0.845095 3.349449
v -0.284279 -0.845095 3.277115
v -0.321368 2.568884 3.223416
v -0.078292 2.467021 3.414752
v -0.284279 2.467021 3.277115
v -0.235947 2.467021 3.349449
v -0.163614 2.467021 3.397780
v 0.301251 -0.845095 3.191793
v 0.078292 -0.845095 3.414752
v 0.270145 -0.944881 3.611692
v 0.284279 -0.845095 3.277115
v 0.235947 -0.845095 3.349449
v 0.163614 -0.845095 3.397780
v 0.078292 2.467021 3.414752
v 0.321368 2.568884 3.223416
v 0.163614 2.467021 3.397780
v 0.235947 2.467021 3.349449
v 0.284279 2.467021 3.277115
v 0.000000 1.005338 2.608984
v -0.321368 0.022586 2.601686
v 0.000000 1.930555 2.608984
v -0.150625 2.467021 2.608984
v 0.000000 0.080121 2.608984
v -0.571368 1.564335 2.563052
v 0.571368 1.564335 2.563052
v -0.150625 -0.872027 2.615619
v 0.321368 0.022586 2.601686
v 0.150625 -0.845095 2.608984
v 0.150625 1.005338 2.608984
v -0.150625 1.005338 2.608984
v 0.150625 2.467021 2.608984
v -0.150625 0.080121 2.608984
v -0.150625 1.511214 2.523147
v 0.150625 0.080121 2.608984
v 0.150625 1.511214 2.523147
v -0.150625 2.467021 2.063140
v -0.551251 2.467021 2.063140
v 0.551251 1.885008 2.125376
v 0.551251 2.467021 2.063140
v -0.551251 1.885008 2.125376
v 0.150625 2.467021 2.063140
v -0.150625 1.885008 2.125376
v 0.150625 1.885008 2.125376
v -0.076158 2.459799 1.866036
v -0.402316 2.459799 1.866036
v 0.402316 2.118605 1.866036
v 0.402316 2.459799 1.866036
v -0.402316 2.118605 1.866036
v 0.076158 2.459799 1.866036
v -0.076158 2.118605 1.866036
v 0.076158 2.118605 1.866036
v -0.076158 2.459799 1.607510
v -0.402316 2.459799 1.607510
v 0.402316 2.118605 1.607510
v 0.402316 2.459799 1.607510
v -0.402316 2.118605 1.607510
v 0.076158 2.459799 1.607510
v -0.076158 2.118605 1.607510
v 0.076158 2.118605 1.607510
v -0.044263 2.454726 0.423389
v -0.338525 2.454726 0.423389
v 0.338525 2.256425 0.423389
v 0.338525 2.454726 0.423389
v -0.338525 2.256425 0.423389
v 0.044263 2.454726 0.423389
v -0.044263 2.256425 0.423389
v 0.044263 2.256425 0.423389
v -0.321368 -0.501746 2.561257
v 0.225938 -0.845095 2.608984
v -0.225938 -0.872027 2.615619
v 0.321368 -0.470916 2.601686
v -0.150625 -0.413102 2.557361
v -0.225938 0.080121 2.608984
v 0.150625 -0.382487 2.608984
v 0.225938 0.080121 2.608984
v 0.225938 -0.382487 2.608984
v -0.225938 -0.413102 2.557361
v -0.268464 -1.099210 2.140462
v -0.312740 -1.292580 2.349783
v 0.140849 -0.757985 2.140244
v 0.187798 -0.757985 2.140244
v -0.266807 -1.292580 2.359499
v -0.220873 -1.292580 2.369215
v -0.176598 -1.099210 2.159894
v 0.093899 -0.469597 2.140244
v 0.093899 -0.757985 2.140244
v 0.187798 -0.469597 2.140244
v 0.140849 -0.469597 2.140244
v -0.222531 -1.099210 2.150177
v -0.284563 -1.385269 2.216571
v -0.302240 -1.462472 2.300143
v 0.140849 -0.834259 1.980181
v 0.187798 -0.834259 1.980181
v -0.256307 -1.462472 2.309859
v -0.210374 -1.462472 2.319574
v -0.192696 -1.385269 2.236002
v 0.093899 -0.719119 1.980181
v 0.093899 -0.834259 1.980181
v 0.187798 -0.719119 1.980181
v 0.140849 -0.719119 1.980181
v -0.238630 -1.385269 2.226287
v -0.253151 -1.553216 2.068066
v -0.270828 -1.630420 2.151639
v 0.140849 -0.834259 1.753804
v 0.187798 -0.834259 1.753804
v -0.224895 -1.630420 2.161354
v -0.178962 -1.630420 2.171070
v -0.161285 -1.553216 2.087498
v 0.093899 -0.719119 1.753804
v 0.093899 -0.834259 1.753804
v 0.187798 -0.719119 1.753804
v 0.140849 -0.719119 1.753804
v -0.207218 -1.553216 2.077782
v -0.321368 0.802233 2.912551
v 0.321368 0.802233 2.912551
v 0.000000 2.522642 2.976291
v -0.078292 3.012492 3.472003
v -0.163614 3.012492 3.455031
v -0.235947 3.012492 3.406700
v -0.284279 3.012492 3.334367
v 0.163614 3.012492 3.455031
v 0.078292 3.012492 3.472003
v 0.235947 3.012492 3.406700
v 0.284279 3.012492 3.334367
v 0.000000 3.068114 3.033543
v -0.036437 4.865843 5.136629
v -0.076146 4.870495 5.130246
v -0.109810 4.883744 5.112068
v -0.132304 4.903572 5.084864
v 0.076146 4.870495 5.130246
v 0.036437 4.865843 5.136629
v 0.109810 4.883744 5.112068
v 0.132304 4.903572 5.084864
v 0.000000 5.006954 4.986970
v -0.251152 -1.735623 2.058614
v 0.140849 -0.834259 1.611999
v 0.187798 -0.834259 1.611999
v -0.205218 -1.735623 2.068330
v -0.159285 -1.735623 2.078045
v 0.093899 -0.834259 1.611999
v -0.248102 -1.580212 2.044196
v -0.249659 -1.729104 2.051557
v -0.243736 -1.615522 2.023556
v -0.242499 -1.656217 2.017707
v -0.244579 -1.696101 2.027540
v -0.157793 -1.729104 2.070988
v -0.156236 -1.580212 2.063627
v -0.152712 -1.696101 2.046972
v -0.150633 -1.656217 2.037139
v -0.151870 -1.615522 2.042988
v 0.093899 -0.719119 1.717416
v 0.093899 -0.824536 1.611999
v 0.093899 -0.727144 1.677075
v 0.093899 -0.749995 1.642875
v 0.093899 -0.784195 1.620024
v 0.187798 -0.824536 1.611999
v 0.187798 -0.719119 1.717416
v 0.187798 -0.784195 1.620024
v 0.187798 -0.749995 1.642875
v 0.187798 -0.727144 1.677075
v 0.140849 -0.719119 1.717416
v 0.140849 -0.824536 1.611999
v 0.140849 -0.727144 1.677075
v 0.140849 -0.749995 1.642875
v 0.140849 -0.784195 1.620024
v -0.202169 -1.580212 2.053912
v -0.203726 -1.729104 2.061273
v -0.197803 -1.615522 2.033272
v -0.196566 -1.656217 2.027423
v -0.198646 -1.696101 2.037256
v 0.005888 -0.829601 1.524542
v 0.007850 -0.829601 1.524542
v -0.060328 -1.797384 2.035506
v -0.058408 -1.797384 2.035912
v 0.003925 -0.829601 1.524542
v -0.062248 -1.797384 2.035099
v 0.005888 -0.829194 1.524542
v 0.003925 -0.829194 1.524542
v 0.007850 -0.829194 1.524542
v -0.060266 -1.797111 2.035210
v -0.062186 -1.797111 2.034804
v -0.058346 -1.797111 2.035616
v -0.271393 -0.971403 3.193920
v 0.271393 -0.971403 3.193920
v -0.266570 -1.212951 4.286803
v -0.235828 -1.228256 4.335510
v -0.264241 -1.209933 4.299396
v -0.257581 -1.211782 4.313075
v -0.247603 -1.218216 4.325756
v -0.232754 -1.678069 4.548721
v -0.263191 -1.719663 4.526944
v -0.244421 -1.689777 4.549260
v -0.254302 -1.701792 4.545310
v -0.260893 -1.712287 4.537474
v 0.005443 -1.741041 4.535804
v 0.005282 -1.697205 4.555933
v 0.005430 -1.733511 4.546217
v 0.005396 -1.722537 4.553699
v 0.005344 -1.709788 4.557111
v 0.240443 -1.677785 4.548600
v 0.271185 -1.719332 4.526789
v 0.252227 -1.689474 4.549126
v 0.262207 -1.701474 4.545165
v 0.268864 -1.711959 4.537322
v 0.237097 -1.227968 4.335363
v 0.267354 -1.212624 4.286651
v 0.248686 -1.217913 4.325606
v 0.258506 -1.211466 4.312923
v 0.265061 -1.209609 4.299244
v 0.081757 -1.226206 4.736020
v 0.168914 -1.188965 4.605342
v 0.115110 -1.200213 4.711963
v 0.143385 -1.184009 4.678681
v 0.162279 -1.180059 4.641241
v -0.166770 -1.188965 4.605342
v -0.078452 -1.226207 4.736021
v -0.160048 -1.180059 4.641241
v -0.140904 -1.184009 4.678681
v -0.112251 -1.200214 4.711964
v 0.004853 -1.512970 4.758063
v 0.003466 -1.381463 4.809132
v 0.004747 -1.491219 4.787903
v 0.004446 -1.458589 4.808086
v 0.003996 -1.420048 4.815540
v -0.077609 -1.380396 4.809114
v -0.164250 -1.511231 4.758201
v -0.110766 -1.418723 4.815581
v -0.138874 -1.457047 4.808177
v -0.157655 -1.489531 4.788027
v 0.083328 -1.380399 4.809114
v 0.171435 -1.511231 4.758201
v 0.117044 -1.418725 4.815582
v 0.145628 -1.457047 4.808177
v 0.164727 -1.489531 4.788028
v -0.044263 2.166623 0.044573
v -0.338525 2.166623 0.044573
v 0.338525 1.702374 0.084535
v 0.338525 2.166623 0.044573
v -0.338525 1.702374 0.084535
v 0.044263 2.166623 0.044573
v -0.044263 1.702374 0.084535
v 0.044263 1.702374 0.084535
v -0.044263 1.902201 0.000212
v -0.338525 1.902201 0.000212
v 0.338525 1.437952 0.040174
v 0.338525 1.902201 0.000212
v -0.338525 1.437952 0.040174
v 0.044263 1.902201 0.000212
v -0.044263 1.437952 0.040174
v 0.044263 1.437952 0.040174
v 0.000000 -1.568678 3.795056
v -0.133832 -1.843729 3.698117
v 0.136722 -1.843729 3.698117
v -0.214230 -2.075444 4.199482
v 0.221713 -2.075489 4.199327
v 0.003224 -2.088645 4.194917
v 0.000000 -0.955156 3.631969
v -0.270555 -1.525038 3.939775
v 0.015104 -2.683217 4.262980
v 0.270555 -1.525038 3.939775
vn -0.0000 -0.0000 -1.0000
vn 0.9983 -0.0488 -0.0326
vn 0.9917 -0.1282 0.0074
vn 0.9985 -0.0068 -0.0535
vn 0.0804 -0.1274 -0.9886
vn 0.0163 -0.1492 -0.9887
vn -0.0379 -0.1672 -0.9852
vn -0.0000 0.2392 0.9710
vn -0.0000 -0.2392 -0.9710
vn -0.4361 0.4600 -0.7734
vn 0.1171 0.5760 -0.8090
vn 0.1689 0.5775 -0.7987
vn 0.0427 -0.0004 -0.9991
vn 0.0478 -0.0039 -0.9989
vn 0.0739 -0.0054 -0.9973
vn -0.0000 0.8551 0.5185
vn 0.4490 -0.0179 -0.8934
vn 0.1036 -0.1363 -0.9852
vn -0.0000 -0.1673 -0.9859
vn 0.0627 0.0733 -0.9953
vn 0.0458 -0.0142 -0.9988
vn 0.5542 -0.0825 -0.8283
vn -0.0804 -0.1274 -0.9886
vn -0.0163 -0.1492 -0.9887
vn -0.1085 -0.1176 -0.9871
vn 0.9984 0.0529 -0.0180
vn 0.9984 0.0529 -0.0205
vn 0.9986 0.0531 -0.0000
vn -0.0000 -0.8841 -0.4673
vn -0.9984 0.0529 -0.0180
vn -0.9984 0.0529 -0.0205
vn -0.9976 0.0526 -0.0460
vn -1.0000 -0.0036 0.0048
vn -0.9928 -0.1177 -0.0235
vn -0.9981 -0.0606 -0.0104
vn -0.5905 0.3588 0.7229
vn 0.2148 0.5209 0.8262
vn -0.6931 0.3045 0.6533
vn 0.9964 -0.0827 -0.0165
vn 1.0000 0.0036 -0.0048
vn 0.9991 -0.0407 -0.0098
vn -0.7988 -0.5544 -0.2335
vn 0.9889 -0.1477 0.0178
vn -0.2263 -0.7898 0.5701
vn -0.6667 -0.2830 0.6895
vn 0.9905 -0.1290 -0.0480
vn 0.8097 0.0510 0.5847
vn 0.0051 -0.1620 -0.9868
vn -0.1609 -0.3019 -0.9397
vn 0.6669 -0.2800 0.6905
vn 0.2503 -0.7731 0.5828
vn -0.7995 0.0405 0.5994
vn 0.1773 -0.3006 -0.9371
vn -0.7496 -0.1302 0.6490
vn -0.9812 -0.1842 -0.0584
vn -0.8665 -0.3359 -0.3692
vn 0.7286 -0.1061 0.6767
vn 0.6629 -0.6146 -0.4275
vn 0.7135 -0.4046 -0.5720
vn 0.2212 0.3201 0.9212
vn 0.2554 0.1802 0.9499
vn 0.0091 0.8433 0.5374
vn -0.0000 0.6950 0.7190
vn 0.5867 0.3674 0.7217
vn -0.2138 0.5186 0.8279
vn -0.2609 0.5164 0.8156
vn -0.2242 0.3166 0.9217
vn -0.2575 0.1817 0.9490
vn -0.2935 -0.0018 0.9560
vn -0.0000 0.9043 -0.4269
vn -1.0000 -0.0064 0.0030
vn 0.0091 -0.9043 0.4269
vn -0.0090 -0.9043 0.4269
vn 1.0000 0.0064 -0.0030
vn -0.0000 0.3324 -0.9431
vn 0.6016 -0.0112 -0.7987
vn 0.5962 -0.3370 -0.7286
vn -0.6561 -0.2525 -0.7112
vn -0.6582 -0.0628 -0.7502
vn 0.0014 -0.4261 -0.9047
vn 0.0007 -0.4277 -0.9039
vn -0.0011 -0.4271 -0.9042
vn -0.0007 -0.4276 -0.9040
vn 0.0010 -0.4274 -0.9041
vn 1.0000 0.0064 -0.0029
vn -1.0000 -0.0064 0.0029
vn 0.0009 -0.4277 -0.9039
vn -0.0000 -0.4263 -0.9046
vn -0.0000 -0.4269 -0.9043
vn -0.0011 -0.4262 -0.9046
vn -0.0775 0.9178 0.3895
vn -0.2156 0.9217 0.3226
vn -0.4134 0.8676 0.2762
vn -0.8719 0.4580 0.1734
vn 0.8719 0.4580 0.1734
vn 0.4134 0.8676 0.2762
vn 0.2156 0.9217 0.3226
vn 0.0775 0.9178 0.3895
vn -0.1951 -0.0000 0.9808
vn -0.5556 -0.0000 0.8315
vn -0.8315 -0.0000 0.5556
vn -0.8337 -0.0099 0.5521
vn -0.9798 -0.0001 0.1999
vn -0.9808 -0.0000 0.1951
vn 0.1951 -0.0000 0.9808
vn 0.5556 -0.0000 0.8315
vn 0.8315 -0.0000 0.5556
vn 0.8337 -0.0099 0.5521
vn 0.9798 -0.0001 0.1999
vn 0.8316 -0.0100 0.5553
vn 0.9704 -0.2281 0.0792
vn 0.9258 -0.0655 0.3723
vn -0.0000 -0.0000 1.0000
vn 0.1418 0.9844 -0.1040
vn 0.1007 0.9922 -0.0739
vn 0.2346 0.9567 -0.1722
vn 0.0555 0.0156 -0.9983
vn 0.2748 0.0772 -0.9584
vn 0.3035 0.0852 -0.9490
vn -0.0427 -0.0004 -0.9991
vn -0.0416 -0.0036 -0.9991
vn -0.0049 -0.0069 -1.0000
vn -0.4490 -0.0179 -0.8934
vn -0.1036 -0.1363 -0.9852
vn -0.4951 -0.0000 -0.8688
vn -0.0555 0.0156 -0.9983
vn -0.2748 0.0772 -0.9584
vn -0.0932 -0.7707 -0.6304
vn -0.0659 -0.7594 -0.6473
vn -0.0000 -0.7287 -0.6848
vn 0.8182 -0.0248 -0.5744
vn 0.8311 -0.0415 -0.5546
vn 0.7978 -0.0000 -0.6029
vn -0.0000 0.9993 -0.0366
vn 0.0932 -0.7707 -0.6304
vn 0.0659 -0.7594 -0.6473
vn 0.1560 -0.7934 -0.5884
vn -1.0000 -0.0000 -0.0000
vn 0.9992 -0.0015 -0.0400
vn 0.9991 -0.0000 -0.0422
vn 0.9993 -0.0039 -0.0366
vn 1.0000 -0.0000 -0.0000
vn -0.9992 -0.0015 -0.0400
vn -0.9991 -0.0000 -0.0422
vn -0.9990 0.0017 -0.0447
vn -0.1418 0.9844 -0.1040
vn -0.1007 0.9922 -0.0739
vn -0.0000 1.0000 -0.0000
vn -0.9426 0.0127 0.3336
vn -0.9488 0.0247 0.3149
vn -0.9525 0.0324 0.3027
vn 0.9426 0.0127 0.3336
vn 0.9488 0.0247 0.3149
vn 0.9355 -0.0000 0.3534
vn -0.8182 -0.0248 -0.5744
vn -0.8311 -0.0415 -0.5546
vn -0.8426 -0.0573 -0.5355
vn -0.0000 -0.7430 -0.6693
vn -0.0000 -0.9933 -0.1156
vn -0.0000 1.0000 -0.0022
vn -0.0000 1.0000 -0.0043
vn -0.0000 1.0000 -0.0021
vn -0.0000 -1.0000 -0.0000
vn 0.9986 -0.0000 -0.0538
vn -0.9996 -0.0000 0.0269
vn 0.9996 -0.0000 0.0269
vn -0.9986 -0.0000 -0.0538
vn -0.0000 -0.9832 -0.1827
vn -0.0763 -0.0000 -0.9971
vn -0.0762 -0.0000 -0.9971
vn 0.1634 -0.6682 -0.7258
vn -0.0406 -0.6230 -0.7812
vn 0.1512 -0.7621 -0.6296
vn 0.6277 0.7546 -0.1913
vn 0.0965 0.9771 -0.1894
vn -0.0000 0.9832 -0.1827
vn 0.0006 0.1013 -0.9949
vn -0.0999 0.0790 -0.9919
vn -0.1114 0.0764 -0.9908
vn -0.0000 0.1041 -0.9946
vn -0.0000 -0.9027 0.4302
vn -0.9784 -0.0000 -0.2069
vn 0.5861 -0.4712 0.6591
vn -0.0402 -0.6625 0.7480
vn 0.6176 -0.4520 0.6437
vn 0.0067 0.5016 -0.8651
vn 0.1691 0.5031 -0.8475
vn 0.1789 0.5028 -0.8457
vn -0.0103 -0.5056 0.8627
vn -0.1644 -0.5001 0.8502
vn -0.0000 -0.5055 0.8628
vn -0.7543 -0.6537 -0.0601
vn -0.1242 -0.9773 -0.1715
vn -0.7814 -0.6218 -0.0520
vn -0.9936 0.0140 -0.1120
vn -0.9920 0.0439 -0.1185
vn -0.9879 0.0878 -0.1278
vn -0.9928 -0.0000 0.1201
vn 0.9606 -0.0000 -0.2780
vn 0.1997 -0.2624 -0.9441
vn -0.1983 -0.2862 0.9374
vn -0.0000 0.5399 -0.8417
vn 0.9784 -0.0000 0.2069
vn 0.1535 0.6705 -0.7258
vn -0.1535 -0.6705 0.7258
vn -0.9993 -0.0059 0.0369
vn -0.9993 -0.0061 0.0357
vn -0.9993 -0.0060 0.0365
vn -0.9994 -0.0062 0.0353
vn -0.9258 -0.0655 0.3723
vn -0.8344 -0.0212 0.5507
vn -0.8695 -0.4109 -0.2741
vn 0.9994 -0.0062 0.0353
vn 0.8695 -0.4109 -0.2741
vn 0.8344 -0.0212 0.5507
vn 0.1091 0.9931 -0.0439
vn 0.5616 0.5365 0.6299
vn 0.7315 0.0712 -0.6781
vn -0.7315 0.0712 -0.6781
vn 0.5535 -0.0869 0.8283
vn -0.8301 -0.0582 0.5546
vn -0.1941 -0.1024 0.9756
vn -0.0000 -0.1044 0.9945
vn 0.8301 -0.0582 0.5546
vn -0.5616 0.5365 0.6299
vn -0.1091 0.9931 -0.0439
vn -0.2324 0.9430 -0.2381
vn -0.0000 0.9887 -0.1497
vn 0.2324 0.9430 -0.2381
vn 0.7595 -0.4080 0.5066
vn 0.8302 -0.3438 0.4387
vn 0.8313 -0.3427 0.4376
vn -0.4517 -0.5842 0.6744
vn -0.5525 -0.5436 0.6319
vn -0.4508 -0.5845 0.6747
vn 0.4517 -0.5842 0.6744
vn 0.5525 -0.5436 0.6319
vn 0.5543 -0.5428 0.6309
vn 0.6653 0.5303 -0.5256
vn 0.7263 0.4970 -0.4749
vn 0.7325 0.4932 -0.4692
vn -0.6653 0.5303 -0.5256
vn -0.7263 0.4970 -0.4749
vn -0.6624 0.5317 -0.5277
vn -0.1473 -0.6585 0.7380
vn -0.1932 -0.6532 0.7321
vn -0.1468 -0.6586 0.7381
vn 0.1473 -0.6585 0.7380
vn 0.1932 -0.6532 0.7321
vn 0.1942 -0.6531 0.7320
vn 0.1941 -0.1024 0.9756
vn -0.5535 -0.0869 0.8283
vn -0.1135 0.7559 0.6448
vn -0.0695 0.7406 0.6684
vn -0.0242 0.7303 0.6827
vn -0.0000 0.7276 0.6860
vn 0.0242 0.7303 0.6827
vn 0.0695 0.7406 0.6684
vn 0.1135 0.7559 0.6448
vn -0.7595 -0.4080 0.5066
vn -0.8302 -0.3438 0.4387
vn -0.7590 -0.4084 0.5071
vn -0.0000 -0.6682 0.7440
vn -0.0000 0.1951 -0.9808
vn -0.0000 0.5556 -0.8315
vn -0.0000 0.8315 -0.5556
vn -0.0000 0.9808 -0.1951
vn 0.1660 -0.5968 -0.7850
vn 0.2007 -0.2444 -0.9487
vn 0.2047 0.1453 -0.9680
vn 0.2048 0.1453 -0.9680
vn 0.1777 0.5129 -0.8399
vn 0.1776 0.5129 -0.8399
vn -0.9784 -0.0000 -0.2070
vn -0.6970 -0.0000 0.7171
vn -0.6971 -0.0000 0.7170
vn 0.9783 -0.0000 0.2070
vn -0.1459 -0.7090 0.6899
vn -0.1463 -0.7095 0.6894
vn -0.1459 -0.7091 0.6899
vn -0.3029 -0.6673 -0.6805
vn -0.3023 -0.6664 -0.6815
vn -0.3023 -0.6664 -0.6816
vn 0.4371 -0.0000 -0.8994
vn 0.4372 -0.0000 -0.8994
vn 0.1389 -0.7420 -0.6559
vn 0.1387 -0.7413 -0.6567
vn 0.1386 -0.7412 -0.6569
vn 0.1387 -0.7417 -0.6562
vn 0.1389 -0.7420 -0.6558
vn -0.0000 0.9986 -0.0532
vn -0.0000 0.9986 -0.0531
vn -0.0000 -0.9986 -0.0532
vn 0.5824 0.5320 0.6146
vn 0.5820 0.5329 0.6142
vn 0.1607 0.6301 -0.7597
vn 0.1606 0.6301 -0.7597
vn -0.1458 -0.7090 0.6900
vn 0.1609 0.6299 -0.7598
vn -0.9731 -0.2297 0.0175
vn -0.9693 -0.2276 0.0929
vn -0.5998 -0.7961 0.0803
vn -0.9078 -0.4194 -0.0000
vn -0.9648 -0.2622 0.0195
vn 0.9731 -0.2297 0.0175
vn 0.9648 -0.2622 0.0195
vn 0.9078 -0.4194 -0.0000
vn 0.7291 -0.6824 0.0535
vn -0.0007 0.9725 -0.2329
vn -0.0006 0.9910 0.1342
vn -0.0004 0.8916 0.4529
vn -0.0004 0.8917 0.4527
vn -0.0002 0.6965 0.7175
vn -0.0002 0.6967 0.7174
vn -0.0002 0.6965 0.7176
vn -0.0255 0.0720 0.9971
vn -0.0228 0.0923 0.9955
vn -0.0227 0.0931 0.9954
vn -0.0528 -0.2721 0.9608
vn -0.0511 -0.2589 0.9646
vn -0.0510 -0.2584 0.9647
vn -0.0721 -0.5671 0.8205
vn -0.0715 -0.5622 0.8239
vn -0.0715 -0.5620 0.8240
vn -0.0835 -0.8075 0.5839
vn -0.0835 -0.8076 0.5839
vn -0.0835 -0.8076 0.5838
vn -0.3600 0.3976 0.8440
vn -0.6599 0.3182 0.6807
vn -0.6594 0.3184 0.6811
vn -0.8681 0.2078 0.4507
vn -0.8678 0.2081 0.4513
vn -0.9837 0.0715 0.1648
vn -0.9838 0.0715 0.1646
vn 0.9838 0.0827 0.1589
vn 0.9837 0.0829 0.1593
vn 0.8683 0.2178 0.4457
vn 0.6602 0.3257 0.6767
vn 0.6603 0.3257 0.6767
vn 0.3608 0.4017 0.8417
vn 0.3602 0.4018 0.8419
vn 0.0263 0.0720 0.9971
vn 0.0234 0.0925 0.9954
vn 0.0264 0.0714 0.9971
vn 0.0542 -0.2717 0.9609
vn 0.0525 -0.2585 0.9646
vn 0.0542 -0.2720 0.9608
vn 0.0741 -0.5666 0.8206
vn 0.0735 -0.5618 0.8240
vn 0.0741 -0.5668 0.8205
vn 0.0857 -0.8072 0.5840
vn 0.0858 -0.8073 0.5839
vn -0.1748 0.4208 0.8902
vn -0.1752 0.4208 0.8901
vn -0.1753 0.4208 0.8900
vn -0.0001 0.5630 0.8265
vn -0.0000 0.5627 0.8267
vn -1.0000 -0.0063 0.0009
vn -1.0000 -0.0060 0.0016
vn -1.0000 -0.0059 0.0016
vn -0.0007 0.9048 -0.4259
vn -0.0007 0.9047 -0.4260
vn -0.0062 0.2623 0.9650
vn -0.0000 0.2752 0.9614
vn -0.0000 0.2813 0.9596
vn -0.0857 -0.9003 0.4268
vn -0.0856 -0.9009 0.4254
vn -0.0857 -0.9002 0.4269
vn 0.0064 0.2622 0.9650
vn 0.0089 0.2575 0.9662
vn 0.0880 -0.9001 0.4268
vn 0.0879 -0.9008 0.4253
vn 0.0879 -0.9008 0.4252
vn 1.0000 0.0053 -0.0047
vn 1.0000 0.0057 -0.0039
vn 0.1746 0.4229 0.8892
vn 0.1758 0.4230 0.8889
vn 0.1745 0.4228 0.8892
vn -0.0000 0.9706 -0.2408
vn -0.0000 0.9945 0.1049
vn -0.0000 0.8991 0.4377
vn -0.0000 0.8991 0.4378
vn -0.0000 0.6792 0.7339
vn 0.0022 0.1644 0.9864
vn -0.0000 0.1640 0.9865
vn -0.0000 0.1638 0.9865
vn -0.0015 -0.1889 0.9820
vn -0.0000 -0.1896 0.9819
vn -0.0000 -0.1899 0.9818
vn -0.0048 -0.5252 0.8509
vn 0.0001 -0.5259 0.8506
vn -0.0000 -0.5260 0.8505
vn -0.0078 -0.8078 0.5894
vn -0.0079 -0.8080 0.5891
vn -0.0079 -0.8081 0.5890
vn -0.3020 0.4068 0.8622
vn -0.3010 0.4071 0.8624
vn -0.3020 0.4068 0.8621
vn -0.6322 0.3282 0.7019
vn -0.6307 0.3289 0.7028
vn -0.6323 0.3282 0.7018
vn -0.8615 0.2121 0.4612
vn -0.8607 0.2129 0.4624
vn -0.8616 0.2121 0.4612
vn -0.9835 0.0713 0.1664
vn -0.9836 0.0711 0.1659
vn -0.9836 0.0710 0.1658
vn 0.9835 0.0838 0.1603
vn 0.9834 0.0840 0.1609
vn 0.9835 0.0838 0.1602
vn 0.8604 0.2241 0.4577
vn 0.8612 0.2233 0.4565
vn 0.8613 0.2233 0.4564
vn 0.6303 0.3371 0.6993
vn 0.6318 0.3364 0.6984
vn 0.6319 0.3364 0.6983
vn 0.3007 0.4110 0.8606
vn 0.3017 0.4107 0.8604
vn 0.3018 0.4107 0.8604
vn -0.0022 0.1643 0.9864
vn -0.0023 0.1644 0.9864
vn 0.0015 -0.1889 0.9820
vn 0.0014 -0.1887 0.9820
vn 0.0049 -0.5252 0.8510
vn 0.0049 -0.5250 0.8511
vn 0.0080 -0.8078 0.5894
vn 0.0080 -0.8080 0.5891
vn 0.0079 -0.8078 0.5895
vn -0.0000 0.9111 -0.4122
vn -0.0000 0.5203 0.8540
vn 1.0000 0.0065 -0.0029
vn 0.1044 0.4269 0.8983
vn -1.0000 -0.0065 0.0029
vn -0.1044 0.4255 0.8989
vn -0.0090 -0.9111 0.4122
vn -0.0001 0.3390 0.9408
vn -0.0043 0.3389 0.9408
vn -0.0000 0.3390 0.9408
vn 0.0043 0.3390 0.9408
vn 0.0092 -0.9111 0.4122
vn -0.0000 0.1655 -0.9862
vn -0.0000 0.7960 -0.6054
vn -0.0000 -0.5217 0.8531
vn -0.0000 -0.0858 -0.9963
vn -0.0000 -0.1655 0.9862
vn -0.0000 -0.0043 1.0000
vn -0.0000 -0.0893 0.9960
vn -0.0000 -0.7523 0.6588
vn -0.9898 -0.1374 -0.0368
vn -0.0000 0.5046 0.8634
vn 0.0497 0.5242 0.8502
vn 0.0247 0.0619 0.9978
vn 0.0805 0.0497 0.9955
vn -0.0859 0.0467 0.9952
vn -0.0238 0.0610 0.9979
vn -0.0487 0.5233 0.8507
vn -0.0000 0.8920 0.4520
vn 0.6043 -0.7890 -0.1105
vn -0.0159 0.3228 -0.9463
vn -0.5986 -0.7936 -0.1090
vn 0.9820 -0.1854 0.0364
vn 0.1085 -0.1176 -0.9871
vn -0.4526 0.4534 -0.7678
vn 0.0427 -0.0000 -0.9991
vn 0.4951 -0.0000 -0.8688
vn -0.0440 -0.0000 -0.9990
vn 0.0379 -0.1672 -0.9852
vn 0.9976 0.0526 -0.0460
vn -0.9986 0.0531 -0.0000
vn -0.9810 -0.1905 -0.0380
vn -1.0000 -0.0042 0.0057
vn 0.2617 0.5192 0.8136
vn 1.0000 0.0042 -0.0057
vn 0.9906 -0.1341 -0.0268
vn 0.2907 -0.0014 0.9568
vn 0.6887 0.3151 0.6530
vn -0.0092 0.8432 0.5375
vn -0.8316 -0.0100 0.5553
vn 0.9808 -0.0000 0.1951
vn -0.0427 -0.0000 -0.9991
vn -0.3035 0.0852 -0.9490
vn -0.1560 -0.7934 -0.5884
vn 0.8426 -0.0573 -0.5355
vn 0.9990 0.0017 -0.0447
vn -0.9993 -0.0039 -0.0366
vn -0.2346 0.9567 -0.1722
vn -0.9355 -0.0000 0.3534
vn 0.9525 0.0324 0.3027
vn -0.7978 -0.0000 -0.6029
vn 0.6692 -0.5667 -0.4806
vn -0.0175 0.0471 -0.9987
vn -0.0000 -0.9336 -0.3582
vn 0.6596 0.7275 -0.1889
vn 0.0133 0.1041 -0.9945
vn -0.1542 -0.6667 0.7292
vn -0.0000 0.5013 -0.8653
vn -0.1793 -0.4989 0.8479
vn -0.9943 -0.0134 -0.1059
vn 0.7590 -0.4084 0.5071
vn -0.5543 -0.5428 0.6309
vn 0.4508 -0.5845 0.6747
vn 0.6624 0.5317 -0.5277
vn -0.7325 0.4932 -0.4692
vn -0.1942 -0.6531 0.7320
vn 0.1468 -0.6586 0.7381
vn -0.8313 -0.3427 0.4376
vn -0.9783 -0.0001 -0.2071
vn 0.9783 0.0001 0.2071
vn 0.1386 -0.7417 -0.6563
vn 0.5820 0.5330 0.6141
vn -0.0256 0.0715 0.9971
vn -0.0528 -0.2724 0.9607
vn -0.0721 -0.5672 0.8204
vn 0.0233 0.0933 0.9954
vn 0.0524 -0.2580 0.9647
vn 0.0735 -0.5617 0.8241
vn -0.1747 0.4208 0.8902
vn -0.0000 0.5626 0.8267
vn -0.0085 0.2578 0.9662
vn -0.0856 -0.9010 0.4253
vn 0.0880 -0.9000 0.4269
vn 1.0000 0.0057 -0.0038
vn 0.1761 0.4230 0.8889
vn 0.0023 0.1645 0.9864
vn -0.0014 -0.1887 0.9820
vn -0.0048 -0.5251 0.8510
vn -0.3007 0.4072 0.8624
vn -0.6305 0.3291 0.7030
vn -0.8606 0.2130 0.4625
vn -0.9835 0.0713 0.1665
vn 0.8603 0.2242 0.4578
vn 0.6300 0.3373 0.6995
vn 0.3004 0.4111 0.8607
vn 0.0081 -0.8081 0.5890
vt 0.281048 0.945658
vt 0.314686 0.911719
vt 0.313870 0.945117
vt 0.209383 0.373980
vt 0.348853 0.338105
vt 0.293184 0.435857
vt 0.272165 0.957793
vt 0.207623 0.946525
vt 0.247974 0.945901
vt 0.263324 0.874264
vt 0.226429 0.876483
vt 0.154589 0.890286
vt 0.373549 0.422874
vt 0.284567 0.337912
vt 0.226503 0.339128
vt 0.329417 0.911433
vt 0.351341 0.908945
vt 0.855428 0.683000
vt 0.892063 0.662877
vt 0.885260 0.688752
vt 0.304459 0.957402
vt 0.267813 0.912382
vt 0.285545 0.892948
vt 0.356033 0.944912
vt 0.384152 0.958000
vt 0.883826 0.590786
vt 0.777472 0.637119
vt 0.799104 0.390115
vt 0.610575 0.496682
vt 0.586403 0.610741
vt 0.559396 0.610741
vt 0.884866 0.589186
vt 0.778055 0.636224
vt 0.870945 0.683390
vt 0.878493 0.957802
vt 0.890193 0.879140
vt 0.903591 0.892386
vt 0.616872 0.773846
vt 0.604643 0.809840
vt 0.610651 0.778499
vt 0.654066 0.655853
vt 0.654589 0.601678
vt 0.675245 0.650804
vt 0.620306 0.684105
vt 0.543840 0.723976
vt 0.632533 0.648464
vt 0.780409 0.812035
vt 0.779995 0.876022
vt 0.765330 0.860216
vt 0.811856 0.676865
vt 0.790411 0.725644
vt 0.801955 0.666281
vt 0.806877 0.986081
vt 0.566978 0.986081
vt 0.686992 0.831930
vt 0.683573 0.757714
vt 0.829532 0.727050
vt 0.822571 0.666986
vt 0.795995 0.861390
vt 0.890934 0.771038
vt 0.778789 0.719802
vt 0.685661 0.704397
vt 0.809923 0.730314
vt 0.794882 0.731979
vt 0.607362 0.815576
vt 0.575154 0.804155
vt 0.870130 0.718547
vt 0.894026 0.707234
vt 0.871576 0.709584
vt 0.247339 0.206287
vt 0.203666 0.206287
vt 0.101743 0.191657
vt 0.203666 0.228123
vt 0.203666 0.249960
vt 0.652964 0.778408
vt 0.600280 0.750664
vt 0.652845 0.714034
vt 0.609808 0.719614
vt 0.556733 0.712395
vt 0.647537 0.694116
vt 0.110475 0.191657
vt 0.358546 0.079456
vt 0.386971 0.141563
vt 0.337319 0.116996
vt 0.466508 0.148000
vt 0.427045 0.265782
vt 0.424586 0.173166
vt 0.366476 0.346440
vt 0.463398 0.285195
vt 0.409172 0.110245
vt 0.304959 0.783133
vt 0.338708 0.782279
vt 0.372593 0.790280
vt 0.371842 0.780871
vt 0.401452 0.779013
vt 0.426674 0.776865
vt 0.149039 0.785749
vt 0.182997 0.786044
vt 0.288491 0.792792
vt 0.218258 0.785900
vt 0.253016 0.785242
vt 0.284389 0.784142
vt 0.311981 0.990504
vt 0.360673 0.894682
vt 0.299871 0.896219
vt 0.355244 0.989366
vt 0.420368 0.892145
vt 0.394968 0.987350
vt 0.473712 0.888797
vt 0.428747 0.984488
vt 0.519152 0.884926
vt 0.262812 0.898038
vt 0.248208 0.989428
vt 0.291565 0.990500
vt 0.206290 0.900020
vt 0.208100 0.987468
vt 0.143670 0.901205
vt 0.173688 0.984644
vt 0.018965 0.900932
vt 0.163951 0.981550
vt 0.079570 0.839289
vt 0.285991 0.805707
vt 0.286095 0.850887
vt 0.242991 0.972808
vt 0.115950 0.940956
vt 0.305621 0.972449
vt 0.340241 0.968394
vt 0.350150 0.972873
vt 0.292223 0.964830
vt 0.218074 0.913809
vt 0.191517 0.898309
vt 0.185286 0.883323
vt 0.198530 0.915010
vt 0.285964 0.972403
vt 0.295991 0.972829
vt 0.349942 0.964130
vt 0.324100 0.964349
vt 0.248657 0.968594
vt 0.249093 0.966530
vt 0.252128 0.967765
vt 0.259043 0.968445
vt 0.256763 0.967671
vt 0.235429 0.964639
vt 0.196994 0.959122
vt 0.260302 0.964656
vt 0.329333 0.968252
vt 0.254306 0.966987
vt 0.256714 0.966622
vt 0.253319 0.967326
vt 0.329884 0.966359
vt 0.330922 0.967445
vt 0.337712 0.966212
vt 0.335813 0.967526
vt 0.253765 0.967151
vt 0.252549 0.966965
vt 0.332887 0.967061
vt 0.333551 0.966896
vt 0.334135 0.967071
vt 0.334563 0.966689
vt 0.332761 0.966722
vt 0.254512 0.967312
vt 0.181282 0.344021
vt 0.186614 0.290202
vt 0.147924 0.436896
vt 0.094737 0.229006
vt 0.099443 0.283051
vt 0.105446 0.413513
vt 0.333491 0.966889
vt 0.333546 0.966890
vt 0.253715 0.967157
vt 0.253776 0.967156
vt 0.253713 0.967152
vt 0.333487 0.966895
vt 0.204517 0.484001
vt 0.184954 0.428813
vt 0.209126 0.466346
vt 0.167803 0.914434
vt 0.169899 0.900343
vt 0.288422 0.670463
vt 0.282508 0.731336
vt 0.263874 0.668769
vt 0.123541 0.445564
vt 0.193390 0.432021
vt 0.175222 0.431731
vt 0.294425 0.892367
vt 0.310526 0.888256
vt 0.160609 0.410944
vt 0.164540 0.429832
vt 0.209126 0.428704
vt 0.169176 0.414347
vt 0.200044 0.409973
vt 0.192377 0.414923
vt 0.310039 0.328678
vt 0.270966 0.316784
vt 0.297567 0.313486
vt 0.395649 0.362311
vt 0.297512 0.329051
vt 0.293991 0.367769
vt 0.331297 0.450401
vt 0.269107 0.328693
vt 0.201189 0.451343
vt 0.157296 0.431390
vt 0.195635 0.440346
vt 0.057213 0.454551
vt 0.177321 0.371998
vt 0.174204 0.375437
vt 0.287445 0.287319
vt 0.166316 0.373350
vt 0.180453 0.413953
vt 0.180260 0.410361
vt 0.285179 0.316189
vt 0.270566 0.313423
vt 0.284340 0.313431
vt 0.299866 0.316461
vt 0.195427 0.339564
vt 0.165978 0.373039
vt 0.185192 0.364676
vt 0.152348 0.376184
vt 0.275562 0.285343
vt 0.270097 0.286947
vt 0.276190 0.285157
vt 0.267259 0.284596
vt 0.158119 0.373477
vt 0.282486 0.285387
vt 0.323388 0.872088
vt 0.446252 0.937346
vt 0.440270 0.981722
vt 0.136739 0.894374
vt 0.141551 0.900573
vt 0.300282 0.982578
vt 0.359591 0.478194
vt 0.298325 0.485764
vt 0.318790 0.478859
vt 0.423925 0.485602
vt 0.360514 0.482955
vt 0.342808 0.480401
vt 0.323048 0.486020
vt 0.344291 0.486276
vt 0.390108 0.479731
vt 0.400995 0.478809
vt 0.363362 0.480748
vt 0.378355 0.486254
vt 0.377305 0.480381
vt 0.356782 0.480747
vt 0.359516 0.486370
vt 0.329881 0.479770
vt 0.897867 0.752963
vt 0.925044 0.819044
vt 0.928934 0.819764
vt 0.931771 0.754069
vt 0.951760 0.819942
vt 0.943177 0.752569
vt 0.910072 0.754239
vt 0.933248 0.820397
vt 0.884290 0.751097
vt 0.940390 0.818472
vt 0.955604 0.750459
vt 0.918291 0.745338
vt 0.921078 0.754777
vt 0.947317 0.820767
vt 0.921110 0.754740
vt 0.938058 0.820927
vt 0.363234 0.486334
vt 0.399403 0.485934
vt 0.955604 0.819021
vt 0.942210 0.821480
vt 0.241873 0.259818
vt 0.278795 0.243251
vt 0.256889 0.279186
vt 0.154173 0.319041
vt 0.123633 0.349798
vt 0.069285 0.342090
vt 0.166232 0.338693
vt 0.146344 0.356733
vt 0.173057 0.351385
vt 0.157001 0.363088
vt 0.174606 0.360568
vt 0.162768 0.368864
vt 0.122254 0.361907
vt 0.103691 0.366743
vt 0.135335 0.362839
vt 0.145767 0.366361
vt 0.157557 0.370990
vt 0.317171 0.279683
vt 0.293423 0.267239
vt 0.327316 0.260506
vt 0.292226 0.277136
vt 0.281001 0.272751
vt 0.286570 0.279887
vt 0.276764 0.277619
vt 0.275713 0.281978
vt 0.257403 0.245335
vt 0.257794 0.259792
vt 0.259112 0.269206
vt 0.262805 0.276013
vt 0.270083 0.281366
vt 0.301076 0.276278
vt 0.059504 0.102967
vt 0.127148 0.316847
vt 0.280304 0.283466
vt 0.209383 0.093777
vt 0.209742 0.103740
vt 0.170271 0.367859
vt 0.225881 0.100338
vt 0.086518 0.130681
vt 0.081937 0.130636
vt 0.218378 0.104931
vt 0.212455 0.103702
vt 0.086610 0.119305
vt 0.074386 0.093777
vt 0.076190 0.121089
vt 0.213656 0.103208
vt 0.374310 0.712398
vt 0.293498 0.732855
vt 0.293356 0.707784
vt 0.279223 0.805639
vt 0.079570 0.765782
vt 0.278966 0.760471
vt 0.136294 0.736114
vt 0.539718 0.389083
vt 0.889569 0.389083
vt 0.682391 0.413439
vt 0.828238 0.421752
vt 0.297255 0.732893
vt 0.378188 0.753302
vt 0.297312 0.757971
vt 0.835225 0.495445
vt 0.896691 0.528178
vt 0.689519 0.503855
vt 0.546970 0.528178
vt 0.143546 0.875210
vt 0.508174 0.311213
vt 0.358719 0.400260
vt 0.503823 0.308864
vt 0.358107 0.394742
vt 0.499257 0.306316
vt 0.358442 0.388681
vt 0.494792 0.303610
vt 0.359346 0.382503
vt 0.490528 0.300841
vt 0.350201 0.046440
vt 0.426081 0.083376
vt 0.423731 0.087105
vt 0.349035 0.040671
vt 0.428570 0.079442
vt 0.348503 0.034975
vt 0.431111 0.075437
vt 0.348940 0.029765
vt 0.433621 0.071492
vt 0.110476 0.191657
vt 0.507564 0.124304
vt 0.503049 0.126493
vt 0.498544 0.128752
vt 0.494140 0.131038
vt 0.489933 0.133287
vt 0.364824 0.411432
vt 0.515851 0.315344
vt 0.354545 0.018256
vt 0.350522 0.025408
vt 0.515851 0.120036
vt 0.437992 0.064574
vt 0.400160 0.251382
vt 0.330410 0.273474
vt 0.393374 0.246652
vt 0.331338 0.262619
vt 0.386901 0.242179
vt 0.339573 0.250748
vt 0.380908 0.237801
vt 0.346507 0.241054
vt 0.375163 0.233488
vt 0.342748 0.203683
vt 0.360916 0.196154
vt 0.360041 0.204234
vt 0.333852 0.194014
vt 0.362508 0.187625
vt 0.323730 0.182290
vt 0.365007 0.179044
vt 0.320618 0.169275
vt 0.368410 0.170404
vt 0.397935 0.189488
vt 0.391649 0.193018
vt 0.385787 0.196796
vt 0.380090 0.201116
vt 0.374382 0.206302
vt 0.348069 0.315159
vt 0.359968 0.221937
vt 0.321603 0.157667
vt 0.092196 0.393952
vt 0.117847 0.348023
vt 0.122966 0.270628
vt 0.082285 0.351990
vt 0.233588 0.372597
vt 0.209645 0.300657
vt 0.168156 0.165272
vt 0.233588 0.541544
vt 0.147839 0.198349
vt 0.185581 0.175900
vt 0.147839 0.028763
vt 0.060905 0.134722
vt 0.175025 0.224901
vt 0.162643 0.028763
vt 0.208978 0.219148
vt 0.073464 0.545456
vt 0.086215 0.475766
vt 0.169479 0.097694
vt 0.906827 0.154170
vt 0.887172 0.204639
vt 0.858381 0.154170
vt 0.884670 0.084856
vt 0.848869 0.084856
vt 0.920471 0.084856
vt 0.920471 0.021923
vt 0.848869 0.021923
vt 0.687068 0.790156
vt 0.991748 0.186104
vt 0.920516 0.186104
vt 0.956559 0.109561
vt 0.927687 0.111038
vt 0.939109 0.028160
vt 0.958149 0.021923
vt 0.974947 0.028140
vt 0.985568 0.111047
vt 0.437589 0.753485
vt 0.397421 0.718579
vt 0.441725 0.704335
vt 0.397421 0.690090
vt 0.437589 0.655184
vt 0.838156 0.517888
vt 0.798105 0.512245
vt 0.833575 0.463447
vt 0.798105 0.414649
vt 0.838156 0.409006
vt 0.914233 0.229607
vt 0.948801 0.075173
vt 0.941503 0.219492
vt 0.140999 0.892543
vt 0.858732 0.656451
vt 0.870228 0.682299
vt 0.562232 0.496682
vt 0.613411 0.610741
vt 0.799645 0.386938
vt 0.957258 0.830133
vt 0.983576 0.985666
vt 0.570419 0.808453
vt 0.898990 0.721284
vt 0.824577 0.733034
vt 0.080144 0.901465
vt 0.279415 0.657246
vt 0.290919 0.717733
vt 0.263874 0.719405
vt 0.360452 0.404542
vt 0.332567 0.282629
s 1
f 80/1/1 93/2/1 91/3/1
f 87/4/2 145/5/3 133/6/4
f 96/7/5 4/8/6 90/9/7
f 131/10/8 87/11/8 89/12/9
f 129/13/10 150/14/11 139/15/12
f 91/3/13 134/16/14 81/17/15
f 10/18/16 15/19/16 11/20/16
f 94/21/17 80/1/18 91/3/19
f 84/22/20 87/11/21 133/23/22
f 94/21/23 8/24/24 85/25/25
f 11/26/26 16/27/27 12/28/28
f 12/29/29 312/30/29 13/31/29
f 10/32/30 13/33/31 14/34/32
f 14/35/33 13/36/34 21/37/35
f 19/38/36 31/39/37 35/40/38
f 16/36/39 15/35/40 22/37/41
f 23/41/42 26/42/42 29/43/42
f 20/44/43 22/45/43 30/46/43
f 25/47/44 24/48/44 27/49/44
f 24/50/45 18/51/45 27/52/45
f 22/53/46 19/54/46 316/55/46
f 21/56/47 25/47/48 27/49/49
f 19/57/50 24/50/50 28/58/50
f 24/48/51 25/47/51 28/59/51
f 25/47/48 22/60/52 28/59/53
f 26/42/54 21/61/54 29/43/54
f 21/61/55 17/62/55 29/43/55
f 17/62/56 23/41/56 29/43/56
f 22/45/57 26/42/57 30/46/57
f 26/42/58 23/41/58 30/46/58
f 23/41/59 20/44/59 30/46/59
f 18/51/60 33/63/61 34/64/62
f 15/65/63 32/66/63 31/39/63
f 18/67/64 32/68/65 14/69/66
f 19/57/67 33/63/68 24/50/69
f 32/70/70 38/71/70 31/71/70
f 34/72/71 39/72/71 32/72/71
f 35/71/72 40/73/72 33/73/72
f 34/74/73 40/73/73 41/74/73
f 35/71/74 38/71/74 42/71/74
f 13/75/75 312/76/75 313/77/75
f 20/44/76 314/78/76 16/79/76
f 20/44/77 23/41/77 37/80/77
f 23/41/78 17/62/78 37/80/78
f 17/62/79 313/77/79 37/80/79
f 42/71/80 52/71/81 56/71/82
f 39/81/83 55/81/84 53/81/83
f 46/82/73 49/83/73 50/84/73
f 47/85/74 43/86/85 51/87/85
f 44/88/70 43/86/70 36/89/70
f 46/81/71 48/81/86 44/81/71
f 47/85/72 49/83/72 45/90/72
f 39/70/83 52/71/81 38/71/87
f 42/71/80 54/73/88 40/73/89
f 41/74/90 54/73/88 55/74/84
f 58/91/91 61/92/91 60/93/91
f 61/92/92 62/94/92 60/93/92
f 62/94/93 63/95/93 60/93/93
f 63/95/94 59/96/94 60/93/94
f 69/97/95 72/98/95 71/99/95
f 72/98/96 73/100/96 71/99/96
f 73/100/97 74/101/97 71/99/97
f 74/101/98 70/102/98 71/99/98
f 65/103/99 61/104/99 58/105/99
f 68/106/100 62/107/100 61/104/100
f 67/108/101 63/109/101 62/107/101
f 66/110/102 59/111/103 63/109/104
f 70/112/105 77/113/105 75/114/105
f 74/115/106 78/116/106 77/113/106
f 73/117/107 79/118/107 78/116/107
f 79/118/108 69/119/109 76/120/110
f 5/121/111 69/122/111 245/123/111
f 7/124/112 76/120/112 176/125/112
f 65/103/113 70/112/113 75/114/113
f 83/126/114 98/127/115 3/128/116
f 83/126/117 82/129/118 94/21/119
f 95/130/1 135/131/1 2/132/1
f 90/9/1 84/22/1 80/1/1
f 4/8/120 136/133/121 95/130/122
f 96/7/123 80/1/124 82/129/125
f 92/134/126 82/129/127 6/135/1
f 94/21/128 101/136/129 103/137/130
f 100/138/131 107/139/132 108/140/133
f 102/141/134 108/140/134 110/142/134
f 96/7/135 99/143/136 86/144/137
f 92/134/138 104/145/138 96/7/138
f 7/124/139 99/143/140 100/138/141
f 83/126/142 103/137/142 97/146/142
f 3/128/143 101/136/144 85/25/145
f 92/134/146 100/138/147 102/141/148
f 110/142/138 120/147/138 112/148/138
f 107/139/142 116/149/142 108/140/142
f 102/141/149 112/148/150 104/145/151
f 97/146/152 111/150/153 105/151/154
f 98/127/155 109/152/156 101/136/157
f 97/146/134 106/153/134 98/127/134
f 104/145/158 107/139/158 99/143/158
f 103/137/158 109/152/158 111/150/158
f 120/147/159 123/154/159 115/155/159
f 113/156/160 122/157/161 114/158/162
f 111/150/142 113/156/142 105/151/142
f 106/153/138 117/159/138 109/152/138
f 105/151/148 114/158/162 106/153/148
f 112/148/163 115/155/163 107/139/163
f 109/152/163 119/160/163 111/150/163
f 108/140/148 118/161/160 110/142/148
f 127/162/142 296/163/142 121/164/142
f 128/165/138 301/166/138 303/167/138
f 119/160/159 125/168/159 127/169/159
f 118/161/160 124/170/161 126/171/161
f 116/149/164 123/154/164 124/170/164
f 118/161/165 128/172/165 120/147/165
f 113/156/166 127/169/166 121/173/166
f 114/158/167 125/168/167 117/159/167
f 89/174/168 141/175/168 130/176/168
f 136/133/1 135/131/1 95/130/1
f 88/177/169 137/178/170 136/133/169
f 131/179/171 5/180/172 9/181/173
f 137/182/174 148/183/175 149/184/176
f 81/17/177 138/185/178 129/186/179
f 93/2/180 138/185/180 134/16/180
f 141/175/181 154/187/181 142/188/181
f 147/189/138 158/190/138 159/191/138
f 142/188/142 160/192/142 148/183/142
f 140/193/182 151/194/182 152/195/182
f 1/196/183 143/197/184 131/198/185
f 138/199/186 145/5/187 150/14/188
f 131/198/189 144/200/190 87/4/191
f 130/176/192 142/188/193 5/201/194
f 1/196/195 139/15/196 140/193/197
f 89/174/198 146/202/198 147/189/198
f 132/203/199 142/188/199 148/183/199
f 135/204/176 149/184/176 146/202/176
f 158/190/138 171/205/138 159/191/138
f 154/187/142 172/206/142 160/192/142
f 151/194/182 164/207/182 152/195/182
f 160/192/148 173/208/148 161/209/148
f 147/189/181 153/210/181 141/175/181
f 139/15/200 162/211/200 151/194/200
f 143/197/201 156/212/201 144/200/201
f 149/184/202 158/190/202 146/202/202
f 140/193/201 155/213/201 143/197/201
f 145/5/200 162/211/200 150/14/200
f 144/200/203 157/214/203 145/5/203
f 148/183/202 161/209/202 149/184/202
f 171/205/163 197/215/163 165/216/163
f 165/216/163 198/217/163 166/218/163
f 153/210/163 166/218/163 154/187/163
f 159/191/163 165/216/163 153/210/163
f 151/194/204 174/219/204 163/220/204
f 156/212/205 167/221/205 168/222/205
f 161/209/148 170/223/148 158/190/148
f 155/213/205 164/207/205 167/221/205
f 157/214/204 174/219/204 162/211/204
f 156/212/203 169/224/203 157/214/203
f 1/225/206 59/111/207 175/226/208
f 59/111/207 64/227/209 175/226/208
f 64/227/210 3/128/210 175/226/210
f 3/128/211 85/25/211 175/226/211
f 85/25/212 8/24/212 175/226/212
f 8/24/138 81/17/138 175/226/138
f 81/17/138 129/186/138 175/226/138
f 129/186/138 1/225/138 175/226/138
f 76/120/213 69/119/213 176/125/213
f 69/119/213 5/228/213 176/125/213
f 5/228/142 132/229/142 176/125/142
f 132/229/142 88/177/142 176/125/142
f 88/177/142 4/8/142 176/125/142
f 4/8/214 86/144/214 176/125/214
f 86/144/215 7/124/215 176/125/215
f 3/128/216 64/227/216 177/230/216
f 64/227/217 66/110/217 177/230/217
f 177/231/218 185/232/218 79/233/218
f 177/231/219 181/234/219 186/235/219
f 77/236/220 184/237/220 182/238/220
f 67/239/221 181/234/221 66/240/221
f 65/241/222 179/242/222 68/243/222
f 75/244/223 178/245/223 65/241/223
f 78/246/224 185/232/224 184/237/224
f 79/118/225 76/120/225 177/230/225
f 76/120/226 7/124/226 177/230/226
f 7/124/227 92/134/227 177/230/227
f 92/134/228 6/135/228 177/230/228
f 6/135/228 83/126/228 177/230/228
f 83/126/229 3/128/229 177/230/229
f 184/247/230 194/248/231 193/249/232
f 179/250/233 189/251/234 180/252/235
f 182/253/236 193/249/237 191/254/238
f 185/255/239 195/256/240 194/248/241
f 181/257/242 195/256/243 186/258/244
f 178/259/245 188/260/246 179/250/247
f 183/261/248 191/254/249 192/262/250
f 75/244/251 182/238/251 183/263/251
f 68/243/252 180/264/252 67/239/252
f 190/265/253 189/251/253 195/256/253
f 189/251/254 188/260/254 195/256/254
f 188/260/255 187/266/255 195/256/255
f 187/266/256 192/262/256 195/256/256
f 192/262/257 191/254/257 195/256/257
f 191/254/258 193/249/258 195/256/258
f 193/249/259 194/248/259 195/256/259
f 180/252/260 190/265/261 181/257/262
f 183/261/263 187/266/263 178/259/263
f 168/222/205 199/267/205 200/268/205
f 167/221/205 196/269/205 199/267/205
f 213/270/264 226/271/264 223/272/264
f 216/273/265 225/274/265 226/271/265
f 215/275/266 224/276/266 225/274/266
f 214/277/267 222/278/267 224/276/267
f 223/272/264 219/279/264 217/280/264
f 226/271/265 220/281/265 219/279/265
f 225/274/266 221/282/266 220/281/266
f 224/276/267 218/283/267 221/282/267
f 203/284/268 231/285/268 228/286/268
f 231/285/269 205/287/269 230/288/269
f 230/288/270 204/289/270 229/290/271
f 204/289/272 227/291/273 229/290/272
f 207/292/268 231/285/268 209/293/268
f 231/285/269 210/294/269 209/293/269
f 210/294/271 229/290/271 211/295/271
f 229/290/272 208/296/272 211/295/272
f 204/289/182 206/297/182 196/269/274
f 213/270/275 236/298/276 201/299/275
f 163/220/204 227/291/204 202/300/204
f 207/292/203 210/294/277 208/296/203
f 199/267/278 237/301/279 234/302/280
f 169/224/204 227/291/204 174/219/204
f 173/208/148 212/303/148 170/223/148
f 214/277/138 216/273/138 201/299/138
f 196/269/281 242/304/282 237/301/283
f 217/280/142 220/281/142 218/283/142
f 217/280/284 233/305/285 240/306/285
f 172/206/148 222/278/148 173/208/148
f 241/307/286 237/301/287 242/304/288
f 243/308/289 234/302/290 241/307/286
f 238/309/1 236/298/1 239/310/1
f 240/306/1 232/311/1 238/309/1
f 213/270/291 238/309/292 239/310/291
f 197/215/293 233/305/293 198/217/293
f 200/268/294 243/308/295 207/292/294
f 207/292/296 241/307/297 228/286/296
f 200/268/278 234/302/280 235/312/298
f 228/286/296 242/304/299 203/284/296
f 201/299/293 232/311/293 197/215/293
f 223/272/291 240/306/292 238/309/292
f 60/313/300 59/314/300 244/315/300
f 59/316/301 1/317/301 244/318/301
f 1/317/302 9/319/302 244/318/302
f 9/320/303 10/321/303 244/322/303
f 10/321/304 60/323/304 244/322/304
f 69/324/305 71/325/305 245/326/305
f 71/327/306 11/328/306 245/329/306
f 11/328/307 12/330/307 245/329/307
f 12/331/308 5/121/308 245/123/308
f 267/332/309 248/333/309 270/334/309
f 270/334/310 249/335/310 269/336/310
f 269/336/311 250/337/312 268/338/311
f 268/338/313 247/339/314 266/340/315
f 251/341/316 260/342/317 257/343/318
f 253/344/319 259/345/320 260/342/321
f 254/346/322 258/347/323 259/345/324
f 255/348/325 256/349/326 258/347/327
f 247/350/328 253/350/328 251/350/328
f 250/350/329 254/350/330 253/350/330
f 249/350/331 255/81/332 254/350/332
f 248/81/333 252/81/334 255/81/334
f 262/351/335 270/334/336 265/352/335
f 265/352/337 269/336/337 264/353/337
f 264/353/338 268/338/339 263/354/338
f 263/354/340 266/340/341 261/355/340
f 261/355/342 260/342/343 263/354/344
f 263/354/345 259/345/346 264/353/347
f 264/353/348 258/347/349 265/352/350
f 265/352/351 256/349/352 262/351/351
f 44/81/353 251/350/354 46/81/355
f 44/88/356 266/340/357 247/339/356
f 55/81/358 246/81/359 53/81/360
f 53/356/361 267/332/362 52/357/362
f 46/82/363 257/343/364 45/90/365
f 55/358/366 256/349/367 252/359/368
f 47/85/369 257/343/364 261/355/370
f 56/360/371 256/349/372 54/361/373
f 56/360/374 267/332/375 262/351/374
f 36/89/376 261/355/377 266/340/378
f 272/362/379 278/363/379 275/364/379
f 275/364/380 279/365/380 274/366/380
f 274/366/381 280/367/382 273/368/381
f 273/368/383 277/369/383 271/370/383
f 286/371/384 285/372/385 282/373/386
f 288/374/387 284/375/388 285/372/389
f 289/376/390 283/377/391 284/375/392
f 290/378/393 281/379/394 283/377/395
f 286/371/396 280/367/397 288/374/398
f 288/374/399 279/365/400 289/376/401
f 289/81/402 278/81/403 290/81/404
f 278/81/405 287/81/406 290/81/407
f 292/380/408 275/364/409 295/381/410
f 275/364/411 294/382/412 295/381/413
f 274/366/414 293/383/415 294/382/416
f 273/368/417 291/384/418 293/383/419
f 291/384/420 285/372/385 293/383/421
f 293/383/422 284/375/388 294/382/423
f 294/382/424 283/377/391 295/381/425
f 295/381/426 281/379/427 292/380/428
f 48/385/429 272/362/429 43/86/429
f 271/370/430 277/369/430 57/386/430
f 51/87/85 272/362/431 292/380/431
f 291/384/432 271/370/432 57/386/432
f 50/81/86 276/81/433 48/81/86
f 277/369/434 286/371/434 57/386/434
f 50/84/435 281/379/435 287/387/435
f 282/373/436 291/384/437 57/386/438
f 286/371/439 282/373/436 57/386/438
f 51/87/440 281/379/440 49/83/440
f 298/388/142 307/389/142 299/390/142
f 299/390/441 309/391/441 301/166/441
f 125/392/138 297/393/138 300/394/138
f 121/164/442 297/393/442 122/395/442
f 128/165/443 298/388/443 123/396/443
f 125/392/443 302/397/443 127/162/443
f 124/398/442 301/166/442 126/399/442
f 123/396/142 299/390/142 124/398/142
f 304/400/444 308/401/444 305/402/444
f 307/389/444 311/403/444 309/391/444
f 303/167/138 309/391/138 311/403/138
f 302/397/142 304/400/142 296/163/142
f 300/394/138 305/402/138 308/401/138
f 296/163/441 305/402/441 297/393/441
f 303/167/445 306/404/445 298/388/445
f 300/394/445 310/405/445 302/397/445
f 313/77/75 314/78/75 37/80/75
f 313/77/75 312/76/75 314/78/75
f 312/76/75 16/79/75 314/78/75
f 17/406/446 23/407/446 20/408/446
f 20/408/447 312/409/447 17/406/447
f 16/410/447 312/409/447 20/408/447
f 312/409/447 13/411/447 17/406/447
f 14/412/448 13/411/448 312/409/448
f 16/410/448 15/413/448 312/409/448
f 18/53/449 21/54/449 315/55/449
f 15/413/448 14/412/448 312/409/448
f 21/54/449 27/414/449 315/55/449
f 27/414/449 18/53/449 315/55/449
f 19/54/46 28/414/46 316/55/46
f 28/414/46 22/53/46 316/55/46
f 22/415/52 21/416/47 317/417/450
f 21/416/451 315/418/451 317/417/451
f 315/418/452 27/419/452 317/417/452
f 27/419/453 25/420/453 317/417/453
f 25/420/454 28/421/454 317/417/454
f 28/421/455 316/422/455 317/417/455
f 316/422/456 22/415/456 317/417/456
f 71/423/457 70/424/457 318/425/457
f 70/424/457 58/426/457 318/425/457
f 58/426/457 60/427/457 318/425/457
f 60/428/457 10/429/457 318/430/457
f 10/429/457 11/431/457 318/430/457
f 11/431/457 71/432/457 318/430/457
f 22/415/52 319/416/458 21/416/47
f 320/433/459 319/434/458 321/435/460
f 22/60/52 320/47/459 321/60/460
f 21/56/47 320/47/459 25/47/48
f 80/1/1 84/22/1 93/2/1
f 87/4/2 144/200/461 145/5/3
f 96/7/5 86/144/462 4/8/6
f 87/11/8 2/132/9 89/12/9
f 89/12/9 130/436/9 131/10/8
f 129/13/10 138/199/463 150/14/11
f 81/17/15 8/24/464 91/3/13
f 91/3/13 93/2/1 134/16/14
f 10/18/16 14/437/16 15/19/16
f 94/21/17 82/129/465 80/1/18
f 133/23/22 93/2/180 84/22/20
f 84/22/20 2/132/466 87/11/21
f 94/21/23 91/3/467 8/24/24
f 11/26/26 15/438/468 16/27/27
f 13/31/29 9/439/29 12/29/29
f 12/29/29 16/440/29 312/30/29
f 10/32/30 9/441/469 13/33/31
f 13/36/34 17/442/470 21/37/35
f 21/37/35 18/443/471 14/35/33
f 19/38/36 15/65/472 31/39/37
f 15/35/40 19/443/473 22/37/41
f 22/37/41 20/442/474 16/36/39
f 18/51/60 24/50/475 33/63/61
f 15/65/63 14/444/63 32/66/63
f 18/67/64 34/445/476 32/68/65
f 19/57/67 35/446/477 33/63/68
f 32/70/70 39/70/70 38/71/70
f 34/72/71 41/72/71 39/72/71
f 35/71/72 42/71/72 40/73/72
f 34/74/73 33/73/73 40/73/73
f 35/71/74 31/71/74 38/71/74
f 20/44/76 37/80/76 314/78/76
f 17/62/79 13/75/79 313/77/79
f 42/71/80 38/71/87 52/71/81
f 39/81/83 41/81/90 55/81/84
f 46/82/73 45/90/73 49/83/73
f 47/85/74 36/89/74 43/86/85
f 44/88/70 48/385/70 43/86/70
f 46/81/71 50/81/86 48/81/86
f 47/85/72 51/87/72 49/83/72
f 39/70/83 53/70/83 52/71/81
f 42/71/80 56/71/82 54/73/88
f 41/74/90 40/73/89 54/73/88
f 65/103/99 68/106/99 61/104/99
f 68/106/100 67/108/100 62/107/100
f 67/108/101 66/110/101 63/109/101
f 66/110/102 64/227/478 59/111/103
f 70/112/105 74/115/105 77/113/105
f 74/115/106 73/117/106 78/116/106
f 73/117/107 72/447/107 79/118/107
f 79/118/108 72/447/479 69/119/109
f 65/103/113 58/105/113 70/112/113
f 83/126/114 97/146/148 98/127/115
f 83/126/117 6/135/1 82/129/118
f 2/132/1 84/22/1 95/130/1
f 135/131/1 89/12/1 2/132/1
f 90/9/1 95/130/1 84/22/1
f 95/130/122 90/9/480 4/8/120
f 4/8/120 88/177/169 136/133/121
f 96/7/123 90/9/19 80/1/124
f 92/134/126 96/7/481 82/129/127
f 94/21/128 85/25/482 101/136/129
f 100/138/131 99/143/483 107/139/132
f 102/141/134 100/138/134 108/140/134
f 96/7/135 104/145/130 99/143/136
f 92/134/138 102/141/138 104/145/138
f 7/124/139 86/144/484 99/143/140
f 83/126/142 94/21/142 103/137/142
f 3/128/143 98/127/485 101/136/144
f 92/134/146 7/124/486 100/138/147
f 110/142/138 118/161/138 120/147/138
f 107/139/142 115/155/142 116/149/142
f 102/141/149 110/142/487 112/148/150
f 97/146/152 103/137/488 111/150/153
f 98/127/155 106/153/489 109/152/156
f 97/146/134 105/151/134 106/153/134
f 104/145/158 112/148/158 107/139/158
f 103/137/158 101/136/158 109/152/158
f 120/147/159 128/172/159 123/154/159
f 113/156/160 121/173/161 122/157/161
f 111/150/142 119/160/142 113/156/142
f 106/153/138 114/158/138 117/159/138
f 105/151/148 113/156/160 114/158/162
f 112/148/163 120/147/163 115/155/163
f 109/152/163 117/159/163 119/160/163
f 108/140/148 116/149/162 118/161/160
f 127/162/142 302/397/142 296/163/142
f 128/165/138 126/399/138 301/166/138
f 119/160/159 117/159/159 125/168/159
f 118/161/160 116/149/162 124/170/161
f 116/149/164 115/155/164 123/154/164
f 118/161/165 126/171/165 128/172/165
f 113/156/166 119/160/166 127/169/166
f 114/158/167 122/157/167 125/168/167
f 89/174/168 147/189/168 141/175/168
f 136/133/1 137/178/1 135/131/1
f 88/177/169 132/229/170 137/178/170
f 9/181/173 1/448/490 131/179/171
f 131/179/171 130/449/491 5/180/172
f 5/180/172 12/450/492 9/181/173
f 137/182/174 132/203/493 148/183/175
f 81/17/177 134/16/494 138/185/178
f 93/2/180 133/23/180 138/185/180
f 141/175/181 153/210/181 154/187/181
f 147/189/138 146/202/138 158/190/138
f 142/188/142 154/187/142 160/192/142
f 140/193/182 139/15/182 151/194/182
f 1/196/183 140/193/495 143/197/184
f 138/199/186 133/6/496 145/5/187
f 131/198/189 143/197/497 144/200/190
f 130/176/192 141/175/168 142/188/193
f 1/196/195 129/13/498 139/15/196
f 89/174/198 135/204/198 146/202/198
f 132/203/199 5/201/199 142/188/199
f 135/204/176 137/182/176 149/184/176
f 158/190/138 170/223/138 171/205/138
f 154/187/142 166/218/142 172/206/142
f 151/194/182 163/220/182 164/207/182
f 160/192/148 172/206/148 173/208/148
f 147/189/181 159/191/181 153/210/181
f 139/15/200 150/14/200 162/211/200
f 143/197/201 155/213/201 156/212/201
f 149/184/202 161/209/202 158/190/202
f 140/193/201 152/195/201 155/213/201
f 145/5/200 157/214/200 162/211/200
f 144/200/203 156/212/203 157/214/203
f 148/183/202 160/192/202 161/209/202
f 171/205/163 201/299/163 197/215/163
f 165/216/163 197/215/163 198/217/163
f 153/210/163 165/216/163 166/218/163
f 159/191/163 171/205/163 165/216/163
f 151/194/204 162/211/204 174/219/204
f 156/212/205 155/213/205 167/221/205
f 161/209/148 173/208/148 170/223/148
f 155/213/205 152/195/205 164/207/205
f 157/214/204 169/224/204 174/219/204
f 156/212/203 168/222/203 169/224/203
f 177/231/218 186/235/218 185/232/218
f 177/231/219 66/240/219 181/234/219
f 77/236/220 78/246/220 184/237/220
f 67/239/221 180/264/221 181/234/221
f 65/241/222 178/245/222 179/242/222
f 75/244/223 183/263/223 178/245/223
f 78/246/224 79/233/224 185/232/224
f 184/247/230 185/255/499 194/248/231
f 179/250/233 188/260/500 189/251/234
f 182/253/236 184/247/501 193/249/237
f 185/255/239 186/258/502 195/256/240
f 181/257/242 190/265/503 195/256/243
f 178/259/245 187/266/504 188/260/246
f 183/261/248 182/253/505 191/254/249
f 75/244/251 77/236/251 182/238/251
f 68/243/252 179/242/252 180/264/252
f 180/252/260 189/251/506 190/265/261
f 183/261/263 192/262/263 187/266/263
f 168/222/205 167/221/205 199/267/205
f 167/221/205 164/207/205 196/269/205
f 213/270/264 216/273/264 226/271/264
f 216/273/265 215/275/265 225/274/265
f 215/275/266 214/277/266 224/276/266
f 214/277/267 212/303/267 222/278/267
f 223/272/264 226/271/264 219/279/264
f 226/271/265 225/274/265 220/281/265
f 225/274/266 224/276/266 221/282/266
f 224/276/267 222/278/267 218/283/267
f 203/284/268 206/297/268 231/285/268
f 231/285/269 206/297/269 205/287/269
f 230/288/270 205/287/270 204/289/270
f 204/289/272 202/300/272 227/291/273
f 207/292/268 228/286/268 231/285/268
f 231/285/269 230/288/269 210/294/269
f 210/294/271 230/288/270 229/290/271
f 229/290/272 227/291/273 208/296/272
f 196/269/274 164/207/182 163/220/182
f 163/220/182 202/300/182 204/289/182
f 204/289/182 205/287/182 206/297/182
f 206/297/182 203/284/507 196/269/274
f 196/269/274 163/220/182 204/289/182
f 213/270/275 239/310/276 236/298/276
f 163/220/204 174/219/204 227/291/204
f 208/296/203 169/224/203 168/222/203
f 168/222/203 200/268/203 207/292/203
f 207/292/203 209/293/508 210/294/277
f 210/294/277 211/295/277 208/296/203
f 208/296/203 168/222/203 207/292/203
f 199/267/278 196/269/278 237/301/279
f 169/224/204 208/296/204 227/291/204
f 173/208/148 222/278/148 212/303/148
f 201/299/138 171/205/138 170/223/138
f 170/223/138 212/303/138 214/277/138
f 214/277/138 215/275/138 216/273/138
f 216/273/138 213/270/138 201/299/138
f 201/299/138 170/223/138 214/277/138
f 196/269/281 203/284/281 242/304/282
f 218/283/142 172/206/142 166/218/142
f 166/218/142 198/217/142 217/280/142
f 217/280/142 219/279/142 220/281/142
f 220/281/142 221/282/142 218/283/142
f 218/283/142 166/218/142 217/280/142
f 217/280/284 198/217/284 233/305/285
f 172/206/148 218/283/148 222/278/148
f 241/307/286 234/302/290 237/301/287
f 243/308/289 235/312/509 234/302/290
f 238/309/1 232/311/1 236/298/1
f 240/306/1 233/305/1 232/311/1
f 213/270/291 223/272/291 238/309/292
f 197/215/293 232/311/293 233/305/293
f 200/268/294 235/312/510 243/308/295
f 207/292/296 243/308/297 241/307/297
f 200/268/278 199/267/278 234/302/280
f 228/286/296 241/307/297 242/304/299
f 201/299/293 236/298/293 232/311/293
f 223/272/291 217/280/291 240/306/292
f 267/332/309 246/451/309 248/333/309
f 270/334/310 248/333/310 249/335/310
f 269/336/311 249/335/312 250/337/312
f 268/338/313 250/337/314 247/339/314
f 251/341/316 253/344/511 260/342/317
f 253/344/319 254/346/512 259/345/320
f 254/346/322 255/348/513 258/347/323
f 255/348/325 252/359/325 256/349/326
f 247/350/328 250/350/328 253/350/328
f 250/350/329 249/350/329 254/350/330
f 249/350/331 248/81/331 255/81/332
f 248/81/333 246/81/333 252/81/334
f 262/351/335 267/332/336 270/334/336
f 265/352/337 270/334/337 269/336/337
f 264/353/338 269/336/339 268/338/339
f 263/354/340 268/338/341 266/340/341
f 261/355/342 257/343/514 260/342/343
f 263/354/345 260/342/515 259/345/346
f 264/353/348 259/345/516 258/347/349
f 265/352/351 258/347/352 256/349/352
f 44/81/353 247/350/517 251/350/354
f 44/88/356 36/89/518 266/340/357
f 55/81/358 252/81/358 246/81/359
f 53/356/361 246/451/361 267/332/362
f 46/82/363 251/341/519 257/343/364
f 55/358/366 54/361/520 256/349/367
f 47/85/369 45/90/365 257/343/364
f 56/360/371 262/351/521 256/349/372
f 56/360/374 52/357/522 267/332/375
f 36/89/376 47/85/523 261/355/377
f 272/362/379 276/452/379 278/363/379
f 275/364/380 278/363/380 279/365/380
f 274/366/381 279/365/382 280/367/382
f 273/368/383 280/367/383 277/369/383
f 286/371/384 288/374/524 285/372/385
f 288/374/387 289/376/525 284/375/388
f 289/376/390 290/378/526 283/377/391
f 290/378/393 287/387/393 281/379/394
f 286/371/396 277/369/527 280/367/397
f 288/374/399 280/367/528 279/365/400
f 289/81/402 279/81/529 278/81/403
f 278/81/405 276/81/530 287/81/406
f 292/380/408 272/362/409 275/364/409
f 275/364/411 274/366/531 294/382/412
f 274/366/414 273/368/532 293/383/415
f 273/368/417 271/370/533 291/384/418
f 291/384/420 282/373/386 285/372/385
f 293/383/422 285/372/389 284/375/388
f 294/382/424 284/375/392 283/377/391
f 295/381/426 283/377/534 281/379/427
f 48/385/429 276/452/429 272/362/429
f 51/87/85 43/86/85 272/362/431
f 50/81/86 287/81/433 276/81/433
f 50/84/435 49/83/435 281/379/435
f 51/87/440 292/380/440 281/379/440
f 298/388/142 306/404/142 307/389/142
f 299/390/441 307/389/441 309/391/441
f 125/392/138 122/395/138 297/393/138
f 121/164/442 296/163/442 297/393/442
f 128/165/443 303/167/443 298/388/443
f 125/392/443 300/394/443 302/397/443
f 124/398/442 299/390/442 301/166/442
f 123/396/142 298/388/142 299/390/142
f 304/400/444 310/405/444 308/401/444
f 307/389/444 306/404/444 311/403/444
f 303/167/138 301/166/138 309/391/138
f 302/397/142 310/405/142 304/400/142
f 300/394/138 297/393/138 305/402/138
f 296/163/441 304/400/441 305/402/441
f 303/167/445 311/403/445 306/404/445
f 300/394/445 308/401/445 310/405/445
f 22/415/52 321/415/460 319/416/458
f 22/60/52 25/47/48 320/47/459
f 21/56/47 319/56/458 320/47/459
