# Blender 4.5.3 LTS
# www.blender.org
o Dino.001
v -0.321368 -0.991318 2.623406
v 0.000000 -0.845095 2.608984
v -0.571368 2.568884 2.601686
v 0.321368 1.009589 2.601686
v 0.321368 -0.964417 2.601686
v 0.000000 2.467021 2.608984
v 0.571368 2.568884 2.601686
v -0.321368 1.009589 2.601686
v -0.242145 -1.034707 2.784891
v -0.242145 -1.034707 3.788975
v 0.242145 -1.034707 3.788975
v 0.242145 -1.034707 2.784891
v -0.358029 -1.725658 3.700315
v -0.413269 -1.499489 4.115031
v 0.084205 -1.291853 4.068058
v 0.139445 -1.518022 3.653342
v -0.083280 -2.152567 3.535162
v -0.169966 -1.793170 4.288890
v 0.327508 -1.662805 4.120592
v 0.253309 -2.012081 3.503380
v -0.332826 -1.925307 3.718200
v 0.164648 -1.794942 3.549902
v 0.190052 -2.441930 3.439792
v 0.371457 -2.540348 4.254628
v 0.397724 -2.702866 4.117922
v 0.318123 -2.619061 3.669996
v 0.249658 -2.700402 4.152131
v 0.498693 -2.618549 4.083923
v 0.097990 -2.441196 3.629042
v 0.345278 -2.340174 3.596116
v 0.061755 -1.359132 4.096409
v -0.335340 -1.523815 4.138306
v 0.048964 -1.717679 4.103247
v -0.151850 -1.766342 4.171465
v 0.245245 -1.665896 4.034401
v 0.040747 -1.387763 4.275660
v 0.059939 -2.088912 3.371193
v 0.060972 -1.334562 4.185575
v -0.336124 -1.499245 4.227471
v 0.048181 -1.823229 4.319827
v -0.152634 -1.904167 4.341525
v 0.244462 -1.739485 4.299629
v 0.039701 -1.354956 4.394719
v -0.267867 -1.515751 4.308221
v 0.030806 -1.767544 4.379998
v -0.125263 -1.830448 4.396861
v 0.183351 -1.702460 4.364300
v -0.268913 -1.482944 4.427280
v 0.029760 -1.734738 4.499057
v -0.126309 -1.797641 4.515921
v 0.182305 -1.669653 4.483360
v 0.087527 -1.269848 4.167975
v -0.403155 -1.473719 4.219849
v 0.076556 -1.887097 4.337675
v -0.179457 -1.968779 4.359094
v 0.311601 -1.764747 4.307180
v -0.048007 -1.508007 4.680738
v -0.078292 -0.845095 3.414752
v -0.301251 -0.845095 3.191793
v -0.270145 -0.944881 3.611692
v -0.163614 -0.845095 3.397780
v -0.235947 -0.845095 3.349449
v -0.284279 -0.845095 3.277115
v -0.321368 2.568884 3.223416
v -0.078292 2.467021 3.414752
v -0.284279 2.467021 3.277115
v -0.235947 2.467021 3.349449
v -0.163614 2.467021 3.397780
v 0.301251 -0.845095 3.191793
v 0.078292 -0.845095 3.414752
v 0.270145 -0.944881 3.611692
v 0.284279 -0.845095 3.277115
v 0.235947 -0.845095 3.349449
v 0.163614 -0.845095 3.397780
v 0.078292 2.467021 3.414752
v 0.321368 2.568884 3.223416
v 0.163614 2.467021 3.397780
v 0.235947 2.467021 3.349449
v 0.284279 2.467021 3.277115
v 0.000000 1.005338 2.608984
v -0.321368 0.022586 2.601686
v 0.000000 1.930555 2.608984
v -0.150625 2.467021 2.608984
v 0.000000 0.080121 2.608984
v -0.571368 1.564335 2.563052
v 0.571368 1.564335 2.563052
v -0.150625 -0.872027 2.615619
v 0.321368 0.022586 2.601686
v 0.150625 -0.845095 2.608984
v 0.150625 1.005338 2.608984
v -0.150625 1.005338 2.608984
v 0.150625 2.467021 2.608984
v -0.150625 0.080121 2.608984
v -0.150625 1.511214 2.523147
v 0.150625 0.080121 2.608984
v 0.150625 1.511214 2.523147
v -0.150625 2.467021 2.063140
v -0.551251 2.467021 2.063140
v 0.551251 1.885008 2.125376
v 0.551251 2.467021 2.063140
v -0.551251 1.885008 2.125376
v 0.150625 2.467021 2.063140
v -0.150625 1.885008 2.125376
v 0.150625 1.885008 2.125376
v -0.076158 2.459799 1.866036
v -0.402316 2.459799 1.866036
v 0.402316 2.118605 1.866036
v 0.402316 2.459799 1.866036
v -0.402316 2.118605 1.866036
v 0.076158 2.459799 1.866036
v -0.076158 2.118605 1.866036
v 0.076158 2.118605 1.866036
v -0.076158 2.459799 1.607510
v -0.402316 2.459799 1.607510
v 0.402316 2.118605 1.607510
v 0.402316 2.459799 1.607510
v -0.402316 2.118605 1.607510
v 0.076158 2.459799 1.607510
v -0.076158 2.118605 1.607510
v 0.076158 2.118605 1.607510
v -0.044263 2.454726 0.423389
v -0.338525 2.454726 0.423389
v 0.338525 2.256425 0.423389
v 0.338525 2.454726 0.423389
v -0.338525 2.256425 0.423389
v 0.044263 2.454726 0.423389
v -0.044263 2.256425 0.423389
v 0.044263 2.256425 0.423389
v -0.321368 -0.501746 2.561257
v 0.225938 -0.845095 2.608984
v -0.225938 -0.872027 2.615619
v 0.321368 -0.470916 2.601686
v -0.150625 -0.413102 2.557361
v -0.225938 0.080121 2.608984
v 0.150625 -0.382487 2.608984
v 0.225938 0.080121 2.608984
v 0.225938 -0.382487 2.608984
v -0.225938 -0.413102 2.557361
v -0.268464 -1.099210 2.140462
v -0.312740 -1.292580 2.349783
v 0.140849 -0.757985 2.140244
v 0.187798 -0.757985 2.140244
v -0.266807 -1.292580 2.359499
v -0.220873 -1.292580 2.369215
v -0.176598 -1.099210 2.159894
v 0.093899 -0.469597 2.140244
v 0.093899 -0.757985 2.140244
v 0.187798 -0.469597 2.140244
v 0.140849 -0.469597 2.140244
v -0.222531 -1.099210 2.150177
v -0.284563 -1.385269 2.216571
v -0.302240 -1.462472 2.300143
v 0.140849 -0.834259 1.980181
v 0.187798 -0.834259 1.980181
v -0.256307 -1.462472 2.309859
v -0.210374 -1.462472 2.319574
v -0.192696 -1.385269 2.236002
v 0.093899 -0.719119 1.980181
v 0.093899 -0.834259 1.980181
v 0.187798 -0.719119 1.980181
v 0.140849 -0.719119 1.980181
v -0.238630 -1.385269 2.226287
v -0.253151 -1.553216 2.068066
v -0.270828 -1.630420 2.151639
v 0.140849 -0.834259 1.753804
v 0.187798 -0.834259 1.753804
v -0.224895 -1.630420 2.161354
v -0.178962 -1.630420 2.171070
v -0.161285 -1.553216 2.087498
v 0.093899 -0.719119 1.753804
v 0.093899 -0.834259 1.753804
v 0.187798 -0.719119 1.753804
v 0.140849 -0.719119 1.753804
v -0.207218 -1.553216 2.077782
v -0.321368 0.802233 2.912551
v 0.321368 0.802233 2.912551
v 0.000000 2.522642 2.976291
v -0.078292 3.012492 3.472003
v -0.163614 3.012492 3.455031
v -0.235947 3.012492 3.406700
v -0.284279 3.012492 3.334367
v 0.163614 3.012492 3.455031
v 0.078292 3.012492 3.472003
v 0.235947 3.012492 3.406700
v 0.284279 3.012492 3.334367
v 0.000000 3.068114 3.033543
v -0.036437 4.865843 5.136629
v -0.076146 4.870495 5.130246
v -0.109810 4.883744 5.112068
v -0.132304 4.903572 5.084864
v 0.076146 4.870495 5.130246
v 0.036437 4.865843 5.136629
v 0.109810 4.883744 5.112068
v 0.132304 4.903572 5.084864
v 0.000000 5.006954 4.986970
v -0.251152 -1.735623 2.058614
v 0.140849 -0.834259 1.611999
v 0.187798 -0.834259 1.611999
v -0.205218 -1.735623 2.068330
v -0.159285 -1.735623 2.078045
v 0.093899 -0.834259 1.611999
v -0.248102 -1.580212 2.044196
v -0.249659 -1.729104 2.051557
v -0.243736 -1.615522 2.023556
v -0.242499 -1.656217 2.017707
v -0.244579 -1.696101 2.027540
v -0.157793 -1.729104 2.070988
v -0.156236 -1.580212 2.063627
v -0.152712 -1.696101 2.046972
v -0.150633 -1.656217 2.037139
v -0.151870 -1.615522 2.042988
v 0.093899 -0.719119 1.717416
v 0.093899 -0.824536 1.611999
v 0.093899 -0.727144 1.677075
v 0.093899 -0.749995 1.642875
v 0.093899 -0.784195 1.620024
v 0.187798 -0.824536 1.611999
v 0.187798 -0.719119 1.717416
v 0.187798 -0.784195 1.620024
v 0.187798 -0.749995 1.642875
v 0.187798 -0.727144 1.677075
v 0.140849 -0.719119 1.717416
v 0.140849 -0.824536 1.611999
v 0.140849 -0.727144 1.677075
v 0.140849 -0.749995 1.642875
v 0.140849 -0.784195 1.620024
v -0.202169 -1.580212 2.053912
v -0.203726 -1.729104 2.061273
v -0.197803 -1.615522 2.033272
v -0.196566 -1.656217 2.027423
v -0.198646 -1.696101 2.037256
v 0.005888 -0.829601 1.524542
v 0.007850 -0.829601 1.524542
v -0.060328 -1.797384 2.035506
v -0.058408 -1.797384 2.035912
v 0.003925 -0.829601 1.524542
v -0.062248 -1.797384 2.035099
v 0.005888 -0.829194 1.524542
v 0.003925 -0.829194 1.524542
v 0.007850 -0.829194 1.524542
v -0.060266 -1.797111 2.035210
v -0.062186 -1.797111 2.034804
v -0.058346 -1.797111 2.035616
v -0.271393 -0.971403 3.193920
v 0.271393 -0.971403 3.193920
v -0.403364 -1.467620 4.242110
v -0.361795 -1.476601 4.283860
v -0.400288 -1.465708 4.254759
v -0.391308 -1.466743 4.267136
v -0.377791 -1.470569 4.277354
v -0.163182 -1.915999 4.407484
v -0.179711 -1.962625 4.381340
v -0.169615 -1.931223 4.406943
v -0.175016 -1.945431 4.401785
v -0.178561 -1.956457 4.392795
v 0.076361 -1.880965 4.359929
v 0.063690 -1.843729 4.387850
v 0.075313 -1.875522 4.371521
v 0.072537 -1.866534 4.380898
v 0.068456 -1.855370 4.386632
v 0.271734 -1.735304 4.361519
v 0.311429 -1.758558 4.329417
v 0.286852 -1.741570 4.358695
v 0.299704 -1.748188 4.351602
v 0.308334 -1.754154 4.341321
v 0.072866 -1.296004 4.237897
v 0.087363 -1.263728 4.190232
v 0.078345 -1.281049 4.229125
v 0.083023 -1.269664 4.216987
v 0.086190 -1.263582 4.203330
v -0.006366 -1.408829 4.644901
v 0.039438 -1.323549 4.515715
v 0.011102 -1.369037 4.623034
v 0.025941 -1.338857 4.590804
v 0.035891 -1.322884 4.553119
v -0.269177 -1.451537 4.548276
v -0.153655 -1.469915 4.660441
v -0.260443 -1.445779 4.584384
v -0.235422 -1.447250 4.618381
v -0.197923 -1.455725 4.645088
v 0.029496 -1.703330 4.620053
v -0.010844 -1.590681 4.694799
v 0.026366 -1.687599 4.653314
v 0.017600 -1.660666 4.679198
v 0.004534 -1.626633 4.693766
v -0.085767 -1.620615 4.702846
v -0.126572 -1.766234 4.636917
v -0.101443 -1.669184 4.705186
v -0.114702 -1.713914 4.693479
v -0.123526 -1.747992 4.669505
v 0.062193 -1.559256 4.687235
v 0.182042 -1.638246 4.604356
v 0.107997 -1.582328 4.683089
v 0.146858 -1.605441 4.665882
v 0.172859 -1.625077 4.638235
v -0.044263 2.166623 0.044573
v -0.338525 2.166623 0.044573
v 0.338525 1.702374 0.084535
v 0.338525 2.166623 0.044573
v -0.338525 1.702374 0.084535
v 0.044263 2.166623 0.044573
v -0.044263 1.702374 0.084535
v 0.044263 1.702374 0.084535
v -0.044263 1.902201 0.000212
v -0.338525 1.902201 0.000212
v 0.338525 1.437952 0.040174
v 0.338525 1.902201 0.000212
v -0.338525 1.437952 0.040174
v 0.044263 1.902201 0.000212
v -0.044263 1.437952 0.040174
v 0.044263 1.437952 0.040174
v -0.109292 -1.621840 3.676828
v -0.149045 -1.907285 3.535754
v 0.099692 -1.803467 3.512268
v -0.059350 -2.169982 4.001649
v 0.341429 -2.037710 3.892441
v 0.144579 -2.117265 3.945836
v 0.000000 -0.955156 3.631969
vn -0.0000 -0.0000 -1.0000
vn 0.9983 -0.0488 -0.0326
vn 0.9917 -0.1282 0.0074
vn 0.9985 -0.0068 -0.0535
vn 0.0804 -0.1274 -0.9886
vn 0.0163 -0.1492 -0.9887
vn -0.0379 -0.1672 -0.9852
vn -0.0000 0.2392 0.9710
vn -0.0000 -0.2392 -0.9710
vn -0.4361 0.4600 -0.7734
vn 0.1171 0.5760 -0.8090
vn 0.1689 0.5775 -0.7987
vn 0.0427 -0.0004 -0.9991
vn 0.0478 -0.0039 -0.9989
vn 0.0739 -0.0054 -0.9973
vn -0.0990 0.6714 0.7344
vn -0.0953 0.6740 0.7325
vn -0.0000 0.7354 0.6776
vn 0.4490 -0.0179 -0.8934
vn 0.1036 -0.1363 -0.9852
vn -0.0000 -0.1673 -0.9859
vn 0.0627 0.0733 -0.9953
vn 0.0458 -0.0142 -0.9988
vn 0.5542 -0.0825 -0.8283
vn -0.0804 -0.1274 -0.9886
vn -0.0163 -0.1492 -0.9887
vn -0.1085 -0.1176 -0.9871
vn 0.9631 -0.2392 0.1231
vn 0.9659 -0.2355 0.1077
vn 0.9782 -0.2079 -0.0000
vn 0.0851 -0.8213 -0.5641
vn 0.3119 -0.8454 -0.4336
vn 0.2147 -0.8421 -0.4948
vn -0.9816 0.1746 -0.0779
vn -0.9775 0.1784 -0.1125
vn -0.9544 0.1897 -0.2306
vn -0.9633 -0.2650 0.0436
vn -0.9138 -0.1492 -0.3778
vn -0.8692 -0.4390 0.2274
vn -0.5595 -0.4333 0.7066
vn 0.1651 0.2210 0.9612
vn -0.6200 -0.4941 0.6095
vn 0.8769 0.4151 -0.2424
vn -0.8911 -0.3869 0.2373
vn -0.3295 -0.6292 0.7039
vn -0.5726 -0.7721 -0.2756
vn 0.9163 0.3236 0.2360
vn 0.1671 -0.6187 0.7676
vn -0.3547 -0.2977 0.8863
vn 0.9216 0.2261 -0.3154
vn -0.1918 -0.5852 -0.7879
vn 0.8222 0.1260 0.5551
vn 0.6013 -0.4552 0.6567
vn 0.1308 -0.5015 -0.8552
vn -0.5761 -0.5806 0.5754
vn -0.7548 -0.5761 -0.3138
vn -0.7351 -0.5773 -0.3554
vn 0.3794 0.2022 0.9028
vn 0.7618 -0.2342 -0.6040
vn 0.7097 -0.0002 -0.7045
vn 0.3408 0.6595 0.6701
vn 0.4386 0.5238 0.7302
vn -0.1680 0.9663 0.1949
vn -0.0790 0.4170 0.9055
vn -0.1120 0.4681 0.8766
vn -0.0732 0.4079 0.9101
vn 0.6993 0.6241 0.3484
vn -0.0290 0.4741 0.8800
vn -0.1380 0.4174 0.8982
vn -0.1544 0.5178 0.8415
vn -0.1310 0.3749 0.9178
vn -0.0901 0.1460 0.9852
vn -0.3933 0.8855 -0.2475
vn -0.3933 0.8855 -0.2474
vn -0.8097 -0.4913 -0.3210
vn -0.8228 -0.5683 0.0033
vn -0.7980 -0.5828 0.1536
vn 0.2284 -0.9163 -0.3291
vn 0.2505 -0.9028 -0.3496
vn 0.3208 -0.8519 -0.4140
vn 0.1502 -0.8384 -0.5240
vn 0.1572 -0.8326 -0.5312
vn 0.2383 -0.7550 -0.6108
vn 0.8874 0.4520 0.0910
vn 0.8668 0.4975 -0.0338
vn 0.8902 0.4384 0.1243
vn -0.2706 0.4566 -0.8475
vn 0.4291 0.3515 -0.8321
vn 0.5525 0.0419 -0.8325
vn -0.6265 -0.3648 -0.6888
vn -0.7028 -0.1868 -0.6864
vn 0.0093 -0.2643 -0.9644
vn 0.0094 -0.2662 -0.9639
vn 0.0077 -0.2664 -0.9638
vn 0.0081 -0.2666 -0.9638
vn 0.0095 -0.2660 -0.9639
vn 0.3851 -0.8889 0.2483
vn 0.9166 0.3875 -0.0987
vn -0.9166 -0.3875 0.0987
vn 0.4017 -0.8820 0.2466
vn 0.0096 -0.2661 -0.9639
vn 0.0082 -0.2651 -0.9642
vn 0.0085 -0.2656 -0.9640
vn 0.0072 -0.2654 -0.9641
vn -0.0775 0.9178 0.3895
vn -0.2156 0.9217 0.3226
vn -0.4134 0.8676 0.2762
vn -0.8719 0.4580 0.1734
vn 0.8719 0.4580 0.1734
vn 0.4134 0.8676 0.2762
vn 0.2156 0.9217 0.3226
vn 0.0775 0.9178 0.3895
vn -0.1951 -0.0000 0.9808
vn -0.5556 -0.0000 0.8315
vn -0.8315 -0.0000 0.5556
vn -0.8337 -0.0099 0.5521
vn -0.9798 -0.0001 0.1999
vn -0.9808 -0.0000 0.1951
vn 0.1951 -0.0000 0.9808
vn 0.5556 -0.0000 0.8315
vn 0.8315 -0.0000 0.5556
vn 0.8337 -0.0099 0.5521
vn 0.9798 -0.0001 0.1999
vn 0.8316 -0.0100 0.5553
vn 0.9704 -0.2281 0.0792
vn 0.9258 -0.0655 0.3723
vn -0.0000 -0.0000 1.0000
vn 0.1418 0.9844 -0.1040
vn 0.1007 0.9922 -0.0739
vn 0.2346 0.9567 -0.1722
vn 0.0555 0.0156 -0.9983
vn 0.2748 0.0772 -0.9584
vn 0.3035 0.0852 -0.9490
vn -0.0427 -0.0004 -0.9991
vn -0.0416 -0.0036 -0.9991
vn -0.0049 -0.0069 -1.0000
vn -0.4490 -0.0179 -0.8934
vn -0.1036 -0.1363 -0.9852
vn -0.4951 -0.0000 -0.8688
vn -0.0555 0.0156 -0.9983
vn -0.2748 0.0772 -0.9584
vn -0.0932 -0.7707 -0.6304
vn -0.0659 -0.7594 -0.6473
vn -0.0000 -0.7287 -0.6848
vn 0.8182 -0.0248 -0.5744
vn 0.8311 -0.0415 -0.5546
vn 0.7978 -0.0000 -0.6029
vn -0.0000 0.9993 -0.0366
vn 0.0932 -0.7707 -0.6304
vn 0.0659 -0.7594 -0.6473
vn 0.1560 -0.7934 -0.5884
vn -1.0000 -0.0000 -0.0000
vn 0.9992 -0.0015 -0.0400
vn 0.9991 -0.0000 -0.0422
vn 0.9993 -0.0039 -0.0366
vn 1.0000 -0.0000 -0.0000
vn -0.9992 -0.0015 -0.0400
vn -0.9991 -0.0000 -0.0422
vn -0.9990 0.0017 -0.0447
vn -0.1418 0.9844 -0.1040
vn -0.1007 0.9922 -0.0739
vn -0.0000 1.0000 -0.0000
vn -0.9426 0.0127 0.3336
vn -0.9488 0.0247 0.3149
vn -0.9525 0.0324 0.3027
vn 0.9426 0.0127 0.3336
vn 0.9488 0.0247 0.3149
vn 0.9355 -0.0000 0.3534
vn -0.8182 -0.0248 -0.5744
vn -0.8311 -0.0415 -0.5546
vn -0.8426 -0.0573 -0.5355
vn -0.0000 -0.7430 -0.6693
vn -0.0000 -0.9933 -0.1156
vn -0.0000 1.0000 -0.0022
vn -0.0000 1.0000 -0.0043
vn -0.0000 1.0000 -0.0021
vn -0.0000 -1.0000 -0.0000
vn 0.9986 -0.0000 -0.0538
vn -0.9996 -0.0000 0.0269
vn 0.9996 -0.0000 0.0269
vn -0.9986 -0.0000 -0.0538
vn -0.0000 -0.9832 -0.1827
vn -0.0763 -0.0000 -0.9971
vn 0.1634 -0.6682 -0.7258
vn -0.0406 -0.6230 -0.7812
vn 0.1512 -0.7621 -0.6296
vn 0.6277 0.7546 -0.1913
vn 0.0965 0.9771 -0.1894
vn -0.0000 0.9832 -0.1827
vn 0.0006 0.1013 -0.9949
vn -0.0999 0.0790 -0.9919
vn -0.1114 0.0764 -0.9908
vn -0.0000 0.1041 -0.9946
vn -0.0000 -0.9027 0.4302
vn -0.9784 -0.0000 -0.2069
vn 0.5861 -0.4712 0.6591
vn -0.0402 -0.6625 0.7480
vn 0.6176 -0.4520 0.6437
vn 0.0067 0.5016 -0.8651
vn 0.1691 0.5031 -0.8475
vn 0.1789 0.5028 -0.8457
vn -0.0103 -0.5056 0.8627
vn -0.1644 -0.5001 0.8502
vn -0.0000 -0.5055 0.8628
vn -0.7543 -0.6537 -0.0601
vn -0.1242 -0.9773 -0.1715
vn -0.7814 -0.6218 -0.0520
vn -0.9936 0.0140 -0.1120
vn -0.9920 0.0439 -0.1185
vn -0.9879 0.0878 -0.1278
vn -0.9928 -0.0000 0.1201
vn 0.9606 -0.0000 -0.2780
vn 0.1997 -0.2624 -0.9441
vn -0.1983 -0.2862 0.9374
vn -0.0000 0.5399 -0.8417
vn 0.9784 -0.0000 0.2069
vn 0.1535 0.6705 -0.7258
vn -0.1535 -0.6705 0.7258
vn -0.9993 -0.0059 0.0369
vn -0.9993 -0.0061 0.0357
vn -0.9993 -0.0060 0.0365
vn -0.9994 -0.0062 0.0353
vn -0.9258 -0.0655 0.3723
vn -0.8344 -0.0212 0.5507
vn -0.8695 -0.4109 -0.2741
vn 0.9994 -0.0062 0.0353
vn 0.8695 -0.4109 -0.2741
vn 0.8344 -0.0212 0.5507
vn 0.1091 0.9931 -0.0439
vn 0.5616 0.5365 0.6299
vn 0.7315 0.0712 -0.6781
vn -0.7315 0.0712 -0.6781
vn 0.5535 -0.0869 0.8283
vn -0.8301 -0.0582 0.5546
vn -0.1941 -0.1024 0.9756
vn -0.0000 -0.1044 0.9945
vn 0.8301 -0.0582 0.5546
vn -0.5616 0.5365 0.6299
vn -0.1091 0.9931 -0.0439
vn -0.2324 0.9430 -0.2381
vn -0.0000 0.9887 -0.1497
vn 0.2324 0.9430 -0.2381
vn 0.7595 -0.4080 0.5066
vn 0.8302 -0.3438 0.4387
vn 0.8313 -0.3427 0.4376
vn -0.4517 -0.5842 0.6744
vn -0.5525 -0.5436 0.6319
vn -0.4508 -0.5845 0.6747
vn 0.4517 -0.5842 0.6744
vn 0.5525 -0.5436 0.6319
vn 0.5543 -0.5428 0.6309
vn 0.6653 0.5303 -0.5256
vn 0.7263 0.4970 -0.4749
vn 0.7325 0.4932 -0.4692
vn -0.6653 0.5303 -0.5256
vn -0.7263 0.4970 -0.4749
vn -0.6624 0.5317 -0.5277
vn -0.1473 -0.6585 0.7380
vn -0.1932 -0.6532 0.7321
vn -0.1468 -0.6586 0.7381
vn 0.1473 -0.6585 0.7380
vn 0.1932 -0.6532 0.7321
vn 0.1942 -0.6531 0.7320
vn 0.1941 -0.1024 0.9756
vn -0.5535 -0.0869 0.8283
vn -0.1135 0.7559 0.6448
vn -0.0695 0.7406 0.6684
vn -0.0242 0.7303 0.6827
vn -0.0000 0.7276 0.6860
vn 0.0242 0.7303 0.6827
vn 0.0695 0.7406 0.6684
vn 0.1135 0.7559 0.6448
vn -0.7595 -0.4080 0.5066
vn -0.8302 -0.3438 0.4387
vn -0.7590 -0.4084 0.5071
vn -0.0000 -0.6682 0.7440
vn -0.0000 0.1951 -0.9808
vn -0.0000 0.5556 -0.8315
vn -0.0000 0.8315 -0.5556
vn -0.0000 0.9808 -0.1951
vn 0.1660 -0.5968 -0.7850
vn 0.2007 -0.2444 -0.9487
vn 0.2047 0.1453 -0.9680
vn 0.2048 0.1453 -0.9680
vn 0.1777 0.5129 -0.8399
vn 0.1776 0.5129 -0.8399
vn -0.9784 -0.0000 -0.2070
vn -0.6970 -0.0000 0.7171
vn -0.6971 -0.0000 0.7170
vn 0.9783 -0.0000 0.2070
vn -0.1459 -0.7090 0.6899
vn -0.1463 -0.7095 0.6894
vn -0.1459 -0.7091 0.6899
vn -0.3029 -0.6673 -0.6805
vn -0.3023 -0.6664 -0.6815
vn -0.3023 -0.6664 -0.6816
vn 0.4371 -0.0000 -0.8994
vn 0.4372 -0.0000 -0.8994
vn 0.1389 -0.7420 -0.6559
vn 0.1387 -0.7413 -0.6567
vn 0.1386 -0.7412 -0.6569
vn 0.1387 -0.7417 -0.6562
vn 0.1389 -0.7420 -0.6558
vn -0.0000 0.9986 -0.0532
vn -0.0000 0.9986 -0.0531
vn -0.0000 -0.9986 -0.0532
vn 0.5824 0.5320 0.6146
vn 0.5820 0.5329 0.6142
vn 0.1607 0.6301 -0.7597
vn 0.1606 0.6301 -0.7597
vn -0.1458 -0.7090 0.6900
vn 0.1609 0.6299 -0.7598
vn -0.9731 -0.2297 0.0175
vn -0.9693 -0.2276 0.0929
vn -0.5998 -0.7961 0.0803
vn -0.9078 -0.4194 -0.0000
vn -0.9648 -0.2622 0.0195
vn 0.9731 -0.2297 0.0175
vn 0.9648 -0.2622 0.0195
vn 0.9078 -0.4194 -0.0000
vn 0.7291 -0.6824 0.0535
vn -0.3874 0.9208 -0.0450
vn -0.3873 0.9208 -0.0450
vn -0.3350 0.8871 0.3174
vn -0.3351 0.8872 0.3173
vn -0.2481 0.7524 0.6101
vn -0.2482 0.7525 0.6101
vn -0.1354 0.5377 0.8322
vn -0.1355 0.5380 0.8320
vn 0.1105 -0.0815 0.9905
vn 0.1054 -0.0615 0.9925
vn 0.1052 -0.0607 0.9926
vn 0.2032 -0.4012 0.8932
vn 0.2006 -0.3890 0.8991
vn 0.2005 -0.3886 0.8993
vn 0.2689 -0.6590 0.7024
vn 0.2683 -0.6547 0.7067
vn 0.2682 -0.6546 0.7068
vn 0.3069 -0.8505 0.4271
vn 0.3070 -0.8505 0.4271
vn -0.3387 0.1098 0.9345
vn -0.3386 0.1099 0.9345
vn -0.6119 -0.0545 0.7891
vn -0.6114 -0.0542 0.7894
vn -0.8005 -0.2031 0.5638
vn -0.8002 -0.2028 0.5643
vn -0.9037 -0.3323 0.2700
vn -0.9037 -0.3324 0.2697
vn 0.9002 0.4289 0.0754
vn 0.9001 0.4289 0.0758
vn 0.7915 0.4687 0.3923
vn 0.7914 0.4687 0.3923
vn 0.5984 0.4562 0.6586
vn 0.3223 0.3888 0.8631
vn 0.3217 0.3886 0.8634
vn 0.3224 0.3888 0.8631
vn 0.1581 -0.0616 0.9855
vn 0.1479 -0.0437 0.9880
vn 0.1584 -0.0620 0.9854
vn 0.3015 -0.3601 0.8829
vn 0.2957 -0.3492 0.8892
vn 0.3016 -0.3604 0.8827
vn 0.4032 -0.6028 0.6885
vn 0.4014 -0.5991 0.6928
vn 0.4033 -0.6029 0.6884
vn 0.4625 -0.7857 0.4109
vn 0.4625 -0.7857 0.4108
vn -0.1692 0.1953 0.9660
vn -0.1696 0.1952 0.9660
vn -0.1697 0.1952 0.9660
vn -0.0699 0.4007 0.9135
vn -0.0697 0.4005 0.9137
vn -0.9170 -0.3871 0.0966
vn -0.9169 -0.3869 0.0974
vn -0.3940 0.8855 -0.2463
vn -0.3940 0.8855 -0.2464
vn 0.0547 0.1045 0.9930
vn 0.0552 0.1191 0.9913
vn 0.0527 0.1249 0.9908
vn 0.3131 -0.9145 0.2565
vn 0.3132 -0.9148 0.2549
vn 0.3131 -0.9144 0.2566
vn 0.0664 0.1091 0.9918
vn 0.0705 0.1057 0.9919
vn 0.4727 -0.8480 0.2396
vn 0.4726 -0.8485 0.2381
vn 0.4726 -0.8486 0.2380
vn 0.9167 0.3868 -0.1005
vn 0.9167 0.3870 -0.0997
vn 0.9167 0.3868 -0.1006
vn 0.1511 0.3306 0.9316
vn 0.1522 0.3312 0.9312
vn 0.1510 0.3305 0.9316
vn -0.3873 0.9204 -0.0531
vn -0.3405 0.8946 0.2893
vn -0.2529 0.7616 0.5967
vn -0.1264 0.5198 0.8449
vn 0.1010 0.0152 0.9948
vn 0.0991 0.0140 0.9950
vn 0.0992 0.0139 0.9950
vn 0.2239 -0.3085 0.9245
vn 0.2255 -0.3087 0.9240
vn 0.2256 -0.3089 0.9240
vn 0.3206 -0.5993 0.7335
vn 0.3253 -0.5979 0.7326
vn 0.3253 -0.5980 0.7325
vn 0.3775 -0.8227 0.4251
vn 0.3774 -0.8229 0.4248
vn 0.3774 -0.8229 0.4247
vn -0.2856 0.1379 0.9484
vn -0.2847 0.1386 0.9485
vn -0.2857 0.1379 0.9484
vn -0.5866 -0.0377 0.8090
vn -0.5854 -0.0366 0.8099
vn -0.5867 -0.0378 0.8089
vn -0.7944 -0.1981 0.5742
vn -0.7937 -0.1973 0.5754
vn -0.7944 -0.1982 0.5741
vn -0.9031 -0.3328 0.2715
vn -0.9032 -0.3329 0.2709
vn -0.9032 -0.3329 0.2708
vn 0.8998 0.4295 0.0770
vn 0.8997 0.4296 0.0776
vn 0.8998 0.4295 0.0769
vn 0.7839 0.4699 0.4059
vn 0.7847 0.4696 0.4046
vn 0.7848 0.4696 0.4045
vn 0.5704 0.4522 0.6857
vn 0.5719 0.4522 0.6845
vn 0.5720 0.4522 0.6844
vn 0.2668 0.3718 0.8892
vn 0.2677 0.3719 0.8888
vn 0.2678 0.3719 0.8888
vn 0.0970 0.0135 0.9952
vn 0.0969 0.0135 0.9952
vn 0.2266 -0.3074 0.9242
vn 0.2265 -0.3073 0.9243
vn 0.3296 -0.5955 0.7327
vn 0.3295 -0.5954 0.7328
vn 0.3920 -0.8166 0.4236
vn 0.3921 -0.8167 0.4233
vn 0.3920 -0.8166 0.4237
vn -0.3934 0.8897 -0.2318
vn -0.0501 0.3579 0.9324
vn 0.9166 0.3876 -0.0986
vn 0.0865 0.3062 0.9480
vn -0.9166 -0.3876 0.0986
vn -0.1049 0.2253 0.9686
vn 0.3851 -0.8931 0.2327
vn 0.0289 0.1802 0.9832
vn 0.0250 0.1785 0.9836
vn 0.0290 0.1803 0.9832
vn 0.0329 0.1819 0.9828
vn 0.4018 -0.8861 0.2309
vn -0.0000 0.1655 -0.9862
vn -0.0000 0.7960 -0.6054
vn -0.0000 -0.5217 0.8531
vn -0.0000 -0.0858 -0.9963
vn -0.0000 -0.1655 0.9862
vn 0.1618 -0.1677 0.9725
vn 0.1917 -0.2443 0.9505
vn 0.3759 -0.7916 0.4818
vn -0.7983 -0.4954 0.3425
vn -0.8054 -0.3294 0.4927
vn -0.8669 -0.4371 0.2395
vn 0.9545 0.1801 -0.2377
vn 0.9143 0.1200 -0.3868
vn 0.0105 0.7752 0.6316
vn -0.0132 0.7506 0.6607
vn 0.1604 0.3548 0.9211
vn 0.2157 0.3600 0.9077
vn 0.0637 0.3066 0.9497
vn 0.1161 0.3392 0.9335
vn -0.1433 0.7711 0.6204
vn -0.0000 0.8920 0.4520
vn 0.9820 -0.1854 0.0364
vn 0.1085 -0.1176 -0.9871
vn -0.4526 0.4534 -0.7678
vn 0.0427 -0.0000 -0.9991
vn -0.1811 0.6086 0.7725
vn 0.4951 -0.0000 -0.8688
vn -0.0440 -0.0000 -0.9990
vn 0.0379 -0.1672 -0.9852
vn 0.9231 -0.2723 0.2715
vn -0.0000 -0.7982 -0.6024
vn -0.9862 0.1654 -0.0000
vn -0.8089 -0.5548 0.1948
vn -0.6698 -0.1497 -0.7273
vn 0.2595 0.3002 0.9179
vn 0.9750 0.2220 0.0088
vn 0.8073 0.4811 -0.3418
vn 0.5325 0.3505 0.7705
vn -0.1141 0.4713 0.8746
vn 0.7541 0.6054 0.2546
vn -0.2003 0.9672 0.1565
vn -0.7958 -0.4686 -0.3835
vn 0.1586 -0.9515 -0.2635
vn 0.0689 -0.8969 -0.4368
vn 0.8374 0.5288 -0.1384
vn -0.8316 -0.0100 0.5553
vn 0.9808 -0.0000 0.1951
vn -0.0427 -0.0000 -0.9991
vn -0.3035 0.0852 -0.9490
vn -0.1560 -0.7934 -0.5884
vn 0.8426 -0.0573 -0.5355
vn 0.9990 0.0017 -0.0447
vn -0.9993 -0.0039 -0.0366
vn -0.2346 0.9567 -0.1722
vn -0.9355 -0.0000 0.3534
vn 0.9525 0.0324 0.3027
vn -0.7978 -0.0000 -0.6029
vn 0.6692 -0.5667 -0.4806
vn -0.0175 0.0471 -0.9987
vn -0.0000 -0.9336 -0.3582
vn 0.6596 0.7275 -0.1889
vn 0.0133 0.1041 -0.9945
vn -0.1542 -0.6667 0.7292
vn -0.0000 0.5013 -0.8653
vn -0.1793 -0.4989 0.8479
vn -0.9943 -0.0134 -0.1059
vn 0.7590 -0.4084 0.5071
vn -0.5543 -0.5428 0.6309
vn 0.4508 -0.5845 0.6747
vn 0.6624 0.5317 -0.5277
vn -0.7325 0.4932 -0.4692
vn -0.1942 -0.6531 0.7320
vn 0.1468 -0.6586 0.7381
vn -0.8313 -0.3427 0.4376
vn -0.9783 -0.0001 -0.2071
vn 0.9783 0.0001 0.2071
vn 0.1386 -0.7417 -0.6563
vn 0.5820 0.5330 0.6141
vn -0.1356 0.5380 0.8320
vn 0.1106 -0.0820 0.9905
vn 0.2033 -0.4015 0.8930
vn 0.2690 -0.6591 0.7023
vn 0.1475 -0.0430 0.9881
vn 0.2955 -0.3488 0.8894
vn 0.4014 -0.5989 0.6929
vn -0.1691 0.1953 0.9660
vn -0.0697 0.4004 0.9137
vn 0.0544 0.0993 0.9936
vn 0.3132 -0.9149 0.2548
vn 0.4727 -0.8480 0.2397
vn 0.1524 0.3313 0.9311
vn 0.1010 0.0153 0.9948
vn 0.2239 -0.3083 0.9246
vn 0.3206 -0.5991 0.7336
vn 0.3775 -0.8226 0.4252
vn -0.2845 0.1388 0.9486
vn -0.5852 -0.0364 0.8101
vn -0.7936 -0.1972 0.5756
vn 0.8997 0.4296 0.0777
vn 0.7838 0.4699 0.4061
vn 0.5702 0.4521 0.6859
vn 0.2665 0.3717 0.8893
vn 0.3922 -0.8168 0.4232
vt 0.281048 0.945658
vt 0.314686 0.911719
vt 0.313870 0.945117
vt 0.209383 0.373980
vt 0.348853 0.338105
vt 0.293184 0.435857
vt 0.272165 0.957793
vt 0.207623 0.946525
vt 0.247974 0.945901
vt 0.263324 0.874264
vt 0.226429 0.876483
vt 0.154589 0.890286
vt 0.373549 0.422874
vt 0.284567 0.337912
vt 0.226503 0.339128
vt 0.329417 0.911433
vt 0.351341 0.908945
vt 0.855428 0.683000
vt 0.892063 0.662877
vt 0.885260 0.688752
vt 0.304459 0.957402
vt 0.267813 0.912382
vt 0.285545 0.892948
vt 0.356033 0.944912
vt 0.384152 0.958000
vt 0.883826 0.590786
vt 0.777472 0.637119
vt 0.799104 0.390115
vt 0.610575 0.496682
vt 0.586403 0.610741
vt 0.559396 0.610741
vt 0.884866 0.589186
vt 0.778055 0.636224
vt 0.870945 0.683390
vt 0.890193 0.879140
vt 0.903591 0.892386
vt 0.983576 0.985666
vt 0.616872 0.773846
vt 0.604643 0.809840
vt 0.610651 0.778499
vt 0.878493 0.957802
vt 0.957258 0.830133
vt 0.654066 0.655853
vt 0.654589 0.601678
vt 0.675245 0.650804
vt 0.620306 0.684105
vt 0.543840 0.723976
vt 0.632533 0.648464
vt 0.780409 0.812035
vt 0.779995 0.876022
vt 0.765330 0.860216
vt 0.811856 0.676865
vt 0.790411 0.725644
vt 0.801955 0.666281
vt 0.806877 0.986081
vt 0.566978 0.986081
vt 0.686992 0.831930
vt 0.683573 0.757714
vt 0.829532 0.727050
vt 0.822571 0.666986
vt 0.795995 0.861390
vt 0.890934 0.771038
vt 0.778789 0.719802
vt 0.685661 0.704397
vt 0.809923 0.730314
vt 0.794882 0.731979
vt 0.607362 0.815576
vt 0.575154 0.804155
vt 0.870130 0.718547
vt 0.894026 0.707234
vt 0.871576 0.709584
vt 0.247339 0.206287
vt 0.203666 0.206287
vt 0.101743 0.191657
vt 0.203666 0.228123
vt 0.203666 0.249960
vt 0.652964 0.778408
vt 0.600280 0.750664
vt 0.652845 0.714034
vt 0.609808 0.719614
vt 0.556733 0.712395
vt 0.647537 0.694116
vt 0.110475 0.191657
vt 0.358546 0.079456
vt 0.386971 0.141563
vt 0.337319 0.116996
vt 0.466508 0.148000
vt 0.427045 0.265782
vt 0.424586 0.173166
vt 0.366476 0.346440
vt 0.463398 0.285195
vt 0.409172 0.110245
vt 0.304959 0.783133
vt 0.338708 0.782279
vt 0.372593 0.790280
vt 0.371842 0.780871
vt 0.401452 0.779013
vt 0.426674 0.776865
vt 0.149039 0.785749
vt 0.182997 0.786044
vt 0.288491 0.792792
vt 0.218258 0.785900
vt 0.253016 0.785242
vt 0.284389 0.784142
vt 0.311981 0.990504
vt 0.360673 0.894682
vt 0.299871 0.896219
vt 0.355244 0.989366
vt 0.420368 0.892145
vt 0.394968 0.987350
vt 0.473712 0.888797
vt 0.428747 0.984488
vt 0.519152 0.884926
vt 0.262812 0.898038
vt 0.248208 0.989428
vt 0.291565 0.990500
vt 0.206290 0.900020
vt 0.208100 0.987468
vt 0.143670 0.901205
vt 0.173688 0.984644
vt 0.018965 0.900932
vt 0.163951 0.981550
vt 0.079570 0.839289
vt 0.285991 0.805707
vt 0.286095 0.850887
vt 0.242991 0.972808
vt 0.115950 0.940956
vt 0.305621 0.972449
vt 0.340241 0.968394
vt 0.350150 0.972873
vt 0.292223 0.964830
vt 0.218074 0.913809
vt 0.191517 0.898309
vt 0.185286 0.883323
vt 0.198530 0.915010
vt 0.285964 0.972403
vt 0.295991 0.972829
vt 0.349942 0.964130
vt 0.324100 0.964349
vt 0.248657 0.968594
vt 0.249093 0.966530
vt 0.252128 0.967765
vt 0.259043 0.968445
vt 0.256763 0.967671
vt 0.235429 0.964639
vt 0.196994 0.959122
vt 0.260302 0.964656
vt 0.329333 0.968252
vt 0.254306 0.966987
vt 0.256714 0.966622
vt 0.253319 0.967326
vt 0.329884 0.966359
vt 0.330922 0.967445
vt 0.337712 0.966212
vt 0.335813 0.967526
vt 0.253765 0.967151
vt 0.252549 0.966965
vt 0.332887 0.967061
vt 0.333551 0.966896
vt 0.334135 0.967071
vt 0.334563 0.966689
vt 0.332761 0.966722
vt 0.254512 0.967312
vt 0.181282 0.344021
vt 0.186614 0.290202
vt 0.147924 0.436896
vt 0.094737 0.229006
vt 0.099443 0.283051
vt 0.105446 0.413513
vt 0.333491 0.966889
vt 0.333546 0.966890
vt 0.253715 0.967157
vt 0.253776 0.967156
vt 0.253713 0.967152
vt 0.333487 0.966895
vt 0.204517 0.484001
vt 0.184954 0.428813
vt 0.209126 0.466346
vt 0.167803 0.914434
vt 0.169899 0.900343
vt 0.288422 0.670463
vt 0.282508 0.731336
vt 0.263874 0.668769
vt 0.123541 0.445564
vt 0.193390 0.432021
vt 0.175222 0.431731
vt 0.294425 0.892367
vt 0.310526 0.888256
vt 0.160609 0.410944
vt 0.164540 0.429832
vt 0.209126 0.428704
vt 0.169176 0.414347
vt 0.200044 0.409973
vt 0.192377 0.414923
vt 0.310039 0.328678
vt 0.270966 0.316784
vt 0.297567 0.313486
vt 0.395649 0.362311
vt 0.297512 0.329051
vt 0.293991 0.367769
vt 0.331297 0.450401
vt 0.269107 0.328693
vt 0.201189 0.451343
vt 0.057213 0.454551
vt 0.195635 0.440346
vt 0.157296 0.431390
vt 0.177321 0.371998
vt 0.174204 0.375437
vt 0.287445 0.287319
vt 0.166316 0.373350
vt 0.180453 0.413953
vt 0.180260 0.410361
vt 0.285179 0.316189
vt 0.270566 0.313423
vt 0.284340 0.313431
vt 0.299866 0.316461
vt 0.195427 0.339564
vt 0.165978 0.373039
vt 0.185192 0.364676
vt 0.152348 0.376184
vt 0.275562 0.285343
vt 0.270097 0.286947
vt 0.276190 0.285157
vt 0.267259 0.284596
vt 0.158119 0.373477
vt 0.282486 0.285387
vt 0.323388 0.872088
vt 0.446252 0.937346
vt 0.440270 0.981722
vt 0.136739 0.894374
vt 0.141551 0.900573
vt 0.300282 0.982578
vt 0.359591 0.478194
vt 0.298325 0.485764
vt 0.318790 0.478859
vt 0.423925 0.485602
vt 0.360514 0.482955
vt 0.342808 0.480401
vt 0.323048 0.486020
vt 0.344291 0.486276
vt 0.390108 0.479731
vt 0.400995 0.478809
vt 0.363362 0.480748
vt 0.378355 0.486254
vt 0.377305 0.480381
vt 0.356782 0.480747
vt 0.359516 0.486370
vt 0.329881 0.479770
vt 0.897867 0.752963
vt 0.925044 0.819044
vt 0.928934 0.819764
vt 0.931771 0.754069
vt 0.951760 0.819942
vt 0.943177 0.752569
vt 0.910072 0.754239
vt 0.933248 0.820397
vt 0.884290 0.751097
vt 0.940390 0.818472
vt 0.955604 0.750459
vt 0.918291 0.745338
vt 0.921078 0.754777
vt 0.947317 0.820767
vt 0.921110 0.754740
vt 0.938058 0.820927
vt 0.363234 0.486334
vt 0.399403 0.485934
vt 0.955604 0.819021
vt 0.942210 0.821480
vt 0.241873 0.259818
vt 0.278795 0.243251
vt 0.256889 0.279186
vt 0.154173 0.319041
vt 0.123633 0.349798
vt 0.069285 0.342090
vt 0.166232 0.338693
vt 0.146344 0.356733
vt 0.173057 0.351385
vt 0.157001 0.363088
vt 0.174606 0.360568
vt 0.162768 0.368864
vt 0.122254 0.361907
vt 0.103691 0.366743
vt 0.135335 0.362839
vt 0.145767 0.366361
vt 0.157557 0.370990
vt 0.317171 0.279683
vt 0.293423 0.267239
vt 0.327316 0.260506
vt 0.292226 0.277136
vt 0.281001 0.272751
vt 0.286570 0.279887
vt 0.276764 0.277619
vt 0.275713 0.281978
vt 0.257403 0.245335
vt 0.257794 0.259792
vt 0.259112 0.269206
vt 0.262805 0.276013
vt 0.270083 0.281366
vt 0.301076 0.276278
vt 0.059504 0.102967
vt 0.127148 0.316847
vt 0.280304 0.283466
vt 0.209383 0.093777
vt 0.209742 0.103740
vt 0.170271 0.367859
vt 0.225881 0.100338
vt 0.086518 0.130681
vt 0.081937 0.130636
vt 0.218378 0.104931
vt 0.212455 0.103702
vt 0.086610 0.119305
vt 0.074386 0.093777
vt 0.076190 0.121089
vt 0.213656 0.103208
vt 0.374310 0.712398
vt 0.293498 0.732855
vt 0.293356 0.707784
vt 0.279223 0.805639
vt 0.079570 0.765782
vt 0.278966 0.760471
vt 0.136294 0.736114
vt 0.539718 0.389083
vt 0.889569 0.389083
vt 0.682391 0.413439
vt 0.828238 0.421752
vt 0.297255 0.732893
vt 0.378188 0.753302
vt 0.297312 0.757971
vt 0.835225 0.495445
vt 0.896691 0.528178
vt 0.689519 0.503855
vt 0.546970 0.528178
vt 0.143546 0.875210
vt 0.508174 0.311213
vt 0.358719 0.400260
vt 0.503823 0.308864
vt 0.358107 0.394742
vt 0.499257 0.306316
vt 0.358442 0.388681
vt 0.494792 0.303610
vt 0.359346 0.382503
vt 0.490528 0.300841
vt 0.350201 0.046440
vt 0.426081 0.083376
vt 0.423731 0.087105
vt 0.349035 0.040671
vt 0.428570 0.079442
vt 0.348503 0.034975
vt 0.431111 0.075437
vt 0.348940 0.029765
vt 0.433621 0.071492
vt 0.110476 0.191657
vt 0.507564 0.124304
vt 0.503049 0.126493
vt 0.498544 0.128752
vt 0.494140 0.131038
vt 0.489933 0.133287
vt 0.364824 0.411432
vt 0.515851 0.315344
vt 0.354545 0.018256
vt 0.350522 0.025408
vt 0.515851 0.120036
vt 0.437992 0.064574
vt 0.400160 0.251382
vt 0.330410 0.273474
vt 0.393374 0.246652
vt 0.331338 0.262619
vt 0.386901 0.242179
vt 0.339573 0.250748
vt 0.380908 0.237801
vt 0.346507 0.241054
vt 0.375163 0.233488
vt 0.342748 0.203683
vt 0.360916 0.196154
vt 0.360041 0.204234
vt 0.333852 0.194014
vt 0.362508 0.187625
vt 0.323730 0.182290
vt 0.365007 0.179044
vt 0.320618 0.169275
vt 0.368410 0.170404
vt 0.397935 0.189488
vt 0.391649 0.193018
vt 0.385787 0.196796
vt 0.380090 0.201116
vt 0.374382 0.206302
vt 0.348069 0.315159
vt 0.359968 0.221937
vt 0.321603 0.157667
vt 0.092196 0.393952
vt 0.117847 0.348023
vt 0.122966 0.270628
vt 0.082285 0.351990
vt 0.233588 0.372597
vt 0.209645 0.300657
vt 0.168156 0.165272
vt 0.233588 0.541544
vt 0.147839 0.198349
vt 0.185581 0.175900
vt 0.147839 0.028763
vt 0.060905 0.134722
vt 0.175025 0.224901
vt 0.162643 0.028763
vt 0.208978 0.219148
vt 0.073464 0.545456
vt 0.086215 0.475766
vt 0.169479 0.097694
vt 0.906827 0.154170
vt 0.887172 0.204639
vt 0.858381 0.154170
vt 0.884670 0.084856
vt 0.848869 0.084856
vt 0.920471 0.084856
vt 0.920471 0.021923
vt 0.848869 0.021923
vt 0.687068 0.790156
vt 0.991748 0.186104
vt 0.920516 0.186104
vt 0.956559 0.109561
vt 0.927687 0.111038
vt 0.939109 0.028160
vt 0.958149 0.021923
vt 0.974947 0.028140
vt 0.985568 0.111047
vt 0.437589 0.753485
vt 0.397421 0.718579
vt 0.441725 0.704335
vt 0.397421 0.690090
vt 0.437589 0.655184
vt 0.838156 0.517888
vt 0.798105 0.512245
vt 0.833575 0.463447
vt 0.798105 0.414649
vt 0.838156 0.409006
vt 0.140999 0.892543
vt 0.858732 0.656451
vt 0.870228 0.682299
vt 0.562232 0.496682
vt 0.613411 0.610741
vt 0.799645 0.386938
vt 0.570419 0.808453
vt 0.898990 0.721284
vt 0.824577 0.733034
vt 0.080144 0.901465
vt 0.279415 0.657246
vt 0.290919 0.717733
vt 0.263874 0.719405
vt 0.360452 0.404542
vt 0.332567 0.282629
s 1
f 80/1/1 93/2/1 91/3/1
f 87/4/2 145/5/3 133/6/4
f 96/7/5 4/8/6 90/9/7
f 131/10/8 87/11/8 89/12/9
f 129/13/10 150/14/11 139/15/12
f 91/3/13 134/16/14 81/17/15
f 10/18/16 15/19/17 11/20/18
f 94/21/19 80/1/20 91/3/21
f 84/22/22 87/11/23 133/23/24
f 94/21/25 8/24/26 85/25/27
f 11/26/28 16/27/29 12/28/30
f 12/29/31 312/30/32 13/31/33
f 10/32/34 13/33/35 14/34/36
f 13/35/37 21/36/38 18/37/39
f 19/38/40 31/39/41 35/40/42
f 15/41/43 22/36/44 20/42/45
f 23/43/46 26/44/46 29/45/46
f 20/46/47 22/47/47 30/48/47
f 25/49/48 24/50/48 27/51/48
f 24/52/49 18/53/49 27/54/49
f 22/55/50 19/56/50 316/57/50
f 21/58/51 25/49/51 27/51/51
f 19/59/52 24/52/52 28/60/52
f 24/50/53 25/49/53 28/61/53
f 25/49/54 22/62/54 28/61/54
f 26/44/55 21/63/55 29/45/55
f 21/63/56 17/64/56 29/45/56
f 17/64/57 23/43/57 29/45/57
f 22/47/58 26/44/58 30/48/58
f 26/44/59 23/43/59 30/48/59
f 23/43/60 20/46/60 30/48/60
f 18/53/61 33/65/62 34/66/63
f 15/67/64 32/68/65 31/39/66
f 18/69/67 32/70/68 14/71/69
f 19/59/70 33/65/71 24/52/72
f 32/72/73 38/73/74 31/73/74
f 34/74/75 39/74/76 32/74/77
f 33/75/78 42/73/79 40/75/80
f 34/76/81 40/75/82 41/76/83
f 35/73/84 38/73/85 42/73/86
f 13/77/87 312/78/87 313/79/87
f 20/46/88 314/80/88 16/81/88
f 20/46/89 23/43/89 37/82/89
f 23/43/90 17/64/90 37/82/90
f 17/64/91 313/79/91 37/82/91
f 42/73/92 52/73/93 56/73/94
f 39/83/95 55/83/96 53/83/95
f 46/84/97 49/85/97 50/86/97
f 47/87/98 43/88/98 51/89/98
f 44/90/74 43/88/74 36/91/74
f 46/83/99 48/83/99 44/83/99
f 47/87/100 49/85/100 45/92/100
f 39/72/95 52/73/93 38/73/101
f 42/73/92 54/75/102 40/75/103
f 41/76/104 54/75/102 55/76/96
f 58/93/105 61/94/105 60/95/105
f 61/94/106 62/96/106 60/95/106
f 62/96/107 63/97/107 60/95/107
f 63/97/108 59/98/108 60/95/108
f 69/99/109 72/100/109 71/101/109
f 72/100/110 73/102/110 71/101/110
f 73/102/111 74/103/111 71/101/111
f 74/103/112 70/104/112 71/101/112
f 65/105/113 61/106/113 58/107/113
f 68/108/114 62/109/114 61/106/114
f 67/110/115 63/111/115 62/109/115
f 66/112/116 59/113/117 63/111/118
f 70/114/119 77/115/119 75/116/119
f 74/117/120 78/118/120 77/115/120
f 73/119/121 79/120/121 78/118/121
f 79/120/122 69/121/123 76/122/124
f 5/123/125 69/124/125 245/125/125
f 7/126/126 76/122/126 176/127/126
f 65/105/127 70/114/127 75/116/127
f 83/128/128 98/129/129 3/130/130
f 83/128/131 82/131/132 94/21/133
f 95/132/1 135/133/1 2/134/1
f 90/9/1 84/22/1 80/1/1
f 4/8/134 136/135/135 95/132/136
f 96/7/137 80/1/138 82/131/139
f 92/136/140 82/131/141 6/137/1
f 94/21/142 101/138/143 103/139/144
f 100/140/145 107/141/146 108/142/147
f 102/143/148 108/142/148 110/144/148
f 96/7/149 99/145/150 86/146/151
f 92/136/152 104/147/152 96/7/152
f 7/126/153 99/145/154 100/140/155
f 83/128/156 103/139/156 97/148/156
f 3/130/157 101/138/158 85/25/159
f 92/136/160 100/140/161 102/143/162
f 110/144/152 120/149/152 112/150/152
f 107/141/156 116/151/156 108/142/156
f 102/143/163 112/150/164 104/147/165
f 97/148/166 111/152/167 105/153/168
f 98/129/169 109/154/170 101/138/171
f 97/148/148 106/155/148 98/129/148
f 104/147/172 107/141/172 99/145/172
f 103/139/172 109/154/172 111/152/172
f 120/149/173 123/156/173 115/157/173
f 113/158/174 122/159/175 114/160/176
f 111/152/156 113/158/156 105/153/156
f 106/155/152 117/161/152 109/154/152
f 105/153/162 114/160/176 106/155/162
f 112/150/177 115/157/177 107/141/177
f 109/154/177 119/162/177 111/152/177
f 108/142/162 118/163/174 110/144/162
f 127/164/156 296/165/156 121/166/156
f 128/167/152 301/168/152 303/169/152
f 119/162/173 125/170/173 127/171/173
f 118/163/174 124/172/175 126/173/175
f 116/151/178 123/156/178 124/172/178
f 118/163/179 128/174/179 120/149/179
f 113/158/180 127/171/180 121/175/180
f 114/160/181 125/170/181 117/161/181
f 89/176/182 141/177/182 130/178/182
f 136/135/1 135/133/1 95/132/1
f 88/179/183 137/180/183 136/135/183
f 131/181/184 5/182/185 9/183/186
f 137/184/187 148/185/188 149/186/189
f 81/17/190 138/187/191 129/188/192
f 93/2/193 138/187/193 134/16/193
f 141/177/194 154/189/194 142/190/194
f 147/191/152 158/192/152 159/193/152
f 142/190/156 160/194/156 148/185/156
f 140/195/195 151/196/195 152/197/195
f 1/198/196 143/199/197 131/200/198
f 138/201/199 145/5/200 150/14/201
f 131/200/202 144/202/203 87/4/204
f 130/178/205 142/190/206 5/203/207
f 1/198/208 139/15/209 140/195/210
f 135/204/211 147/191/211 89/176/211
f 132/205/212 142/190/212 148/185/212
f 135/204/189 149/186/189 146/206/189
f 158/192/152 171/207/152 159/193/152
f 154/189/156 172/208/156 160/194/156
f 151/196/195 164/209/195 152/197/195
f 160/194/162 173/210/162 161/211/162
f 147/191/194 153/212/194 141/177/194
f 139/15/213 162/213/213 151/196/213
f 143/199/214 156/214/214 144/202/214
f 149/186/215 158/192/215 146/206/215
f 140/195/214 155/215/214 143/199/214
f 145/5/213 162/213/213 150/14/213
f 144/202/216 157/216/216 145/5/216
f 148/185/215 161/211/215 149/186/215
f 171/207/177 197/217/177 165/218/177
f 165/218/177 198/219/177 166/220/177
f 153/212/177 166/220/177 154/189/177
f 159/193/177 165/218/177 153/212/177
f 151/196/217 174/221/217 163/222/217
f 156/214/218 167/223/218 168/224/218
f 161/211/162 170/225/162 158/192/162
f 155/215/218 164/209/218 167/223/218
f 157/216/217 174/221/217 162/213/217
f 156/214/216 169/226/216 157/216/216
f 1/227/219 59/113/220 175/228/221
f 59/113/220 64/229/222 175/228/221
f 64/229/223 3/130/223 175/228/223
f 3/130/224 85/25/224 175/228/224
f 85/25/225 8/24/225 175/228/225
f 8/24/152 81/17/152 175/228/152
f 81/17/152 129/188/152 175/228/152
f 129/188/152 1/227/152 175/228/152
f 76/122/226 69/121/226 176/127/226
f 69/121/226 5/230/226 176/127/226
f 5/230/156 132/231/156 176/127/156
f 132/231/156 88/179/156 176/127/156
f 88/179/156 4/8/156 176/127/156
f 4/8/227 86/146/227 176/127/227
f 86/146/228 7/126/228 176/127/228
f 3/130/229 64/229/229 177/232/229
f 64/229/230 66/112/230 177/232/230
f 177/233/231 185/234/231 79/235/231
f 177/233/232 181/236/232 186/237/232
f 77/238/233 184/239/233 182/240/233
f 67/241/234 181/236/234 66/242/234
f 65/243/235 179/244/235 68/245/235
f 75/246/236 178/247/236 65/243/236
f 78/248/237 185/234/237 184/239/237
f 79/120/238 76/122/238 177/232/238
f 76/122/239 7/126/239 177/232/239
f 7/126/240 92/136/240 177/232/240
f 92/136/241 6/137/241 177/232/241
f 6/137/241 83/128/241 177/232/241
f 83/128/242 3/130/242 177/232/242
f 184/249/243 194/250/244 193/251/245
f 179/252/246 189/253/247 180/254/248
f 182/255/249 193/251/250 191/256/251
f 185/257/252 195/258/253 194/250/254
f 181/259/255 195/258/256 186/260/257
f 178/261/258 188/262/259 179/252/260
f 183/263/261 191/256/262 192/264/263
f 75/246/264 182/240/264 183/265/264
f 68/245/265 180/266/265 67/241/265
f 190/267/266 189/253/266 195/258/266
f 189/253/267 188/262/267 195/258/267
f 188/262/268 187/268/268 195/258/268
f 187/268/269 192/264/269 195/258/269
f 192/264/270 191/256/270 195/258/270
f 191/256/271 193/251/271 195/258/271
f 193/251/272 194/250/272 195/258/272
f 180/254/273 190/267/274 181/259/275
f 183/263/276 187/268/276 178/261/276
f 168/224/218 199/269/218 200/270/218
f 167/223/218 196/271/218 199/269/218
f 213/272/277 226/273/277 223/274/277
f 216/275/278 225/276/278 226/273/278
f 215/277/279 224/278/279 225/276/279
f 214/279/280 222/280/280 224/278/280
f 223/274/277 219/281/277 217/282/277
f 226/273/278 220/283/278 219/281/278
f 225/276/279 221/284/279 220/283/279
f 224/278/280 218/285/280 221/284/280
f 203/286/281 231/287/281 228/288/281
f 231/287/282 205/289/282 230/290/282
f 230/290/283 204/291/283 229/292/284
f 204/291/285 227/293/286 229/292/285
f 207/294/281 231/287/281 209/295/281
f 231/287/282 210/296/282 209/295/282
f 210/296/284 229/292/284 211/297/284
f 229/292/285 208/298/285 211/297/285
f 204/291/195 206/299/195 196/271/287
f 213/272/288 236/300/289 201/301/288
f 163/222/217 227/293/217 202/302/217
f 207/294/216 210/296/290 208/298/216
f 199/269/291 237/303/292 234/304/293
f 169/226/217 227/293/217 174/221/217
f 173/210/162 212/305/162 170/225/162
f 214/279/152 216/275/152 201/301/152
f 196/271/294 242/306/295 237/303/296
f 217/282/156 220/283/156 218/285/156
f 217/282/297 233/307/298 240/308/298
f 172/208/162 222/280/162 173/210/162
f 241/309/299 237/303/300 242/306/301
f 243/310/302 234/304/303 241/309/299
f 238/311/1 236/300/1 239/312/1
f 240/308/1 232/313/1 238/311/1
f 213/272/304 238/311/305 239/312/304
f 197/217/306 233/307/306 198/219/306
f 200/270/307 243/310/308 207/294/307
f 207/294/309 241/309/310 228/288/309
f 200/270/291 234/304/293 235/314/311
f 228/288/309 242/306/312 203/286/309
f 201/301/306 232/313/306 197/217/306
f 223/274/304 240/308/305 238/311/305
f 60/315/313 59/316/313 244/317/313
f 59/318/314 1/319/314 244/320/314
f 1/319/315 9/321/315 244/320/315
f 9/322/316 10/323/316 244/324/316
f 10/323/317 60/325/317 244/324/317
f 69/326/318 71/327/318 245/328/318
f 71/329/319 11/330/319 245/331/319
f 11/330/320 12/332/320 245/331/320
f 12/333/321 5/123/321 245/125/321
f 267/334/322 248/335/323 270/336/322
f 270/336/324 249/337/325 269/338/324
f 269/338/326 250/339/327 268/340/326
f 268/340/328 247/341/329 266/342/328
f 251/343/330 260/344/331 257/345/332
f 253/346/333 259/347/334 260/344/335
f 254/348/336 258/349/337 259/347/338
f 255/350/339 256/351/340 258/349/340
f 247/352/341 253/352/342 251/352/342
f 250/352/343 254/352/344 253/352/344
f 249/352/345 255/83/346 254/352/346
f 248/83/347 252/83/348 255/83/348
f 262/353/349 270/336/350 265/354/349
f 265/354/351 269/338/352 264/355/351
f 264/355/353 268/340/353 263/356/353
f 263/356/354 266/342/355 261/357/356
f 261/357/357 260/344/358 263/356/359
f 263/356/360 259/347/361 264/355/362
f 264/355/363 258/349/364 265/354/365
f 265/354/366 256/351/367 262/353/366
f 44/83/368 251/352/369 46/83/370
f 44/90/371 266/342/372 247/341/371
f 55/83/373 246/83/374 53/83/374
f 53/358/375 267/334/376 52/359/376
f 46/84/377 257/345/378 45/92/379
f 55/360/380 256/351/381 252/361/382
f 47/87/383 257/345/378 261/357/384
f 56/362/385 256/351/386 54/363/387
f 56/362/388 267/334/389 262/353/390
f 36/91/391 261/357/392 266/342/393
f 272/364/394 278/365/394 275/366/394
f 275/366/395 279/367/395 274/368/395
f 274/368/396 280/369/396 273/370/396
f 273/370/397 277/371/397 271/372/397
f 286/373/398 285/374/399 282/375/400
f 288/376/401 284/377/402 285/374/403
f 289/378/404 283/379/405 284/377/406
f 290/380/407 281/381/408 283/379/409
f 286/373/410 280/369/411 288/376/412
f 288/376/413 279/367/414 289/378/415
f 289/83/416 278/83/417 290/83/418
f 278/83/419 287/83/420 290/83/421
f 292/382/422 275/366/423 295/383/424
f 275/366/425 294/384/426 295/383/427
f 274/368/428 293/385/429 294/384/430
f 273/370/431 291/386/432 293/385/433
f 291/386/434 285/374/399 293/385/435
f 293/385/436 284/377/402 294/384/437
f 294/384/438 283/379/405 295/383/439
f 295/383/440 281/381/441 292/382/442
f 48/387/443 272/364/443 43/88/443
f 271/372/444 277/371/444 57/388/444
f 51/89/98 272/364/445 292/382/445
f 291/386/446 271/372/446 57/388/446
f 50/83/99 276/83/447 48/83/99
f 277/371/448 286/373/448 57/388/448
f 50/86/449 281/381/449 287/389/449
f 282/375/450 291/386/451 57/388/452
f 286/373/453 282/375/450 57/388/452
f 51/89/454 281/381/454 49/85/454
f 298/390/156 307/391/156 299/392/156
f 299/392/455 309/393/455 301/168/455
f 125/394/152 297/395/152 300/396/152
f 121/166/456 297/395/456 122/397/456
f 128/167/457 298/390/457 123/398/457
f 125/394/457 302/399/457 127/164/457
f 124/400/456 301/168/456 126/401/456
f 123/398/156 299/392/156 124/400/156
f 304/402/458 308/403/458 305/404/458
f 307/391/458 311/405/458 309/393/458
f 303/169/152 309/393/152 311/405/152
f 302/399/156 304/402/156 296/165/156
f 300/396/152 305/404/152 308/403/152
f 296/165/455 305/404/455 297/395/455
f 303/169/459 306/406/459 298/390/459
f 300/396/459 310/407/459 302/399/459
f 313/79/87 314/80/87 37/82/87
f 313/79/87 312/78/87 314/80/87
f 312/78/87 16/81/87 314/80/87
f 17/408/460 23/409/460 20/410/460
f 20/410/461 312/411/461 17/408/461
f 16/412/461 312/411/461 20/410/461
f 312/411/461 13/413/461 17/408/461
f 14/414/462 13/413/462 312/411/462
f 16/412/462 15/415/462 312/411/462
f 18/55/463 21/56/463 315/57/463
f 15/415/462 14/414/462 312/411/462
f 21/56/464 27/416/464 315/57/464
f 27/416/465 18/55/465 315/57/465
f 19/56/466 28/416/466 316/57/466
f 28/416/467 22/55/467 316/57/467
f 22/417/468 21/418/468 317/419/468
f 21/418/469 315/420/469 317/419/469
f 315/420/470 27/421/470 317/419/470
f 27/421/471 25/422/471 317/419/471
f 25/422/472 28/423/472 317/419/472
f 28/423/473 316/424/473 317/419/473
f 316/424/474 22/417/474 317/419/474
f 71/425/475 70/426/475 318/427/475
f 70/426/475 58/428/475 318/427/475
f 58/428/475 60/429/475 318/427/475
f 60/430/475 10/431/475 318/432/475
f 10/431/475 11/433/475 318/432/475
f 11/433/475 71/434/475 318/432/475
f 80/1/1 84/22/1 93/2/1
f 87/4/2 144/202/476 145/5/3
f 96/7/5 86/146/477 4/8/6
f 87/11/8 2/134/9 89/12/9
f 89/12/9 130/435/9 131/10/8
f 129/13/10 138/201/478 150/14/11
f 81/17/15 8/24/479 91/3/13
f 91/3/13 93/2/1 134/16/14
f 10/18/16 14/436/480 15/19/17
f 94/21/19 82/131/481 80/1/20
f 133/23/24 93/2/193 84/22/22
f 84/22/22 2/134/482 87/11/23
f 94/21/25 91/3/483 8/24/26
f 11/26/28 15/437/484 16/27/29
f 13/31/33 9/438/485 12/29/31
f 12/29/31 16/439/32 312/30/32
f 10/32/34 9/440/486 13/33/35
f 18/37/39 14/41/487 13/35/37
f 13/35/37 17/42/488 21/36/38
f 19/38/40 15/67/489 31/39/41
f 20/42/45 16/35/490 15/41/43
f 15/41/43 19/37/491 22/36/44
f 18/53/61 24/52/492 33/65/62
f 15/67/64 14/441/493 32/68/65
f 18/69/67 34/442/494 32/70/68
f 19/59/70 35/443/495 33/65/71
f 32/72/73 39/72/73 38/73/74
f 34/74/75 41/74/496 39/74/76
f 33/75/78 35/73/497 42/73/79
f 34/76/81 33/75/498 40/75/82
f 35/73/84 31/73/499 38/73/85
f 20/46/88 37/82/88 314/80/88
f 17/64/91 13/77/91 313/79/91
f 42/73/92 38/73/101 52/73/93
f 39/83/95 41/83/104 55/83/96
f 46/84/97 45/92/97 49/85/97
f 47/87/98 36/91/98 43/88/98
f 44/90/74 48/387/74 43/88/74
f 46/83/99 50/83/99 48/83/99
f 47/87/100 51/89/100 49/85/100
f 39/72/95 53/72/95 52/73/93
f 42/73/92 56/73/94 54/75/102
f 41/76/104 40/75/103 54/75/102
f 65/105/113 68/108/113 61/106/113
f 68/108/114 67/110/114 62/109/114
f 67/110/115 66/112/115 63/111/115
f 66/112/116 64/229/500 59/113/117
f 70/114/119 74/117/119 77/115/119
f 74/117/120 73/119/120 78/118/120
f 73/119/121 72/444/121 79/120/121
f 79/120/122 72/444/501 69/121/123
f 65/105/127 58/107/127 70/114/127
f 83/128/128 97/148/162 98/129/129
f 83/128/131 6/137/1 82/131/132
f 2/134/1 84/22/1 95/132/1
f 135/133/1 89/12/1 2/134/1
f 90/9/1 95/132/1 84/22/1
f 95/132/136 90/9/502 4/8/134
f 4/8/134 88/179/183 136/135/135
f 96/7/137 90/9/21 80/1/138
f 92/136/140 96/7/503 82/131/141
f 94/21/142 85/25/504 101/138/143
f 100/140/145 99/145/505 107/141/146
f 102/143/148 100/140/148 108/142/148
f 96/7/149 104/147/144 99/145/150
f 92/136/152 102/143/152 104/147/152
f 7/126/153 86/146/506 99/145/154
f 83/128/156 94/21/156 103/139/156
f 3/130/157 98/129/507 101/138/158
f 92/136/160 7/126/508 100/140/161
f 110/144/152 118/163/152 120/149/152
f 107/141/156 115/157/156 116/151/156
f 102/143/163 110/144/509 112/150/164
f 97/148/166 103/139/510 111/152/167
f 98/129/169 106/155/511 109/154/170
f 97/148/148 105/153/148 106/155/148
f 104/147/172 112/150/172 107/141/172
f 103/139/172 101/138/172 109/154/172
f 120/149/173 128/174/173 123/156/173
f 113/158/174 121/175/175 122/159/175
f 111/152/156 119/162/156 113/158/156
f 106/155/152 114/160/152 117/161/152
f 105/153/162 113/158/174 114/160/176
f 112/150/177 120/149/177 115/157/177
f 109/154/177 117/161/177 119/162/177
f 108/142/162 116/151/176 118/163/174
f 127/164/156 302/399/156 296/165/156
f 128/167/152 126/401/152 301/168/152
f 119/162/173 117/161/173 125/170/173
f 118/163/174 116/151/176 124/172/175
f 116/151/178 115/157/178 123/156/178
f 118/163/179 126/173/179 128/174/179
f 113/158/180 119/162/180 127/171/180
f 114/160/181 122/159/181 125/170/181
f 89/176/182 147/191/182 141/177/182
f 136/135/1 137/180/1 135/133/1
f 88/179/183 132/231/183 137/180/183
f 9/183/186 1/445/512 131/181/184
f 131/181/184 130/446/513 5/182/185
f 5/182/185 12/447/514 9/183/186
f 137/184/187 132/205/515 148/185/188
f 81/17/190 134/16/516 138/187/191
f 93/2/193 133/23/193 138/187/193
f 141/177/194 153/212/194 154/189/194
f 147/191/152 146/206/152 158/192/152
f 142/190/156 154/189/156 160/194/156
f 140/195/195 139/15/195 151/196/195
f 1/198/196 140/195/517 143/199/197
f 138/201/199 133/6/518 145/5/200
f 131/200/202 143/199/519 144/202/203
f 130/178/205 141/177/182 142/190/206
f 1/198/208 129/13/520 139/15/209
f 135/204/211 146/206/211 147/191/211
f 132/205/212 5/203/212 142/190/212
f 135/204/189 137/184/189 149/186/189
f 158/192/152 170/225/152 171/207/152
f 154/189/156 166/220/156 172/208/156
f 151/196/195 163/222/195 164/209/195
f 160/194/162 172/208/162 173/210/162
f 147/191/194 159/193/194 153/212/194
f 139/15/213 150/14/213 162/213/213
f 143/199/214 155/215/214 156/214/214
f 149/186/215 161/211/215 158/192/215
f 140/195/214 152/197/214 155/215/214
f 145/5/213 157/216/213 162/213/213
f 144/202/216 156/214/216 157/216/216
f 148/185/215 160/194/215 161/211/215
f 171/207/177 201/301/177 197/217/177
f 165/218/177 197/217/177 198/219/177
f 153/212/177 165/218/177 166/220/177
f 159/193/177 171/207/177 165/218/177
f 151/196/217 162/213/217 174/221/217
f 156/214/218 155/215/218 167/223/218
f 161/211/162 173/210/162 170/225/162
f 155/215/218 152/197/218 164/209/218
f 157/216/217 169/226/217 174/221/217
f 156/214/216 168/224/216 169/226/216
f 177/233/231 186/237/231 185/234/231
f 177/233/232 66/242/232 181/236/232
f 77/238/233 78/248/233 184/239/233
f 67/241/234 180/266/234 181/236/234
f 65/243/235 178/247/235 179/244/235
f 75/246/236 183/265/236 178/247/236
f 78/248/237 79/235/237 185/234/237
f 184/249/243 185/257/521 194/250/244
f 179/252/246 188/262/522 189/253/247
f 182/255/249 184/249/523 193/251/250
f 185/257/252 186/260/524 195/258/253
f 181/259/255 190/267/525 195/258/256
f 178/261/258 187/268/526 188/262/259
f 183/263/261 182/255/527 191/256/262
f 75/246/264 77/238/264 182/240/264
f 68/245/265 179/244/265 180/266/265
f 180/254/273 189/253/528 190/267/274
f 183/263/276 192/264/276 187/268/276
f 168/224/218 167/223/218 199/269/218
f 167/223/218 164/209/218 196/271/218
f 213/272/277 216/275/277 226/273/277
f 216/275/278 215/277/278 225/276/278
f 215/277/279 214/279/279 224/278/279
f 214/279/280 212/305/280 222/280/280
f 223/274/277 226/273/277 219/281/277
f 226/273/278 225/276/278 220/283/278
f 225/276/279 224/278/279 221/284/279
f 224/278/280 222/280/280 218/285/280
f 203/286/281 206/299/281 231/287/281
f 231/287/282 206/299/282 205/289/282
f 230/290/283 205/289/283 204/291/283
f 204/291/285 202/302/285 227/293/286
f 207/294/281 228/288/281 231/287/281
f 231/287/282 230/290/282 210/296/282
f 210/296/284 230/290/283 229/292/284
f 229/292/285 227/293/286 208/298/285
f 196/271/287 164/209/195 163/222/195
f 163/222/195 202/302/195 204/291/195
f 204/291/195 205/289/195 206/299/195
f 206/299/195 203/286/529 196/271/287
f 196/271/287 163/222/195 204/291/195
f 213/272/288 239/312/289 236/300/289
f 163/222/217 174/221/217 227/293/217
f 208/298/216 169/226/216 168/224/216
f 168/224/216 200/270/216 207/294/216
f 207/294/216 209/295/530 210/296/290
f 210/296/290 211/297/290 208/298/216
f 208/298/216 168/224/216 207/294/216
f 199/269/291 196/271/291 237/303/292
f 169/226/217 208/298/217 227/293/217
f 173/210/162 222/280/162 212/305/162
f 201/301/152 171/207/152 170/225/152
f 170/225/152 212/305/152 214/279/152
f 214/279/152 215/277/152 216/275/152
f 216/275/152 213/272/152 201/301/152
f 201/301/152 170/225/152 214/279/152
f 196/271/294 203/286/294 242/306/295
f 218/285/156 172/208/156 166/220/156
f 166/220/156 198/219/156 217/282/156
f 217/282/156 219/281/156 220/283/156
f 220/283/156 221/284/156 218/285/156
f 218/285/156 166/220/156 217/282/156
f 217/282/297 198/219/297 233/307/298
f 172/208/162 218/285/162 222/280/162
f 241/309/299 234/304/303 237/303/300
f 243/310/302 235/314/531 234/304/303
f 238/311/1 232/313/1 236/300/1
f 240/308/1 233/307/1 232/313/1
f 213/272/304 223/274/304 238/311/305
f 197/217/306 232/313/306 233/307/306
f 200/270/307 235/314/532 243/310/308
f 207/294/309 243/310/310 241/309/310
f 200/270/291 199/269/291 234/304/293
f 228/288/309 241/309/310 242/306/312
f 201/301/306 236/300/306 232/313/306
f 223/274/304 217/282/304 240/308/305
f 267/334/322 246/448/323 248/335/323
f 270/336/324 248/335/325 249/337/325
f 269/338/326 249/337/327 250/339/327
f 268/340/328 250/339/533 247/341/329
f 251/343/330 253/346/534 260/344/331
f 253/346/333 254/348/535 259/347/334
f 254/348/336 255/350/536 258/349/337
f 255/350/339 252/361/339 256/351/340
f 247/352/341 250/352/341 253/352/342
f 250/352/343 249/352/343 254/352/344
f 249/352/345 248/83/345 255/83/346
f 248/83/347 246/83/347 252/83/348
f 262/353/349 267/334/350 270/336/350
f 265/354/351 270/336/352 269/338/352
f 264/355/353 269/338/353 268/340/353
f 263/356/354 268/340/355 266/342/355
f 261/357/357 257/345/537 260/344/358
f 263/356/360 260/344/538 259/347/361
f 264/355/363 259/347/539 258/349/364
f 265/354/366 258/349/367 256/351/367
f 44/83/368 247/352/540 251/352/369
f 44/90/371 36/91/541 266/342/372
f 55/83/373 252/83/373 246/83/374
f 53/358/375 246/448/375 267/334/376
f 46/84/377 251/343/542 257/345/378
f 55/360/380 54/363/543 256/351/381
f 47/87/383 45/92/379 257/345/378
f 56/362/385 262/353/544 256/351/386
f 56/362/388 52/359/389 267/334/389
f 36/91/391 47/87/545 261/357/392
f 272/364/394 276/449/394 278/365/394
f 275/366/395 278/365/395 279/367/395
f 274/368/396 279/367/396 280/369/396
f 273/370/397 280/369/397 277/371/397
f 286/373/398 288/376/546 285/374/399
f 288/376/401 289/378/547 284/377/402
f 289/378/404 290/380/548 283/379/405
f 290/380/407 287/389/549 281/381/408
f 286/373/410 277/371/550 280/369/411
f 288/376/413 280/369/551 279/367/414
f 289/83/416 279/83/552 278/83/417
f 278/83/419 276/83/419 287/83/420
f 292/382/422 272/364/553 275/366/423
f 275/366/425 274/368/554 294/384/426
f 274/368/428 273/370/555 293/385/429
f 273/370/431 271/372/556 291/386/432
f 291/386/434 282/375/400 285/374/399
f 293/385/436 285/374/403 284/377/402
f 294/384/438 284/377/406 283/379/405
f 295/383/440 283/379/557 281/381/441
f 48/387/443 276/449/443 272/364/443
f 51/89/98 43/88/98 272/364/445
f 50/83/99 287/83/447 276/83/447
f 50/86/449 49/85/449 281/381/449
f 51/89/454 292/382/454 281/381/454
f 298/390/156 306/406/156 307/391/156
f 299/392/455 307/391/455 309/393/455
f 125/394/152 122/397/152 297/395/152
f 121/166/456 296/165/456 297/395/456
f 128/167/457 303/169/457 298/390/457
f 125/394/457 300/396/457 302/399/457
f 124/400/456 299/392/456 301/168/456
f 123/398/156 298/390/156 299/392/156
f 304/402/458 310/407/458 308/403/458
f 307/391/458 306/406/458 311/405/458
f 303/169/152 301/168/152 309/393/152
f 302/399/156 310/407/156 304/402/156
f 300/396/152 297/395/152 305/404/152
f 296/165/455 304/402/455 305/404/455
f 303/169/459 311/405/459 306/406/459
f 300/396/459 308/403/459 310/407/459
