# Blender 4.5.3 LTS
# www.blender.org
o Dino.002
v -0.321368 -0.991318 2.623406
v 0.000000 -0.845095 2.608984
v -0.571368 2.568884 2.601686
v 0.321368 1.009589 2.601686
v 0.321368 -0.964417 2.601686
v 0.000000 2.467021 2.608984
v 0.571368 2.568884 2.601686
v -0.321368 1.009589 2.601686
v -0.242145 -1.034707 2.784891
v -0.242145 -1.034707 3.788975
v 0.242145 -1.034707 3.788975
v 0.242145 -1.034707 2.784891
v -0.358029 -1.725658 3.700315
v -0.413269 -1.499489 4.115031
v 0.084205 -1.291853 4.068058
v 0.139445 -1.518022 3.653342
v -0.083280 -2.152567 3.535162
v -0.169966 -2.024118 4.325918
v 0.327508 -1.816482 4.278944
v 0.253309 -2.012081 3.503380
v -0.332826 -1.763157 3.801469
v 0.164648 -1.555521 3.754496
v 0.190052 -2.441930 3.439792
v 0.371457 -2.578944 3.824304
v 0.397724 -2.617425 3.615450
v 0.318123 -2.619061 3.669996
v 0.249658 -2.637278 3.643417
v 0.498693 -2.530733 3.642835
v 0.097990 -2.441196 3.629042
v 0.345278 -2.340174 3.596116
v 0.061755 -1.359132 4.096409
v -0.335340 -1.523815 4.138306
v 0.048964 -1.847799 4.230661
v -0.151850 -1.928737 4.252360
v 0.245245 -1.764054 4.210464
v 0.040747 -1.387763 4.275660
v 0.059939 -2.088912 3.371193
v 0.060972 -1.334562 4.185575
v -0.336124 -1.499245 4.227471
v 0.048181 -1.823229 4.319827
v -0.152634 -1.904167 4.341525
v 0.244462 -1.739485 4.299629
v 0.039701 -1.354956 4.394719
v -0.267867 -1.515751 4.308221
v 0.030806 -1.767544 4.379998
v -0.125263 -1.830448 4.396861
v 0.183351 -1.702460 4.364300
v -0.268913 -1.482944 4.427280
v 0.029760 -1.734738 4.499057
v -0.126309 -1.797641 4.515921
v 0.182305 -1.669653 4.483360
v 0.087527 -1.269848 4.167975
v -0.403155 -1.473719 4.219849
v 0.076556 -1.887097 4.337675
v -0.179457 -1.968779 4.359094
v 0.311601 -1.764747 4.307180
v -0.048007 -1.508007 4.680738
v -0.078292 -0.845095 3.414752
v -0.301251 -0.845095 3.191793
v -0.270145 -0.944881 3.611692
v -0.163614 -0.845095 3.397780
v -0.235947 -0.845095 3.349449
v -0.284279 -0.845095 3.277115
v -0.321368 2.568884 3.223416
v -0.078292 2.467021 3.414752
v -0.284279 2.467021 3.277115
v -0.235947 2.467021 3.349449
v -0.163614 2.467021 3.397780
v 0.301251 -0.845095 3.191793
v 0.078292 -0.845095 3.414752
v 0.270145 -0.944881 3.611692
v 0.284279 -0.845095 3.277115
v 0.235947 -0.845095 3.349449
v 0.163614 -0.845095 3.397780
v 0.078292 2.467021 3.414752
v 0.321368 2.568884 3.223416
v 0.163614 2.467021 3.397780
v 0.235947 2.467021 3.349449
v 0.284279 2.467021 3.277115
v 0.000000 1.005338 2.608984
v -0.321368 0.022586 2.601686
v 0.000000 1.930555 2.608984
v -0.150625 2.467021 2.608984
v 0.000000 0.080121 2.608984
v -0.571368 1.564335 2.563052
v 0.571368 1.564335 2.563052
v -0.150625 -0.872027 2.615619
v 0.321368 0.022586 2.601686
v 0.150625 -0.845095 2.608984
v 0.150625 1.005338 2.608984
v -0.150625 1.005338 2.608984
v 0.150625 2.467021 2.608984
v -0.150625 0.080121 2.608984
v -0.150625 1.511214 2.523147
v 0.150625 0.080121 2.608984
v 0.150625 1.511214 2.523147
v -0.150625 2.467021 2.063140
v -0.551251 2.467021 2.063140
v 0.551251 1.885008 2.125376
v 0.551251 2.467021 2.063140
v -0.551251 1.885008 2.125376
v 0.150625 2.467021 2.063140
v -0.150625 1.885008 2.125376
v 0.150625 1.885008 2.125376
v -0.076158 2.459799 1.866036
v -0.402316 2.459799 1.866036
v 0.402316 2.118605 1.866036
v 0.402316 2.459799 1.866036
v -0.402316 2.118605 1.866036
v 0.076158 2.459799 1.866036
v -0.076158 2.118605 1.866036
v 0.076158 2.118605 1.866036
v -0.076158 2.459799 1.607510
v -0.402316 2.459799 1.607510
v 0.402316 2.118605 1.607510
v 0.402316 2.459799 1.607510
v -0.402316 2.118605 1.607510
v 0.076158 2.459799 1.607510
v -0.076158 2.118605 1.607510
v 0.076158 2.118605 1.607510
v -0.044263 2.454726 0.423389
v -0.338525 2.454726 0.423389
v 0.338525 2.256425 0.423389
v 0.338525 2.454726 0.423389
v -0.338525 2.256425 0.423389
v 0.044263 2.454726 0.423389
v -0.044263 2.256425 0.423389
v 0.044263 2.256425 0.423389
v -0.321368 -0.501746 2.561257
v 0.225938 -0.845095 2.608984
v -0.225938 -0.872027 2.615619
v 0.321368 -0.470916 2.601686
v -0.150625 -0.413102 2.557361
v -0.225938 0.080121 2.608984
v 0.150625 -0.382487 2.608984
v 0.225938 0.080121 2.608984
v 0.225938 -0.382487 2.608984
v -0.225938 -0.413102 2.557361
v -0.268464 -1.099210 2.140462
v -0.312740 -1.292580 2.349783
v 0.140849 -0.757985 2.140244
v 0.187798 -0.757985 2.140244
v -0.266807 -1.292580 2.359499
v -0.220873 -1.292580 2.369215
v -0.176598 -1.099210 2.159894
v 0.093899 -0.469597 2.140244
v 0.093899 -0.757985 2.140244
v 0.187798 -0.469597 2.140244
v 0.140849 -0.469597 2.140244
v -0.222531 -1.099210 2.150177
v -0.284563 -1.385269 2.216571
v -0.302240 -1.462472 2.300143
v 0.140849 -0.834259 1.980181
v 0.187798 -0.834259 1.980181
v -0.256307 -1.462472 2.309859
v -0.210374 -1.462472 2.319574
v -0.192696 -1.385269 2.236002
v 0.093899 -0.719119 1.980181
v 0.093899 -0.834259 1.980181
v 0.187798 -0.719119 1.980181
v 0.140849 -0.719119 1.980181
v -0.238630 -1.385269 2.226287
v -0.253151 -1.553216 2.068066
v -0.270828 -1.630420 2.151639
v 0.140849 -0.834259 1.753804
v 0.187798 -0.834259 1.753804
v -0.224895 -1.630420 2.161354
v -0.178962 -1.630420 2.171070
v -0.161285 -1.553216 2.087498
v 0.093899 -0.719119 1.753804
v 0.093899 -0.834259 1.753804
v 0.187798 -0.719119 1.753804
v 0.140849 -0.719119 1.753804
v -0.207218 -1.553216 2.077782
v -0.321368 0.802233 2.912551
v 0.321368 0.802233 2.912551
v 0.000000 2.522642 2.976291
v -0.078292 3.012492 3.472003
v -0.163614 3.012492 3.455031
v -0.235947 3.012492 3.406700
v -0.284279 3.012492 3.334367
v 0.163614 3.012492 3.455031
v 0.078292 3.012492 3.472003
v 0.235947 3.012492 3.406700
v 0.284279 3.012492 3.334367
v 0.000000 3.068114 3.033543
v -0.036437 4.865843 5.136629
v -0.076146 4.870495 5.130246
v -0.109810 4.883744 5.112068
v -0.132304 4.903572 5.084864
v 0.076146 4.870495 5.130246
v 0.036437 4.865843 5.136629
v 0.109810 4.883744 5.112068
v 0.132304 4.903572 5.084864
v 0.000000 5.006954 4.986970
v -0.251152 -1.735623 2.058614
v 0.140849 -0.834259 1.611999
v 0.187798 -0.834259 1.611999
v -0.205218 -1.735623 2.068330
v -0.159285 -1.735623 2.078045
v 0.093899 -0.834259 1.611999
v -0.248102 -1.580212 2.044196
v -0.249659 -1.729104 2.051557
v -0.243736 -1.615522 2.023556
v -0.242499 -1.656217 2.017707
v -0.244579 -1.696101 2.027540
v -0.157793 -1.729104 2.070988
v -0.156236 -1.580212 2.063627
v -0.152712 -1.696101 2.046972
v -0.150633 -1.656217 2.037139
v -0.151870 -1.615522 2.042988
v 0.093899 -0.719119 1.717416
v 0.093899 -0.824536 1.611999
v 0.093899 -0.727144 1.677075
v 0.093899 -0.749995 1.642875
v 0.093899 -0.784195 1.620024
v 0.187798 -0.824536 1.611999
v 0.187798 -0.719119 1.717416
v 0.187798 -0.784195 1.620024
v 0.187798 -0.749995 1.642875
v 0.187798 -0.727144 1.677075
v 0.140849 -0.719119 1.717416
v 0.140849 -0.824536 1.611999
v 0.140849 -0.727144 1.677075
v 0.140849 -0.749995 1.642875
v 0.140849 -0.784195 1.620024
v -0.202169 -1.580212 2.053912
v -0.203726 -1.729104 2.061273
v -0.197803 -1.615522 2.033272
v -0.196566 -1.656217 2.027423
v -0.198646 -1.696101 2.037256
v 0.005888 -0.829601 1.524542
v 0.007850 -0.829601 1.524542
v -0.060328 -1.797384 2.035506
v -0.058408 -1.797384 2.035912
v 0.003925 -0.829601 1.524542
v -0.062248 -1.797384 2.035099
v 0.005888 -0.829194 1.524542
v 0.003925 -0.829194 1.524542
v 0.007850 -0.829194 1.524542
v -0.060266 -1.797111 2.035210
v -0.062186 -1.797111 2.034804
v -0.058346 -1.797111 2.035616
v -0.271393 -0.971403 3.193920
v 0.271393 -0.971403 3.193920
v -0.403364 -1.467620 4.242110
v -0.361795 -1.476601 4.283860
v -0.400288 -1.465708 4.254759
v -0.391308 -1.466743 4.267136
v -0.377791 -1.470569 4.277354
v -0.163182 -1.915999 4.407484
v -0.179711 -1.962625 4.381340
v -0.169615 -1.931223 4.406943
v -0.175016 -1.945431 4.401785
v -0.178561 -1.956457 4.392795
v 0.076361 -1.880965 4.359929
v 0.063690 -1.843729 4.387850
v 0.075313 -1.875522 4.371521
v 0.072537 -1.866534 4.380898
v 0.068456 -1.855370 4.386632
v 0.271734 -1.735304 4.361519
v 0.311429 -1.758558 4.329417
v 0.286852 -1.741570 4.358695
v 0.299704 -1.748188 4.351602
v 0.308334 -1.754154 4.341321
v 0.072866 -1.296004 4.237897
v 0.087363 -1.263728 4.190232
v 0.078345 -1.281049 4.229125
v 0.083023 -1.269664 4.216987
v 0.086190 -1.263582 4.203330
v -0.006366 -1.408829 4.644901
v 0.039438 -1.323549 4.515715
v 0.011102 -1.369037 4.623034
v 0.025941 -1.338857 4.590804
v 0.035891 -1.322884 4.553119
v -0.269177 -1.451537 4.548276
v -0.153655 -1.469915 4.660441
v -0.260443 -1.445779 4.584384
v -0.235422 -1.447250 4.618381
v -0.197923 -1.455725 4.645088
v 0.029496 -1.703330 4.620053
v -0.010844 -1.590681 4.694799
v 0.026366 -1.687599 4.653314
v 0.017600 -1.660666 4.679198
v 0.004534 -1.626633 4.693766
v -0.085767 -1.620615 4.702846
v -0.126572 -1.766234 4.636917
v -0.101443 -1.669184 4.705186
v -0.114702 -1.713914 4.693479
v -0.123526 -1.747992 4.669505
v 0.062193 -1.559256 4.687235
v 0.182042 -1.638246 4.604356
v 0.107997 -1.582328 4.683089
v 0.146858 -1.605441 4.665882
v 0.172859 -1.625077 4.638235
v -0.044263 2.166623 0.044573
v -0.338525 2.166623 0.044573
v 0.338525 1.702374 0.084535
v 0.338525 2.166623 0.044573
v -0.338525 1.702374 0.084535
v 0.044263 2.166623 0.044573
v -0.044263 1.702374 0.084535
v 0.044263 1.702374 0.084535
v -0.044263 1.902201 0.000212
v -0.338525 1.902201 0.000212
v 0.338525 1.437952 0.040174
v 0.338525 1.902201 0.000212
v -0.338525 1.437952 0.040174
v 0.044263 1.902201 0.000212
v -0.044263 1.437952 0.040174
v 0.044263 1.437952 0.040174
v -0.109292 -1.621840 3.676828
v -0.149045 -1.907285 3.535754
v 0.099692 -1.803467 3.512268
v -0.059350 -2.132240 3.864611
v 0.341429 -1.960711 3.864451
v 0.144579 -2.056063 3.855064
v 0.000000 -0.955156 3.631969
vn -0.0000 -0.0000 -1.0000
vn 0.9983 -0.0488 -0.0326
vn 0.9917 -0.1282 0.0074
vn 0.9985 -0.0068 -0.0535
vn 0.0804 -0.1274 -0.9886
vn 0.0163 -0.1492 -0.9887
vn -0.0379 -0.1672 -0.9852
vn -0.0000 0.2392 0.9710
vn -0.0000 -0.2392 -0.9710
vn -0.4361 0.4600 -0.7734
vn 0.1171 0.5760 -0.8090
vn 0.1689 0.5775 -0.7987
vn 0.0427 -0.0004 -0.9991
vn 0.0478 -0.0039 -0.9989
vn 0.0739 -0.0054 -0.9973
vn -0.0990 0.6714 0.7344
vn -0.0953 0.6740 0.7325
vn -0.0000 0.7354 0.6776
vn 0.4490 -0.0179 -0.8934
vn 0.1036 -0.1363 -0.9852
vn -0.0000 -0.1673 -0.9859
vn 0.0627 0.0733 -0.9953
vn 0.0458 -0.0142 -0.9988
vn 0.5542 -0.0825 -0.8283
vn -0.0804 -0.1274 -0.9886
vn -0.0163 -0.1492 -0.9887
vn -0.1085 -0.1176 -0.9871
vn 0.9631 -0.2392 0.1231
vn 0.9659 -0.2355 0.1077
vn 0.9782 -0.2079 -0.0000
vn 0.0851 -0.8213 -0.5641
vn 0.3119 -0.8454 -0.4336
vn 0.2147 -0.8421 -0.4948
vn -0.9816 0.1746 -0.0779
vn -0.9775 0.1784 -0.1125
vn -0.9544 0.1897 -0.2306
vn -0.9173 -0.3878 0.0907
vn -0.8742 -0.4841 0.0383
vn -0.8975 -0.4364 0.0637
vn 0.0347 0.2994 0.9535
vn -0.6113 0.0300 0.7909
vn -0.6331 0.0175 0.7739
vn 0.9431 0.3099 -0.1201
vn 0.9173 0.3878 -0.0907
vn 0.9316 0.3480 -0.1049
vn -0.5726 -0.7721 -0.2756
vn 0.9651 0.2423 -0.0998
vn 0.1671 -0.9657 0.1989
vn -0.3547 -0.7934 0.4947
vn 0.9216 0.3751 -0.0996
vn -0.1918 0.0494 -0.9802
vn 0.8222 -0.2558 0.5085
vn 0.6013 -0.7689 0.2173
vn 0.1308 0.1569 -0.9789
vn -0.5384 -0.5122 0.6691
vn -0.8452 -0.5343 -0.0107
vn -0.7351 -0.5773 -0.3554
vn 0.8164 0.0723 0.5730
vn 0.7618 -0.2342 -0.6040
vn 0.7097 -0.0002 -0.7045
vn 0.3408 0.0828 0.9365
vn 0.4386 -0.0602 0.8967
vn -0.1680 0.6218 0.7649
vn -0.0790 0.4170 0.9055
vn -0.1120 0.4681 0.8766
vn -0.0732 0.4079 0.9101
vn -0.1325 0.2279 0.9646
vn 0.3999 0.4911 0.7739
vn -0.2352 0.1633 0.9581
vn -0.1544 -0.1355 0.9787
vn -0.1310 -0.2944 0.9467
vn -0.0901 -0.5139 0.8531
vn -0.3933 0.8855 -0.2475
vn -0.3933 0.8855 -0.2474
vn -0.9166 -0.3875 0.0987
vn 0.4017 -0.8820 0.2466
vn 0.3851 -0.8889 0.2483
vn 0.9166 0.3875 -0.0987
vn -0.2706 0.4566 -0.8475
vn 0.4291 0.3515 -0.8321
vn 0.5525 0.0419 -0.8325
vn -0.6265 -0.3648 -0.6888
vn -0.7028 -0.1868 -0.6864
vn 0.0093 -0.2643 -0.9644
vn 0.0094 -0.2662 -0.9639
vn 0.0077 -0.2664 -0.9638
vn 0.0081 -0.2666 -0.9638
vn 0.0095 -0.2660 -0.9639
vn 0.0096 -0.2661 -0.9639
vn 0.0082 -0.2651 -0.9642
vn 0.0085 -0.2656 -0.9640
vn 0.0072 -0.2654 -0.9641
vn -0.0775 0.9178 0.3895
vn -0.2156 0.9217 0.3226
vn -0.4134 0.8676 0.2762
vn -0.8719 0.4580 0.1734
vn 0.8719 0.4580 0.1734
vn 0.4134 0.8676 0.2762
vn 0.2156 0.9217 0.3226
vn 0.0775 0.9178 0.3895
vn -0.1951 -0.0000 0.9808
vn -0.5556 -0.0000 0.8315
vn -0.8315 -0.0000 0.5556
vn -0.8337 -0.0099 0.5521
vn -0.9798 -0.0001 0.1999
vn -0.9808 -0.0000 0.1951
vn 0.1951 -0.0000 0.9808
vn 0.5556 -0.0000 0.8315
vn 0.8315 -0.0000 0.5556
vn 0.8337 -0.0099 0.5521
vn 0.9798 -0.0001 0.1999
vn 0.8316 -0.0100 0.5553
vn 0.9704 -0.2281 0.0792
vn 0.9258 -0.0655 0.3723
vn -0.0000 -0.0000 1.0000
vn 0.1418 0.9844 -0.1040
vn 0.1007 0.9922 -0.0739
vn 0.2346 0.9567 -0.1722
vn 0.0555 0.0156 -0.9983
vn 0.2748 0.0772 -0.9584
vn 0.3035 0.0852 -0.9490
vn -0.0427 -0.0004 -0.9991
vn -0.0416 -0.0036 -0.9991
vn -0.0049 -0.0069 -1.0000
vn -0.4490 -0.0179 -0.8934
vn -0.1036 -0.1363 -0.9852
vn -0.4951 -0.0000 -0.8688
vn -0.0555 0.0156 -0.9983
vn -0.2748 0.0772 -0.9584
vn -0.0932 -0.7707 -0.6304
vn -0.0659 -0.7594 -0.6473
vn -0.0000 -0.7287 -0.6848
vn 0.8182 -0.0248 -0.5744
vn 0.8311 -0.0415 -0.5546
vn 0.7978 -0.0000 -0.6029
vn -0.0000 0.9993 -0.0366
vn 0.0932 -0.7707 -0.6304
vn 0.0659 -0.7594 -0.6473
vn 0.1560 -0.7934 -0.5884
vn -1.0000 -0.0000 -0.0000
vn 0.9992 -0.0015 -0.0400
vn 0.9991 -0.0000 -0.0422
vn 0.9993 -0.0039 -0.0366
vn 1.0000 -0.0000 -0.0000
vn -0.9992 -0.0015 -0.0400
vn -0.9991 -0.0000 -0.0422
vn -0.9990 0.0017 -0.0447
vn -0.1418 0.9844 -0.1040
vn -0.1007 0.9922 -0.0739
vn -0.0000 1.0000 -0.0000
vn -0.9426 0.0127 0.3336
vn -0.9488 0.0247 0.3149
vn -0.9525 0.0324 0.3027
vn 0.9426 0.0127 0.3336
vn 0.9488 0.0247 0.3149
vn 0.9355 -0.0000 0.3534
vn -0.8182 -0.0248 -0.5744
vn -0.8311 -0.0415 -0.5546
vn -0.8426 -0.0573 -0.5355
vn -0.0000 -0.7430 -0.6693
vn -0.0000 -0.9933 -0.1156
vn -0.0000 1.0000 -0.0022
vn -0.0000 1.0000 -0.0043
vn -0.0000 1.0000 -0.0021
vn -0.0000 -1.0000 -0.0000
vn 0.9986 -0.0000 -0.0538
vn -0.9996 -0.0000 0.0269
vn 0.9996 -0.0000 0.0269
vn -0.9986 -0.0000 -0.0538
vn -0.0000 -0.9832 -0.1827
vn -0.0763 -0.0000 -0.9971
vn 0.1634 -0.6682 -0.7258
vn -0.0406 -0.6230 -0.7812
vn 0.1512 -0.7621 -0.6296
vn 0.6277 0.7546 -0.1913
vn 0.0965 0.9771 -0.1894
vn -0.0000 0.9832 -0.1827
vn 0.0006 0.1013 -0.9949
vn -0.0999 0.0790 -0.9919
vn -0.1114 0.0764 -0.9908
vn -0.0000 0.1041 -0.9946
vn -0.0000 -0.9027 0.4302
vn -0.9784 -0.0000 -0.2069
vn 0.5861 -0.4712 0.6591
vn -0.0402 -0.6625 0.7480
vn 0.6176 -0.4520 0.6437
vn 0.0067 0.5016 -0.8651
vn 0.1691 0.5031 -0.8475
vn 0.1789 0.5028 -0.8457
vn -0.0103 -0.5056 0.8627
vn -0.1644 -0.5001 0.8502
vn -0.0000 -0.5055 0.8628
vn -0.7543 -0.6537 -0.0601
vn -0.1242 -0.9773 -0.1715
vn -0.7814 -0.6218 -0.0520
vn -0.9936 0.0140 -0.1120
vn -0.9920 0.0439 -0.1185
vn -0.9879 0.0878 -0.1278
vn -0.9928 -0.0000 0.1201
vn 0.9606 -0.0000 -0.2780
vn 0.1997 -0.2624 -0.9441
vn -0.1983 -0.2862 0.9374
vn -0.0000 0.5399 -0.8417
vn 0.9784 -0.0000 0.2069
vn 0.1535 0.6705 -0.7258
vn -0.1535 -0.6705 0.7258
vn -0.9993 -0.0059 0.0369
vn -0.9993 -0.0061 0.0357
vn -0.9993 -0.0060 0.0365
vn -0.9994 -0.0062 0.0353
vn -0.9258 -0.0655 0.3723
vn -0.8344 -0.0212 0.5507
vn -0.8695 -0.4109 -0.2741
vn 0.9994 -0.0062 0.0353
vn 0.8695 -0.4109 -0.2741
vn 0.8344 -0.0212 0.5507
vn 0.1091 0.9931 -0.0439
vn 0.5616 0.5365 0.6299
vn 0.7315 0.0712 -0.6781
vn -0.7315 0.0712 -0.6781
vn 0.5535 -0.0869 0.8283
vn -0.8301 -0.0582 0.5546
vn -0.1941 -0.1024 0.9756
vn -0.0000 -0.1044 0.9945
vn 0.8301 -0.0582 0.5546
vn -0.5616 0.5365 0.6299
vn -0.1091 0.9931 -0.0439
vn -0.2324 0.9430 -0.2381
vn -0.0000 0.9887 -0.1497
vn 0.2324 0.9430 -0.2381
vn 0.7595 -0.4080 0.5066
vn 0.8302 -0.3438 0.4387
vn 0.8313 -0.3427 0.4376
vn -0.4517 -0.5842 0.6744
vn -0.5525 -0.5436 0.6319
vn -0.4508 -0.5845 0.6747
vn 0.4517 -0.5842 0.6744
vn 0.5525 -0.5436 0.6319
vn 0.5543 -0.5428 0.6309
vn 0.6653 0.5303 -0.5256
vn 0.7263 0.4970 -0.4749
vn 0.7325 0.4932 -0.4692
vn -0.6653 0.5303 -0.5256
vn -0.7263 0.4970 -0.4749
vn -0.6624 0.5317 -0.5277
vn -0.1473 -0.6585 0.7380
vn -0.1932 -0.6532 0.7321
vn -0.1468 -0.6586 0.7381
vn 0.1473 -0.6585 0.7380
vn 0.1932 -0.6532 0.7321
vn 0.1942 -0.6531 0.7320
vn 0.1941 -0.1024 0.9756
vn -0.5535 -0.0869 0.8283
vn -0.1135 0.7559 0.6448
vn -0.0695 0.7406 0.6684
vn -0.0242 0.7303 0.6827
vn -0.0000 0.7276 0.6860
vn 0.0242 0.7303 0.6827
vn 0.0695 0.7406 0.6684
vn 0.1135 0.7559 0.6448
vn -0.7595 -0.4080 0.5066
vn -0.8302 -0.3438 0.4387
vn -0.7590 -0.4084 0.5071
vn -0.0000 -0.6682 0.7440
vn -0.0000 0.1951 -0.9808
vn -0.0000 0.5556 -0.8315
vn -0.0000 0.8315 -0.5556
vn -0.0000 0.9808 -0.1951
vn 0.1660 -0.5968 -0.7850
vn 0.2007 -0.2444 -0.9487
vn 0.2047 0.1453 -0.9680
vn 0.2048 0.1453 -0.9680
vn 0.1777 0.5129 -0.8399
vn 0.1776 0.5129 -0.8399
vn -0.9784 -0.0000 -0.2070
vn -0.6970 -0.0000 0.7171
vn -0.6971 -0.0000 0.7170
vn 0.9783 -0.0000 0.2070
vn -0.1459 -0.7090 0.6899
vn -0.1463 -0.7095 0.6894
vn -0.1459 -0.7091 0.6899
vn -0.3029 -0.6673 -0.6805
vn -0.3023 -0.6664 -0.6815
vn -0.3023 -0.6664 -0.6816
vn 0.4371 -0.0000 -0.8994
vn 0.4372 -0.0000 -0.8994
vn 0.1389 -0.7420 -0.6559
vn 0.1387 -0.7413 -0.6567
vn 0.1386 -0.7412 -0.6569
vn 0.1387 -0.7417 -0.6562
vn 0.1389 -0.7420 -0.6558
vn -0.0000 0.9986 -0.0532
vn -0.0000 0.9986 -0.0531
vn -0.0000 -0.9986 -0.0532
vn 0.5824 0.5320 0.6146
vn 0.5820 0.5329 0.6142
vn 0.1607 0.6301 -0.7597
vn 0.1606 0.6301 -0.7597
vn -0.1458 -0.7090 0.6900
vn 0.1609 0.6299 -0.7598
vn -0.9731 -0.2297 0.0175
vn -0.9693 -0.2276 0.0929
vn -0.5998 -0.7961 0.0803
vn -0.9078 -0.4194 -0.0000
vn -0.9648 -0.2622 0.0195
vn 0.9731 -0.2297 0.0175
vn 0.9648 -0.2622 0.0195
vn 0.9078 -0.4194 -0.0000
vn 0.7291 -0.6824 0.0535
vn -0.3874 0.9208 -0.0450
vn -0.3873 0.9208 -0.0450
vn -0.3350 0.8871 0.3174
vn -0.3351 0.8872 0.3173
vn -0.2481 0.7524 0.6101
vn -0.2482 0.7525 0.6101
vn -0.1354 0.5377 0.8322
vn -0.1355 0.5380 0.8320
vn 0.1105 -0.0815 0.9905
vn 0.1054 -0.0615 0.9925
vn 0.1052 -0.0607 0.9926
vn 0.2032 -0.4012 0.8932
vn 0.2006 -0.3890 0.8991
vn 0.2005 -0.3886 0.8993
vn 0.2689 -0.6590 0.7024
vn 0.2683 -0.6547 0.7067
vn 0.2682 -0.6546 0.7068
vn 0.3069 -0.8505 0.4271
vn 0.3070 -0.8505 0.4271
vn -0.3387 0.1098 0.9345
vn -0.3386 0.1099 0.9345
vn -0.6119 -0.0545 0.7891
vn -0.6114 -0.0542 0.7894
vn -0.8005 -0.2031 0.5638
vn -0.8002 -0.2028 0.5643
vn -0.9037 -0.3323 0.2700
vn -0.9037 -0.3324 0.2697
vn 0.9002 0.4289 0.0754
vn 0.9001 0.4289 0.0758
vn 0.7915 0.4687 0.3923
vn 0.7914 0.4687 0.3923
vn 0.5984 0.4562 0.6586
vn 0.3223 0.3888 0.8631
vn 0.3217 0.3886 0.8634
vn 0.3224 0.3888 0.8631
vn 0.1581 -0.0616 0.9855
vn 0.1479 -0.0437 0.9880
vn 0.1584 -0.0620 0.9854
vn 0.3015 -0.3601 0.8829
vn 0.2957 -0.3492 0.8892
vn 0.3016 -0.3604 0.8827
vn 0.4032 -0.6028 0.6885
vn 0.4014 -0.5991 0.6928
vn 0.4033 -0.6029 0.6884
vn 0.4625 -0.7857 0.4109
vn 0.4625 -0.7857 0.4108
vn -0.1692 0.1953 0.9660
vn -0.1696 0.1952 0.9660
vn -0.1697 0.1952 0.9660
vn -0.0699 0.4007 0.9135
vn -0.0697 0.4005 0.9137
vn -0.9170 -0.3871 0.0966
vn -0.9169 -0.3869 0.0974
vn -0.3940 0.8855 -0.2463
vn -0.3940 0.8855 -0.2464
vn 0.0547 0.1045 0.9930
vn 0.0552 0.1191 0.9913
vn 0.0527 0.1249 0.9908
vn 0.3131 -0.9145 0.2565
vn 0.3132 -0.9148 0.2549
vn 0.3131 -0.9144 0.2566
vn 0.0664 0.1091 0.9918
vn 0.0705 0.1057 0.9919
vn 0.4727 -0.8480 0.2396
vn 0.4726 -0.8485 0.2381
vn 0.4726 -0.8486 0.2380
vn 0.9167 0.3868 -0.1005
vn 0.9167 0.3870 -0.0997
vn 0.9167 0.3868 -0.1006
vn 0.1511 0.3306 0.9316
vn 0.1522 0.3312 0.9312
vn 0.1510 0.3305 0.9316
vn -0.3873 0.9204 -0.0531
vn -0.3405 0.8946 0.2893
vn -0.2529 0.7616 0.5967
vn -0.1264 0.5198 0.8449
vn 0.1010 0.0152 0.9948
vn 0.0991 0.0140 0.9950
vn 0.0992 0.0139 0.9950
vn 0.2239 -0.3085 0.9245
vn 0.2255 -0.3087 0.9240
vn 0.2256 -0.3089 0.9240
vn 0.3206 -0.5993 0.7335
vn 0.3253 -0.5979 0.7326
vn 0.3253 -0.5980 0.7325
vn 0.3775 -0.8227 0.4251
vn 0.3774 -0.8229 0.4248
vn 0.3774 -0.8229 0.4247
vn -0.2856 0.1379 0.9484
vn -0.2847 0.1386 0.9485
vn -0.2857 0.1379 0.9484
vn -0.5866 -0.0377 0.8090
vn -0.5854 -0.0366 0.8099
vn -0.5867 -0.0378 0.8089
vn -0.7944 -0.1981 0.5742
vn -0.7937 -0.1973 0.5754
vn -0.7944 -0.1982 0.5741
vn -0.9031 -0.3328 0.2715
vn -0.9032 -0.3329 0.2709
vn -0.9032 -0.3329 0.2708
vn 0.8998 0.4295 0.0770
vn 0.8997 0.4296 0.0776
vn 0.8998 0.4295 0.0769
vn 0.7839 0.4699 0.4059
vn 0.7847 0.4696 0.4046
vn 0.7848 0.4696 0.4045
vn 0.5704 0.4522 0.6857
vn 0.5719 0.4522 0.6845
vn 0.5720 0.4522 0.6844
vn 0.2668 0.3718 0.8892
vn 0.2677 0.3719 0.8888
vn 0.2678 0.3719 0.8888
vn 0.0970 0.0135 0.9952
vn 0.0969 0.0135 0.9952
vn 0.2266 -0.3074 0.9242
vn 0.2265 -0.3073 0.9243
vn 0.3296 -0.5955 0.7327
vn 0.3295 -0.5954 0.7328
vn 0.3920 -0.8166 0.4236
vn 0.3921 -0.8167 0.4233
vn 0.3920 -0.8166 0.4237
vn -0.3934 0.8897 -0.2318
vn -0.0501 0.3579 0.9324
vn 0.9166 0.3876 -0.0986
vn 0.0865 0.3062 0.9480
vn -0.9166 -0.3876 0.0986
vn -0.1049 0.2253 0.9686
vn 0.3851 -0.8931 0.2327
vn 0.0289 0.1802 0.9832
vn 0.0250 0.1785 0.9836
vn 0.0290 0.1803 0.9832
vn 0.0329 0.1819 0.9828
vn 0.4018 -0.8861 0.2309
vn -0.0000 0.1655 -0.9862
vn -0.0000 0.7960 -0.6054
vn -0.0000 -0.5217 0.8531
vn -0.0000 -0.0858 -0.9963
vn -0.0000 -0.1655 0.9862
vn 0.1618 -0.1677 0.9725
vn 0.1917 -0.2443 0.9505
vn 0.3759 -0.7916 0.4818
vn -0.7983 -0.6002 -0.0507
vn -0.8054 -0.5676 0.1707
vn -0.8669 -0.4897 -0.0931
vn 0.9545 0.2901 -0.0689
vn 0.9143 0.3386 -0.2222
vn 0.0105 0.1966 0.9804
vn -0.0132 0.1591 0.9872
vn 0.1604 -0.3120 0.9364
vn 0.2157 -0.2994 0.9294
vn 0.0637 -0.3673 0.9279
vn 0.1161 -0.3319 0.9361
vn -0.1433 0.2005 0.9692
vn -0.0000 0.8920 0.4520
vn 0.9820 -0.1854 0.0364
vn 0.1085 -0.1176 -0.9871
vn -0.4526 0.4534 -0.7678
vn 0.0427 -0.0000 -0.9991
vn -0.1811 0.6086 0.7725
vn 0.4951 -0.0000 -0.8688
vn -0.0440 -0.0000 -0.9990
vn 0.0379 -0.1672 -0.9852
vn 0.9231 -0.2723 0.2715
vn -0.0000 -0.7982 -0.6024
vn -0.9862 0.1654 -0.0000
vn -0.8395 -0.5433 0.0078
vn -0.9169 -0.3885 0.0914
vn 0.1647 0.3358 0.9274
vn 0.9169 0.3885 -0.0914
vn 0.9546 0.2626 -0.1405
vn 0.5325 -0.2195 0.8175
vn -0.1141 0.4713 0.8746
vn 0.4258 0.5005 0.7538
vn -0.2003 0.6469 0.7358
vn -0.8316 -0.0100 0.5553
vn 0.9808 -0.0000 0.1951
vn -0.0427 -0.0000 -0.9991
vn -0.3035 0.0852 -0.9490
vn -0.1560 -0.7934 -0.5884
vn 0.8426 -0.0573 -0.5355
vn 0.9990 0.0017 -0.0447
vn -0.9993 -0.0039 -0.0366
vn -0.2346 0.9567 -0.1722
vn -0.9355 -0.0000 0.3534
vn 0.9525 0.0324 0.3027
vn -0.7978 -0.0000 -0.6029
vn 0.6692 -0.5667 -0.4806
vn -0.0175 0.0471 -0.9987
vn -0.0000 -0.9336 -0.3582
vn 0.6596 0.7275 -0.1889
vn 0.0133 0.1041 -0.9945
vn -0.1542 -0.6667 0.7292
vn -0.0000 0.5013 -0.8653
vn -0.1793 -0.4989 0.8479
vn -0.9943 -0.0134 -0.1059
vn 0.7590 -0.4084 0.5071
vn -0.5543 -0.5428 0.6309
vn 0.4508 -0.5845 0.6747
vn 0.6624 0.5317 -0.5277
vn -0.7325 0.4932 -0.4692
vn -0.1942 -0.6531 0.7320
vn 0.1468 -0.6586 0.7381
vn -0.8313 -0.3427 0.4376
vn -0.9783 -0.0001 -0.2071
vn 0.9783 0.0001 0.2071
vn 0.1386 -0.7417 -0.6563
vn 0.5820 0.5330 0.6141
vn -0.1356 0.5380 0.8320
vn 0.1106 -0.0820 0.9905
vn 0.2033 -0.4015 0.8930
vn 0.2690 -0.6591 0.7023
vn 0.1475 -0.0430 0.9881
vn 0.2955 -0.3488 0.8894
vn 0.4014 -0.5989 0.6929
vn -0.1691 0.1953 0.9660
vn -0.0697 0.4004 0.9137
vn 0.0544 0.0993 0.9936
vn 0.3132 -0.9149 0.2548
vn 0.4727 -0.8480 0.2397
vn 0.1524 0.3313 0.9311
vn 0.1010 0.0153 0.9948
vn 0.2239 -0.3083 0.9246
vn 0.3206 -0.5991 0.7336
vn 0.3775 -0.8226 0.4252
vn -0.2845 0.1388 0.9486
vn -0.5852 -0.0364 0.8101
vn -0.7936 -0.1972 0.5756
vn 0.8997 0.4296 0.0777
vn 0.7838 0.4699 0.4061
vn 0.5702 0.4521 0.6859
vn 0.2665 0.3717 0.8893
vn 0.3922 -0.8168 0.4232
vt 0.281048 0.945658
vt 0.314686 0.911719
vt 0.313870 0.945117
vt 0.209383 0.373980
vt 0.348853 0.338105
vt 0.293184 0.435857
vt 0.272165 0.957793
vt 0.207623 0.946525
vt 0.247974 0.945901
vt 0.263324 0.874264
vt 0.226429 0.876483
vt 0.154589 0.890286
vt 0.373549 0.422874
vt 0.284567 0.337912
vt 0.226503 0.339128
vt 0.329417 0.911433
vt 0.351341 0.908945
vt 0.855428 0.683000
vt 0.892063 0.662877
vt 0.885260 0.688752
vt 0.304459 0.957402
vt 0.267813 0.912382
vt 0.285545 0.892948
vt 0.356033 0.944912
vt 0.384152 0.958000
vt 0.883826 0.590786
vt 0.777472 0.637119
vt 0.799104 0.390115
vt 0.610575 0.496682
vt 0.586403 0.610741
vt 0.559396 0.610741
vt 0.884866 0.589186
vt 0.778055 0.636224
vt 0.870945 0.683390
vt 0.878493 0.957802
vt 0.890193 0.879140
vt 0.903591 0.892386
vt 0.607362 0.815576
vt 0.610651 0.778499
vt 0.616872 0.773846
vt 0.654066 0.655853
vt 0.654589 0.601678
vt 0.675245 0.650804
vt 0.620306 0.684105
vt 0.543840 0.723976
vt 0.632533 0.648464
vt 0.780409 0.812035
vt 0.779995 0.876022
vt 0.765330 0.860216
vt 0.811856 0.676865
vt 0.790411 0.725644
vt 0.801955 0.666281
vt 0.806877 0.986081
vt 0.566978 0.986081
vt 0.686992 0.831930
vt 0.683573 0.757714
vt 0.829532 0.727050
vt 0.822571 0.666986
vt 0.795995 0.861390
vt 0.890934 0.771038
vt 0.778789 0.719802
vt 0.685661 0.704397
vt 0.809923 0.730314
vt 0.794882 0.731979
vt 0.575154 0.804155
vt 0.604643 0.809840
vt 0.871576 0.709584
vt 0.898990 0.721284
vt 0.894026 0.707234
vt 0.247339 0.206287
vt 0.203666 0.206287
vt 0.101743 0.191657
vt 0.203666 0.228123
vt 0.203666 0.249960
vt 0.652964 0.778408
vt 0.600280 0.750664
vt 0.652845 0.714034
vt 0.609808 0.719614
vt 0.556733 0.712395
vt 0.647537 0.694116
vt 0.110475 0.191657
vt 0.358546 0.079456
vt 0.386971 0.141563
vt 0.337319 0.116996
vt 0.466508 0.148000
vt 0.427045 0.265782
vt 0.424586 0.173166
vt 0.366476 0.346440
vt 0.463398 0.285195
vt 0.409172 0.110245
vt 0.304959 0.783133
vt 0.338708 0.782279
vt 0.372593 0.790280
vt 0.371842 0.780871
vt 0.401452 0.779013
vt 0.426674 0.776865
vt 0.149039 0.785749
vt 0.182997 0.786044
vt 0.288491 0.792792
vt 0.218258 0.785900
vt 0.253016 0.785242
vt 0.284389 0.784142
vt 0.311981 0.990504
vt 0.360673 0.894682
vt 0.299871 0.896219
vt 0.355244 0.989366
vt 0.420368 0.892145
vt 0.394968 0.987350
vt 0.473712 0.888797
vt 0.428747 0.984488
vt 0.519152 0.884926
vt 0.262812 0.898038
vt 0.248208 0.989428
vt 0.291565 0.990500
vt 0.206290 0.900020
vt 0.208100 0.987468
vt 0.143670 0.901205
vt 0.173688 0.984644
vt 0.018965 0.900932
vt 0.163951 0.981550
vt 0.079570 0.839289
vt 0.285991 0.805707
vt 0.286095 0.850887
vt 0.242991 0.972808
vt 0.115950 0.940956
vt 0.305621 0.972449
vt 0.340241 0.968394
vt 0.350150 0.972873
vt 0.292223 0.964830
vt 0.218074 0.913809
vt 0.191517 0.898309
vt 0.185286 0.883323
vt 0.198530 0.915010
vt 0.285964 0.972403
vt 0.295991 0.972829
vt 0.349942 0.964130
vt 0.324100 0.964349
vt 0.248657 0.968594
vt 0.249093 0.966530
vt 0.252128 0.967765
vt 0.259043 0.968445
vt 0.256763 0.967671
vt 0.235429 0.964639
vt 0.196994 0.959122
vt 0.260302 0.964656
vt 0.329333 0.968252
vt 0.254306 0.966987
vt 0.256714 0.966622
vt 0.253319 0.967326
vt 0.329884 0.966359
vt 0.330922 0.967445
vt 0.337712 0.966212
vt 0.335813 0.967526
vt 0.253765 0.967151
vt 0.252549 0.966965
vt 0.332887 0.967061
vt 0.333551 0.966896
vt 0.334135 0.967071
vt 0.334563 0.966689
vt 0.332761 0.966722
vt 0.254512 0.967312
vt 0.181282 0.344021
vt 0.186614 0.290202
vt 0.147924 0.436896
vt 0.094737 0.229006
vt 0.099443 0.283051
vt 0.105446 0.413513
vt 0.333491 0.966889
vt 0.333546 0.966890
vt 0.253715 0.967157
vt 0.253776 0.967156
vt 0.253713 0.967152
vt 0.333487 0.966895
vt 0.204517 0.484001
vt 0.184954 0.428813
vt 0.209126 0.466346
vt 0.167803 0.914434
vt 0.169899 0.900343
vt 0.288422 0.670463
vt 0.282508 0.731336
vt 0.263874 0.668769
vt 0.123541 0.445564
vt 0.193390 0.432021
vt 0.175222 0.431731
vt 0.294425 0.892367
vt 0.310526 0.888256
vt 0.160609 0.410944
vt 0.164540 0.429832
vt 0.209126 0.428704
vt 0.169176 0.414347
vt 0.200044 0.409973
vt 0.192377 0.414923
vt 0.310039 0.328678
vt 0.270966 0.316784
vt 0.297567 0.313486
vt 0.395649 0.362311
vt 0.297512 0.329051
vt 0.293991 0.367769
vt 0.331297 0.450401
vt 0.269107 0.328693
vt 0.201189 0.451343
vt 0.057213 0.454551
vt 0.195635 0.440346
vt 0.157296 0.431390
vt 0.177321 0.371998
vt 0.174204 0.375437
vt 0.287445 0.287319
vt 0.166316 0.373350
vt 0.180453 0.413953
vt 0.180260 0.410361
vt 0.285179 0.316189
vt 0.270566 0.313423
vt 0.284340 0.313431
vt 0.299866 0.316461
vt 0.195427 0.339564
vt 0.165978 0.373039
vt 0.185192 0.364676
vt 0.152348 0.376184
vt 0.275562 0.285343
vt 0.270097 0.286947
vt 0.276190 0.285157
vt 0.267259 0.284596
vt 0.158119 0.373477
vt 0.282486 0.285387
vt 0.323388 0.872088
vt 0.446252 0.937346
vt 0.440270 0.981722
vt 0.136739 0.894374
vt 0.141551 0.900573
vt 0.300282 0.982578
vt 0.359591 0.478194
vt 0.298325 0.485764
vt 0.318790 0.478859
vt 0.423925 0.485602
vt 0.360514 0.482955
vt 0.342808 0.480401
vt 0.323048 0.486020
vt 0.344291 0.486276
vt 0.390108 0.479731
vt 0.400995 0.478809
vt 0.363362 0.480748
vt 0.378355 0.486254
vt 0.377305 0.480381
vt 0.356782 0.480747
vt 0.359516 0.486370
vt 0.329881 0.479770
vt 0.897867 0.752963
vt 0.925044 0.819044
vt 0.928934 0.819764
vt 0.931771 0.754069
vt 0.951760 0.819942
vt 0.943177 0.752569
vt 0.910072 0.754239
vt 0.933248 0.820397
vt 0.884290 0.751097
vt 0.940390 0.818472
vt 0.955604 0.750459
vt 0.918291 0.745338
vt 0.921078 0.754777
vt 0.947317 0.820767
vt 0.921110 0.754740
vt 0.938058 0.820927
vt 0.363234 0.486334
vt 0.399403 0.485934
vt 0.955604 0.819021
vt 0.942210 0.821480
vt 0.241873 0.259818
vt 0.278795 0.243251
vt 0.256889 0.279186
vt 0.154173 0.319041
vt 0.123633 0.349798
vt 0.069285 0.342090
vt 0.166232 0.338693
vt 0.146344 0.356733
vt 0.173057 0.351385
vt 0.157001 0.363088
vt 0.174606 0.360568
vt 0.162768 0.368864
vt 0.122254 0.361907
vt 0.103691 0.366743
vt 0.135335 0.362839
vt 0.145767 0.366361
vt 0.157557 0.370990
vt 0.317171 0.279683
vt 0.293423 0.267239
vt 0.327316 0.260506
vt 0.292226 0.277136
vt 0.281001 0.272751
vt 0.286570 0.279887
vt 0.276764 0.277619
vt 0.275713 0.281978
vt 0.257403 0.245335
vt 0.257794 0.259792
vt 0.259112 0.269206
vt 0.262805 0.276013
vt 0.270083 0.281366
vt 0.301076 0.276278
vt 0.059504 0.102967
vt 0.127148 0.316847
vt 0.280304 0.283466
vt 0.209383 0.093777
vt 0.209742 0.103740
vt 0.170271 0.367859
vt 0.225881 0.100338
vt 0.086518 0.130681
vt 0.081937 0.130636
vt 0.218378 0.104931
vt 0.212455 0.103702
vt 0.086610 0.119305
vt 0.074386 0.093777
vt 0.076190 0.121089
vt 0.213656 0.103208
vt 0.374310 0.712398
vt 0.293498 0.732855
vt 0.293356 0.707784
vt 0.279223 0.805639
vt 0.079570 0.765782
vt 0.278966 0.760471
vt 0.136294 0.736114
vt 0.539718 0.389083
vt 0.889569 0.389083
vt 0.682391 0.413439
vt 0.828238 0.421752
vt 0.297255 0.732893
vt 0.378188 0.753302
vt 0.297312 0.757971
vt 0.835225 0.495445
vt 0.896691 0.528178
vt 0.689519 0.503855
vt 0.546970 0.528178
vt 0.143546 0.875210
vt 0.508174 0.311213
vt 0.358719 0.400260
vt 0.503823 0.308864
vt 0.358107 0.394742
vt 0.499257 0.306316
vt 0.358442 0.388681
vt 0.494792 0.303610
vt 0.359346 0.382503
vt 0.490528 0.300841
vt 0.350201 0.046440
vt 0.426081 0.083376
vt 0.423731 0.087105
vt 0.349035 0.040671
vt 0.428570 0.079442
vt 0.348503 0.034975
vt 0.431111 0.075437
vt 0.348940 0.029765
vt 0.433621 0.071492
vt 0.110476 0.191657
vt 0.507564 0.124304
vt 0.503049 0.126493
vt 0.498544 0.128752
vt 0.494140 0.131038
vt 0.489933 0.133287
vt 0.364824 0.411432
vt 0.515851 0.315344
vt 0.354545 0.018256
vt 0.350522 0.025408
vt 0.515851 0.120036
vt 0.437992 0.064574
vt 0.400160 0.251382
vt 0.330410 0.273474
vt 0.393374 0.246652
vt 0.331338 0.262619
vt 0.386901 0.242179
vt 0.339573 0.250748
vt 0.380908 0.237801
vt 0.346507 0.241054
vt 0.375163 0.233488
vt 0.342748 0.203683
vt 0.360916 0.196154
vt 0.360041 0.204234
vt 0.333852 0.194014
vt 0.362508 0.187625
vt 0.323730 0.182290
vt 0.365007 0.179044
vt 0.320618 0.169275
vt 0.368410 0.170404
vt 0.397935 0.189488
vt 0.391649 0.193018
vt 0.385787 0.196796
vt 0.380090 0.201116
vt 0.374382 0.206302
vt 0.348069 0.315159
vt 0.359968 0.221937
vt 0.321603 0.157667
vt 0.092196 0.393952
vt 0.117847 0.348023
vt 0.122966 0.270628
vt 0.082285 0.351990
vt 0.233588 0.372597
vt 0.209645 0.300657
vt 0.168156 0.165272
vt 0.233588 0.541544
vt 0.147839 0.198349
vt 0.185581 0.175900
vt 0.147839 0.028763
vt 0.060905 0.134722
vt 0.175025 0.224901
vt 0.162643 0.028763
vt 0.208978 0.219148
vt 0.073464 0.545456
vt 0.086215 0.475766
vt 0.169479 0.097694
vt 0.906827 0.154170
vt 0.887172 0.204639
vt 0.858381 0.154170
vt 0.884670 0.084856
vt 0.848869 0.084856
vt 0.920471 0.084856
vt 0.920471 0.021923
vt 0.848869 0.021923
vt 0.687068 0.790156
vt 0.991748 0.186104
vt 0.920516 0.186104
vt 0.956559 0.109561
vt 0.927687 0.111038
vt 0.939109 0.028160
vt 0.958149 0.021923
vt 0.974947 0.028140
vt 0.985568 0.111047
vt 0.437589 0.753485
vt 0.397421 0.718579
vt 0.441725 0.704335
vt 0.397421 0.690090
vt 0.437589 0.655184
vt 0.838156 0.517888
vt 0.798105 0.512245
vt 0.833575 0.463447
vt 0.798105 0.414649
vt 0.838156 0.409006
vt 0.140999 0.892543
vt 0.858732 0.656451
vt 0.870228 0.682299
vt 0.562232 0.496682
vt 0.613411 0.610741
vt 0.799645 0.386938
vt 0.957258 0.830133
vt 0.983576 0.985666
vt 0.570419 0.808453
vt 0.870130 0.718547
vt 0.824577 0.733034
vt 0.080144 0.901465
vt 0.279415 0.657246
vt 0.290919 0.717733
vt 0.263874 0.719405
vt 0.360452 0.404542
vt 0.332567 0.282629
s 1
f 80/1/1 93/2/1 91/3/1
f 87/4/2 145/5/3 133/6/4
f 96/7/5 4/8/6 90/9/7
f 131/10/8 87/11/8 89/12/9
f 129/13/10 150/14/11 139/15/12
f 91/3/13 134/16/14 81/17/15
f 10/18/16 15/19/17 11/20/18
f 94/21/19 80/1/20 91/3/21
f 84/22/22 87/11/23 133/23/24
f 94/21/25 8/24/26 85/25/27
f 11/26/28 16/27/29 12/28/30
f 12/29/31 312/30/32 13/31/33
f 10/32/34 13/33/35 14/34/36
f 14/35/37 13/36/38 21/37/39
f 15/38/40 35/39/41 19/40/42
f 16/36/43 15/35/44 22/37/45
f 23/41/46 26/42/46 29/43/46
f 20/44/47 22/45/47 30/46/47
f 25/47/48 24/48/48 27/49/48
f 24/50/49 18/51/49 27/52/49
f 22/53/50 19/54/50 316/55/50
f 21/56/51 25/47/51 27/49/51
f 19/57/52 24/50/52 28/58/52
f 24/48/53 25/47/53 28/59/53
f 25/47/54 22/60/54 28/59/54
f 26/42/55 21/61/55 29/43/55
f 21/61/56 17/62/56 29/43/56
f 17/62/57 23/41/57 29/43/57
f 22/45/58 26/42/58 30/46/58
f 26/42/59 23/41/59 30/46/59
f 23/41/60 20/44/60 30/46/60
f 18/51/61 33/63/62 34/64/63
f 15/38/64 32/65/65 31/66/66
f 14/67/67 34/68/68 32/69/69
f 19/57/70 33/63/71 24/50/72
f 32/70/73 38/71/74 31/71/74
f 34/72/75 39/72/75 32/72/75
f 35/71/76 40/73/76 33/73/76
f 34/74/77 40/73/77 41/74/77
f 35/71/78 38/71/78 42/71/78
f 13/75/79 312/76/79 313/77/79
f 20/44/80 314/78/80 16/79/80
f 20/44/81 23/41/81 37/80/81
f 23/41/82 17/62/82 37/80/82
f 17/62/83 313/77/83 37/80/83
f 42/71/84 52/71/85 56/71/86
f 39/81/87 55/81/88 53/81/87
f 46/82/77 49/83/77 50/84/77
f 47/85/78 43/86/78 51/87/78
f 44/88/74 43/86/74 36/89/74
f 46/81/75 48/81/75 44/81/75
f 47/85/76 49/83/76 45/90/76
f 39/70/87 52/71/85 38/71/89
f 42/71/84 54/73/90 40/73/91
f 41/74/92 54/73/90 55/74/88
f 58/91/93 61/92/93 60/93/93
f 61/92/94 62/94/94 60/93/94
f 62/94/95 63/95/95 60/93/95
f 63/95/96 59/96/96 60/93/96
f 69/97/97 72/98/97 71/99/97
f 72/98/98 73/100/98 71/99/98
f 73/100/99 74/101/99 71/99/99
f 74/101/100 70/102/100 71/99/100
f 65/103/101 61/104/101 58/105/101
f 68/106/102 62/107/102 61/104/102
f 67/108/103 63/109/103 62/107/103
f 66/110/104 59/111/105 63/109/106
f 70/112/107 77/113/107 75/114/107
f 74/115/108 78/116/108 77/113/108
f 73/117/109 79/118/109 78/116/109
f 79/118/110 69/119/111 76/120/112
f 5/121/113 69/122/113 245/123/113
f 7/124/114 76/120/114 176/125/114
f 65/103/115 70/112/115 75/114/115
f 83/126/116 98/127/117 3/128/118
f 83/126/119 82/129/120 94/21/121
f 95/130/1 135/131/1 2/132/1
f 90/9/1 84/22/1 80/1/1
f 4/8/122 136/133/123 95/130/124
f 96/7/125 80/1/126 82/129/127
f 92/134/128 82/129/129 6/135/1
f 94/21/130 101/136/131 103/137/132
f 100/138/133 107/139/134 108/140/135
f 102/141/136 108/140/136 110/142/136
f 96/7/137 99/143/138 86/144/139
f 92/134/140 104/145/140 96/7/140
f 7/124/141 99/143/142 100/138/143
f 83/126/144 103/137/144 97/146/144
f 3/128/145 101/136/146 85/25/147
f 92/134/148 100/138/149 102/141/150
f 110/142/140 120/147/140 112/148/140
f 107/139/144 116/149/144 108/140/144
f 102/141/151 112/148/152 104/145/153
f 97/146/154 111/150/155 105/151/156
f 98/127/157 109/152/158 101/136/159
f 97/146/136 106/153/136 98/127/136
f 104/145/160 107/139/160 99/143/160
f 103/137/160 109/152/160 111/150/160
f 120/147/161 123/154/161 115/155/161
f 113/156/162 122/157/163 114/158/164
f 111/150/144 113/156/144 105/151/144
f 106/153/140 117/159/140 109/152/140
f 105/151/150 114/158/164 106/153/150
f 112/148/165 115/155/165 107/139/165
f 109/152/165 119/160/165 111/150/165
f 108/140/150 118/161/162 110/142/150
f 127/162/144 296/163/144 121/164/144
f 128/165/140 301/166/140 303/167/140
f 119/160/161 125/168/161 127/169/161
f 118/161/162 124/170/163 126/171/163
f 116/149/166 123/154/166 124/170/166
f 118/161/167 128/172/167 120/147/167
f 113/156/168 127/169/168 121/173/168
f 114/158/169 125/168/169 117/159/169
f 89/174/170 141/175/170 130/176/170
f 136/133/1 135/131/1 95/130/1
f 88/177/171 137/178/171 136/133/171
f 131/179/172 5/180/173 9/181/174
f 137/182/175 148/183/176 149/184/177
f 81/17/178 138/185/179 129/186/180
f 93/2/181 138/185/181 134/16/181
f 141/175/182 154/187/182 142/188/182
f 147/189/140 158/190/140 159/191/140
f 142/188/144 160/192/144 148/183/144
f 140/193/183 151/194/183 152/195/183
f 1/196/184 143/197/185 131/198/186
f 138/199/187 145/5/188 150/14/189
f 131/198/190 144/200/191 87/4/192
f 130/176/193 142/188/194 5/201/195
f 1/196/196 139/15/197 140/193/198
f 135/202/199 147/189/199 89/174/199
f 132/203/200 142/188/200 148/183/200
f 135/202/177 149/184/177 146/204/177
f 158/190/140 171/205/140 159/191/140
f 154/187/144 172/206/144 160/192/144
f 151/194/183 164/207/183 152/195/183
f 160/192/150 173/208/150 161/209/150
f 147/189/182 153/210/182 141/175/182
f 139/15/201 162/211/201 151/194/201
f 143/197/202 156/212/202 144/200/202
f 149/184/203 158/190/203 146/204/203
f 140/193/202 155/213/202 143/197/202
f 145/5/201 162/211/201 150/14/201
f 144/200/204 157/214/204 145/5/204
f 148/183/203 161/209/203 149/184/203
f 171/205/165 197/215/165 165/216/165
f 165/216/165 198/217/165 166/218/165
f 153/210/165 166/218/165 154/187/165
f 159/191/165 165/216/165 153/210/165
f 151/194/205 174/219/205 163/220/205
f 156/212/206 167/221/206 168/222/206
f 161/209/150 170/223/150 158/190/150
f 155/213/206 164/207/206 167/221/206
f 157/214/205 174/219/205 162/211/205
f 156/212/204 169/224/204 157/214/204
f 1/225/207 59/111/208 175/226/209
f 59/111/208 64/227/210 175/226/209
f 64/227/211 3/128/211 175/226/211
f 3/128/212 85/25/212 175/226/212
f 85/25/213 8/24/213 175/226/213
f 8/24/140 81/17/140 175/226/140
f 81/17/140 129/186/140 175/226/140
f 129/186/140 1/225/140 175/226/140
f 76/120/214 69/119/214 176/125/214
f 69/119/214 5/228/214 176/125/214
f 5/228/144 132/229/144 176/125/144
f 132/229/144 88/177/144 176/125/144
f 88/177/144 4/8/144 176/125/144
f 4/8/215 86/144/215 176/125/215
f 86/144/216 7/124/216 176/125/216
f 3/128/217 64/227/217 177/230/217
f 64/227/218 66/110/218 177/230/218
f 177/231/219 185/232/219 79/233/219
f 177/231/220 181/234/220 186/235/220
f 77/236/221 184/237/221 182/238/221
f 67/239/222 181/234/222 66/240/222
f 65/241/223 179/242/223 68/243/223
f 75/244/224 178/245/224 65/241/224
f 78/246/225 185/232/225 184/237/225
f 79/118/226 76/120/226 177/230/226
f 76/120/227 7/124/227 177/230/227
f 7/124/228 92/134/228 177/230/228
f 92/134/229 6/135/229 177/230/229
f 6/135/229 83/126/229 177/230/229
f 83/126/230 3/128/230 177/230/230
f 184/247/231 194/248/232 193/249/233
f 179/250/234 189/251/235 180/252/236
f 182/253/237 193/249/238 191/254/239
f 185/255/240 195/256/241 194/248/242
f 181/257/243 195/256/244 186/258/245
f 178/259/246 188/260/247 179/250/248
f 183/261/249 191/254/250 192/262/251
f 75/244/252 182/238/252 183/263/252
f 68/243/253 180/264/253 67/239/253
f 190/265/254 189/251/254 195/256/254
f 189/251/255 188/260/255 195/256/255
f 188/260/256 187/266/256 195/256/256
f 187/266/257 192/262/257 195/256/257
f 192/262/258 191/254/258 195/256/258
f 191/254/259 193/249/259 195/256/259
f 193/249/260 194/248/260 195/256/260
f 180/252/261 190/265/262 181/257/263
f 183/261/264 187/266/264 178/259/264
f 168/222/206 199/267/206 200/268/206
f 167/221/206 196/269/206 199/267/206
f 213/270/265 226/271/265 223/272/265
f 216/273/266 225/274/266 226/271/266
f 215/275/267 224/276/267 225/274/267
f 214/277/268 222/278/268 224/276/268
f 223/272/265 219/279/265 217/280/265
f 226/271/266 220/281/266 219/279/266
f 225/274/267 221/282/267 220/281/267
f 224/276/268 218/283/268 221/282/268
f 203/284/269 231/285/269 228/286/269
f 231/285/270 205/287/270 230/288/270
f 230/288/271 204/289/271 229/290/272
f 204/289/273 227/291/274 229/290/273
f 207/292/269 231/285/269 209/293/269
f 231/285/270 210/294/270 209/293/270
f 210/294/272 229/290/272 211/295/272
f 229/290/273 208/296/273 211/295/273
f 204/289/183 206/297/183 196/269/275
f 213/270/276 236/298/277 201/299/276
f 163/220/205 227/291/205 202/300/205
f 207/292/204 210/294/278 208/296/204
f 199/267/279 237/301/280 234/302/281
f 169/224/205 227/291/205 174/219/205
f 173/208/150 212/303/150 170/223/150
f 214/277/140 216/273/140 201/299/140
f 196/269/282 242/304/283 237/301/284
f 217/280/144 220/281/144 218/283/144
f 217/280/285 233/305/286 240/306/286
f 172/206/150 222/278/150 173/208/150
f 241/307/287 237/301/288 242/304/289
f 243/308/290 234/302/291 241/307/287
f 238/309/1 236/298/1 239/310/1
f 240/306/1 232/311/1 238/309/1
f 213/270/292 238/309/293 239/310/292
f 197/215/294 233/305/294 198/217/294
f 200/268/295 243/308/296 207/292/295
f 207/292/297 241/307/298 228/286/297
f 200/268/279 234/302/281 235/312/299
f 228/286/297 242/304/300 203/284/297
f 201/299/294 232/311/294 197/215/294
f 223/272/292 240/306/293 238/309/293
f 60/313/301 59/314/301 244/315/301
f 59/316/302 1/317/302 244/318/302
f 1/317/303 9/319/303 244/318/303
f 9/320/304 10/321/304 244/322/304
f 10/321/305 60/323/305 244/322/305
f 69/324/306 71/325/306 245/326/306
f 71/327/307 11/328/307 245/329/307
f 11/328/308 12/330/308 245/329/308
f 12/331/309 5/121/309 245/123/309
f 267/332/310 248/333/311 270/334/310
f 270/334/312 249/335/313 269/336/312
f 269/336/314 250/337/315 268/338/314
f 268/338/316 247/339/317 266/340/316
f 251/341/318 260/342/319 257/343/320
f 253/344/321 259/345/322 260/342/323
f 254/346/324 258/347/325 259/345/326
f 255/348/327 256/349/328 258/347/328
f 247/350/329 253/350/330 251/350/330
f 250/350/331 254/350/332 253/350/332
f 249/350/333 255/81/334 254/350/334
f 248/81/335 252/81/336 255/81/336
f 262/351/337 270/334/338 265/352/337
f 265/352/339 269/336/340 264/353/339
f 264/353/341 268/338/341 263/354/341
f 263/354/342 266/340/343 261/355/344
f 261/355/345 260/342/346 263/354/347
f 263/354/348 259/345/349 264/353/350
f 264/353/351 258/347/352 265/352/353
f 265/352/354 256/349/355 262/351/354
f 44/81/356 251/350/357 46/81/358
f 44/88/359 266/340/360 247/339/359
f 55/81/361 246/81/362 53/81/362
f 53/356/363 267/332/364 52/357/364
f 46/82/365 257/343/366 45/90/367
f 55/358/368 256/349/369 252/359/370
f 47/85/371 257/343/366 261/355/372
f 56/360/373 256/349/374 54/361/375
f 56/360/376 267/332/377 262/351/378
f 36/89/379 261/355/380 266/340/381
f 272/362/382 278/363/382 275/364/382
f 275/364/383 279/365/383 274/366/383
f 274/366/384 280/367/384 273/368/384
f 273/368/385 277/369/385 271/370/385
f 286/371/386 285/372/387 282/373/388
f 288/374/389 284/375/390 285/372/391
f 289/376/392 283/377/393 284/375/394
f 290/378/395 281/379/396 283/377/397
f 286/371/398 280/367/399 288/374/400
f 288/374/401 279/365/402 289/376/403
f 289/81/404 278/81/405 290/81/406
f 278/81/407 287/81/408 290/81/409
f 292/380/410 275/364/411 295/381/412
f 275/364/413 294/382/414 295/381/415
f 274/366/416 293/383/417 294/382/418
f 273/368/419 291/384/420 293/383/421
f 291/384/422 285/372/387 293/383/423
f 293/383/424 284/375/390 294/382/425
f 294/382/426 283/377/393 295/381/427
f 295/381/428 281/379/429 292/380/430
f 48/385/431 272/362/431 43/86/431
f 271/370/432 277/369/432 57/386/432
f 51/87/78 272/362/433 292/380/433
f 291/384/434 271/370/434 57/386/434
f 50/81/75 276/81/435 48/81/75
f 277/369/436 286/371/436 57/386/436
f 50/84/437 281/379/437 287/387/437
f 282/373/438 291/384/439 57/386/440
f 286/371/441 282/373/438 57/386/440
f 51/87/442 281/379/442 49/83/442
f 298/388/144 307/389/144 299/390/144
f 299/390/443 309/391/443 301/166/443
f 125/392/140 297/393/140 300/394/140
f 121/164/444 297/393/444 122/395/444
f 128/165/445 298/388/445 123/396/445
f 125/392/445 302/397/445 127/162/445
f 124/398/444 301/166/444 126/399/444
f 123/396/144 299/390/144 124/398/144
f 304/400/446 308/401/446 305/402/446
f 307/389/446 311/403/446 309/391/446
f 303/167/140 309/391/140 311/403/140
f 302/397/144 304/400/144 296/163/144
f 300/394/140 305/402/140 308/401/140
f 296/163/443 305/402/443 297/393/443
f 303/167/447 306/404/447 298/388/447
f 300/394/447 310/405/447 302/397/447
f 313/77/79 314/78/79 37/80/79
f 313/77/79 312/76/79 314/78/79
f 312/76/79 16/79/79 314/78/79
f 17/406/448 23/407/448 20/408/448
f 20/408/449 312/409/449 17/406/449
f 16/410/449 312/409/449 20/408/449
f 312/409/449 13/411/449 17/406/449
f 14/412/450 13/411/450 312/409/450
f 16/410/450 15/413/450 312/409/450
f 18/53/451 21/54/451 315/55/451
f 15/413/450 14/412/450 312/409/450
f 21/54/452 27/414/452 315/55/452
f 27/414/453 18/53/453 315/55/453
f 19/54/454 28/414/454 316/55/454
f 28/414/455 22/53/455 316/55/455
f 22/415/456 21/416/456 317/417/456
f 21/416/457 315/418/457 317/417/457
f 315/418/458 27/419/458 317/417/458
f 27/419/459 25/420/459 317/417/459
f 25/420/460 28/421/460 317/417/460
f 28/421/461 316/422/461 317/417/461
f 316/422/462 22/415/462 317/417/462
f 71/423/463 70/424/463 318/425/463
f 70/424/463 58/426/463 318/425/463
f 58/426/463 60/427/463 318/425/463
f 60/428/463 10/429/463 318/430/463
f 10/429/463 11/431/463 318/430/463
f 11/431/463 71/432/463 318/430/463
f 80/1/1 84/22/1 93/2/1
f 87/4/2 144/200/464 145/5/3
f 96/7/5 86/144/465 4/8/6
f 87/11/8 2/132/9 89/12/9
f 89/12/9 130/433/9 131/10/8
f 129/13/10 138/199/466 150/14/11
f 81/17/15 8/24/467 91/3/13
f 91/3/13 93/2/1 134/16/14
f 10/18/16 14/434/468 15/19/17
f 94/21/19 82/129/469 80/1/20
f 133/23/24 93/2/181 84/22/22
f 84/22/22 2/132/470 87/11/23
f 94/21/25 91/3/471 8/24/26
f 11/26/28 15/435/472 16/27/29
f 13/31/33 9/436/473 12/29/31
f 12/29/31 16/437/32 312/30/32
f 10/32/34 9/438/474 13/33/35
f 13/36/38 17/439/475 21/37/39
f 21/37/39 18/440/476 14/35/37
f 15/38/40 31/66/477 35/39/41
f 15/35/44 19/440/478 22/37/45
f 22/37/45 20/439/479 16/36/43
f 18/51/61 24/50/480 33/63/62
f 15/38/64 14/441/481 32/65/65
f 14/67/67 18/442/482 34/68/68
f 19/57/70 35/443/483 33/63/71
f 32/70/73 39/70/73 38/71/74
f 34/72/75 41/72/75 39/72/75
f 35/71/76 42/71/76 40/73/76
f 34/74/77 33/73/77 40/73/77
f 35/71/78 31/71/78 38/71/78
f 20/44/80 37/80/80 314/78/80
f 17/62/83 13/75/83 313/77/83
f 42/71/84 38/71/89 52/71/85
f 39/81/87 41/81/92 55/81/88
f 46/82/77 45/90/77 49/83/77
f 47/85/78 36/89/78 43/86/78
f 44/88/74 48/385/74 43/86/74
f 46/81/75 50/81/75 48/81/75
f 47/85/76 51/87/76 49/83/76
f 39/70/87 53/70/87 52/71/85
f 42/71/84 56/71/86 54/73/90
f 41/74/92 40/73/91 54/73/90
f 65/103/101 68/106/101 61/104/101
f 68/106/102 67/108/102 62/107/102
f 67/108/103 66/110/103 63/109/103
f 66/110/104 64/227/484 59/111/105
f 70/112/107 74/115/107 77/113/107
f 74/115/108 73/117/108 78/116/108
f 73/117/109 72/444/109 79/118/109
f 79/118/110 72/444/485 69/119/111
f 65/103/115 58/105/115 70/112/115
f 83/126/116 97/146/150 98/127/117
f 83/126/119 6/135/1 82/129/120
f 2/132/1 84/22/1 95/130/1
f 135/131/1 89/12/1 2/132/1
f 90/9/1 95/130/1 84/22/1
f 95/130/124 90/9/486 4/8/122
f 4/8/122 88/177/171 136/133/123
f 96/7/125 90/9/21 80/1/126
f 92/134/128 96/7/487 82/129/129
f 94/21/130 85/25/488 101/136/131
f 100/138/133 99/143/489 107/139/134
f 102/141/136 100/138/136 108/140/136
f 96/7/137 104/145/132 99/143/138
f 92/134/140 102/141/140 104/145/140
f 7/124/141 86/144/490 99/143/142
f 83/126/144 94/21/144 103/137/144
f 3/128/145 98/127/491 101/136/146
f 92/134/148 7/124/492 100/138/149
f 110/142/140 118/161/140 120/147/140
f 107/139/144 115/155/144 116/149/144
f 102/141/151 110/142/493 112/148/152
f 97/146/154 103/137/494 111/150/155
f 98/127/157 106/153/495 109/152/158
f 97/146/136 105/151/136 106/153/136
f 104/145/160 112/148/160 107/139/160
f 103/137/160 101/136/160 109/152/160
f 120/147/161 128/172/161 123/154/161
f 113/156/162 121/173/163 122/157/163
f 111/150/144 119/160/144 113/156/144
f 106/153/140 114/158/140 117/159/140
f 105/151/150 113/156/162 114/158/164
f 112/148/165 120/147/165 115/155/165
f 109/152/165 117/159/165 119/160/165
f 108/140/150 116/149/164 118/161/162
f 127/162/144 302/397/144 296/163/144
f 128/165/140 126/399/140 301/166/140
f 119/160/161 117/159/161 125/168/161
f 118/161/162 116/149/164 124/170/163
f 116/149/166 115/155/166 123/154/166
f 118/161/167 126/171/167 128/172/167
f 113/156/168 119/160/168 127/169/168
f 114/158/169 122/157/169 125/168/169
f 89/174/170 147/189/170 141/175/170
f 136/133/1 137/178/1 135/131/1
f 88/177/171 132/229/171 137/178/171
f 9/181/174 1/445/496 131/179/172
f 131/179/172 130/446/497 5/180/173
f 5/180/173 12/447/498 9/181/174
f 137/182/175 132/203/499 148/183/176
f 81/17/178 134/16/500 138/185/179
f 93/2/181 133/23/181 138/185/181
f 141/175/182 153/210/182 154/187/182
f 147/189/140 146/204/140 158/190/140
f 142/188/144 154/187/144 160/192/144
f 140/193/183 139/15/183 151/194/183
f 1/196/184 140/193/501 143/197/185
f 138/199/187 133/6/502 145/5/188
f 131/198/190 143/197/503 144/200/191
f 130/176/193 141/175/170 142/188/194
f 1/196/196 129/13/504 139/15/197
f 135/202/199 146/204/199 147/189/199
f 132/203/200 5/201/200 142/188/200
f 135/202/177 137/182/177 149/184/177
f 158/190/140 170/223/140 171/205/140
f 154/187/144 166/218/144 172/206/144
f 151/194/183 163/220/183 164/207/183
f 160/192/150 172/206/150 173/208/150
f 147/189/182 159/191/182 153/210/182
f 139/15/201 150/14/201 162/211/201
f 143/197/202 155/213/202 156/212/202
f 149/184/203 161/209/203 158/190/203
f 140/193/202 152/195/202 155/213/202
f 145/5/201 157/214/201 162/211/201
f 144/200/204 156/212/204 157/214/204
f 148/183/203 160/192/203 161/209/203
f 171/205/165 201/299/165 197/215/165
f 165/216/165 197/215/165 198/217/165
f 153/210/165 165/216/165 166/218/165
f 159/191/165 171/205/165 165/216/165
f 151/194/205 162/211/205 174/219/205
f 156/212/206 155/213/206 167/221/206
f 161/209/150 173/208/150 170/223/150
f 155/213/206 152/195/206 164/207/206
f 157/214/205 169/224/205 174/219/205
f 156/212/204 168/222/204 169/224/204
f 177/231/219 186/235/219 185/232/219
f 177/231/220 66/240/220 181/234/220
f 77/236/221 78/246/221 184/237/221
f 67/239/222 180/264/222 181/234/222
f 65/241/223 178/245/223 179/242/223
f 75/244/224 183/263/224 178/245/224
f 78/246/225 79/233/225 185/232/225
f 184/247/231 185/255/505 194/248/232
f 179/250/234 188/260/506 189/251/235
f 182/253/237 184/247/507 193/249/238
f 185/255/240 186/258/508 195/256/241
f 181/257/243 190/265/509 195/256/244
f 178/259/246 187/266/510 188/260/247
f 183/261/249 182/253/511 191/254/250
f 75/244/252 77/236/252 182/238/252
f 68/243/253 179/242/253 180/264/253
f 180/252/261 189/251/512 190/265/262
f 183/261/264 192/262/264 187/266/264
f 168/222/206 167/221/206 199/267/206
f 167/221/206 164/207/206 196/269/206
f 213/270/265 216/273/265 226/271/265
f 216/273/266 215/275/266 225/274/266
f 215/275/267 214/277/267 224/276/267
f 214/277/268 212/303/268 222/278/268
f 223/272/265 226/271/265 219/279/265
f 226/271/266 225/274/266 220/281/266
f 225/274/267 224/276/267 221/282/267
f 224/276/268 222/278/268 218/283/268
f 203/284/269 206/297/269 231/285/269
f 231/285/270 206/297/270 205/287/270
f 230/288/271 205/287/271 204/289/271
f 204/289/273 202/300/273 227/291/274
f 207/292/269 228/286/269 231/285/269
f 231/285/270 230/288/270 210/294/270
f 210/294/272 230/288/271 229/290/272
f 229/290/273 227/291/274 208/296/273
f 196/269/275 164/207/183 163/220/183
f 163/220/183 202/300/183 204/289/183
f 204/289/183 205/287/183 206/297/183
f 206/297/183 203/284/513 196/269/275
f 196/269/275 163/220/183 204/289/183
f 213/270/276 239/310/277 236/298/277
f 163/220/205 174/219/205 227/291/205
f 208/296/204 169/224/204 168/222/204
f 168/222/204 200/268/204 207/292/204
f 207/292/204 209/293/514 210/294/278
f 210/294/278 211/295/278 208/296/204
f 208/296/204 168/222/204 207/292/204
f 199/267/279 196/269/279 237/301/280
f 169/224/205 208/296/205 227/291/205
f 173/208/150 222/278/150 212/303/150
f 201/299/140 171/205/140 170/223/140
f 170/223/140 212/303/140 214/277/140
f 214/277/140 215/275/140 216/273/140
f 216/273/140 213/270/140 201/299/140
f 201/299/140 170/223/140 214/277/140
f 196/269/282 203/284/282 242/304/283
f 218/283/144 172/206/144 166/218/144
f 166/218/144 198/217/144 217/280/144
f 217/280/144 219/279/144 220/281/144
f 220/281/144 221/282/144 218/283/144
f 218/283/144 166/218/144 217/280/144
f 217/280/285 198/217/285 233/305/286
f 172/206/150 218/283/150 222/278/150
f 241/307/287 234/302/291 237/301/288
f 243/308/290 235/312/515 234/302/291
f 238/309/1 232/311/1 236/298/1
f 240/306/1 233/305/1 232/311/1
f 213/270/292 223/272/292 238/309/293
f 197/215/294 232/311/294 233/305/294
f 200/268/295 235/312/516 243/308/296
f 207/292/297 243/308/298 241/307/298
f 200/268/279 199/267/279 234/302/281
f 228/286/297 241/307/298 242/304/300
f 201/299/294 236/298/294 232/311/294
f 223/272/292 217/280/292 240/306/293
f 267/332/310 246/448/311 248/333/311
f 270/334/312 248/333/313 249/335/313
f 269/336/314 249/335/315 250/337/315
f 268/338/316 250/337/517 247/339/317
f 251/341/318 253/344/518 260/342/319
f 253/344/321 254/346/519 259/345/322
f 254/346/324 255/348/520 258/347/325
f 255/348/327 252/359/327 256/349/328
f 247/350/329 250/350/329 253/350/330
f 250/350/331 249/350/331 254/350/332
f 249/350/333 248/81/333 255/81/334
f 248/81/335 246/81/335 252/81/336
f 262/351/337 267/332/338 270/334/338
f 265/352/339 270/334/340 269/336/340
f 264/353/341 269/336/341 268/338/341
f 263/354/342 268/338/343 266/340/343
f 261/355/345 257/343/521 260/342/346
f 263/354/348 260/342/522 259/345/349
f 264/353/351 259/345/523 258/347/352
f 265/352/354 258/347/355 256/349/355
f 44/81/356 247/350/524 251/350/357
f 44/88/359 36/89/525 266/340/360
f 55/81/361 252/81/361 246/81/362
f 53/356/363 246/448/363 267/332/364
f 46/82/365 251/341/526 257/343/366
f 55/358/368 54/361/527 256/349/369
f 47/85/371 45/90/367 257/343/366
f 56/360/373 262/351/528 256/349/374
f 56/360/376 52/357/377 267/332/377
f 36/89/379 47/85/529 261/355/380
f 272/362/382 276/449/382 278/363/382
f 275/364/383 278/363/383 279/365/383
f 274/366/384 279/365/384 280/367/384
f 273/368/385 280/367/385 277/369/385
f 286/371/386 288/374/530 285/372/387
f 288/374/389 289/376/531 284/375/390
f 289/376/392 290/378/532 283/377/393
f 290/378/395 287/387/533 281/379/396
f 286/371/398 277/369/534 280/367/399
f 288/374/401 280/367/535 279/365/402
f 289/81/404 279/81/536 278/81/405
f 278/81/407 276/81/407 287/81/408
f 292/380/410 272/362/537 275/364/411
f 275/364/413 274/366/538 294/382/414
f 274/366/416 273/368/539 293/383/417
f 273/368/419 271/370/540 291/384/420
f 291/384/422 282/373/388 285/372/387
f 293/383/424 285/372/391 284/375/390
f 294/382/426 284/375/394 283/377/393
f 295/381/428 283/377/541 281/379/429
f 48/385/431 276/449/431 272/362/431
f 51/87/78 43/86/78 272/362/433
f 50/81/75 287/81/435 276/81/435
f 50/84/437 49/83/437 281/379/437
f 51/87/442 292/380/442 281/379/442
f 298/388/144 306/404/144 307/389/144
f 299/390/443 307/389/443 309/391/443
f 125/392/140 122/395/140 297/393/140
f 121/164/444 296/163/444 297/393/444
f 128/165/445 303/167/445 298/388/445
f 125/392/445 300/394/445 302/397/445
f 124/398/444 299/390/444 301/166/444
f 123/396/144 298/388/144 299/390/144
f 304/400/446 310/405/446 308/401/446
f 307/389/446 306/404/446 311/403/446
f 303/167/140 301/166/140 309/391/140
f 302/397/144 310/405/144 304/400/144
f 300/394/140 297/393/140 305/402/140
f 296/163/443 304/400/443 305/402/443
f 303/167/447 311/403/447 306/404/447
f 300/394/447 308/401/447 310/405/447
