# Blender 4.5.1 LTS
# www.blender.org
o Dino.001
v -0.321368 -0.991318 2.623406
v 0.000000 -0.845095 2.608984
v -0.571368 2.568884 2.601686
v 0.321368 1.009589 2.601686
v 0.321368 -0.964417 2.601686
v 0.000000 2.467021 2.608984
v 0.571368 2.568884 2.601686
v -0.321368 1.009589 2.601686
v -0.242145 -1.034707 2.784891
v -0.242145 -1.034707 3.788975
v 0.242145 -1.034707 3.788975
v 0.242145 -1.034707 2.784891
v -0.358029 -1.725658 3.700315
v -0.413269 -1.499489 4.115031
v 0.084205 -1.291853 4.068058
v 0.139445 -1.518022 3.653342
v -0.083280 -2.152567 3.535162
v -0.169966 -1.793170 4.288890
v 0.327508 -1.662805 4.120592
v 0.253309 -2.012081 3.503380
v -0.332826 -1.925307 3.718200
v 0.164648 -1.794942 3.549902
v 0.190052 -2.441930 3.439792
v 0.371457 -2.540348 4.254628
v 0.397724 -2.702866 4.117922
v 0.318123 -2.619061 3.669996
v 0.249658 -2.700402 4.152131
v 0.498693 -2.618549 4.083923
v 0.097990 -2.441196 3.629042
v 0.345278 -2.340174 3.596116
v 0.061755 -1.359132 4.096409
v -0.335340 -1.523815 4.138306
v 0.048964 -1.717679 4.103247
v -0.151850 -1.766342 4.171465
v 0.245245 -1.665896 4.034401
v 0.040747 -1.387763 4.275660
v 0.059939 -2.088912 3.371193
v 0.060972 -1.334562 4.185575
v -0.336124 -1.499245 4.227471
v 0.048181 -1.823229 4.319827
v -0.152634 -1.904167 4.341525
v 0.244462 -1.739485 4.299629
v 0.039701 -1.354956 4.394719
v -0.267867 -1.515751 4.308221
v 0.030806 -1.767544 4.379998
v -0.125263 -1.830448 4.396861
v 0.183351 -1.702460 4.364300
v -0.268913 -1.482944 4.427280
v 0.029760 -1.734738 4.499057
v -0.126309 -1.797641 4.515921
v 0.182305 -1.669653 4.483360
v 0.087527 -1.269848 4.167975
v -0.403155 -1.473719 4.219849
v 0.076556 -1.887097 4.337675
v -0.179457 -1.968779 4.359094
v 0.311601 -1.764747 4.307180
v -0.048007 -1.508007 4.680738
v -0.078292 -0.845095 3.414752
v -0.301251 -0.845095 3.191793
v -0.270145 -0.944881 3.611692
v -0.163614 -0.845095 3.397780
v -0.235947 -0.845095 3.349449
v -0.284279 -0.845095 3.277115
v -0.321368 2.568884 3.223416
v -0.078292 2.467021 3.414752
v -0.284279 2.467021 3.277115
v -0.235947 2.467021 3.349449
v -0.163614 2.467021 3.397780
v 0.301251 -0.845095 3.191793
v 0.078292 -0.845095 3.414752
v 0.270145 -0.944881 3.611692
v 0.284279 -0.845095 3.277115
v 0.235947 -0.845095 3.349449
v 0.163614 -0.845095 3.397780
v 0.078292 2.467021 3.414752
v 0.321368 2.568884 3.223416
v 0.163614 2.467021 3.397780
v 0.235947 2.467021 3.349449
v 0.284279 2.467021 3.277115
v 0.000000 1.005338 2.608984
v -0.321368 0.022586 2.601686
v 0.000000 1.930555 2.608984
v -0.150625 2.467021 2.608984
v 0.000000 0.080121 2.608984
v -0.571368 1.564335 2.563052
v 0.571368 1.564335 2.563052
v -0.150625 -0.872027 2.615619
v 0.321368 0.022586 2.601686
v 0.150625 -0.845095 2.608984
v 0.150625 1.005338 2.608984
v -0.150625 1.005338 2.608984
v 0.150625 2.467021 2.608984
v -0.150625 0.080121 2.608984
v -0.150625 1.511214 2.523147
v 0.150625 0.080121 2.608984
v 0.150625 1.511214 2.523147
v -0.150625 2.467021 2.063140
v -0.551251 2.467021 2.063140
v 0.551251 1.885008 2.125376
v 0.551251 2.467021 2.063140
v -0.551251 1.885008 2.125376
v 0.150625 2.467021 2.063140
v -0.150625 1.885008 2.125376
v 0.150625 1.885008 2.125376
v -0.076158 2.459799 1.866036
v -0.402316 2.459799 1.866036
v 0.402316 2.118605 1.866036
v 0.402316 2.459799 1.866036
v -0.402316 2.118605 1.866036
v 0.076158 2.459799 1.866036
v -0.076158 2.118605 1.866036
v 0.076158 2.118605 1.866036
v -0.076158 2.459799 1.607510
v -0.402316 2.459799 1.607510
v 0.402316 2.118605 1.607510
v 0.402316 2.459799 1.607510
v -0.402316 2.118605 1.607510
v 0.076158 2.459799 1.607510
v -0.076158 2.118605 1.607510
v 0.076158 2.118605 1.607510
v -0.044263 2.454726 0.423389
v -0.338525 2.454726 0.423389
v 0.338525 2.256425 0.423389
v 0.338525 2.454726 0.423389
v -0.338525 2.256425 0.423389
v 0.044263 2.454726 0.423389
v -0.044263 2.256425 0.423389
v 0.044263 2.256425 0.423389
v -0.321368 -0.501746 2.561257
v 0.225938 -0.845095 2.608984
v -0.225938 -0.872027 2.615619
v 0.321368 -0.470916 2.601686
v -0.150625 -0.413102 2.557361
v -0.225938 0.080121 2.608984
v 0.150625 -0.382487 2.608984
v 0.225938 0.080121 2.608984
v 0.225938 -0.382487 2.608984
v -0.225938 -0.413102 2.557361
v -0.268464 -1.099210 2.140462
v -0.312740 -1.292580 2.349783
v 0.140849 -0.757985 2.140244
v 0.187798 -0.757985 2.140244
v -0.266807 -1.292580 2.359499
v -0.220873 -1.292580 2.369215
v -0.176598 -1.099210 2.159894
v 0.093899 -0.469597 2.140244
v 0.093899 -0.757985 2.140244
v 0.187798 -0.469597 2.140244
v 0.140849 -0.469597 2.140244
v -0.222531 -1.099210 2.150177
v -0.284563 -1.385269 2.216571
v -0.302240 -1.462472 2.300143
v 0.140849 -0.834259 1.980181
v 0.187798 -0.834259 1.980181
v -0.256307 -1.462472 2.309859
v -0.210374 -1.462472 2.319574
v -0.192696 -1.385269 2.236002
v 0.093899 -0.719119 1.980181
v 0.093899 -0.834259 1.980181
v 0.187798 -0.719119 1.980181
v 0.140849 -0.719119 1.980181
v -0.238630 -1.385269 2.226287
v -0.253151 -1.553216 2.068066
v -0.270828 -1.630420 2.151639
v 0.140849 -0.834259 1.753804
v 0.187798 -0.834259 1.753804
v -0.224895 -1.630420 2.161354
v -0.178962 -1.630420 2.171070
v -0.161285 -1.553216 2.087498
v 0.093899 -0.719119 1.753804
v 0.093899 -0.834259 1.753804
v 0.187798 -0.719119 1.753804
v 0.140849 -0.719119 1.753804
v -0.207218 -1.553216 2.077782
v -0.321368 0.802233 2.912551
v 0.321368 0.802233 2.912551
v 0.000000 2.522642 2.976291
v -0.078292 3.012492 3.472003
v -0.163614 3.012492 3.455031
v -0.235947 3.012492 3.406700
v -0.284279 3.012492 3.334367
v 0.163614 3.012492 3.455031
v 0.078292 3.012492 3.472003
v 0.235947 3.012492 3.406700
v 0.284279 3.012492 3.334367
v 0.000000 3.068114 3.033543
v -0.036437 4.865843 5.136629
v -0.076146 4.870495 5.130246
v -0.109810 4.883744 5.112068
v -0.132304 4.903572 5.084864
v 0.076146 4.870495 5.130246
v 0.036437 4.865843 5.136629
v 0.109810 4.883744 5.112068
v 0.132304 4.903572 5.084864
v 0.000000 5.006954 4.986970
v -0.251152 -1.735623 2.058614
v 0.140849 -0.834259 1.611999
v 0.187798 -0.834259 1.611999
v -0.205218 -1.735623 2.068330
v -0.159285 -1.735623 2.078045
v 0.093899 -0.834259 1.611999
v -0.248102 -1.580212 2.044196
v -0.249659 -1.729104 2.051557
v -0.243736 -1.615522 2.023556
v -0.242499 -1.656217 2.017707
v -0.244579 -1.696101 2.027540
v -0.157793 -1.729104 2.070988
v -0.156236 -1.580212 2.063627
v -0.152712 -1.696101 2.046972
v -0.150633 -1.656217 2.037139
v -0.151870 -1.615522 2.042988
v 0.093899 -0.719119 1.717416
v 0.093899 -0.824536 1.611999
v 0.093899 -0.727144 1.677075
v 0.093899 -0.749995 1.642875
v 0.093899 -0.784195 1.620024
v 0.187798 -0.824536 1.611999
v 0.187798 -0.719119 1.717416
v 0.187798 -0.784195 1.620024
v 0.187798 -0.749995 1.642875
v 0.187798 -0.727144 1.677075
v 0.140849 -0.719119 1.717416
v 0.140849 -0.824536 1.611999
v 0.140849 -0.727144 1.677075
v 0.140849 -0.749995 1.642875
v 0.140849 -0.784195 1.620024
v -0.202169 -1.580212 2.053912
v -0.203726 -1.729104 2.061273
v -0.197803 -1.615522 2.033272
v -0.196566 -1.656217 2.027423
v -0.198646 -1.696101 2.037256
v 0.005888 -0.829601 1.524542
v 0.007850 -0.829601 1.524542
v -0.060328 -1.797384 2.035506
v -0.058408 -1.797384 2.035912
v 0.003925 -0.829601 1.524542
v -0.062248 -1.797384 2.035099
v 0.005888 -0.829194 1.524542
v 0.003925 -0.829194 1.524542
v 0.007850 -0.829194 1.524542
v -0.060266 -1.797111 2.035210
v -0.062186 -1.797111 2.034804
v -0.058346 -1.797111 2.035616
v -0.271393 -0.971403 3.193920
v 0.271393 -0.971403 3.193920
v -0.403364 -1.467620 4.242110
v -0.361795 -1.476601 4.283860
v -0.400288 -1.465708 4.254759
v -0.391308 -1.466743 4.267136
v -0.377791 -1.470569 4.277354
v -0.163182 -1.915999 4.407484
v -0.179711 -1.962625 4.381340
v -0.169615 -1.931223 4.406943
v -0.175016 -1.945431 4.401785
v -0.178561 -1.956457 4.392795
v 0.076361 -1.880965 4.359929
v 0.063690 -1.843729 4.387850
v 0.075313 -1.875522 4.371521
v 0.072537 -1.866534 4.380898
v 0.068456 -1.855370 4.386632
v 0.271734 -1.735304 4.361519
v 0.311429 -1.758558 4.329417
v 0.286852 -1.741570 4.358695
v 0.299704 -1.748188 4.351602
v 0.308334 -1.754154 4.341321
v 0.072866 -1.296004 4.237897
v 0.087363 -1.263728 4.190232
v 0.078345 -1.281049 4.229125
v 0.083023 -1.269664 4.216987
v 0.086190 -1.263582 4.203330
v -0.006366 -1.408829 4.644901
v 0.039438 -1.323549 4.515715
v 0.011102 -1.369037 4.623034
v 0.025941 -1.338857 4.590804
v 0.035891 -1.322884 4.553119
v -0.269177 -1.451537 4.548276
v -0.153655 -1.469915 4.660441
v -0.260443 -1.445779 4.584384
v -0.235422 -1.447250 4.618381
v -0.197923 -1.455725 4.645088
v 0.029496 -1.703330 4.620053
v -0.010844 -1.590681 4.694799
v 0.026366 -1.687599 4.653314
v 0.017600 -1.660666 4.679198
v 0.004534 -1.626633 4.693766
v -0.085767 -1.620615 4.702846
v -0.126572 -1.766234 4.636917
v -0.101443 -1.669184 4.705186
v -0.114702 -1.713914 4.693479
v -0.123526 -1.747992 4.669505
v 0.062193 -1.559256 4.687235
v 0.182042 -1.638246 4.604356
v 0.107997 -1.582328 4.683089
v 0.146858 -1.605441 4.665882
v 0.172859 -1.625077 4.638235
v -0.044263 2.166623 0.044573
v -0.338525 2.166623 0.044573
v 0.338525 1.702374 0.084535
v 0.338525 2.166623 0.044573
v -0.338525 1.702374 0.084535
v 0.044263 2.166623 0.044573
v -0.044263 1.702374 0.084535
v 0.044263 1.702374 0.084535
v -0.044263 1.902201 0.000212
v -0.338525 1.902201 0.000212
v 0.338525 1.437952 0.040174
v 0.338525 1.902201 0.000212
v -0.338525 1.437952 0.040174
v 0.044263 1.902201 0.000212
v -0.044263 1.437952 0.040174
v 0.044263 1.437952 0.040174
v -0.109292 -1.621840 3.676828
v -0.149045 -1.907285 3.535754
v 0.099692 -1.803467 3.512268
v -0.059350 -2.169982 4.001649
v 0.341429 -2.037710 3.892441
v 0.144579 -2.117265 3.945836
v 0.000000 -0.955156 3.631969
vn -0.0000 -0.0000 -1.0000
vn 0.9970 -0.0755 -0.0192
vn 0.0673 -0.1319 -0.9890
vn -0.0000 -0.2392 -0.9710
vn -0.2867 0.5104 -0.8107
vn 0.0433 -0.0017 -0.9991
vn -0.1057 0.6667 0.7378
vn 0.3452 -0.0562 -0.9369
vn 0.1615 -0.0035 -0.9869
vn -0.0673 -0.1319 -0.9890
vn 0.9711 -0.2271 0.0740
vn 0.1510 -0.8341 -0.5306
vn -0.9827 0.1733 -0.0659
vn -0.9209 -0.3795 0.0885
vn -0.3468 -0.2311 0.9090
vn 0.9039 0.3821 -0.1922
vn -0.5726 -0.7721 -0.2756
vn 0.9163 0.3236 0.2360
vn 0.1671 -0.6187 0.7676
vn -0.3547 -0.2977 0.8863
vn 0.9216 0.2261 -0.3154
vn -0.1918 -0.5852 -0.7879
vn 0.8222 0.1260 0.5551
vn 0.6013 -0.4552 0.6567
vn 0.1308 -0.5015 -0.8552
vn -0.5761 -0.5806 0.5754
vn -0.7548 -0.5761 -0.3138
vn -0.7351 -0.5773 -0.3554
vn 0.3794 0.2022 0.9028
vn 0.7618 -0.2342 -0.6040
vn 0.7097 -0.0002 -0.7045
vn 0.4989 0.4188 0.7587
vn -0.0962 0.4438 0.8909
vn 0.5306 0.6378 0.5582
vn -0.1053 0.2285 0.9678
vn -0.3933 0.8855 -0.2474
vn -0.8227 -0.5190 -0.2317
vn 0.2378 -0.9107 -0.3378
vn 0.1522 -0.8367 -0.5261
vn 0.8847 0.4612 0.0677
vn -0.2706 0.4566 -0.8475
vn 0.4291 0.3515 -0.8321
vn 0.5525 0.0419 -0.8325
vn -0.6265 -0.3648 -0.6888
vn -0.7028 -0.1868 -0.6864
vn 0.0091 -0.2671 -0.9636
vn 0.3851 -0.8889 0.2483
vn 0.9166 0.3875 -0.0987
vn -0.9166 -0.3875 0.0987
vn 0.4017 -0.8820 0.2466
vn 0.0085 -0.2656 -0.9640
vn 0.0119 -0.2622 -0.9649
vn 0.0036 -0.2657 -0.9640
vn -0.0775 0.9177 0.3895
vn -0.2156 0.9217 0.3226
vn -0.4134 0.8676 0.2762
vn -0.8719 0.4580 0.1734
vn 0.8719 0.4580 0.1734
vn 0.4134 0.8676 0.2762
vn 0.2156 0.9217 0.3226
vn 0.0775 0.9177 0.3895
vn -0.1951 -0.0000 0.9808
vn -0.5556 -0.0000 0.8315
vn -0.8315 -0.0000 0.5556
vn -0.9331 -0.0045 0.3596
vn 0.1951 -0.0000 0.9808
vn 0.5556 -0.0000 0.8315
vn 0.8315 -0.0000 0.5556
vn 0.9331 -0.0045 0.3596
vn 0.9704 -0.2281 0.0792
vn 0.9258 -0.0655 0.3723
vn -0.0000 -0.0000 1.0000
vn 0.1234 0.9882 -0.0905
vn 0.2004 0.0563 -0.9781
vn -0.0433 -0.0017 -0.9991
vn -0.3452 -0.0562 -0.9369
vn -0.2004 0.0563 -0.9781
vn -0.0805 -0.7656 -0.6383
vn 0.8282 -0.0377 -0.5592
vn -0.0000 0.9993 -0.0366
vn 0.0805 -0.7656 -0.6383
vn -1.0000 -0.0000 -0.0000
vn 0.9991 -0.0006 -0.0413
vn 1.0000 -0.0000 -0.0000
vn -0.9991 -0.0006 -0.0413
vn -0.1234 0.9882 -0.0905
vn -0.9472 0.0216 0.3198
vn 0.9472 0.0216 0.3198
vn -0.8282 -0.0377 -0.5592
vn -0.0000 -0.7430 -0.6693
vn -0.0000 -0.9933 -0.1156
vn -0.0000 1.0000 -0.0043
vn -0.0000 1.0000 -0.0000
vn -0.0000 -1.0000 -0.0000
vn 0.9986 -0.0000 -0.0538
vn -0.9996 -0.0000 0.0269
vn 0.9996 -0.0000 0.0269
vn -0.9986 -0.0000 -0.0538
vn -0.0000 -0.9832 -0.1827
vn -0.0762 -0.0000 -0.9971
vn 0.0001 -0.7068 -0.7074
vn 0.5099 0.8373 -0.1971
vn -0.0512 0.0900 -0.9946
vn -0.0000 0.1041 -0.9946
vn -0.0000 -0.9027 0.4302
vn -0.9784 -0.0000 -0.2069
vn 0.4477 -0.5420 0.7112
vn 0.0690 0.5038 -0.8611
vn -0.0689 -0.5049 0.8604
vn -0.6424 -0.7611 -0.0892
vn -0.9934 0.0194 -0.1132
vn -0.9928 -0.0000 0.1201
vn 0.9606 -0.0000 -0.2780
vn -0.0000 0.9832 -0.1827
vn 0.1997 -0.2624 -0.9441
vn -0.1983 -0.2862 0.9374
vn -0.0000 0.5399 -0.8417
vn 0.9784 -0.0000 0.2069
vn 0.1535 0.6705 -0.7258
vn -0.1535 -0.6705 0.7258
vn -0.9993 -0.0059 0.0369
vn -0.9994 -0.0062 0.0353
vn -0.9258 -0.0655 0.3723
vn -0.8344 -0.0212 0.5507
vn -0.8695 -0.4109 -0.2741
vn 0.9994 -0.0062 0.0353
vn 0.8695 -0.4109 -0.2741
vn 0.8344 -0.0212 0.5507
vn 0.1091 0.9931 -0.0439
vn 0.5616 0.5365 0.6299
vn 0.7315 0.0712 -0.6781
vn -0.7315 0.0712 -0.6781
vn 0.5535 -0.0869 0.8283
vn -0.8301 -0.0582 0.5546
vn -0.1941 -0.1024 0.9756
vn -0.0000 -0.1044 0.9945
vn 0.8301 -0.0582 0.5546
vn -0.5616 0.5365 0.6299
vn -0.1091 0.9931 -0.0439
vn -0.2324 0.9430 -0.2381
vn -0.0000 0.9887 -0.1497
vn 0.2324 0.9430 -0.2381
vn 0.7864 -0.3853 0.4828
vn -0.4862 -0.5714 0.6611
vn 0.4862 -0.5714 0.6611
vn 0.6859 0.5198 -0.5093
vn -0.6859 0.5198 -0.5093
vn -0.1620 -0.6570 0.7363
vn 0.1620 -0.6570 0.7363
vn 0.1941 -0.1024 0.9756
vn -0.5535 -0.0869 0.8283
vn -0.1135 0.7559 0.6448
vn -0.0695 0.7406 0.6684
vn -0.0242 0.7303 0.6827
vn -0.0000 0.7276 0.6860
vn 0.0242 0.7303 0.6827
vn 0.0695 0.7406 0.6684
vn 0.1135 0.7559 0.6448
vn -0.7864 -0.3853 0.4828
vn -0.0000 -0.6682 0.7440
vn -0.0000 0.1951 -0.9808
vn -0.0000 0.5556 -0.8315
vn -0.0000 0.8315 -0.5556
vn -0.0000 0.9808 -0.1951
vn 0.1660 -0.5968 -0.7850
vn 0.2007 -0.2443 -0.9487
vn 0.2047 0.1453 -0.9680
vn 0.1776 0.5129 -0.8399
vn -0.6970 -0.0000 0.7171
vn -0.1459 -0.7090 0.6899
vn -0.3029 -0.6673 -0.6805
vn 0.4371 -0.0000 -0.8994
vn 0.1388 -0.7416 -0.6564
vn 0.1388 -0.7416 -0.6563
vn -0.0000 0.9986 -0.0532
vn -0.0000 -0.9986 -0.0532
vn 0.5824 0.5320 0.6147
vn 0.1607 0.6301 -0.7597
vn -0.9731 -0.2297 0.0175
vn -0.9693 -0.2276 0.0929
vn -0.5998 -0.7961 0.0803
vn -0.9078 -0.4194 -0.0000
vn -0.9648 -0.2622 0.0195
vn 0.9731 -0.2297 0.0175
vn 0.9648 -0.2622 0.0195
vn 0.9078 -0.4194 -0.0000
vn 0.7291 -0.6824 0.0535
vn -0.3874 0.9208 -0.0450
vn -0.3350 0.8871 0.3174
vn -0.2482 0.7525 0.6100
vn -0.1355 0.5378 0.8321
vn 0.1080 -0.0716 0.9916
vn 0.2020 -0.3952 0.8961
vn 0.2686 -0.6569 0.7045
vn 0.3069 -0.8505 0.4271
vn -0.3386 0.1099 0.9345
vn -0.6117 -0.0544 0.7892
vn -0.8004 -0.2030 0.5641
vn -0.9037 -0.3324 0.2699
vn 0.9002 0.4289 0.0756
vn 0.7914 0.4687 0.3923
vn 0.5984 0.4562 0.6586
vn 0.3220 0.3887 0.8633
vn 0.1531 -0.0528 0.9868
vn 0.2986 -0.3547 0.8860
vn 0.4023 -0.6010 0.6906
vn 0.4625 -0.7857 0.4108
vn -0.1694 0.1953 0.9660
vn -0.0698 0.4006 0.9136
vn -0.9170 -0.3870 0.0970
vn -0.3940 0.8855 -0.2464
vn 0.0552 0.1116 0.9922
vn 0.3131 -0.9146 0.2557
vn 0.0608 0.1138 0.9916
vn 0.4726 -0.8483 0.2388
vn 0.9167 0.3869 -0.1001
vn 0.1516 0.3309 0.9314
vn -0.3873 0.9204 -0.0531
vn -0.3405 0.8946 0.2893
vn -0.2529 0.7616 0.5967
vn -0.1264 0.5198 0.8449
vn 0.1010 0.0150 0.9948
vn 0.2239 -0.3089 0.9244
vn 0.3206 -0.5996 0.7333
vn 0.3775 -0.8228 0.4250
vn -0.2852 0.1382 0.9484
vn -0.5860 -0.0372 0.8094
vn -0.7940 -0.1977 0.5748
vn -0.9032 -0.3329 0.2711
vn 0.8997 0.4295 0.0773
vn 0.7843 0.4697 0.4052
vn 0.5712 0.4522 0.6851
vn 0.2672 0.3718 0.8890
vn 0.0971 0.0133 0.9952
vn 0.2268 -0.3077 0.9241
vn 0.3298 -0.5957 0.7324
vn 0.3921 -0.8167 0.4235
vn -0.3934 0.8897 -0.2318
vn -0.0501 0.3579 0.9324
vn 0.9166 0.3876 -0.0986
vn 0.0865 0.3062 0.9480
vn -0.9166 -0.3876 0.0986
vn -0.1048 0.2253 0.9686
vn 0.3851 -0.8931 0.2327
vn 0.0250 0.1785 0.9836
vn 0.0329 0.1819 0.9828
vn 0.4018 -0.8861 0.2309
vn -0.0000 0.1655 -0.9862
vn -0.0000 0.7960 -0.6054
vn -0.0000 -0.5217 0.8531
vn -0.0000 -0.0858 -0.9963
vn -0.0000 -0.1655 0.9862
vn 0.1618 -0.1677 0.9725
vn 0.1917 -0.2443 0.9505
vn 0.3759 -0.7916 0.4818
vn -0.7983 -0.4954 0.3425
vn -0.8054 -0.3294 0.4927
vn -0.8669 -0.4371 0.2395
vn 0.9545 0.1801 -0.2377
vn 0.9143 0.1200 -0.3868
vn 0.0105 0.7752 0.6316
vn -0.0132 0.7506 0.6607
vn 0.1604 0.3548 0.9211
vn 0.2157 0.3600 0.9077
vn 0.0637 0.3066 0.9497
vn 0.1161 0.3392 0.9335
vn -0.1433 0.7711 0.6204
vn -0.0000 0.8920 0.4520
vt 0.313870 0.945117
vt 0.281048 0.945658
vt 0.267813 0.912382
vt 0.314686 0.911719
vt 0.293184 0.435857
vt 0.209383 0.373980
vt 0.269107 0.328693
vt 0.348853 0.338105
vt 0.272165 0.957793
vt 0.196994 0.959122
vt 0.207623 0.946525
vt 0.247974 0.945901
vt 0.263324 0.874264
vt 0.226429 0.876483
vt 0.185286 0.883323
vt 0.154589 0.890286
vt 0.140999 0.892543
vt 0.373549 0.422874
vt 0.331297 0.450401
vt 0.284567 0.337912
vt 0.226503 0.339128
vt 0.356033 0.944912
vt 0.329417 0.911433
vt 0.351341 0.908945
vt 0.885260 0.688752
vt 0.855428 0.683000
vt 0.858732 0.656451
vt 0.892063 0.662877
vt 0.304459 0.957402
vt 0.292223 0.964830
vt 0.285545 0.892948
vt 0.384152 0.958000
vt 0.799104 0.390115
vt 0.883826 0.590786
vt 0.870228 0.682299
vt 0.777472 0.637119
vt 0.562232 0.496682
vt 0.610575 0.496682
vt 0.613411 0.610741
vt 0.586403 0.610741
vt 0.559396 0.610741
vt 0.884866 0.589186
vt 0.799645 0.386938
vt 0.778055 0.636224
vt 0.870945 0.683390
vt 0.878493 0.957802
vt 0.890193 0.879140
vt 0.957258 0.830133
vt 0.903591 0.892386
vt 0.983576 0.985666
vt 0.616872 0.773846
vt 0.607362 0.815576
vt 0.604643 0.809840
vt 0.610651 0.778499
vt 0.654066 0.655853
vt 0.654589 0.601678
vt 0.675245 0.650804
vt 0.620306 0.684105
vt 0.543840 0.723976
vt 0.632533 0.648464
vt 0.780409 0.812035
vt 0.779995 0.876022
vt 0.765330 0.860216
vt 0.811856 0.676865
vt 0.790411 0.725644
vt 0.801955 0.666281
vt 0.806877 0.986081
vt 0.566978 0.986081
vt 0.686992 0.831930
vt 0.683573 0.757714
vt 0.829532 0.727050
vt 0.822571 0.666986
vt 0.795995 0.861390
vt 0.890934 0.771038
vt 0.778789 0.719802
vt 0.685661 0.704397
vt 0.809923 0.730314
vt 0.794882 0.731979
vt 0.570419 0.808453
vt 0.575154 0.804155
vt 0.871576 0.709584
vt 0.870130 0.718547
vt 0.898990 0.721284
vt 0.894026 0.707234
vt 0.824577 0.733034
vt 0.203666 0.206287
vt 0.247339 0.206287
vt 0.101743 0.191657
vt 0.203666 0.228123
vt 0.203666 0.249960
vt 0.652964 0.778408
vt 0.600280 0.750664
vt 0.652845 0.714034
vt 0.556733 0.712395
vt 0.647537 0.694116
vt 0.609808 0.719614
vt 0.110475 0.191657
vt 0.358546 0.079456
vt 0.409172 0.110245
vt 0.386971 0.141563
vt 0.337319 0.116996
vt 0.466508 0.148000
vt 0.463398 0.285195
vt 0.427045 0.265782
vt 0.424586 0.173166
vt 0.366476 0.346440
vt 0.348069 0.315159
vt 0.304959 0.783133
vt 0.338708 0.782279
vt 0.372593 0.790280
vt 0.371842 0.780871
vt 0.401452 0.779013
vt 0.426674 0.776865
vt 0.149039 0.785749
vt 0.182997 0.786044
vt 0.288491 0.792792
vt 0.218258 0.785900
vt 0.253016 0.785242
vt 0.284389 0.784142
vt 0.299871 0.896219
vt 0.311981 0.990504
vt 0.355244 0.989366
vt 0.360673 0.894682
vt 0.394968 0.987350
vt 0.420368 0.892145
vt 0.428747 0.984488
vt 0.473712 0.888797
vt 0.440270 0.981722
vt 0.519152 0.884926
vt 0.291565 0.990500
vt 0.262812 0.898038
vt 0.206290 0.900020
vt 0.248208 0.989428
vt 0.143670 0.901205
vt 0.208100 0.987468
vt 0.080144 0.901465
vt 0.173688 0.984644
vt 0.018965 0.900932
vt 0.163951 0.981550
vt 0.079570 0.839289
vt 0.285991 0.805707
vt 0.286095 0.850887
vt 0.242991 0.972808
vt 0.115950 0.940956
vt 0.350150 0.972873
vt 0.305621 0.972449
vt 0.329333 0.968252
vt 0.340241 0.968394
vt 0.295991 0.972829
vt 0.218074 0.913809
vt 0.191517 0.898309
vt 0.167803 0.914434
vt 0.198530 0.915010
vt 0.285964 0.972403
vt 0.349942 0.964130
vt 0.324100 0.964349
vt 0.248657 0.968594
vt 0.235429 0.964639
vt 0.249093 0.966530
vt 0.252128 0.967765
vt 0.259043 0.968445
vt 0.256763 0.967671
vt 0.260302 0.964656
vt 0.256714 0.966622
vt 0.254512 0.967312
vt 0.254306 0.966987
vt 0.252549 0.966965
vt 0.253319 0.967326
vt 0.329884 0.966359
vt 0.330922 0.967445
vt 0.335813 0.967526
vt 0.337712 0.966212
vt 0.253713 0.967152
vt 0.253765 0.967151
vt 0.334135 0.967071
vt 0.332887 0.967061
vt 0.333487 0.966895
vt 0.333551 0.966896
vt 0.332761 0.966722
vt 0.334563 0.966689
vt 0.147924 0.436896
vt 0.181282 0.344021
vt 0.185581 0.175900
vt 0.186614 0.290202
vt 0.094737 0.229006
vt 0.060905 0.134722
vt 0.099443 0.283051
vt 0.105446 0.413513
vt 0.333491 0.966889
vt 0.333546 0.966890
vt 0.253715 0.967157
vt 0.253776 0.967156
vt 0.209126 0.466346
vt 0.204517 0.484001
vt 0.209126 0.428704
vt 0.184954 0.428813
vt 0.169899 0.900343
vt 0.141551 0.900573
vt 0.279415 0.657246
vt 0.288422 0.670463
vt 0.290919 0.717733
vt 0.282508 0.731336
vt 0.263874 0.719405
vt 0.263874 0.668769
vt 0.123541 0.445564
vt 0.195635 0.440346
vt 0.193390 0.432021
vt 0.175222 0.431731
vt 0.294425 0.892367
vt 0.310526 0.888256
vt 0.164540 0.429832
vt 0.180260 0.410361
vt 0.160609 0.410944
vt 0.157296 0.431390
vt 0.169176 0.414347
vt 0.200044 0.409973
vt 0.192377 0.414923
vt 0.310039 0.328678
vt 0.270966 0.316784
vt 0.297567 0.313486
vt 0.293991 0.367769
vt 0.395649 0.362311
vt 0.297512 0.329051
vt 0.201189 0.451343
vt 0.057213 0.454551
vt 0.158119 0.373477
vt 0.177321 0.371998
vt 0.152348 0.376184
vt 0.174204 0.375437
vt 0.270097 0.286947
vt 0.287445 0.287319
vt 0.180453 0.413953
vt 0.166316 0.373350
vt 0.285179 0.316189
vt 0.284340 0.313431
vt 0.270566 0.313423
vt 0.299866 0.316461
vt 0.165978 0.373039
vt 0.127148 0.316847
vt 0.195427 0.339564
vt 0.185192 0.364676
vt 0.275562 0.285343
vt 0.276190 0.285157
vt 0.267259 0.284596
vt 0.282486 0.285387
vt 0.323388 0.872088
vt 0.446252 0.937346
vt 0.136739 0.894374
vt 0.300282 0.982578
vt 0.318790 0.478859
vt 0.359591 0.478194
vt 0.360514 0.482955
vt 0.298325 0.485764
vt 0.400995 0.478809
vt 0.423925 0.485602
vt 0.342808 0.480401
vt 0.329881 0.479770
vt 0.323048 0.486020
vt 0.344291 0.486276
vt 0.390108 0.479731
vt 0.399403 0.485934
vt 0.377305 0.480381
vt 0.363362 0.480748
vt 0.359516 0.486370
vt 0.378355 0.486254
vt 0.356782 0.480747
vt 0.363234 0.486334
vt 0.897867 0.752963
vt 0.884290 0.751097
vt 0.925044 0.819044
vt 0.928934 0.819764
vt 0.943177 0.752569
vt 0.931771 0.754069
vt 0.947317 0.820767
vt 0.951760 0.819942
vt 0.910072 0.754239
vt 0.933248 0.820397
vt 0.918291 0.745338
vt 0.940390 0.818472
vt 0.955604 0.750459
vt 0.955604 0.819021
vt 0.921078 0.754777
vt 0.942210 0.821480
vt 0.921110 0.754740
vt 0.938058 0.820927
vt 0.241873 0.259818
vt 0.278795 0.243251
vt 0.256889 0.279186
vt 0.069285 0.342090
vt 0.154173 0.319041
vt 0.166232 0.338693
vt 0.123633 0.349798
vt 0.173057 0.351385
vt 0.146344 0.356733
vt 0.174606 0.360568
vt 0.157001 0.363088
vt 0.170271 0.367859
vt 0.162768 0.368864
vt 0.103691 0.366743
vt 0.122254 0.361907
vt 0.135335 0.362839
vt 0.145767 0.366361
vt 0.157557 0.370990
vt 0.327316 0.260506
vt 0.317171 0.279683
vt 0.301076 0.276278
vt 0.293423 0.267239
vt 0.292226 0.277136
vt 0.281001 0.272751
vt 0.286570 0.279887
vt 0.276764 0.277619
vt 0.280304 0.283466
vt 0.275713 0.281978
vt 0.257403 0.245335
vt 0.257794 0.259792
vt 0.259112 0.269206
vt 0.262805 0.276013
vt 0.270083 0.281366
vt 0.074386 0.093777
vt 0.059504 0.102967
vt 0.209383 0.093777
vt 0.209742 0.103740
vt 0.225881 0.100338
vt 0.086518 0.130681
vt 0.081937 0.130636
vt 0.218378 0.104931
vt 0.212455 0.103702
vt 0.213656 0.103208
vt 0.086610 0.119305
vt 0.076190 0.121089
vt 0.374310 0.712398
vt 0.293498 0.732855
vt 0.293356 0.707784
vt 0.279223 0.805639
vt 0.079570 0.765782
vt 0.278966 0.760471
vt 0.136294 0.736114
vt 0.539718 0.389083
vt 0.889569 0.389083
vt 0.682391 0.413439
vt 0.828238 0.421752
vt 0.297255 0.732893
vt 0.378188 0.753302
vt 0.297312 0.757971
vt 0.835225 0.495445
vt 0.896691 0.528178
vt 0.689519 0.503855
vt 0.546970 0.528178
vt 0.143546 0.875210
vt 0.508174 0.311213
vt 0.360452 0.404542
vt 0.358719 0.400260
vt 0.503823 0.308864
vt 0.358107 0.394742
vt 0.499257 0.306316
vt 0.358442 0.388681
vt 0.494792 0.303610
vt 0.359346 0.382503
vt 0.490528 0.300841
vt 0.423731 0.087105
vt 0.350201 0.046440
vt 0.349035 0.040671
vt 0.426081 0.083376
vt 0.348503 0.034975
vt 0.428570 0.079442
vt 0.348940 0.029765
vt 0.431111 0.075437
vt 0.350522 0.025408
vt 0.433621 0.071492
vt 0.110476 0.191657
vt 0.507564 0.124304
vt 0.503049 0.126493
vt 0.498544 0.128752
vt 0.494140 0.131038
vt 0.489933 0.133287
vt 0.515851 0.315344
vt 0.364824 0.411432
vt 0.354545 0.018256
vt 0.437992 0.064574
vt 0.515851 0.120036
vt 0.400160 0.251382
vt 0.332567 0.282629
vt 0.330410 0.273474
vt 0.393374 0.246652
vt 0.331338 0.262619
vt 0.386901 0.242179
vt 0.339573 0.250748
vt 0.380908 0.237801
vt 0.346507 0.241054
vt 0.375163 0.233488
vt 0.360041 0.204234
vt 0.342748 0.203683
vt 0.333852 0.194014
vt 0.360916 0.196154
vt 0.323730 0.182290
vt 0.362508 0.187625
vt 0.320618 0.169275
vt 0.365007 0.179044
vt 0.321603 0.157667
vt 0.368410 0.170404
vt 0.397935 0.189488
vt 0.391649 0.193018
vt 0.385787 0.196796
vt 0.380090 0.201116
vt 0.374382 0.206302
vt 0.359968 0.221937
vt 0.122966 0.270628
vt 0.092196 0.393952
vt 0.086215 0.475766
vt 0.117847 0.348023
vt 0.082285 0.351990
vt 0.233588 0.372597
vt 0.233588 0.541544
vt 0.209645 0.300657
vt 0.168156 0.165272
vt 0.147839 0.198349
vt 0.147839 0.028763
vt 0.208978 0.219148
vt 0.175025 0.224901
vt 0.169479 0.097694
vt 0.162643 0.028763
vt 0.073464 0.545456
vt 0.906827 0.154170
vt 0.887172 0.204639
vt 0.858381 0.154170
vt 0.884670 0.084856
vt 0.848869 0.084856
vt 0.920471 0.084856
vt 0.920471 0.021923
vt 0.848869 0.021923
vt 0.687068 0.790156
vt 0.991748 0.186104
vt 0.920516 0.186104
vt 0.956559 0.109561
vt 0.927687 0.111038
vt 0.939109 0.028160
vt 0.958149 0.021923
vt 0.974947 0.028140
vt 0.985568 0.111047
vt 0.437589 0.753485
vt 0.397421 0.718579
vt 0.441725 0.704335
vt 0.397421 0.690090
vt 0.437589 0.655184
vt 0.838156 0.517888
vt 0.798105 0.512245
vt 0.833575 0.463447
vt 0.798105 0.414649
vt 0.838156 0.409006
s 0
f 91/1/1 80/2/1 84/3/1 93/4/1
f 133/5/2 87/6/2 144/7/2 145/8/2
f 96/9/3 86/10/3 4/11/3 90/12/3
f 131/13/4 87/14/4 2/15/4 89/16/4 130/17/4
f 129/18/5 138/19/5 150/20/5 139/21/5
f 8/22/6 91/1/6 93/4/6 134/23/6 81/24/6
f 11/25/7 10/26/7 14/27/7 15/28/7
f 94/29/8 82/30/8 80/2/8 91/1/8
f 93/4/9 84/3/9 2/15/9 87/14/9 133/31/9
f 85/32/10 94/29/10 91/1/10 8/22/10
f 12/33/11 11/34/11 15/35/11 16/36/11
f 9/37/12 12/38/12 16/39/12 312/40/12 13/41/12
f 10/42/13 9/43/13 13/44/13 14/45/13
f 14/46/14 13/47/14 17/48/14 21/49/14 18/50/14
f 19/51/15 15/52/15 31/53/15 35/54/15
f 16/47/16 15/46/16 19/50/16 22/49/16 20/48/16
f 23/55/17 26/56/17 29/57/17
f 20/58/18 22/59/18 30/60/18
f 25/61/19 24/62/19 27/63/19
f 24/64/20 18/65/20 27/66/20
f 22/67/21 19/68/21 316/69/21
f 21/70/22 25/61/22 27/63/22
f 19/71/23 24/64/23 28/72/23
f 24/62/24 25/61/24 28/73/24
f 25/61/25 22/74/25 28/73/25
f 26/56/26 21/75/26 29/57/26
f 21/75/27 17/76/27 29/57/27
f 17/76/28 23/55/28 29/57/28
f 22/59/29 26/56/29 30/60/29
f 26/56/30 23/55/30 30/60/30
f 23/55/31 20/58/31 30/60/31
f 18/65/32 24/64/32 33/77/32 34/78/32
f 15/52/33 14/79/33 32/80/33 31/53/33
f 14/81/34 18/82/34 34/83/34 32/84/34
f 24/64/35 19/71/35 35/85/35 33/77/35
f 31/86/36 32/87/36 39/87/36 38/86/36
f 32/88/37 34/88/37 41/88/37 39/88/37
f 33/89/38 35/86/38 42/86/38 40/89/38
f 34/90/39 33/89/39 40/89/39 41/90/39
f 35/86/40 31/86/40 38/86/40 42/86/40
f 13/91/41 312/92/41 313/93/41
f 16/94/42 20/58/42 37/95/42 314/96/42
f 20/58/43 23/55/43 37/95/43
f 23/55/44 17/76/44 37/95/44
f 17/76/45 13/91/45 313/93/45 37/95/45
f 42/86/46 38/86/46 52/86/46 56/86/46
f 39/97/46 41/97/46 55/97/46 53/97/46
f 46/98/47 45/99/47 49/100/47 50/101/47
f 47/102/48 36/103/48 43/104/48 51/105/48
f 36/103/36 44/106/36 48/107/36 43/104/36
f 44/97/49 46/97/49 50/97/49 48/97/49
f 45/99/50 47/102/50 51/105/50 49/100/50
f 38/86/51 39/87/51 53/87/51 52/86/51
f 40/89/52 42/86/52 56/86/52 54/89/52
f 41/90/53 40/89/53 54/89/53 55/90/53
f 58/108/54 61/109/54 60/110/54
f 61/109/55 62/111/55 60/110/55
f 62/111/56 63/112/56 60/110/56
f 63/112/57 59/113/57 60/110/57
f 69/114/58 72/115/58 71/116/58
f 72/115/59 73/117/59 71/116/59
f 73/117/60 74/118/60 71/116/60
f 74/118/61 70/119/61 71/116/61
f 58/120/62 65/121/62 68/122/62 61/123/62
f 61/123/63 68/122/63 67/124/63 62/125/63
f 62/125/64 67/124/64 66/126/64 63/127/64
f 63/127/65 66/126/65 64/128/65 59/129/65
f 75/130/66 70/131/66 74/132/66 77/133/66
f 77/133/67 74/132/67 73/134/67 78/135/67
f 78/135/68 73/134/68 72/136/68 79/137/68
f 79/137/69 72/136/69 69/138/69 76/139/69
f 5/140/70 69/141/70 245/142/70
f 7/143/71 76/139/71 176/144/71
f 75/130/72 65/121/72 58/120/72 70/131/72
f 3/145/73 83/146/73 97/147/73 98/148/73
f 83/146/74 6/149/74 82/30/74 94/29/74
f 84/3/1 95/150/1 135/151/1 89/16/1 2/15/1
f 80/2/1 90/12/1 95/150/1 84/3/1
f 90/12/75 4/11/75 88/152/75 136/153/75 95/150/75
f 82/30/76 96/9/76 90/12/76 80/2/76
f 6/149/77 92/154/77 96/9/77 82/30/77
f 94/29/78 85/32/78 101/155/78 103/156/78
f 100/157/79 99/158/79 107/159/79 108/160/79
f 102/161/80 100/157/80 108/160/80 110/162/80
f 86/10/81 96/9/81 104/163/81 99/158/81
f 96/9/82 92/154/82 102/161/82 104/163/82
f 7/143/83 86/10/83 99/158/83 100/157/83
f 83/146/84 94/29/84 103/156/84 97/147/84
f 85/32/85 3/145/85 98/148/85 101/155/85
f 92/154/86 7/143/86 100/157/86 102/161/86
f 112/164/82 110/162/82 118/165/82 120/166/82
f 108/160/84 107/159/84 115/167/84 116/168/84
f 104/163/87 102/161/87 110/162/87 112/164/87
f 97/147/88 103/156/88 111/169/88 105/170/88
f 101/155/89 98/148/89 106/171/89 109/172/89
f 98/148/80 97/147/80 105/170/80 106/171/80
f 99/158/90 104/163/90 112/164/90 107/159/90
f 103/156/90 101/155/90 109/172/90 111/169/90
f 115/167/91 120/166/91 128/173/91 123/174/91
f 114/175/92 113/176/92 121/177/92 122/178/92
f 105/170/84 111/169/84 119/179/84 113/176/84
f 109/172/82 106/171/82 114/175/82 117/180/82
f 106/171/93 105/170/93 113/176/93 114/175/93
f 107/159/94 112/164/94 120/166/94 115/167/94
f 111/169/94 109/172/94 117/180/94 119/179/94
f 110/162/93 108/160/93 116/168/93 118/165/93
f 121/181/84 127/182/84 302/183/84 296/184/84
f 128/185/82 126/186/82 301/187/82 303/188/82
f 119/179/91 117/180/91 125/189/91 127/190/91
f 118/165/92 116/168/92 124/191/92 126/192/92
f 116/168/95 115/167/95 123/174/95 124/191/95
f 120/166/96 118/165/96 126/192/96 128/173/96
f 113/176/97 119/179/97 127/190/97 121/177/97
f 117/180/98 114/175/98 122/178/98 125/189/98
f 130/193/99 89/194/99 147/195/99 141/196/99
f 95/150/1 136/153/1 137/197/1 135/151/1
f 136/153/100 88/152/100 132/198/100 137/197/100
f 1/199/101 131/200/101 130/201/101 5/202/101 12/203/101 9/204/101
f 137/205/102 132/206/102 148/207/102 149/208/102
f 81/24/103 134/23/103 138/209/103 129/210/103
f 134/23/104 93/4/104 133/31/104 138/209/104
f 142/211/105 141/196/105 153/212/105 154/213/105
f 147/195/82 146/214/82 158/215/82 159/216/82
f 148/207/84 142/211/84 154/213/84 160/217/84
f 140/218/106 139/21/106 151/219/106 152/220/106
f 131/221/107 1/222/107 140/218/107 143/223/107
f 138/19/108 133/5/108 145/8/108 150/20/108
f 87/6/109 131/221/109 143/223/109 144/7/109
f 5/224/110 130/193/110 141/196/110 142/211/110
f 1/222/111 129/18/111 139/21/111 140/218/111
f 89/194/112 135/225/112 146/214/112 147/195/112
f 132/206/113 5/224/113 142/211/113 148/207/113
f 135/225/114 137/205/114 149/208/114 146/214/114
f 159/216/82 158/215/82 170/226/82 171/227/82
f 160/217/84 154/213/84 166/228/84 172/229/84
f 152/220/106 151/219/106 163/230/106 164/231/106
f 161/232/93 160/217/93 172/229/93 173/233/93
f 141/196/105 147/195/105 159/216/105 153/212/105
f 139/21/115 150/20/115 162/234/115 151/219/115
f 144/7/116 143/223/116 155/235/116 156/236/116
f 146/214/117 149/208/117 161/232/117 158/215/117
f 143/223/116 140/218/116 152/220/116 155/235/116
f 150/20/115 145/8/115 157/237/115 162/234/115
f 145/8/118 144/7/118 156/236/118 157/237/118
f 149/208/117 148/207/117 160/217/117 161/232/117
f 165/238/94 171/227/94 201/239/94 197/240/94
f 166/228/94 165/238/94 197/240/94 198/241/94
f 154/213/94 153/212/94 165/238/94 166/228/94
f 153/212/94 159/216/94 171/227/94 165/238/94
f 151/219/119 162/234/119 174/242/119 163/230/119
f 156/236/120 155/235/120 167/243/120 168/244/120
f 158/215/93 161/232/93 173/233/93 170/226/93
f 155/235/120 152/220/120 164/231/120 167/243/120
f 162/234/119 157/237/119 169/245/119 174/242/119
f 157/237/118 156/236/118 168/244/118 169/245/118
f 1/246/121 59/129/121 175/247/121
f 59/129/122 64/128/122 175/247/122
f 64/128/123 3/145/123 175/247/123
f 3/145/124 85/32/124 175/247/124
f 85/32/125 8/22/125 175/247/125
f 8/22/82 81/24/82 175/247/82
f 81/24/82 129/210/82 175/247/82
f 129/210/82 1/246/82 175/247/82
f 76/139/126 69/138/126 176/144/126
f 69/138/126 5/248/126 176/144/126
f 5/248/84 132/198/84 176/144/84
f 132/198/84 88/152/84 176/144/84
f 88/152/84 4/11/84 176/144/84
f 4/11/127 86/10/127 176/144/127
f 86/10/128 7/143/128 176/144/128
f 3/145/129 64/128/129 177/249/129
f 64/128/130 66/126/130 177/249/130
f 79/250/131 177/251/131 186/252/131 185/253/131
f 177/251/132 66/254/132 181/255/132 186/252/132
f 77/256/133 78/257/133 184/258/133 182/259/133
f 66/254/134 67/260/134 180/261/134 181/255/134
f 68/262/135 65/263/135 178/264/135 179/265/135
f 65/263/136 75/266/136 183/267/136 178/264/136
f 78/257/137 79/250/137 185/253/137 184/258/137
f 79/137/138 76/139/138 177/249/138
f 76/139/139 7/143/139 177/249/139
f 7/143/140 92/154/140 177/249/140
f 92/154/141 6/149/141 177/249/141
f 6/149/141 83/146/141 177/249/141
f 83/146/142 3/145/142 177/249/142
f 184/268/143 185/269/143 194/270/143 193/271/143
f 180/272/144 179/273/144 188/274/144 189/275/144
f 182/276/145 184/268/145 193/271/145 191/277/145
f 185/269/146 186/278/146 195/279/146 194/270/146
f 186/278/147 181/280/147 190/281/147 195/279/147
f 179/273/148 178/282/148 187/283/148 188/274/148
f 183/284/149 182/276/149 191/277/149 192/285/149
f 75/266/150 77/256/150 182/259/150 183/267/150
f 67/260/151 68/262/151 179/265/151 180/261/151
f 190/281/152 189/275/152 195/279/152
f 189/275/153 188/274/153 195/279/153
f 188/274/154 187/283/154 195/279/154
f 187/283/155 192/285/155 195/279/155
f 192/285/156 191/277/156 195/279/156
f 191/277/157 193/271/157 195/279/157
f 193/271/158 194/270/158 195/279/158
f 181/280/159 180/272/159 189/275/159 190/281/159
f 178/282/160 183/284/160 192/285/160 187/283/160
f 168/244/120 167/243/120 199/286/120 200/287/120
f 167/243/120 164/231/120 196/288/120 199/286/120
f 223/289/161 213/290/161 216/291/161 226/292/161
f 226/292/162 216/291/162 215/293/162 225/294/162
f 225/294/163 215/293/163 214/295/163 224/296/163
f 224/296/164 214/295/164 212/297/164 222/298/164
f 217/299/161 223/289/161 226/292/161 219/300/161
f 219/300/162 226/292/162 225/294/162 220/301/162
f 220/301/163 225/294/163 224/296/163 221/302/163
f 221/302/164 224/296/164 222/298/164 218/303/164
f 228/304/165 203/305/165 206/306/165 231/307/165
f 231/307/166 206/306/166 205/308/166 230/309/166
f 230/309/167 205/308/167 204/310/167 229/311/167
f 229/311/168 204/310/168 202/312/168 227/313/168
f 207/314/165 228/304/165 231/307/165 209/315/165
f 209/315/166 231/307/166 230/309/166 210/316/166
f 210/316/167 230/309/167 229/311/167 211/317/167
f 211/317/168 229/311/168 227/313/168 208/318/168
f 164/231/106 163/230/106 202/312/106 204/310/106 205/308/106 206/306/106 203/305/106 196/288/106
f 201/239/169 213/290/169 239/319/169 236/320/169
f 163/230/119 174/242/119 227/313/119 202/312/119
f 169/245/118 168/244/118 200/287/118 207/314/118 209/315/118 210/316/118 211/317/118 208/318/118
f 199/286/170 196/288/170 237/321/170 234/322/170
f 174/242/119 169/245/119 208/318/119 227/313/119
f 170/226/93 173/233/93 222/298/93 212/297/93
f 171/227/82 170/226/82 212/297/82 214/295/82 215/293/82 216/291/82 213/290/82 201/239/82
f 196/288/171 203/305/171 242/323/171 237/321/171
f 172/229/84 166/228/84 198/241/84 217/299/84 219/300/84 220/301/84 221/302/84 218/303/84
f 217/299/172 198/241/172 233/324/172 240/325/172
f 173/233/93 172/229/93 218/303/93 222/298/93
f 242/323/173 241/326/173 234/322/173 237/321/173
f 241/326/174 243/327/174 235/328/174 234/322/174
f 239/319/1 238/329/1 232/330/1 236/320/1
f 238/329/1 240/325/1 233/324/1 232/330/1
f 213/290/175 223/289/175 238/329/175 239/319/175
f 198/241/176 197/240/176 232/330/176 233/324/176
f 207/314/177 200/287/177 235/328/177 243/327/177
f 228/304/178 207/314/178 243/327/178 241/326/178
f 200/287/170 199/286/170 234/322/170 235/328/170
f 203/305/178 228/304/178 241/326/178 242/323/178
f 197/240/176 201/239/176 236/320/176 232/330/176
f 223/289/175 217/299/175 240/325/175 238/329/175
f 60/331/179 59/332/179 244/333/179
f 59/334/180 1/335/180 244/336/180
f 1/335/181 9/337/181 244/336/181
f 9/338/182 10/339/182 244/340/182
f 10/339/183 60/341/183 244/340/183
f 69/342/184 71/343/184 245/344/184
f 71/345/185 11/346/185 245/347/185
f 11/346/186 12/348/186 245/347/186
f 12/349/187 5/140/187 245/142/187
f 267/350/188 246/351/188 248/352/188 270/353/188
f 270/353/189 248/352/189 249/354/189 269/355/189
f 269/355/190 249/354/190 250/356/190 268/357/190
f 268/357/191 250/356/191 247/358/191 266/359/191
f 257/360/192 251/361/192 253/362/192 260/363/192
f 260/363/193 253/362/193 254/364/193 259/365/193
f 259/365/194 254/364/194 255/366/194 258/367/194
f 258/367/195 255/366/195 252/368/195 256/369/195
f 251/370/196 247/370/196 250/370/196 253/370/196
f 253/370/197 250/370/197 249/370/197 254/370/197
f 254/370/198 249/370/198 248/97/198 255/97/198
f 255/97/199 248/97/199 246/97/199 252/97/199
f 262/371/200 267/350/200 270/353/200 265/372/200
f 265/372/201 270/353/201 269/355/201 264/373/201
f 264/373/202 269/355/202 268/357/202 263/374/202
f 263/374/203 268/357/203 266/359/203 261/375/203
f 261/375/204 257/360/204 260/363/204 263/374/204
f 263/374/205 260/363/205 259/365/205 264/373/205
f 264/373/206 259/365/206 258/367/206 265/372/206
f 265/372/207 258/367/207 256/369/207 262/371/207
f 46/97/208 44/97/208 247/370/208 251/370/208
f 44/106/209 36/103/209 266/359/209 247/358/209
f 53/97/210 55/97/210 252/97/210 246/97/210
f 52/376/211 53/377/211 246/351/211 267/350/211
f 45/99/212 46/98/212 251/361/212 257/360/212
f 55/378/213 54/379/213 256/369/213 252/368/213
f 47/102/214 45/99/214 257/360/214 261/375/214
f 54/379/215 56/380/215 262/371/215 256/369/215
f 56/380/216 52/376/216 267/350/216 262/371/216
f 36/103/217 47/102/217 261/375/217 266/359/217
f 272/381/218 276/382/218 278/383/218 275/384/218
f 275/384/219 278/383/219 279/385/219 274/386/219
f 274/386/220 279/385/220 280/387/220 273/388/220
f 273/388/221 280/387/221 277/389/221 271/390/221
f 282/391/222 286/392/222 288/393/222 285/394/222
f 285/394/223 288/393/223 289/395/223 284/396/223
f 284/396/224 289/395/224 290/397/224 283/398/224
f 283/398/225 290/397/225 287/399/225 281/400/225
f 286/392/226 277/389/226 280/387/226 288/393/226
f 288/393/227 280/387/227 279/385/227 289/395/227
f 289/97/228 279/97/228 278/97/228 290/97/228
f 290/97/229 278/97/229 276/97/229 287/97/229
f 292/401/230 272/381/230 275/384/230 295/402/230
f 295/402/231 275/384/231 274/386/231 294/403/231
f 294/403/232 274/386/232 273/388/232 293/404/232
f 293/404/233 273/388/233 271/390/233 291/405/233
f 291/405/234 282/391/234 285/394/234 293/404/234
f 293/404/235 285/394/235 284/396/235 294/403/235
f 294/403/236 284/396/236 283/398/236 295/402/236
f 295/402/237 283/398/237 281/400/237 292/401/237
f 43/104/238 48/107/238 276/382/238 272/381/238
f 271/390/239 277/389/239 57/406/239
f 51/105/240 43/104/240 272/381/240 292/401/240
f 291/405/241 271/390/241 57/406/241
f 48/97/242 50/97/242 287/97/242 276/97/242
f 277/389/243 286/392/243 57/406/243
f 50/101/244 49/100/244 281/400/244 287/399/244
f 282/391/245 291/405/245 57/406/245
f 286/392/246 282/391/246 57/406/246
f 49/100/247 51/105/247 292/401/247 281/400/247
f 299/407/84 298/408/84 306/409/84 307/410/84
f 301/187/248 299/407/248 307/410/248 309/411/248
f 125/412/82 122/413/82 297/414/82 300/415/82
f 122/413/249 121/181/249 296/184/249 297/414/249
f 123/416/250 128/185/250 303/188/250 298/408/250
f 127/182/250 125/412/250 300/415/250 302/183/250
f 126/186/249 124/417/249 299/407/249 301/187/249
f 124/417/84 123/416/84 298/408/84 299/407/84
f 305/418/251 304/419/251 310/420/251 308/421/251
f 309/411/251 307/410/251 306/409/251 311/422/251
f 303/188/82 301/187/82 309/411/82 311/422/82
f 296/184/84 302/183/84 310/420/84 304/419/84
f 300/415/82 297/414/82 305/418/82 308/421/82
f 297/414/248 296/184/248 304/419/248 305/418/248
f 298/408/252 303/188/252 311/422/252 306/409/252
f 302/183/252 300/415/252 308/421/252 310/420/252
f 313/93/41 314/96/41 37/95/41
f 313/93/41 312/92/41 314/96/41
f 312/92/41 16/94/41 314/96/41
f 17/423/253 23/424/253 20/425/253
f 20/425/254 312/426/254 17/423/254
f 16/427/254 312/426/254 20/425/254
f 312/426/254 13/428/254 17/423/254
f 14/429/255 13/428/255 312/426/255
f 16/427/255 15/430/255 312/426/255
f 18/67/256 21/68/256 315/69/256
f 15/430/255 14/429/255 312/426/255
f 21/68/257 27/431/257 315/69/257
f 27/431/258 18/67/258 315/69/258
f 19/68/259 28/431/259 316/69/259
f 28/431/260 22/67/260 316/69/260
f 22/432/261 21/433/261 317/434/261
f 21/433/262 315/435/262 317/434/262
f 315/435/263 27/436/263 317/434/263
f 27/436/264 25/437/264 317/434/264
f 25/437/265 28/438/265 317/434/265
f 28/438/266 316/439/266 317/434/266
f 316/439/267 22/432/267 317/434/267
f 71/440/268 70/441/268 318/442/268
f 70/441/268 58/443/268 318/442/268
f 58/443/268 60/444/268 318/442/268
f 60/445/268 10/446/268 318/447/268
f 10/446/268 11/448/268 318/447/268
f 11/448/268 71/449/268 318/447/268
