# Blender 4.5.3 LTS
# www.blender.org
mtllib powerup.mtl
o Icosphere
v 0.000000 0.000000 20.202738
v -7.210966 5.239012 14.694113
v 2.754291 8.476977 14.694116
v 8.913229 0.000000 14.694074
v 2.754291 -8.476977 14.694116
v -7.210966 -5.239012 14.694113
v -2.754291 8.476977 5.780753
v 7.210966 5.239012 5.780756
v 7.210966 -5.239012 5.780756
v -2.754291 -8.476977 5.780753
v -8.913229 0.000000 5.780795
v 0.000000 0.000000 0.272131
v 1.618919 4.982605 18.714464
v -4.238470 3.079392 18.714462
v -2.619568 8.062046 15.476570
v -8.476964 0.000000 15.476553
v -4.238470 -3.079392 18.714462
v 5.239057 0.000000 18.714436
v 6.858016 4.982621 15.476555
v 1.618919 -4.982605 18.714464
v 6.858016 -4.982621 15.476555
v -2.619568 -8.062046 15.476570
v -9.477580 3.079405 10.237434
v -9.477580 -3.079405 10.237434
v 0.000000 9.965302 10.237434
v -5.857462 8.062097 10.237434
v 9.477580 3.079405 10.237434
v 5.857462 8.062097 10.237434
v 5.857462 -8.062097 10.237434
v 9.477580 -3.079405 10.237434
v -5.857462 -8.062097 10.237434
v 0.000000 -9.965302 10.237434
v -6.858016 4.982621 4.998313
v 2.619568 8.062046 4.998299
v 8.476964 0.000000 4.998316
v 2.619568 -8.062046 4.998299
v -6.858016 -4.982621 4.998313
v -1.618919 4.982605 1.760406
v -5.239057 0.000000 1.760432
v 4.238470 3.079392 1.760407
v 4.238470 -3.079392 1.760407
v -1.618919 -4.982605 1.760406
vn -0.1024 0.3151 0.9435
vn -0.7002 0.2680 0.6617
vn 0.2680 0.1947 0.9435
vn 0.2680 -0.1947 0.9435
vn -0.1024 -0.3151 0.9435
vn -0.9050 0.2680 0.3304
vn -0.0247 0.9435 0.3304
vn 0.8897 0.3151 0.3304
vn 0.5746 -0.7488 0.3304
vn -0.5346 -0.7779 0.3304
vn -0.8026 0.5831 0.1256
vn 0.3066 0.9435 0.1256
vn 0.9921 -0.0000 0.1256
vn 0.3066 -0.9435 0.1256
vn -0.8026 -0.5831 0.1256
vn -0.4089 0.6284 -0.6617
vn 0.4713 0.5831 -0.6617
vn 0.7002 -0.2680 -0.6617
vn -0.0385 -0.7488 -0.6617
vn -0.7240 -0.1947 -0.6617
vn -0.2680 -0.1947 -0.9435
vn -0.4911 -0.3568 -0.7947
vn -0.4089 -0.6284 -0.6617
vn 0.1024 -0.3151 -0.9435
vn 0.1876 -0.5773 -0.7947
vn 0.4713 -0.5831 -0.6617
vn 0.3313 -0.0000 -0.9435
vn 0.6071 -0.0000 -0.7947
vn 0.7002 0.2680 -0.6617
vn 0.1024 0.3151 -0.9435
vn 0.1876 0.5773 -0.7947
vn -0.0385 0.7488 -0.6617
vn -0.2680 0.1947 -0.9435
vn -0.4911 0.3568 -0.7947
vn -0.7240 0.1947 -0.6617
vn -0.8897 -0.3151 -0.3304
vn -0.7947 -0.5773 -0.1876
vn -0.5746 -0.7488 -0.3304
vn 0.0247 -0.9435 -0.3304
vn 0.3035 -0.9342 -0.1876
vn 0.5346 -0.7779 -0.3304
vn 0.9050 -0.2680 -0.3304
vn 0.9822 -0.0000 -0.1876
vn 0.9050 0.2680 -0.3304
vn 0.5346 0.7779 -0.3304
vn 0.3035 0.9342 -0.1876
vn 0.0247 0.9435 -0.3304
vn -0.5746 0.7488 -0.3304
vn -0.7947 0.5773 -0.1876
vn -0.8897 0.3151 -0.3304
vn -0.3066 -0.9435 -0.1256
vn -0.3035 -0.9342 0.1876
vn -0.0247 -0.9435 0.3304
vn 0.8026 -0.5831 -0.1256
vn 0.7947 -0.5773 0.1876
vn 0.8897 -0.3151 0.3304
vn 0.8026 0.5831 -0.1256
vn 0.7947 0.5773 0.1876
vn 0.5746 0.7488 0.3304
vn -0.3066 0.9435 -0.1256
vn -0.3035 0.9342 0.1876
vn -0.5346 0.7779 0.3304
vn -0.9921 -0.0000 -0.1256
vn -0.9822 -0.0000 0.1876
vn -0.9050 -0.2680 0.3304
vn -0.4713 -0.5831 0.6617
vn -0.1876 -0.5773 0.7947
vn 0.0385 -0.7488 0.6617
vn 0.4089 -0.6284 0.6617
vn 0.4911 -0.3568 0.7947
vn 0.7240 -0.1947 0.6617
vn 0.7240 0.1947 0.6617
vn 0.4911 0.3568 0.7947
vn 0.4089 0.6284 0.6617
vn -0.7002 -0.2680 0.6617
vn -0.6071 -0.0000 0.7947
vn -0.3313 -0.0000 0.9435
vn 0.0385 0.7488 0.6617
vn -0.1876 0.5773 0.7947
vn -0.4713 0.5831 0.6617
vt 0.113455 0.185899
vt 0.120127 0.197455
vt 0.106783 0.197455
vt 0.126798 0.209010
vt 0.133470 0.197455
vt 0.140142 0.209010
vt 0.220201 0.185899
vt 0.226872 0.197455
vt 0.213529 0.197455
vt 0.193514 0.185899
vt 0.200186 0.197455
vt 0.186843 0.197455
vt 0.166828 0.185899
vt 0.173500 0.197455
vt 0.160156 0.197455
vt 0.133470 0.220566
vt 0.100112 0.209010
vt 0.113455 0.209010
vt 0.106783 0.220566
vt 0.206858 0.209010
vt 0.220201 0.209010
vt 0.213529 0.220566
vt 0.180171 0.209010
vt 0.193514 0.209010
vt 0.186843 0.220566
vt 0.153485 0.209010
vt 0.166828 0.209010
vt 0.160156 0.220566
vt 0.120127 0.220566
vt 0.093440 0.220566
vt 0.200186 0.220566
vt 0.173500 0.220566
vt 0.146813 0.220566
vt 0.113455 0.232122
vt 0.126798 0.232122
vt 0.120127 0.243677
vt 0.086768 0.232122
vt 0.100112 0.232122
vt 0.093440 0.243677
vt 0.193514 0.232122
vt 0.206858 0.232122
vt 0.200186 0.243677
vt 0.166828 0.232122
vt 0.180171 0.232122
vt 0.173500 0.243677
vt 0.140142 0.232122
vt 0.153485 0.232122
vt 0.146813 0.243677
vt 0.160156 0.243677
vt 0.153485 0.255233
vt 0.186843 0.243677
vt 0.180171 0.255233
vt 0.213529 0.243677
vt 0.206858 0.255233
vt 0.220201 0.232122
vt 0.106783 0.243677
vt 0.100112 0.255233
vt 0.133470 0.243677
vt 0.126798 0.255233
vt 0.226872 0.220566
vt 0.233544 0.209010
vt 0.146813 0.197455
vt 0.140142 0.185899
s 0
f 1/1/1 13/3/1 14/2/1
f 2/4/2 16/6/2 14/5/2
f 1/7/3 18/9/3 13/8/3
f 1/10/4 20/12/4 18/11/4
f 1/13/5 17/15/5 20/14/5
f 2/4/6 23/16/6 16/6/6
f 3/17/7 25/19/7 15/18/7
f 4/20/8 27/22/8 19/21/8
f 5/23/9 29/25/9 21/24/9
f 6/26/10 31/28/10 22/27/10
f 2/4/11 26/29/11 23/16/11
f 3/17/12 28/30/12 25/19/12
f 4/20/13 30/31/13 27/22/13
f 5/23/14 32/32/14 29/25/14
f 6/26/15 24/33/15 31/28/15
f 7/34/16 38/36/16 33/35/16
f 8/37/17 40/39/17 34/38/17
f 9/40/18 41/42/18 35/41/18
f 10/43/19 42/45/19 36/44/19
f 11/46/20 39/48/20 37/47/20
f 39/48/21 12/50/21 42/49/21
f 39/48/22 42/49/22 37/47/22
f 37/47/23 42/49/23 10/43/23
f 42/45/24 12/52/24 41/51/24
f 42/45/25 41/51/25 36/44/25
f 36/44/26 41/51/26 9/40/26
f 41/42/27 12/54/27 40/53/27
f 41/42/28 40/53/28 35/41/28
f 35/41/29 40/53/29 8/55/29
f 40/39/30 12/57/30 38/56/30
f 40/39/31 38/56/31 34/38/31
f 34/38/32 38/56/32 7/34/32
f 38/36/33 12/59/33 39/58/33
f 38/36/34 39/58/34 33/35/34
f 33/35/35 39/58/35 11/46/35
f 24/33/36 11/46/36 37/47/36
f 24/33/37 37/47/37 31/28/37
f 31/28/38 37/47/38 10/43/38
f 32/32/39 10/43/39 36/44/39
f 32/32/40 36/44/40 29/25/40
f 29/25/41 36/44/41 9/40/41
f 30/31/42 9/40/42 35/41/42
f 30/31/43 35/41/43 27/22/43
f 27/22/44 35/41/44 8/55/44
f 28/30/45 8/37/45 34/38/45
f 28/30/46 34/38/46 25/19/46
f 25/19/47 34/38/47 7/34/47
f 26/29/48 7/34/48 33/35/48
f 26/29/49 33/35/49 23/16/49
f 23/16/50 33/35/50 11/46/50
f 31/28/51 10/43/51 32/32/51
f 31/28/52 32/32/52 22/27/52
f 22/27/53 32/32/53 5/23/53
f 29/25/54 9/40/54 30/31/54
f 29/25/55 30/31/55 21/24/55
f 21/24/56 30/31/56 4/20/56
f 27/22/57 8/55/57 28/60/57
f 27/22/58 28/60/58 19/21/58
f 19/21/59 28/60/59 3/61/59
f 25/19/60 7/34/60 26/29/60
f 25/19/61 26/29/61 15/18/61
f 15/18/62 26/29/62 2/4/62
f 23/16/63 11/46/63 24/33/63
f 23/16/64 24/33/64 16/6/64
f 16/6/65 24/33/65 6/26/65
f 17/15/66 6/26/66 22/27/66
f 17/15/67 22/27/67 20/14/67
f 20/14/68 22/27/68 5/23/68
f 20/12/69 5/23/69 21/24/69
f 20/12/70 21/24/70 18/11/70
f 18/11/71 21/24/71 4/20/71
f 18/9/72 4/20/72 19/21/72
f 18/9/73 19/21/73 13/8/73
f 13/8/74 19/21/74 3/61/74
f 16/6/75 6/26/75 17/62/75
f 16/6/76 17/62/76 14/5/76
f 14/5/77 17/62/77 1/63/77
f 13/3/78 3/17/78 15/18/78
f 13/3/79 15/18/79 14/2/79
f 14/2/80 15/18/80 2/4/80
